<?xml version="1.0" encoding="utf-8"?>
<!-- Generator: Adobe Illustrator 16.0.0, SVG Export Plug-In . SVG Version: 6.00 Build 0)  -->
<!DOCTYPE svg PUBLIC "-//W3C//DTD SVG 1.1//EN" "http://www.w3.org/Graphics/SVG/1.1/DTD/svg11.dtd">
<svg version="1.1" xmlns="http://www.w3.org/2000/svg" xmlns:xlink="http://www.w3.org/1999/xlink" x="0px" y="0px"
	 width="270.87px" height="27.05px" viewBox="0 0 270.87 27.05" style="enable-background:new 0 0 270.87 27.05;"
	 xml:space="preserve">
<style type="text/css">
<![CDATA[
	.st0{clip-path:url(#SVGID_16_);fill:#CD5F29;}
	.st1{clip-path:url(#SVGID_16_);fill:#CD802B;}
	.st2{clip-path:url(#SVGID_32_);fill:#E2925D;}
	.st3{clip-path:url(#SVGID_10_);fill:#E38C69;}
	.st4{clip-path:url(#SVGID_10_);fill:#E3BD70;}
	.st5{clip-path:url(#SVGID_10_);fill:#E3BD71;}
	.st6{clip-path:url(#SVGID_20_);fill-rule:evenodd;clip-rule:evenodd;fill:#73A654;}
	.st7{clip-path:url(#SVGID_50_);fill:#F1C8A2;}
	.st8{clip-path:url(#SVGID_54_);fill:#E2925D;}
	.st9{clip-path:url(#SVGID_118_);fill:#5FAFBF;}
	.st10{clip-path:url(#SVGID_10_);fill:#E48C6A;}
	.st11{fill:#AB2218;}
	.st12{clip-path:url(#SVGID_32_);fill:#E49966;}
	.st13{clip-path:url(#SVGID_10_);fill:#E5BE72;}
	.st14{clip-path:url(#SVGID_20_);fill-rule:evenodd;clip-rule:evenodd;fill:#75A955;}
	.st15{clip-path:url(#SVGID_20_);fill-rule:evenodd;clip-rule:evenodd;fill:#75AA55;}
	.st16{clip-path:url(#SVGID_20_);fill-rule:evenodd;clip-rule:evenodd;fill:#75AB55;}
	.st17{clip-path:url(#SVGID_82_);fill:#5FAFBF;}
	.st18{fill-rule:evenodd;clip-rule:evenodd;fill:#D7D6A3;}
	.st19{fill-rule:evenodd;clip-rule:evenodd;fill:#D7DBAE;}
	.st20{clip-path:url(#SVGID_54_);fill:#E49966;}
	.st21{fill:#AC2325;}
	.st22{fill-rule:evenodd;clip-rule:evenodd;fill:#D8711C;}
	.st23{clip-path:url(#SVGID_10_);fill:#E6EDD7;}
	.st24{clip-path:url(#SVGID_20_);fill-rule:evenodd;clip-rule:evenodd;fill:#76AB55;}
	.st25{clip-path:url(#SVGID_20_);fill-rule:evenodd;clip-rule:evenodd;fill:#76AD56;}
	.st26{fill-rule:evenodd;clip-rule:evenodd;fill:#D8E8C4;}
	.st27{clip-path:url(#SVGID_134_);fill:#DA7427;}
	.st28{clip-path:url(#SVGID_32_);fill:#E69F6C;}
	.st29{clip-path:url(#SVGID_30_);fill:#EFC197;}
	.st30{clip-path:url(#SVGID_30_);fill:#EFC39B;}
	.st31{fill-rule:evenodd;clip-rule:evenodd;fill:#D9A731;}
	.st32{clip-path:url(#SVGID_54_);fill:#E69F6C;}
	.st33{clip-path:url(#SVGID_50_);fill:#F5DBC1;}
	.st34{clip-path:url(#SVGID_52_);fill:#EFC197;}
	.st35{clip-path:url(#SVGID_52_);fill:#EFC39B;}
	.st36{clip-path:url(#SVGID_44_);fill:#7F5426;}
	.st37{clip-path:url(#SVGID_44_);fill:#7F5726;}
	.st38{clip-path:url(#SVGID_36_);fill-rule:evenodd;clip-rule:evenodd;fill:#AA2524;}
	.st39{clip-path:url(#SVGID_10_);fill:#E9F1DB;}
	.st40{clip-path:url(#SVGID_44_);fill:#E0A04D;}
	.st41{clip-path:url(#SVGID_62_);fill:#8F5A21;}
	.st42{clip-path:url(#SVGID_38_);fill-rule:evenodd;clip-rule:evenodd;fill:#005C31;}
	.st43{clip-path:url(#SVGID_108_);fill:#5FAFBF;}
	.st44{clip-path:url(#SVGID_8_);fill-rule:evenodd;clip-rule:evenodd;fill:#ECF2DF;}
	.st45{clip-path:url(#SVGID_40_);fill-rule:evenodd;clip-rule:evenodd;fill:#D45128;}
	.st46{clip-path:url(#SVGID_44_);fill:#E3AB5B;}
	.st47{clip-path:url(#SVGID_72_);fill:#5FAFBF;}
	.st48{fill-rule:evenodd;clip-rule:evenodd;fill:#0A341D;}
	.st49{clip-path:url(#SVGID_24_);fill-rule:evenodd;clip-rule:evenodd;fill:#F6DCCC;}
	.st50{clip-path:url(#SVGID_94_);fill:#5FAFBF;}
	.st51{fill-rule:evenodd;clip-rule:evenodd;fill:#0B371F;}
	.st52{fill-rule:evenodd;clip-rule:evenodd;fill:#0B7D46;}
	.st53{clip-path:url(#SVGID_354_);fill:none;stroke:#FFFFFF;stroke-width:1.25;stroke-miterlimit:10;}
	.st54{fill-rule:evenodd;clip-rule:evenodd;fill:#DAA120;}
	.st55{fill-rule:evenodd;clip-rule:evenodd;fill:#DAA52B;}
	.st56{fill-rule:evenodd;clip-rule:evenodd;fill:#DAA62E;}
	.st57{fill-rule:evenodd;clip-rule:evenodd;fill:#DAAB3B;}
	.st58{fill-rule:evenodd;clip-rule:evenodd;fill:#DAAB3C;}
	.st59{fill-rule:evenodd;clip-rule:evenodd;fill:#DAAC3E;}
	.st60{fill-rule:evenodd;clip-rule:evenodd;fill:#DAAD42;}
	.st61{fill-rule:evenodd;clip-rule:evenodd;fill:#DAB251;}
	.st62{fill-rule:evenodd;clip-rule:evenodd;fill:#DAB85E;}
	.st63{fill-rule:evenodd;clip-rule:evenodd;fill:#DABC68;}
	.st64{fill-rule:evenodd;clip-rule:evenodd;fill:#0C3920;}
	.st65{fill-rule:evenodd;clip-rule:evenodd;fill:#0C3D23;}
	.st66{fill-rule:evenodd;clip-rule:evenodd;fill:#DBC276;}
	.st67{fill-rule:evenodd;clip-rule:evenodd;fill:#0D4125;}
	.st68{fill-rule:evenodd;clip-rule:evenodd;fill:#0D4226;}
	.st69{fill-rule:evenodd;clip-rule:evenodd;fill:#0D7C46;}
	.st70{clip-path:url(#SVGID_24_);fill-rule:evenodd;clip-rule:evenodd;fill:#F9FBF7;}
	.st71{clip-path:url(#SVGID_40_);fill-rule:evenodd;clip-rule:evenodd;fill:#D97327;}
	.st72{clip-path:url(#SVGID_20_);fill-rule:evenodd;clip-rule:evenodd;fill:#478847;}
	.st73{clip-path:url(#SVGID_32_);fill:#EAB483;}
	.st74{clip-path:url(#SVGID_134_);fill:#AB2524;}
	.st75{clip-path:url(#SVGID_44_);fill:#E9BB76;}
	.st76{clip-path:url(#SVGID_44_);fill:#E9BE7A;}
	.st77{fill-rule:evenodd;clip-rule:evenodd;fill:#0F7A45;}
	.st78{clip-path:url(#SVGID_54_);fill:#EAB483;}
	.st79{clip-path:url(#SVGID_44_);fill:#807442;}
	.st80{clip-path:url(#SVGID_12_);fill-rule:evenodd;clip-rule:evenodd;fill:#D87327;}
	.st81{clip-path:url(#SVGID_16_);fill:#D4AD7B;}
	.st82{clip-path:url(#SVGID_44_);fill:#818C3C;}
	.st83{clip-path:url(#SVGID_12_);fill-rule:evenodd;clip-rule:evenodd;fill:#D9A128;}
	.st84{clip-path:url(#SVGID_30_);fill:#F3CEAB;}
	.st85{clip-path:url(#SVGID_354_);fill:none;stroke:#000000;stroke-width:0.25;stroke-miterlimit:10;}
	.st86{clip-path:url(#SVGID_10_);fill:#EEF4E4;}
	.st87{clip-path:url(#SVGID_84_);fill:#5FAFBF;}
	.st88{clip-path:url(#SVGID_52_);fill:#F3CEAB;}
	.st89{clip-path:url(#SVGID_44_);fill:#B3B986;}
	.st90{clip-path:url(#SVGID_20_);fill-rule:evenodd;clip-rule:evenodd;fill:#136335;}
	.st91{clip-path:url(#SVGID_352_);fill:none;stroke:#FFFFFF;stroke-width:3.061;}
	.st92{clip-path:url(#SVGID_8_);fill-rule:evenodd;clip-rule:evenodd;fill:#213D2F;}
	.st93{clip-path:url(#SVGID_44_);fill:#868945;}
	.st94{clip-path:url(#SVGID_44_);fill:#EACC8B;}
	.st95{clip-path:url(#SVGID_38_);fill-rule:evenodd;clip-rule:evenodd;fill:#0A7D46;}
	.st96{clip-path:url(#SVGID_44_);fill:#EBCC8F;}
	.st97{clip-path:url(#SVGID_74_);fill:#5FAFBF;}
	.st98{clip-path:url(#SVGID_134_);fill:#4C8A4E;}
	.st99{fill-rule:evenodd;clip-rule:evenodd;fill:#107945;}
	.st100{clip-path:url(#SVGID_62_);fill:#C8AA77;}
	.st101{clip-path:url(#SVGID_96_);fill:#5FAFBF;}
	.st102{clip-path:url(#SVGID_60_);fill-rule:evenodd;clip-rule:evenodd;fill:#D45128;}
	.st103{clip-path:url(#SVGID_8_);fill-rule:evenodd;clip-rule:evenodd;fill:#F5F9ED;}
	.st104{clip-path:url(#SVGID_8_);fill-rule:evenodd;clip-rule:evenodd;fill:#F6F9EE;}
	.st105{clip-path:url(#SVGID_20_);fill-rule:evenodd;clip-rule:evenodd;fill:#4F8E4A;}
	.st106{clip-path:url(#SVGID_18_);fill:#D1A15A;}
	.st107{clip-path:url(#SVGID_130_);fill:#5FAFBF;}
	.st108{clip-path:url(#SVGID_58_);fill-rule:evenodd;clip-rule:evenodd;fill:#D45128;}
	.st109{clip-path:url(#SVGID_12_);fill-rule:evenodd;clip-rule:evenodd;fill:#DFEDD5;}
	.st110{fill:#54A4B4;}
	.st111{clip-path:url(#SVGID_348_);fill:#FFFFFF;}
	.st112{clip-path:url(#SVGID_60_);fill-rule:evenodd;clip-rule:evenodd;fill:#D97327;}
	.st113{clip-path:url(#SVGID_28_);fill:#A2663E;}
	.st114{clip-path:url(#SVGID_86_);fill:#5FAFBF;}
	.st115{clip-path:url(#SVGID_10_);fill:#F5F9EE;}
	.st116{clip-path:url(#SVGID_10_);fill:#5B7959;}
	.st117{clip-path:url(#SVGID_58_);fill-rule:evenodd;clip-rule:evenodd;fill:#D97327;}
	.st118{clip-path:url(#SVGID_10_);fill:#F6F9EE;}
	.st119{clip-path:url(#SVGID_10_);fill:#F6F9F0;}
	.st120{clip-path:url(#SVGID_10_);fill:#F6F9F1;}
	.st121{clip-path:url(#SVGID_26_);fill:#AE9A80;}
	.st122{clip-path:url(#SVGID_18_);fill:#D89A56;}
	.st123{clip-path:url(#SVGID_10_);fill:#5C7959;}
	.st124{clip-path:url(#SVGID_10_);fill:#5C795A;}
	.st125{clip-path:url(#SVGID_18_);fill:#D8B65D;}
	.st126{clip-path:url(#SVGID_48_);fill:#AE9A80;}
	.st127{clip-path:url(#SVGID_20_);fill-rule:evenodd;clip-rule:evenodd;fill:#1C6938;}
	.st128{clip-path:url(#SVGID_56_);fill-rule:evenodd;clip-rule:evenodd;fill:#E8C886;}
	.st129{clip-path:url(#SVGID_120_);fill:#5FAFBF;}
	.st130{clip-path:url(#SVGID_44_);fill:#8F5A21;}
	.st131{clip-path:url(#SVGID_42_);fill-rule:evenodd;clip-rule:evenodd;fill:#D45128;}
	.st132{clip-path:url(#SVGID_76_);fill:#5FAFBF;}
	.st133{clip-path:url(#SVGID_20_);fill-rule:evenodd;clip-rule:evenodd;fill:#52904B;}
	.st134{clip-path:url(#SVGID_98_);fill:#5FAFBF;}
	.st135{clip-path:url(#SVGID_18_);fill:#A5D1C4;}
	.st136{clip-path:url(#SVGID_42_);fill-rule:evenodd;clip-rule:evenodd;fill:#D97327;}
	.st137{clip-path:url(#SVGID_40_);fill-rule:evenodd;clip-rule:evenodd;fill:#E7AC76;}
	.st138{clip-path:url(#SVGID_110_);fill:#5FAFBF;}
	.st139{clip-path:url(#SVGID_56_);fill-rule:evenodd;clip-rule:evenodd;fill:#EBCA88;}
	.st140{clip-path:url(#SVGID_20_);fill-rule:evenodd;clip-rule:evenodd;fill:#57934C;}
	.st141{clip-path:url(#SVGID_18_);fill:#DCE3C1;}
	.st142{clip-path:url(#SVGID_36_);fill-rule:evenodd;clip-rule:evenodd;fill:#F4E2D9;}
	.st143{clip-path:url(#SVGID_62_);fill:#6D7F35;}
	.st144{fill:#5FAFBF;}
	.st145{clip-path:url(#SVGID_66_);fill:#5FAFBF;}
	.st146{clip-path:url(#SVGID_88_);fill:#5FAFBF;}
	.st147{clip-path:url(#SVGID_36_);fill-rule:evenodd;clip-rule:evenodd;fill:#5D9B75;}
	.st148{clip-path:url(#SVGID_28_);fill:#7E7760;}
	.st149{clip-path:url(#SVGID_62_);fill:#D28E2A;}
	.st150{clip-path:url(#SVGID_100_);fill:#5FAFBF;}
	.st151{clip-path:url(#SVGID_28_);fill:#E08D4D;}
	.st152{clip-path:url(#SVGID_122_);fill:#5FAFBF;}
	.st153{clip-path:url(#SVGID_22_);fill:#C6392A;}
	.st154{clip-path:url(#SVGID_50_);fill:#A2663E;}
	.st155{clip-path:url(#SVGID_22_);fill:#C74A2A;}
	.st156{clip-path:url(#SVGID_14_);fill:#8A9A81;}
	.st157{clip-path:url(#SVGID_24_);fill-rule:evenodd;clip-rule:evenodd;fill:#D97327;}
	.st158{clip-path:url(#SVGID_62_);fill:#D67928;}
	.st159{fill:#98D5E0;}
	.st160{clip-path:url(#SVGID_20_);fill-rule:evenodd;clip-rule:evenodd;fill:#5A8344;}
	.st161{clip-path:url(#SVGID_44_);fill:#C8AA77;}
	.st162{clip-path:url(#SVGID_78_);fill:#5FAFBF;}
	.st163{clip-path:url(#SVGID_38_);fill-rule:evenodd;clip-rule:evenodd;fill:#87B76A;}
	.st164{clip-path:url(#SVGID_46_);fill-rule:evenodd;clip-rule:evenodd;fill:#F6DCCC;}
	.st165{clip-path:url(#SVGID_36_);fill-rule:evenodd;clip-rule:evenodd;fill:#C54235;}
	.st166{clip-path:url(#SVGID_20_);fill-rule:evenodd;clip-rule:evenodd;fill:#5C8645;}
	.st167{clip-path:url(#SVGID_62_);fill:#D98827;}
	.st168{clip-path:url(#SVGID_62_);fill:#D9A128;}
	.st169{clip-path:url(#SVGID_62_);fill:#D9AC42;}
	.st170{clip-path:url(#SVGID_20_);fill-rule:evenodd;clip-rule:evenodd;fill:#5D8746;}
	.st171{clip-path:url(#SVGID_20_);fill-rule:evenodd;clip-rule:evenodd;fill:#5D8846;}
	.st172{clip-path:url(#SVGID_20_);fill-rule:evenodd;clip-rule:evenodd;fill:#5D964D;}
	.st173{fill:#FFFFFF;}
	.st174{clip-path:url(#SVGID_350_);fill:none;stroke:#FFFFFF;stroke-width:3.061;}
	.st175{clip-path:url(#SVGID_20_);fill-rule:evenodd;clip-rule:evenodd;fill:#5E8846;}
	.st176{clip-path:url(#SVGID_20_);fill-rule:evenodd;clip-rule:evenodd;fill:#5E994E;}
	.st177{clip-path:url(#SVGID_112_);fill:#5FAFBF;}
	.st178{clip-path:url(#SVGID_62_);fill:#A06523;}
	.st179{clip-path:url(#SVGID_46_);fill-rule:evenodd;clip-rule:evenodd;fill:#F9FBF7;}
	.st180{clip-path:url(#SVGID_20_);fill-rule:evenodd;clip-rule:evenodd;fill:#5F8946;}
	.st181{clip-path:url(#SVGID_20_);fill-rule:evenodd;clip-rule:evenodd;fill:#5F8A47;}
	.st182{clip-path:url(#SVGID_2_);fill:#5FAFBF;}
	.st183{clip-path:url(#SVGID_68_);fill:#5FAFBF;}
	.st184{clip-path:url(#SVGID_8_);fill-rule:evenodd;clip-rule:evenodd;fill:#024D26;}
	.st185{clip-path:url(#SVGID_58_);fill-rule:evenodd;clip-rule:evenodd;fill:#E7AC76;}
	.st186{clip-path:url(#SVGID_102_);fill:#5FAFBF;}
	.st187{clip-path:url(#SVGID_124_);fill:#5FAFBF;}
	.st188{clip-path:url(#SVGID_36_);fill-rule:evenodd;clip-rule:evenodd;fill:#CA473B;}
	.st189{clip-path:url(#SVGID_16_);fill:#8A9A81;}
	.st190{clip-path:url(#SVGID_62_);fill:#DE9945;}
	.st191{clip-path:url(#SVGID_62_);fill:#DF9D4A;}
	.st192{clip-path:url(#SVGID_62_);fill:#DFC781;}
	.st193{clip-path:url(#SVGID_20_);fill-rule:evenodd;clip-rule:evenodd;fill:#608A47;}
	.st194{clip-path:url(#SVGID_20_);fill-rule:evenodd;clip-rule:evenodd;fill:#608B48;}
	.st195{clip-path:url(#SVGID_50_);fill:#7E7760;}
	.st196{clip-path:url(#SVGID_20_);fill-rule:evenodd;clip-rule:evenodd;fill:#618C48;}
	.st197{clip-path:url(#SVGID_8_);fill-rule:evenodd;clip-rule:evenodd;fill:#D9522F;}
	.st198{clip-path:url(#SVGID_8_);fill-rule:evenodd;clip-rule:evenodd;fill:#D9A128;}
	.st199{clip-path:url(#SVGID_20_);fill-rule:evenodd;clip-rule:evenodd;fill:#628D49;}
	.st200{clip-path:url(#SVGID_20_);fill-rule:evenodd;clip-rule:evenodd;fill:#628E49;}
	.st201{clip-path:url(#SVGID_20_);fill-rule:evenodd;clip-rule:evenodd;fill:#628F49;}
	.st202{clip-path:url(#SVGID_50_);fill:#E08D4D;}
	.st203{clip-path:url(#SVGID_26_);fill:#F5D6B8;}
	.st204{clip-path:url(#SVGID_20_);fill-rule:evenodd;clip-rule:evenodd;fill:#638F49;}
	.st205{clip-path:url(#SVGID_48_);fill:#F5D6B8;}
	.st206{clip-path:url(#SVGID_8_);fill-rule:evenodd;clip-rule:evenodd;fill:#A0B6A8;}
	.st207{clip-path:url(#SVGID_20_);fill-rule:evenodd;clip-rule:evenodd;fill:#64904A;}
	.st208{clip-path:url(#SVGID_20_);fill-rule:evenodd;clip-rule:evenodd;fill:#64914B;}
	.st209{clip-path:url(#SVGID_114_);fill:#5FAFBF;}
	.st210{clip-path:url(#SVGID_348_);fill:#451500;}
	.st211{clip-path:url(#SVGID_20_);fill-rule:evenodd;clip-rule:evenodd;fill:#65924A;}
	.st212{clip-path:url(#SVGID_20_);fill-rule:evenodd;clip-rule:evenodd;fill:#65924B;}
	.st213{clip-path:url(#SVGID_20_);fill-rule:evenodd;clip-rule:evenodd;fill:#65934B;}
	.st214{clip-path:url(#SVGID_20_);fill-rule:evenodd;clip-rule:evenodd;fill:#659F51;}
	.st215{clip-path:url(#SVGID_132_);}
	.st216{clip-path:url(#SVGID_134_);}
	.st217{clip-path:url(#SVGID_136_);}
	.st218{clip-path:url(#SVGID_140_);}
	.st219{clip-path:url(#SVGID_144_);}
	.st220{clip-path:url(#SVGID_148_);}
	.st221{clip-path:url(#SVGID_152_);}
	.st222{clip-path:url(#SVGID_156_);}
	.st223{clip-path:url(#SVGID_160_);}
	.st224{clip-path:url(#SVGID_164_);}
	.st225{clip-path:url(#SVGID_168_);}
	.st226{clip-path:url(#SVGID_172_);}
	.st227{clip-path:url(#SVGID_176_);}
	.st228{clip-path:url(#SVGID_180_);}
	.st229{clip-path:url(#SVGID_184_);}
	.st230{clip-path:url(#SVGID_188_);}
	.st231{clip-path:url(#SVGID_192_);}
	.st232{clip-path:url(#SVGID_196_);}
	.st233{clip-path:url(#SVGID_20_);fill-rule:evenodd;clip-rule:evenodd;fill:#66934B;}
	.st234{clip-path:url(#SVGID_20_);fill-rule:evenodd;clip-rule:evenodd;fill:#66944B;}
	.st235{clip-path:url(#SVGID_44_);fill:#6D7F35;}
	.st236{clip-path:url(#SVGID_200_);}
	.st237{clip-path:url(#SVGID_204_);}
	.st238{clip-path:url(#SVGID_208_);}
	.st239{clip-path:url(#SVGID_212_);}
	.st240{clip-path:url(#SVGID_216_);}
	.st241{clip-path:url(#SVGID_220_);}
	.st242{clip-path:url(#SVGID_224_);}
	.st243{clip-path:url(#SVGID_228_);}
	.st244{clip-path:url(#SVGID_232_);}
	.st245{clip-path:url(#SVGID_236_);}
	.st246{clip-path:url(#SVGID_240_);}
	.st247{clip-path:url(#SVGID_244_);}
	.st248{clip-path:url(#SVGID_248_);}
	.st249{clip-path:url(#SVGID_252_);}
	.st250{clip-path:url(#SVGID_256_);}
	.st251{clip-path:url(#SVGID_260_);}
	.st252{clip-path:url(#SVGID_264_);}
	.st253{clip-path:url(#SVGID_268_);}
	.st254{clip-path:url(#SVGID_272_);}
	.st255{clip-path:url(#SVGID_276_);}
	.st256{clip-path:url(#SVGID_280_);}
	.st257{clip-path:url(#SVGID_284_);}
	.st258{clip-path:url(#SVGID_288_);}
	.st259{clip-path:url(#SVGID_292_);}
	.st260{clip-path:url(#SVGID_296_);}
	.st261{clip-path:url(#SVGID_20_);fill-rule:evenodd;clip-rule:evenodd;fill:#67954C;}
	.st262{clip-path:url(#SVGID_300_);}
	.st263{clip-path:url(#SVGID_304_);}
	.st264{clip-path:url(#SVGID_308_);}
	.st265{clip-path:url(#SVGID_312_);}
	.st266{clip-path:url(#SVGID_316_);}
	.st267{clip-path:url(#SVGID_320_);}
	.st268{clip-path:url(#SVGID_324_);}
	.st269{clip-path:url(#SVGID_328_);}
	.st270{clip-path:url(#SVGID_332_);}
	.st271{clip-path:url(#SVGID_336_);}
	.st272{clip-path:url(#SVGID_340_);}
	.st273{clip-path:url(#SVGID_344_);}
	.st274{clip-path:url(#SVGID_348_);fill:#AB2218;}
	.st275{clip-path:url(#SVGID_4_);fill:#5FAFBF;}
	.st276{clip-path:url(#SVGID_20_);fill-rule:evenodd;clip-rule:evenodd;fill:#68A151;}
	.st277{clip-path:url(#SVGID_20_);fill:#76AD56;}
	.st278{clip-path:url(#SVGID_20_);fill-rule:evenodd;clip-rule:evenodd;fill:#69974C;}
	.st279{clip-path:url(#SVGID_20_);fill-rule:evenodd;clip-rule:evenodd;fill:#69984D;}
	.st280{clip-path:url(#SVGID_62_);fill:#7F5426;}
	.st281{clip-path:url(#SVGID_62_);fill:#7F5726;}
	.st282{clip-path:url(#SVGID_8_);fill-rule:evenodd;clip-rule:evenodd;fill:#0C83C6;}
	.st283{fill:#034E5E;}
	.st284{clip-path:url(#SVGID_20_);fill-rule:evenodd;clip-rule:evenodd;fill:#30733D;}
	.st285{clip-path:url(#SVGID_62_);fill:#E0A04D;}
	.st286{clip-path:url(#SVGID_8_);fill-rule:evenodd;clip-rule:evenodd;fill:#DBE7C7;}
	.st287{clip-path:url(#SVGID_44_);fill:#D28E2A;}
	.st288{clip-path:url(#SVGID_104_);fill:#5FAFBF;}
	.st289{clip-path:url(#SVGID_36_);fill-rule:evenodd;clip-rule:evenodd;fill:#003A19;}
	.st290{clip-path:url(#SVGID_36_);fill-rule:evenodd;clip-rule:evenodd;fill:#005C31;}
	.st291{clip-path:url(#SVGID_126_);fill:#5FAFBF;}
	.st292{clip-path:url(#SVGID_62_);fill:#E3AB5B;}
	.st293{clip-path:url(#SVGID_8_);fill-rule:evenodd;clip-rule:evenodd;fill:#DEEACC;}
	.st294{clip-path:url(#SVGID_8_);fill-rule:evenodd;clip-rule:evenodd;fill:#416855;}
	.st295{clip-path:url(#SVGID_28_);fill:#F1C8A2;}
	.st296{clip-path:url(#SVGID_90_);fill:#5FAFBF;}
	.st297{clip-path:url(#SVGID_44_);fill:#D67928;}
	.st298{clip-path:url(#SVGID_20_);fill-rule:evenodd;clip-rule:evenodd;fill:#6A994E;}
	.st299{clip-path:url(#SVGID_10_);fill:#77A5D2;}
	.st300{clip-path:url(#SVGID_36_);fill-rule:evenodd;clip-rule:evenodd;fill:#054825;}
	.st301{fill:#D8E8C4;}
	.st302{clip-path:url(#SVGID_20_);fill-rule:evenodd;clip-rule:evenodd;fill:#6B9A4E;}
	.st303{clip-path:url(#SVGID_20_);fill-rule:evenodd;clip-rule:evenodd;fill:#6B9B4F;}
	.st304{clip-path:url(#SVGID_10_);fill:#78A5D3;}
	.st305{clip-path:url(#SVGID_10_);fill:#78A5D4;}
	.st306{clip-path:url(#SVGID_44_);fill:#D98827;}
	.st307{clip-path:url(#SVGID_44_);fill:#D9A128;}
	.st308{clip-path:url(#SVGID_44_);fill:#D9AC42;}
	.st309{clip-path:url(#SVGID_28_);fill:#F5DBC1;}
	.st310{clip-path:url(#SVGID_20_);fill-rule:evenodd;clip-rule:evenodd;fill:#6C9C4F;}
	.st311{clip-path:url(#SVGID_32_);fill:#A87851;}
	.st312{clip-path:url(#SVGID_44_);fill:#A06523;}
	.st313{clip-path:url(#SVGID_62_);fill:#E9BB76;}
	.st314{clip-path:url(#SVGID_62_);fill:#E9BE7A;}
	.st315{clip-path:url(#SVGID_20_);fill-rule:evenodd;clip-rule:evenodd;fill:#6D9D4F;}
	.st316{clip-path:url(#SVGID_54_);fill:#A87851;}
	.st317{clip-path:url(#SVGID_116_);fill:#5FAFBF;}
	.st318{clip-path:url(#SVGID_62_);fill:#807442;}
	.st319{clip-path:url(#SVGID_20_);fill-rule:evenodd;clip-rule:evenodd;fill:#6E9F51;}
	.st320{clip-path:url(#SVGID_20_);fill-rule:evenodd;clip-rule:evenodd;fill:#6EA051;}
	.st321{clip-path:url(#SVGID_20_);fill-rule:evenodd;clip-rule:evenodd;fill:#6EA653;}
	.st322{clip-path:url(#SVGID_20_);fill-rule:evenodd;clip-rule:evenodd;fill:#004925;}
	.st323{clip-path:url(#SVGID_20_);fill-rule:evenodd;clip-rule:evenodd;fill:#004A24;}
	.st324{clip-path:url(#SVGID_20_);fill-rule:evenodd;clip-rule:evenodd;fill:#004A26;}
	.st325{clip-path:url(#SVGID_20_);fill-rule:evenodd;clip-rule:evenodd;fill:#004B28;}
	.st326{clip-path:url(#SVGID_20_);fill-rule:evenodd;clip-rule:evenodd;fill:#004C27;}
	.st327{clip-path:url(#SVGID_20_);fill-rule:evenodd;clip-rule:evenodd;fill:#004D27;}
	.st328{clip-path:url(#SVGID_20_);fill-rule:evenodd;clip-rule:evenodd;fill:#004D28;}
	.st329{clip-path:url(#SVGID_20_);fill-rule:evenodd;clip-rule:evenodd;fill:#004E28;}
	.st330{clip-path:url(#SVGID_20_);fill-rule:evenodd;clip-rule:evenodd;fill:#004F29;}
	.st331{clip-path:url(#SVGID_20_);fill-rule:evenodd;clip-rule:evenodd;fill:#005029;}
	.st332{clip-path:url(#SVGID_20_);fill-rule:evenodd;clip-rule:evenodd;fill:#00502A;}
	.st333{clip-path:url(#SVGID_20_);fill-rule:evenodd;clip-rule:evenodd;fill:#00512A;}
	.st334{clip-path:url(#SVGID_20_);fill-rule:evenodd;clip-rule:evenodd;fill:#00522B;}
	.st335{clip-path:url(#SVGID_20_);fill-rule:evenodd;clip-rule:evenodd;fill:#00542C;}
	.st336{clip-path:url(#SVGID_20_);fill-rule:evenodd;clip-rule:evenodd;fill:#00552D;}
	.st337{clip-path:url(#SVGID_20_);fill-rule:evenodd;clip-rule:evenodd;fill:#00562D;}
	.st338{clip-path:url(#SVGID_20_);fill-rule:evenodd;clip-rule:evenodd;fill:#00572E;}
	.st339{clip-path:url(#SVGID_20_);fill-rule:evenodd;clip-rule:evenodd;fill:#00582F;}
	.st340{clip-path:url(#SVGID_20_);fill-rule:evenodd;clip-rule:evenodd;fill:#00592F;}
	.st341{clip-path:url(#SVGID_20_);fill-rule:evenodd;clip-rule:evenodd;fill:#005A30;}
	.st342{clip-path:url(#SVGID_20_);fill-rule:evenodd;clip-rule:evenodd;fill:#005B30;}
	.st343{clip-path:url(#SVGID_20_);fill-rule:evenodd;clip-rule:evenodd;fill:#005C31;}
	.st344{clip-path:url(#SVGID_62_);fill:#818C3C;}
	.st345{clip-path:url(#SVGID_80_);fill:#5FAFBF;}
	.st346{clip-path:url(#SVGID_20_);fill-rule:evenodd;clip-rule:evenodd;fill:#014827;}
	.st347{clip-path:url(#SVGID_60_);fill-rule:evenodd;clip-rule:evenodd;fill:#F6F9EE;}
	.st348{clip-path:url(#SVGID_20_);fill-rule:evenodd;clip-rule:evenodd;fill:#024525;}
	.st349{clip-path:url(#SVGID_132_);fill:#DA7427;}
	.st350{clip-path:url(#SVGID_20_);fill-rule:evenodd;clip-rule:evenodd;fill:#034224;}
	.st351{clip-path:url(#SVGID_20_);fill-rule:evenodd;clip-rule:evenodd;fill:#034324;}
	.st352{clip-path:url(#SVGID_6_);fill:#5FAFBF;}
	.st353{clip-path:url(#SVGID_62_);fill:#B3B986;}
	.st354{clip-path:url(#SVGID_34_);fill-rule:evenodd;clip-rule:evenodd;fill:#E8C886;}
	.st355{clip-path:url(#SVGID_64_);fill:#7ECFDA;}
	.st356{clip-path:url(#SVGID_20_);fill-rule:evenodd;clip-rule:evenodd;fill:#044425;}
	.st357{clip-path:url(#SVGID_20_);fill-rule:evenodd;clip-rule:evenodd;fill:#053E22;}
	.st358{clip-path:url(#SVGID_20_);fill-rule:evenodd;clip-rule:evenodd;fill:#054023;}
	.st359{clip-path:url(#SVGID_62_);fill:#868945;}
	.st360{clip-path:url(#SVGID_36_);fill-rule:evenodd;clip-rule:evenodd;fill:#741613;}
	.st361{clip-path:url(#SVGID_62_);fill:#EACC8B;}
	.st362{clip-path:url(#SVGID_106_);fill:#5FAFBF;}
	.st363{clip-path:url(#SVGID_20_);fill-rule:evenodd;clip-rule:evenodd;fill:#073C21;}
	.st364{clip-path:url(#SVGID_128_);fill:#5FAFBF;}
	.st365{clip-path:url(#SVGID_62_);fill:#EBCC8F;}
	.st366{clip-path:url(#SVGID_36_);fill-rule:evenodd;clip-rule:evenodd;fill:#0A7D46;}
	.st367{clip-path:url(#SVGID_70_);fill:#5FAFBF;}
	.st368{clip-path:url(#SVGID_44_);fill:#DE9945;}
	.st369{clip-path:url(#SVGID_20_);fill-rule:evenodd;clip-rule:evenodd;fill:#09361E;}
	.st370{clip-path:url(#SVGID_20_);fill-rule:evenodd;clip-rule:evenodd;fill:#095E32;}
	.st371{clip-path:url(#SVGID_92_);fill:#5FAFBF;}
	.st372{clip-path:url(#SVGID_44_);fill:#DF9D4A;}
	.st373{clip-path:url(#SVGID_44_);fill:#DFC781;}
	.st374{fill:#421A0D;}
	.st375{clip-path:url(#SVGID_20_);fill-rule:evenodd;clip-rule:evenodd;fill:#3E8144;}
	.st376{clip-path:url(#SVGID_46_);fill-rule:evenodd;clip-rule:evenodd;fill:#D97327;}
	.st377{clip-path:url(#SVGID_20_);fill-rule:evenodd;clip-rule:evenodd;fill:#70A151;}
	.st378{fill:#451500;}
	.st379{clip-path:url(#SVGID_42_);fill-rule:evenodd;clip-rule:evenodd;fill:#F6F9EE;}
	.st380{clip-path:url(#SVGID_34_);fill-rule:evenodd;clip-rule:evenodd;fill:#EBCA88;}
	.st381{clip-path:url(#SVGID_10_);fill:#E28C68;}
	.st382{clip-path:url(#SVGID_10_);fill:#E28C69;}
	.st383{clip-path:url(#SVGID_8_);fill-rule:evenodd;clip-rule:evenodd;fill:#E9F0D9;}
	.st384{clip-path:url(#SVGID_132_);fill:#AB2524;}
]]>
</style>
<g id="Layer_1">
</g>
<g id="Layer_2">
	<g>
		<path class="st374" d="M6.93,24.02L1.51,1.58c0.02,3.75,0.04,7.18,0.07,10.29c0,1.32,0,2.65,0.02,3.97
			c0.01,1.32,0.02,2.54,0.03,3.65c0.01,1.11,0.02,2.06,0.02,2.86c0,0.8,0,1.35,0,1.67H0V0.27h2.49l5.58,22.84
			c-0.02-4.04-0.06-7.68-0.1-10.93c-0.02-1.39-0.04-2.76-0.05-4.12C7.91,6.7,7.9,5.47,7.89,4.37c-0.01-1.1-0.02-2.02-0.03-2.76
			C7.84,0.88,7.84,0.43,7.84,0.27h1.65v23.75H6.93z"/>
		<path class="st374" d="M13.62,5.21c0-0.74,0.1-1.42,0.29-2.05s0.48-1.18,0.86-1.65c0.38-0.47,0.88-0.84,1.5-1.11S17.6,0,18.43,0
			c1.12,0,2,0.18,2.64,0.54c0.64,0.36,1.12,0.82,1.45,1.4c0.32,0.57,0.53,1.2,0.61,1.88c0.08,0.68,0.12,1.35,0.12,2v13.56
			c0,0.54-0.07,1.1-0.2,1.68c-0.13,0.58-0.38,1.12-0.74,1.6c-0.36,0.48-0.86,0.88-1.5,1.19c-0.64,0.31-1.45,0.47-2.44,0.47
			c-0.87,0-1.61-0.12-2.22-0.37s-1.09-0.6-1.46-1.06c-0.37-0.46-0.64-1.01-0.81-1.65c-0.17-0.64-0.25-1.35-0.25-2.14V5.21z
			 M21.6,6.31c0-0.94-0.08-1.73-0.23-2.36c-0.15-0.63-0.37-1.13-0.65-1.5c-0.28-0.37-0.61-0.63-0.99-0.78
			c-0.39-0.15-0.82-0.22-1.31-0.22c-0.57,0-1.06,0.11-1.46,0.32c-0.4,0.21-0.72,0.49-0.98,0.83s-0.44,0.72-0.55,1.15
			c-0.11,0.43-0.17,0.87-0.17,1.32v14c0,1.21,0.25,2.15,0.75,2.82c0.5,0.66,1.31,1,2.43,1c0.66,0,1.2-0.13,1.62-0.39
			c0.42-0.26,0.74-0.59,0.96-1s0.37-0.85,0.45-1.33c0.08-0.48,0.12-0.94,0.12-1.37V6.31z"/>
		<path class="st374" d="M31.79,24.02h-1.72L26.04,0.27h1.65l3.26,20.25l3.5-20.25h1.65L31.79,24.02z"/>
		<path class="st374" d="M40.67,1.72v9.18h5.55v1.45h-5.55v10.23h6.73v1.45h-8.38V0.27h8.41v1.45H40.67z"/>
		<path class="st374" d="M62.27,24.02c0-0.25,0-0.84,0-1.78c0-0.94,0-2.07,0-3.4c0-1.32-0.01-2.77-0.02-4.34
			c-0.01-1.57-0.02-3.13-0.02-4.68s0-3,0-4.37c0-1.37,0-2.5,0-3.4L58.1,24.02h-1.51L52.41,2.05v21.97h-1.65c0-0.18,0-0.66,0-1.45
			c0-0.78,0.01-1.75,0.02-2.89c0.01-1.14,0.02-2.42,0.03-3.83c0.01-1.41,0.03-2.84,0.05-4.27c0.04-3.36,0.08-7.13,0.1-11.3h2.42
			l3.9,20.29l3.97-20.29h2.42c0,0.31,0.01,0.89,0.02,1.73c0.01,0.84,0.02,1.85,0.03,3.03c0.01,1.18,0.02,2.46,0.03,3.85
			c0.01,1.39,0.03,2.79,0.05,4.21c0.04,3.3,0.08,6.94,0.1,10.93H62.27z"/>
		<path class="st374" d="M68.46,0.27h4.84c0.16,0,0.35,0.01,0.57,0.02C74.1,0.3,74.34,0.34,74.6,0.4s0.51,0.17,0.76,0.3
			c0.25,0.13,0.47,0.33,0.67,0.57c0.34,0.38,0.56,0.81,0.66,1.3c0.1,0.48,0.15,0.96,0.15,1.43v3.83c0,0.7-0.1,1.25-0.3,1.67
			c-0.2,0.42-0.45,0.73-0.74,0.96c-0.29,0.22-0.59,0.38-0.91,0.47c-0.31,0.09-0.59,0.16-0.84,0.2c0.09,0,0.23,0.02,0.42,0.05
			s0.4,0.08,0.64,0.15s0.48,0.16,0.74,0.27c0.26,0.11,0.5,0.26,0.72,0.44c0.54,0.45,0.86,0.99,0.96,1.61
			c0.1,0.63,0.15,1.26,0.15,1.88v4.21c0,0.58-0.07,1.13-0.22,1.65c-0.15,0.52-0.38,0.97-0.71,1.36c-0.33,0.39-0.76,0.7-1.31,0.93
			c-0.55,0.22-1.23,0.34-2.04,0.34h-4.95V0.27z M70.07,10.5h1.82c0.79,0,1.4-0.11,1.83-0.33c0.44-0.22,0.77-0.5,0.99-0.82
			c0.22-0.32,0.36-0.66,0.4-1.01c0.04-0.35,0.07-0.64,0.07-0.89V4.06c0-0.58-0.09-1.03-0.27-1.34c-0.18-0.31-0.41-0.54-0.69-0.69
			c-0.28-0.15-0.6-0.23-0.96-0.27c-0.36-0.03-0.73-0.05-1.11-0.05h-2.09V10.5z M70.1,22.57h2.81c0.68,0,1.22-0.07,1.64-0.22
			s0.73-0.37,0.95-0.67s0.36-0.68,0.42-1.14c0.07-0.46,0.1-1.01,0.1-1.67v-3.46c0-0.79-0.12-1.41-0.37-1.87
			c-0.25-0.46-0.58-0.81-0.98-1.04c-0.41-0.24-0.86-0.39-1.35-0.45s-1-0.1-1.52-0.1H70.1V22.57z"/>
		<path class="st374" d="M83.43,1.72v9.18h5.55v1.45h-5.55v10.23h6.73v1.45h-8.38V0.27h8.41v1.45H83.43z"/>
		<path class="st374" d="M102.27,24.02l-4.34-11.54h-2.59v11.54h-1.65V0.27h4.74c1.48,0,2.61,0.33,3.38,0.98
			c0.77,0.65,1.16,1.71,1.16,3.17V8.4c0,0.7-0.11,1.28-0.32,1.74c-0.21,0.46-0.48,0.84-0.79,1.15c-0.31,0.3-0.67,0.54-1.06,0.71
			s-0.78,0.29-1.16,0.35l4.37,11.67H102.27z M95.33,11.03h3.03c0.56,0,1.03-0.07,1.4-0.2c0.37-0.13,0.66-0.31,0.88-0.54
			c0.21-0.22,0.36-0.49,0.45-0.79c0.09-0.3,0.13-0.61,0.13-0.92V4.87c0-0.98-0.17-1.75-0.52-2.31c-0.35-0.56-1.05-0.84-2.1-0.84
			h-3.26V11.03z"/>
		<path class="st374" d="M116.23,24.02V3.33c-0.88,0.74-1.65,1.2-2.31,1.38c-0.66,0.18-1.2,0.29-1.63,0.34V3.73
			c0.75-0.11,1.37-0.31,1.87-0.59c0.5-0.28,0.9-0.59,1.22-0.93c0.32-0.34,0.55-0.67,0.71-1.01s0.26-0.61,0.31-0.81h1.48v23.62
			H116.23z"/>
		<path class="st374" d="M122.18,24.02v-1.78c0.2-0.67,0.51-1.35,0.93-2.05c0.42-0.69,0.9-1.43,1.44-2.22
			c0.7-1.01,1.35-1.93,1.95-2.75c0.6-0.83,1.12-1.66,1.54-2.49c0.43-0.83,0.77-1.69,1.02-2.59c0.25-0.9,0.37-1.91,0.37-3.06V5.71
			c0-0.45-0.03-0.91-0.09-1.38c-0.06-0.47-0.18-0.9-0.36-1.29c-0.18-0.39-0.45-0.72-0.81-0.97c-0.35-0.26-0.83-0.39-1.42-0.39
			c-0.64,0-1.14,0.13-1.51,0.4c-0.37,0.27-0.63,0.62-0.81,1.05c-0.17,0.44-0.28,0.93-0.33,1.49c-0.04,0.56-0.07,1.13-0.07,1.71v1.61
			h-1.45V5.69c0-0.61,0.03-1.23,0.1-1.87c0.07-0.64,0.24-1.22,0.52-1.75c0.28-0.53,0.7-0.96,1.25-1.31s1.31-0.52,2.27-0.52
			c0.79,0,1.45,0.15,1.99,0.44c0.54,0.29,0.96,0.67,1.28,1.13c0.31,0.46,0.54,0.97,0.67,1.55c0.13,0.57,0.2,1.14,0.2,1.7v1.98
			c0,1.05-0.08,1.99-0.24,2.82c-0.16,0.83-0.41,1.63-0.76,2.42s-0.79,1.59-1.33,2.42c-0.54,0.83-1.19,1.78-1.95,2.85
			c-0.63,0.85-1.21,1.66-1.75,2.44c-0.54,0.77-0.96,1.64-1.28,2.6h7.47v1.45H122.18z"/>
		<path class="st374" d="M138.73,1.72v22.3h-1.65V1.72h-4.14V0.27h9.99v1.45H138.73z"/>
		<path class="st374" d="M152.96,24.02V12.28h-6.09v11.74h-1.65V0.27h1.65v10.56h6.09V0.27h1.65v23.75H152.96z"/>
		<path class="st374" d="M159.72,20.96v3.06c0,0.72-0.09,1.33-0.27,1.83c-0.18,0.5-0.61,0.9-1.28,1.19v-0.74
			c0.4-0.22,0.64-0.52,0.72-0.89c0.08-0.37,0.12-0.77,0.12-1.19v-0.2h-0.74v-3.06H159.72z"/>
		<path class="st374" d="M173.38,24.02V3.33c-0.88,0.74-1.65,1.2-2.31,1.38c-0.66,0.18-1.2,0.29-1.63,0.34V3.73
			c0.75-0.11,1.37-0.31,1.87-0.59c0.5-0.28,0.9-0.59,1.22-0.93c0.32-0.34,0.55-0.67,0.71-1.01s0.26-0.61,0.31-0.81h1.48v23.62
			H173.38z"/>
		<path class="st374" d="M183.71,24.02V3.33c-0.88,0.74-1.65,1.2-2.31,1.38c-0.66,0.18-1.2,0.29-1.63,0.34V3.73
			c0.75-0.11,1.37-0.31,1.87-0.59c0.5-0.28,0.9-0.59,1.22-0.93c0.32-0.34,0.55-0.67,0.71-1.01s0.26-0.61,0.31-0.81h1.48v23.62
			H183.71z"/>
		<path class="st374" d="M199.99,24.02l-1.21-7.23h-4.98l-1.25,7.23h-1.75l4.34-23.88h2.29l4.31,23.88H199.99z M196.29,2.32
			l-2.22,12.92h4.41L196.29,2.32z"/>
		<path class="st374" d="M215.93,24.02c0-0.25,0-0.84,0-1.78c0-0.94,0-2.07,0-3.4c0-1.32-0.01-2.77-0.02-4.34
			c-0.01-1.57-0.02-3.13-0.02-4.68s0-3,0-4.37c0-1.37,0-2.5,0-3.4l-4.14,21.97h-1.51l-4.17-21.97v21.97h-1.65c0-0.18,0-0.66,0-1.45
			c0-0.78,0.01-1.75,0.02-2.89c0.01-1.14,0.02-2.42,0.03-3.83c0.01-1.41,0.03-2.84,0.05-4.27c0.04-3.36,0.08-7.13,0.1-11.3h2.42
			l3.9,20.29l3.97-20.29h2.42c0,0.31,0.01,0.89,0.02,1.73c0.01,0.84,0.02,1.85,0.03,3.03c0.01,1.18,0.02,2.46,0.03,3.85
			c0.01,1.39,0.03,2.79,0.05,4.21c0.04,3.3,0.08,6.94,0.1,10.93H215.93z"/>
		<path class="st374" d="M220.61,14.9v-1.45h9.55v1.45H220.61z"/>
		<path class="st374" d="M242.07,0.37v1.45c-0.7,1.59-1.35,3.18-1.97,4.77s-1.16,3.2-1.61,4.85c-0.46,1.65-0.82,3.35-1.08,5.09
			s-0.39,3.55-0.39,5.44v2.06h-1.65V22.6c0-1.55,0.09-3.11,0.27-4.68c0.18-1.57,0.46-3.21,0.86-4.9s0.92-3.46,1.56-5.31
			c0.64-1.84,1.43-3.81,2.36-5.9h-7.47V0.37H242.07z"/>
		<path class="st374" d="M249.44,0.27c0.65,0,1.31,0.04,1.97,0.14s1.26,0.36,1.8,0.81c0.31,0.27,0.56,0.56,0.74,0.88
			c0.18,0.32,0.31,0.66,0.39,1.03c0.08,0.37,0.12,0.76,0.13,1.17c0.01,0.41,0.02,0.83,0.02,1.28v2.71c0,0.65-0.04,1.26-0.13,1.81
			c-0.09,0.55-0.36,1.1-0.81,1.64c-0.29,0.36-0.63,0.64-1.03,0.85c-0.39,0.2-0.78,0.36-1.16,0.46c-0.38,0.1-0.75,0.16-1.11,0.19
			c-0.36,0.02-0.67,0.03-0.94,0.03h-2.42v10.77h-1.65V0.27H249.44z M246.85,11.81h2.68c0.45,0,0.89-0.04,1.34-0.13
			s0.85-0.32,1.2-0.7c0.36-0.36,0.58-0.77,0.65-1.24c0.08-0.47,0.12-0.85,0.12-1.14V6.23c0-0.8-0.03-1.49-0.08-2.06
			s-0.19-1.04-0.4-1.4c-0.21-0.37-0.54-0.63-0.99-0.8c-0.45-0.17-1.06-0.25-1.84-0.25h-2.68V11.81z"/>
		<path class="st374" d="M269.22,24.02c0-0.25,0-0.84,0-1.78c0-0.94,0-2.07,0-3.4c0-1.32-0.01-2.77-0.02-4.34
			c-0.01-1.57-0.02-3.13-0.02-4.68s0-3,0-4.37c0-1.37,0-2.5,0-3.4l-4.14,21.97h-1.51l-4.17-21.97v21.97h-1.65c0-0.18,0-0.66,0-1.45
			c0-0.78,0.01-1.75,0.02-2.89c0.01-1.14,0.02-2.42,0.03-3.83c0.01-1.41,0.03-2.84,0.05-4.27c0.04-3.36,0.08-7.13,0.1-11.3h2.42
			l3.9,20.29l3.97-20.29h2.42c0,0.31,0.01,0.89,0.02,1.73c0.01,0.84,0.02,1.85,0.03,3.03c0.01,1.18,0.02,2.46,0.03,3.85
			c0.01,1.39,0.03,2.79,0.05,4.21c0.04,3.3,0.08,6.94,0.1,10.93H269.22z"/>
	</g>
</g>
</svg>
