<?xml version="1.0" encoding="utf-8"?>
<!-- Generator: Adobe Illustrator 16.0.0, SVG Export Plug-In . SVG Version: 6.00 Build 0)  -->
<!DOCTYPE svg PUBLIC "-//W3C//DTD SVG 1.1//EN" "http://www.w3.org/Graphics/SVG/1.1/DTD/svg11.dtd">
<svg version="1.1" id="Layer_1" xmlns="http://www.w3.org/2000/svg" xmlns:xlink="http://www.w3.org/1999/xlink" x="0px" y="0px"
	 width="286.04px" height="28.56px" viewBox="0 0 286.04 28.56" style="enable-background:new 0 0 286.04 28.56;"
	 xml:space="preserve">
<style type="text/css">
<![CDATA[
	.st0{fill:#AC2325;}
	.st1{fill:#FFFFFF;}
	.st2{fill:#421A0D;}
]]>
</style>
<g>
	<path class="st2" d="M7.32,25.36L1.6,1.67c0.02,3.96,0.05,7.58,0.07,10.87c0,1.4,0,2.79,0.02,4.19c0.01,1.4,0.02,2.68,0.04,3.85
		c0.01,1.17,0.02,2.18,0.02,3.02c0,0.84,0,1.43,0,1.76H0V0.28h2.63l5.9,24.12c-0.02-4.26-0.06-8.11-0.11-11.55
		c-0.02-1.47-0.04-2.92-0.05-4.35C8.35,7.08,8.34,5.78,8.33,4.62S8.31,2.49,8.29,1.71C8.28,0.92,8.28,0.45,8.28,0.28h1.74v25.08
		H7.32z"/>
	<path class="st2" d="M14.39,5.51c0-0.78,0.1-1.5,0.3-2.17c0.2-0.66,0.5-1.24,0.91-1.74c0.4-0.5,0.93-0.89,1.58-1.17
		C17.83,0.14,18.59,0,19.47,0c1.18,0,2.11,0.19,2.79,0.57c0.67,0.38,1.18,0.87,1.53,1.47c0.34,0.6,0.56,1.27,0.64,1.99
		s0.12,1.43,0.12,2.11v14.32c0,0.57-0.07,1.16-0.21,1.78c-0.14,0.62-0.4,1.18-0.78,1.69c-0.38,0.51-0.91,0.93-1.58,1.26
		c-0.67,0.33-1.53,0.5-2.58,0.5c-0.92,0-1.71-0.13-2.34-0.39c-0.64-0.26-1.15-0.63-1.54-1.12c-0.39-0.48-0.68-1.07-0.85-1.74
		c-0.18-0.67-0.27-1.43-0.27-2.26V5.51z M22.81,6.66c0-1-0.08-1.83-0.25-2.5c-0.16-0.66-0.39-1.19-0.68-1.58
		c-0.29-0.39-0.64-0.67-1.05-0.82s-0.87-0.23-1.38-0.23c-0.61,0-1.12,0.11-1.54,0.34c-0.42,0.23-0.76,0.52-1.03,0.87
		S16.42,3.5,16.3,3.95c-0.12,0.45-0.18,0.91-0.18,1.39v14.79c0,1.28,0.26,2.27,0.79,2.98c0.52,0.7,1.38,1.05,2.57,1.05
		c0.7,0,1.27-0.14,1.71-0.41c0.44-0.27,0.78-0.62,1.01-1.05c0.23-0.43,0.39-0.9,0.47-1.41c0.08-0.51,0.12-0.99,0.12-1.44V6.66z"/>
	<path class="st2" d="M33.57,25.36h-1.81L27.5,0.28h1.74l3.45,21.39l3.7-21.39h1.74L33.57,25.36z"/>
	<path class="st2" d="M42.95,1.81v9.7h5.86v1.53h-5.86v10.8h7.11v1.53h-8.85V0.28h8.88v1.53H42.95z"/>
	<path class="st2" d="M65.75,25.36c0-0.26,0-0.89,0-1.88s0-2.19,0-3.59s-0.01-2.92-0.02-4.58c-0.01-1.66-0.02-3.3-0.02-4.94
		s0-3.17,0-4.62s0-2.64,0-3.59l-4.37,23.2h-1.6l-4.4-23.2v23.2h-1.74c0-0.19,0-0.7,0-1.53s0-1.85,0.02-3.06
		c0.01-1.21,0.02-2.56,0.04-4.05c0.01-1.49,0.03-3,0.05-4.51c0.05-3.55,0.08-7.53,0.11-11.94h2.56l4.12,21.42l4.19-21.42h2.56
		c0,0.33,0.01,0.94,0.02,1.83c0.01,0.89,0.02,1.95,0.04,3.2s0.02,2.6,0.04,4.07c0.01,1.47,0.03,2.95,0.05,4.44
		c0.05,3.48,0.08,7.33,0.11,11.55H65.75z"/>
	<path class="st2" d="M72.29,0.28h5.12c0.17,0,0.37,0.01,0.6,0.02c0.24,0.01,0.49,0.05,0.76,0.12c0.27,0.07,0.54,0.18,0.8,0.32
		c0.26,0.14,0.5,0.34,0.71,0.6c0.36,0.4,0.59,0.86,0.69,1.37c0.11,0.51,0.16,1.01,0.16,1.51v4.05c0,0.73-0.11,1.32-0.32,1.76
		c-0.21,0.44-0.47,0.78-0.78,1.01c-0.31,0.24-0.63,0.4-0.96,0.5c-0.33,0.1-0.63,0.17-0.89,0.21c0.09,0,0.24,0.02,0.44,0.05
		c0.2,0.04,0.43,0.09,0.68,0.16c0.25,0.07,0.51,0.17,0.78,0.28c0.27,0.12,0.53,0.27,0.76,0.46c0.57,0.47,0.91,1.04,1.01,1.71
		s0.16,1.33,0.16,1.99v4.44c0,0.62-0.08,1.2-0.23,1.74s-0.4,1.02-0.75,1.44s-0.8,0.74-1.38,0.98c-0.58,0.24-1.3,0.36-2.15,0.36
		h-5.22V0.28z M74,11.08h1.92c0.83,0,1.47-0.12,1.94-0.35c0.46-0.24,0.81-0.52,1.05-0.87c0.24-0.34,0.38-0.7,0.43-1.06
		c0.05-0.37,0.07-0.68,0.07-0.94V4.29c0-0.61-0.09-1.08-0.28-1.42c-0.19-0.33-0.43-0.57-0.73-0.72C78.09,2,77.75,1.9,77.37,1.87
		c-0.38-0.04-0.77-0.05-1.17-0.05H74V11.08z M74.03,23.84H77c0.71,0,1.29-0.08,1.73-0.23c0.44-0.15,0.77-0.39,1-0.71
		c0.23-0.32,0.38-0.72,0.45-1.21s0.11-1.07,0.11-1.76v-3.66c0-0.83-0.13-1.49-0.39-1.97s-0.61-0.85-1.04-1.1
		c-0.43-0.25-0.9-0.41-1.43-0.48c-0.52-0.07-1.06-0.11-1.61-0.11h-1.79V23.84z"/>
	<path class="st2" d="M88.1,1.81v9.7h5.86v1.53H88.1v10.8h7.11v1.53h-8.85V0.28h8.88v1.53H88.1z"/>
	<path class="st2" d="M107.99,25.36l-4.58-12.18h-2.73v12.18h-1.74V0.28h5.01c1.56,0,2.75,0.34,3.57,1.03
		c0.82,0.69,1.23,1.8,1.23,3.35v4.2c0,0.74-0.11,1.35-0.34,1.83c-0.23,0.49-0.5,0.89-0.83,1.21c-0.33,0.32-0.71,0.57-1.12,0.75
		c-0.42,0.18-0.82,0.3-1.23,0.37l4.62,12.33H107.99z M100.67,11.65h3.2c0.59,0,1.08-0.07,1.47-0.21c0.39-0.14,0.7-0.33,0.92-0.57
		s0.38-0.51,0.48-0.83c0.09-0.32,0.14-0.64,0.14-0.97V5.14c0-1.04-0.18-1.85-0.55-2.44s-1.11-0.88-2.22-0.88h-3.45V11.65z"/>
	<path class="st2" d="M122.73,25.36V3.52c-0.93,0.78-1.74,1.27-2.44,1.46c-0.69,0.19-1.27,0.31-1.72,0.35V3.94
		c0.79-0.12,1.44-0.33,1.97-0.62c0.53-0.3,0.96-0.62,1.29-0.98s0.58-0.71,0.75-1.07c0.17-0.35,0.27-0.64,0.32-0.85h1.56v24.94
		H122.73z"/>
	<path class="st2" d="M129.02,25.36v-1.88c0.21-0.71,0.54-1.43,0.99-2.16c0.44-0.73,0.95-1.51,1.52-2.34
		c0.74-1.06,1.43-2.03,2.06-2.91c0.63-0.88,1.18-1.75,1.63-2.62c0.45-0.88,0.81-1.79,1.08-2.73c0.26-0.95,0.39-2.02,0.39-3.23V6.03
		c0-0.47-0.03-0.96-0.09-1.45c-0.06-0.5-0.19-0.95-0.38-1.37s-0.48-0.76-0.85-1.03c-0.37-0.27-0.87-0.41-1.5-0.41
		c-0.68,0-1.21,0.14-1.59,0.42c-0.39,0.28-0.67,0.65-0.85,1.11c-0.18,0.46-0.3,0.98-0.34,1.57c-0.05,0.59-0.07,1.19-0.07,1.8v1.7
		h-1.53V6c0-0.64,0.04-1.3,0.11-1.97c0.07-0.68,0.25-1.29,0.55-1.85c0.3-0.56,0.73-1.02,1.31-1.39c0.58-0.37,1.38-0.55,2.4-0.55
		c0.83,0,1.53,0.15,2.1,0.46s1.02,0.7,1.35,1.19s0.57,1.03,0.71,1.63s0.21,1.2,0.21,1.79v2.09c0,1.11-0.08,2.1-0.25,2.98
		c-0.17,0.88-0.43,1.73-0.8,2.55c-0.37,0.83-0.83,1.68-1.4,2.55s-1.26,1.88-2.06,3.01c-0.66,0.9-1.28,1.76-1.85,2.57
		c-0.57,0.82-1.02,1.73-1.35,2.75h7.89v1.53H129.02z"/>
	<path class="st2" d="M146.5,1.81v23.55h-1.74V1.81h-4.37V0.28h10.55v1.53H146.5z"/>
	<path class="st2" d="M161.53,25.36v-12.4h-6.43v12.4h-1.74V0.28h1.74v11.15h6.43V0.28h1.74v25.08H161.53z"/>
	<path class="st2" d="M168.67,22.13v3.23c0,0.76-0.1,1.4-0.28,1.94c-0.19,0.53-0.64,0.95-1.35,1.26v-0.78
		c0.43-0.24,0.68-0.55,0.76-0.94c0.08-0.39,0.12-0.81,0.12-1.26v-0.21h-0.78v-3.23H168.67z"/>
	<path class="st2" d="M183.09,25.36V3.52c-0.93,0.78-1.74,1.27-2.44,1.46c-0.69,0.19-1.27,0.31-1.72,0.35V3.94
		c0.79-0.12,1.44-0.33,1.97-0.62c0.53-0.3,0.96-0.62,1.29-0.98s0.59-0.71,0.75-1.07c0.17-0.35,0.28-0.64,0.32-0.85h1.56v24.94
		H183.09z"/>
	<path class="st2" d="M193.99,25.36V3.52c-0.93,0.78-1.74,1.27-2.44,1.46c-0.69,0.19-1.27,0.31-1.72,0.35V3.94
		c0.79-0.12,1.44-0.33,1.97-0.62c0.53-0.3,0.96-0.62,1.29-0.98s0.58-0.71,0.75-1.07c0.17-0.35,0.27-0.64,0.32-0.85h1.56v24.94
		H193.99z"/>
	<path class="st2" d="M211.19,25.36l-1.28-7.64h-5.26l-1.31,7.64h-1.85l4.58-25.22h2.42l4.55,25.22H211.19z M207.28,2.45
		l-2.34,13.64h4.65L207.28,2.45z"/>
	<path class="st2" d="M228.03,25.36c0-0.26,0-0.89,0-1.88s0-2.19,0-3.59s-0.01-2.92-0.02-4.58c-0.01-1.66-0.02-3.3-0.02-4.94
		s0-3.17,0-4.62s0-2.64,0-3.59l-4.37,23.2h-1.6l-4.41-23.2v23.2h-1.74c0-0.19,0-0.7,0-1.53s0.01-1.85,0.02-3.06
		c0.01-1.21,0.02-2.56,0.04-4.05c0.01-1.49,0.03-3,0.05-4.51c0.05-3.55,0.08-7.53,0.11-11.94h2.56l4.12,21.42l4.19-21.42h2.56
		c0,0.33,0.01,0.94,0.02,1.83c0.01,0.89,0.02,1.95,0.04,3.2c0.01,1.24,0.02,2.6,0.04,4.07c0.01,1.47,0.03,2.95,0.05,4.44
		c0.05,3.48,0.08,7.33,0.11,11.55H228.03z"/>
	<path class="st2" d="M232.96,15.74v-1.53h10.09v1.53H232.96z"/>
	<path class="st2" d="M255.63,0.39v1.53c-0.73,1.68-1.43,3.36-2.08,5.04c-0.65,1.67-1.22,3.38-1.71,5.12s-0.86,3.53-1.14,5.37
		c-0.27,1.84-0.41,3.75-0.41,5.75v2.17h-1.74v-1.49c0-1.64,0.09-3.29,0.28-4.95c0.19-1.66,0.49-3.39,0.91-5.18
		c0.42-1.79,0.97-3.66,1.65-5.6c0.68-1.95,1.51-4.02,2.49-6.23H246V0.39H255.63z"/>
	<path class="st2" d="M263.41,0.28c0.69,0,1.38,0.05,2.08,0.14c0.7,0.09,1.33,0.38,1.9,0.86c0.33,0.29,0.59,0.59,0.78,0.93
		c0.19,0.33,0.33,0.7,0.41,1.09c0.08,0.39,0.13,0.8,0.14,1.23c0.01,0.43,0.02,0.88,0.02,1.36v2.86c0,0.69-0.05,1.33-0.14,1.91
		s-0.38,1.16-0.85,1.73c-0.31,0.38-0.67,0.68-1.08,0.89c-0.41,0.21-0.82,0.38-1.22,0.48c-0.4,0.11-0.79,0.17-1.17,0.2
		c-0.38,0.02-0.71,0.04-1,0.04h-2.56v11.37h-1.74V0.28H263.41z M260.67,12.47h2.83c0.47,0,0.94-0.05,1.41-0.14
		c0.47-0.09,0.89-0.34,1.27-0.74c0.38-0.38,0.61-0.81,0.69-1.31c0.08-0.49,0.12-0.89,0.12-1.2v-2.5c0-0.85-0.03-1.57-0.09-2.17
		c-0.06-0.6-0.2-1.09-0.42-1.48c-0.22-0.39-0.57-0.67-1.04-0.85s-1.12-0.26-1.94-0.26h-2.83V12.47z"/>
	<path class="st2" d="M284.3,25.36c0-0.26,0-0.89,0-1.88s0-2.19,0-3.59s-0.01-2.92-0.02-4.58c-0.01-1.66-0.02-3.3-0.02-4.94
		s0-3.17,0-4.62s0-2.64,0-3.59l-4.37,23.2h-1.6l-4.41-23.2v23.2h-1.74c0-0.19,0-0.7,0-1.53s0.01-1.85,0.02-3.06
		c0.01-1.21,0.02-2.56,0.04-4.05c0.01-1.49,0.03-3,0.05-4.51c0.05-3.55,0.08-7.53,0.11-11.94h2.56l4.12,21.42l4.19-21.42h2.56
		c0,0.33,0.01,0.94,0.02,1.83c0.01,0.89,0.02,1.95,0.04,3.2c0.01,1.24,0.02,2.6,0.04,4.07c0.01,1.47,0.03,2.95,0.05,4.44
		c0.05,3.48,0.08,7.33,0.11,11.55H284.3z"/>
</g>
</svg>
