<?xml version="1.0" encoding="utf-8"?>
<!-- Generator: Adobe Illustrator 16.0.0, SVG Export Plug-In . SVG Version: 6.00 Build 0)  -->
<!DOCTYPE svg PUBLIC "-//W3C//DTD SVG 1.1//EN" "http://www.w3.org/Graphics/SVG/1.1/DTD/svg11.dtd">
<svg version="1.1" xmlns="http://www.w3.org/2000/svg" xmlns:xlink="http://www.w3.org/1999/xlink" x="0px" y="0px" width="80.45px"
	 height="23.05px" viewBox="0 0 80.45 23.05" style="enable-background:new 0 0 80.45 23.05;" xml:space="preserve">
<style type="text/css">
<![CDATA[
	.st0{fill-rule:evenodd;clip-rule:evenodd;fill:#D55128;}
	.st1{fill-rule:evenodd;clip-rule:evenodd;fill:#D7D8A7;}
	.st2{fill-rule:evenodd;clip-rule:evenodd;fill:#D7DCAE;}
	.st3{fill-rule:evenodd;clip-rule:evenodd;fill:#D7E7C4;}
	.st4{fill-rule:evenodd;clip-rule:evenodd;fill:#D8711C;}
	.st5{fill-rule:evenodd;clip-rule:evenodd;fill:#D8D7A4;}
	.st6{fill-rule:evenodd;clip-rule:evenodd;fill:#D8DCAE;}
	.st7{fill:#AD2426;}
	.st8{fill-rule:evenodd;clip-rule:evenodd;fill:#D9711C;}
	.st9{fill-rule:evenodd;clip-rule:evenodd;fill:#D9721C;}
	.st10{fill-rule:evenodd;clip-rule:evenodd;fill:#D97327;}
	.st11{fill-rule:evenodd;clip-rule:evenodd;fill:#3F6954;}
	.st12{fill-rule:evenodd;clip-rule:evenodd;fill:#70A186;}
	.st13{clip-path:url(#SVGID_11_);fill:#FFFFFF;}
	.st14{fill-rule:evenodd;clip-rule:evenodd;fill:#71A287;}
	.st15{fill-rule:evenodd;clip-rule:evenodd;fill:#A1B7A9;}
	.st16{clip-path:url(#SVGID_19_);fill:#451500;}
	.st17{fill-rule:evenodd;clip-rule:evenodd;fill:#753818;}
	.st18{fill-rule:evenodd;clip-rule:evenodd;fill:#0A341D;}
	.st19{fill-rule:evenodd;clip-rule:evenodd;fill:#0A7D46;}
	.st20{fill-rule:evenodd;clip-rule:evenodd;fill:#76AE54;}
	.st21{fill-rule:evenodd;clip-rule:evenodd;fill:#0B371F;}
	.st22{fill-rule:evenodd;clip-rule:evenodd;fill:#DA5230;}
	.st23{fill-rule:evenodd;clip-rule:evenodd;fill:#DA7327;}
	.st24{fill-rule:evenodd;clip-rule:evenodd;fill:#DAA228;}
	.st25{fill-rule:evenodd;clip-rule:evenodd;fill:#DAA52B;}
	.st26{fill-rule:evenodd;clip-rule:evenodd;fill:#DAA62E;}
	.st27{fill-rule:evenodd;clip-rule:evenodd;fill:#DAA732;}
	.st28{fill-rule:evenodd;clip-rule:evenodd;fill:#DAAB3B;}
	.st29{fill-rule:evenodd;clip-rule:evenodd;fill:#DAAB3D;}
	.st30{fill-rule:evenodd;clip-rule:evenodd;fill:#DAAC3F;}
	.st31{fill-rule:evenodd;clip-rule:evenodd;fill:#DAAD42;}
	.st32{fill-rule:evenodd;clip-rule:evenodd;fill:#DAB351;}
	.st33{fill-rule:evenodd;clip-rule:evenodd;fill:#0C3920;}
	.st34{fill-rule:evenodd;clip-rule:evenodd;fill:#0C84C7;}
	.st35{fill-rule:evenodd;clip-rule:evenodd;fill:#DBA221;}
	.st36{fill-rule:evenodd;clip-rule:evenodd;fill:#DBB85E;}
	.st37{fill-rule:evenodd;clip-rule:evenodd;fill:#DBBC68;}
	.st38{fill-rule:evenodd;clip-rule:evenodd;fill:#0D321D;}
	.st39{fill-rule:evenodd;clip-rule:evenodd;fill:#DBC376;}
	.st40{fill-rule:evenodd;clip-rule:evenodd;fill:#0D3D23;}
	.st41{fill-rule:evenodd;clip-rule:evenodd;fill:#0E4125;}
	.st42{fill-rule:evenodd;clip-rule:evenodd;fill:#0E4226;}
	.st43{fill-rule:evenodd;clip-rule:evenodd;fill:#0E4326;}
	.st44{fill-rule:evenodd;clip-rule:evenodd;fill:#DCE8C8;}
	.st45{fill-rule:evenodd;clip-rule:evenodd;fill:#0E7C47;}
	.st46{fill-rule:evenodd;clip-rule:evenodd;fill:#A96851;}
	.st47{fill-rule:evenodd;clip-rule:evenodd;fill:#DD9179;}
	.st48{clip-path:url(#SVGID_2_);fill:#451500;}
	.st49{filter:url(#Adobe_OpacityMaskFilter);}
	.st50{fill-rule:evenodd;clip-rule:evenodd;fill:#0F7C46;}
	.st51{fill:#4F9DAF;}
	.st52{fill-rule:evenodd;clip-rule:evenodd;fill:#411C11;}
	.st53{fill-rule:evenodd;clip-rule:evenodd;fill:#416855;}
	.st54{fill-rule:evenodd;clip-rule:evenodd;fill:#DFEBCD;}
	.st55{fill-rule:evenodd;clip-rule:evenodd;fill:#421A0D;}
	.st56{opacity:0.24;}
	.st57{opacity:0.35;}
	.st58{opacity:0.36;}
	.st59{opacity:0.37;}
	.st60{opacity:0.41;}
	.st61{opacity:0.43;}
	.st62{opacity:0.47;}
	.st63{opacity:0.48;}
	.st64{opacity:0.52;}
	.st65{opacity:0.56;}
	.st66{opacity:0.58;}
	.st67{opacity:0.62;}
	.st68{opacity:0.63;}
	.st69{opacity:0.82;}
	.st70{fill:#B3B4B4;}
	.st71{clip-path:url(#SVGID_13_);fill:#FFFFFF;}
	.st72{opacity:0.4;clip-path:url(#SVGID_9_);}
	.st73{fill-rule:evenodd;clip-rule:evenodd;fill:#AA2418;}
	.st74{fill-rule:evenodd;clip-rule:evenodd;fill:#7B3719;}
	.st75{fill-rule:evenodd;clip-rule:evenodd;fill:#7B473D;}
	.st76{fill-rule:evenodd;clip-rule:evenodd;fill:#AB2418;}
	.st77{fill-rule:evenodd;clip-rule:evenodd;fill:#AB2524;}
	.st78{fill-rule:evenodd;clip-rule:evenodd;fill:#AD2819;}
	.st79{fill-rule:evenodd;clip-rule:evenodd;fill:#AD2919;}
	.st80{fill-rule:evenodd;clip-rule:evenodd;fill:#107945;}
	.st81{fill-rule:evenodd;clip-rule:evenodd;fill:#107A45;}
	.st82{fill-rule:evenodd;clip-rule:evenodd;fill:#AE2A19;}
	.st83{fill-rule:evenodd;clip-rule:evenodd;fill:#7F1918;}
	.st84{fill-rule:evenodd;clip-rule:evenodd;fill:#E0EED6;}
	.st85{clip-path:url(#SVGID_4_);fill:#451500;}
	.st86{clip-path:url(#SVGID_4_);fill:#AB2318;}
	.st87{fill-rule:evenodd;clip-rule:evenodd;fill:#E7AC76;}
	.st88{fill-rule:evenodd;clip-rule:evenodd;fill:#E9C987;}
	.st89{fill-rule:evenodd;clip-rule:evenodd;fill:#E9F0DA;}
	.st90{fill-rule:evenodd;clip-rule:evenodd;fill:#B16147;}
	.st91{fill-rule:evenodd;clip-rule:evenodd;fill:#831B11;}
	.st92{fill-rule:evenodd;clip-rule:evenodd;fill:#B3361A;}
	.st93{fill-rule:evenodd;clip-rule:evenodd;fill:#841B12;}
	.st94{fill-rule:evenodd;clip-rule:evenodd;fill:#84D2DF;}
	.st95{fill-rule:evenodd;clip-rule:evenodd;fill:#B5381A;}
	.st96{fill-rule:evenodd;clip-rule:evenodd;fill:#B63B1A;}
	.st97{fill-rule:evenodd;clip-rule:evenodd;fill:#88B86A;}
	.st98{fill-rule:evenodd;clip-rule:evenodd;fill:#B83E1B;}
	.st99{fill-rule:evenodd;clip-rule:evenodd;fill:#891D13;}
	.st100{fill-rule:evenodd;clip-rule:evenodd;fill:#ECCB89;}
	.st101{fill-rule:evenodd;clip-rule:evenodd;fill:#B9411B;}
	.st102{fill-rule:evenodd;clip-rule:evenodd;fill:#EDF3E0;}
	.st103{clip-path:url(#SVGID_2_);}
	.st104{clip-path:url(#SVGID_4_);}
	.st105{fill-rule:evenodd;clip-rule:evenodd;fill:#EEB687;}
	.st106{fill-rule:evenodd;clip-rule:evenodd;fill:#558068;}
	.st107{fill-rule:evenodd;clip-rule:evenodd;fill:#566C5D;}
	.st108{fill-rule:evenodd;clip-rule:evenodd;fill:#568068;}
	.st109{fill-rule:evenodd;clip-rule:evenodd;fill:#8B1D13;}
	.st110{fill-rule:evenodd;clip-rule:evenodd;fill:#592D15;}
	.st111{fill-rule:evenodd;clip-rule:evenodd;fill:#BC461B;}
	.st112{fill-rule:evenodd;clip-rule:evenodd;fill:#8D1E14;}
	.st113{fill-rule:evenodd;clip-rule:evenodd;}
	.st114{opacity:0.6;}
	.st115{opacity:0.7;}
	.st116{fill-rule:evenodd;clip-rule:evenodd;fill:#BE491B;}
	.st117{fill-rule:evenodd;clip-rule:evenodd;fill:#8F1E14;}
	.st118{fill-rule:evenodd;clip-rule:evenodd;fill:#210F0F;}
	.st119{fill-rule:evenodd;clip-rule:evenodd;fill:#BF4B1C;}
	.st120{fill-rule:evenodd;clip-rule:evenodd;fill:#223D2F;}
	.st121{fill:#FFFFFF;}
	.st122{fill-rule:evenodd;clip-rule:evenodd;fill:#F2C7A1;}
	.st123{opacity:0.6;fill:#4F9DAF;}
	.st124{fill-rule:evenodd;clip-rule:evenodd;fill:#F5F9EE;}
	.st125{fill-rule:evenodd;clip-rule:evenodd;fill:#F6FAEF;}
	.st126{fill-rule:evenodd;clip-rule:evenodd;fill:#F7DDCD;}
	.st127{clip-path:url(#SVGID_13_);fill:#451500;}
	.st128{fill-rule:evenodd;clip-rule:evenodd;fill:#F7FAF2;}
	.st129{clip-path:url(#SVGID_4_);mask:url(#SVGID_5_);}
	.st130{fill-rule:evenodd;clip-rule:evenodd;fill:#914933;}
	.st131{fill-rule:evenodd;clip-rule:evenodd;fill:#921F14;}
	.st132{fill-rule:evenodd;clip-rule:evenodd;fill:#C2501C;}
	.st133{fill-rule:evenodd;clip-rule:evenodd;fill:#931F15;}
	.st134{fill-rule:evenodd;clip-rule:evenodd;fill:#C53B27;}
	.st135{fill-rule:evenodd;clip-rule:evenodd;fill:#965A34;}
	.st136{fill-rule:evenodd;clip-rule:evenodd;fill:#2B4A38;}
	.st137{clip-path:url(#SVGID_2_);fill:#FFFFFF;}
	.st138{fill-rule:evenodd;clip-rule:evenodd;fill:#2C4C39;}
	.st139{fill-rule:evenodd;clip-rule:evenodd;fill:#FAFCF7;}
	.st140{fill-rule:evenodd;clip-rule:evenodd;fill:#2D4C3A;}
	.st141{fill-rule:evenodd;clip-rule:evenodd;fill:#992116;}
	.st142{fill-rule:evenodd;clip-rule:evenodd;fill:#602F28;}
	.st143{clip-path:url(#SVGID_15_);fill:#451500;}
	.st144{fill-rule:evenodd;clip-rule:evenodd;fill:#9B4B23;}
	.st145{fill-rule:evenodd;clip-rule:evenodd;fill:#CB765B;}
	.st146{fill:#D7E7C4;}
	.st147{fill-rule:evenodd;clip-rule:evenodd;fill:#CE621C;}
	.st148{clip-path:url(#SVGID_4_);fill:#FFFFFF;}
	.st149{clip-path:url(#SVGID_23_);}
	.st150{clip-path:url(#SVGID_27_);}
	.st151{fill-rule:evenodd;clip-rule:evenodd;fill:#368A4C;}
	.st152{clip-path:url(#SVGID_17_);fill:#451500;}
	.st153{fill-rule:evenodd;clip-rule:evenodd;fill:#005C31;}
	.st154{fill:#402312;}
	.st155{fill-rule:evenodd;clip-rule:evenodd;fill:#024D26;}
	.st156{fill-rule:evenodd;clip-rule:evenodd;fill:#D2681D;}
	.st157{fill-rule:evenodd;clip-rule:evenodd;fill:#D37028;}
]]>
</style>
<g id="Layer_1">
	<polygon class="st7" points="1.45,0.57 6.46,11.95 0,23.05 80.45,23.05 73.36,12.03 79.48,0 	"/>
	<g>
		<path class="st121" d="M13.26,18.76V5.79h1.6v12.97H13.26z"/>
		<path class="st121" d="M20.02,7.24v11.52h-1.6V7.24h-2.46V5.79h6.52v1.45H20.02z"/>
		<path class="st121" d="M23.42,10.45V9.52c0.62-0.17,0.7-0.68,0.7-1.23c0-0.11,0-0.24-0.02-0.35h-0.68V5.79h1.56v2.22
			C24.98,9.22,24.75,10.2,23.42,10.45z"/>
		<path class="st121" d="M31.38,18.39c-0.81,0.55-1.71,0.55-2.02,0.55c-0.46,0-2.31-0.04-2.92-1.78c-0.17-0.48-0.2-0.96-0.2-1.45
			v-1.43h1.52v0.64c0,0.88,0,1.29,0.15,1.71c0.13,0.35,0.51,0.94,1.45,0.94c0.62,0,1.23-0.28,1.49-0.84
			c0.15-0.31,0.15-0.64,0.15-0.77c0-1.1-0.5-1.56-1.21-2.3l-1.75-1.8c-1.01-1.05-1.49-1.75-1.49-3.25c0-0.18,0-0.7,0.15-1.23
			c0.26-0.84,0.97-1.78,2.87-1.78c0.44,0,2.19,0.02,2.63,1.69c0.11,0.44,0.11,1.05,0.11,1.51v0.83h-1.43
			C30.84,8.8,30.84,9,30.84,8.54c0-0.59-0.09-1.16-0.7-1.45c-0.29-0.13-0.57-0.13-0.68-0.13c-0.39,0-0.72,0.09-0.97,0.35
			c-0.15,0.13-0.22,0.29-0.26,0.35c-0.07,0.17-0.13,0.44-0.13,0.86c0,0.11,0,0.44,0.11,0.75c0.2,0.61,0.75,1.1,1.18,1.56l2.04,2.17
			c0.15,0.17,0.28,0.33,0.4,0.5c0.31,0.4,0.72,1.08,0.72,2.31C32.55,17.36,31.93,18.02,31.38,18.39z"/>
		<path class="st121" d="M39.39,7.24v3.82h3.55v1.41h-3.55v6.28h-1.64V5.79h5.71v1.45H39.39z"/>
		<path class="st121" d="M49.78,18.76l-2.2-5.7h-1.34v5.7h-1.6V5.79h2.83c0.83,0,1.73,0.04,2.42,0.61c1.08,0.88,1.01,2.59,1.01,2.85
			c0,0.55-0.04,1.08-0.13,1.62c-0.13,0.73-0.33,1.1-0.53,1.36c-0.4,0.5-0.88,0.61-1.08,0.66l2.31,5.88H49.78z M49.14,8.12
			c-0.33-0.94-1.32-0.86-2.11-0.86h-0.79v4.54h0.84c0.72,0,1.07-0.02,1.41-0.15c0.81-0.33,0.79-1.47,0.79-2.15
			C49.29,9.06,49.29,8.54,49.14,8.12z"/>
		<path class="st121" d="M52.67,18.76V5.79h5.71v1.45h-4.1v3.86h3.58v1.47h-3.58v4.74h4.23v1.45H52.67z"/>
		<path class="st121" d="M59.94,18.76V5.79h5.71v1.45h-4.1v3.86h3.58v1.47h-3.58v4.74h4.23v1.45H59.94z"/>
	</g>
</g>
<g id="Layer_2">
</g>
</svg>
