<?xml version="1.0" encoding="utf-8"?>
<!-- Generator: Adobe Illustrator 16.0.0, SVG Export Plug-In . SVG Version: 6.00 Build 0)  -->
<!DOCTYPE svg PUBLIC "-//W3C//DTD SVG 1.1//EN" "http://www.w3.org/Graphics/SVG/1.1/DTD/svg11.dtd">
<svg version="1.1" id="Layer_1" xmlns="http://www.w3.org/2000/svg" xmlns:xlink="http://www.w3.org/1999/xlink" x="0px" y="0px"
	 width="288.03px" height="72.18px" viewBox="0 0 288.03 72.18" style="enable-background:new 0 0 288.03 72.18;"
	 xml:space="preserve">
<style type="text/css">
<![CDATA[
	.st0{fill:#AC2325;}
	.st1{fill:#FFFFFF;}
	.st2{fill:#421A0D;}
]]>
</style>
<text transform="matrix(1 0 0 1 -482.9697 16.6445)" class="st2" style="font-family:'AkzidenzGroteskBQ-BdCnd'; font-size:35.5244;">BAYFRONT PARK, MIAMI</text>
<g>
	<path class="st2" d="M1.96-86.58c-0.04,0.6-0.18,2.81-2.2,3.73c-1.1,0.5-2.38,0.5-3.55,0.5h-7.92v-25.08h7.78
		c1.49,0,2.91-0.04,4.16,0.96c1.42,1.1,1.49,2.56,1.49,4.16v2.24c0,0.07,0,1.1-0.14,1.78c-0.46,2.1-2.03,2.31-2.77,2.45
		c1.46,0.28,2.02,0.64,2.49,1.21c0.78,1.03,0.71,2.2,0.71,3.38v3.55C1.99-87.32,1.96-86.93,1.96-86.58z M-2.87-101.53
		c0-0.6-0.04-0.78-0.11-1.1c-0.32-1.17-1.31-1.21-2.27-1.21H-7.1v6.32h1.67c0.64,0,0.96-0.04,1.24-0.07
		c0.89-0.18,1.31-0.71,1.31-2.24V-101.53z M-2.55-91.44c0-0.75,0-1.03-0.14-1.39c-0.36-1.03-1.49-1.07-2.42-1.07H-7.1v7.92h1.95
		c0.39,0,0.82,0,1.17-0.07c0.99-0.14,1.42-0.75,1.42-2.45V-91.44z"/>
	<path class="st2" d="M14.04-82.35l-0.6-4.08H9.17L8.5-82.35H3.88l4.87-25.08h5.29l4.69,25.08H14.04z M11.41-101.07L9.74-90.31h3.2
		L11.41-101.07z"/>
	<path class="st2" d="M27.64-89.77v7.42h-4.72v-7.74l-5.01-17.33h4.87l2.56,12.65l2.45-12.65h4.87L27.64-89.77z"/>
	<path class="st2" d="M39.12-103.56v6.29h7.17v3.73h-7.17v11.19h-4.65v-25.08h12.29v3.87H39.12z"/>
	<path class="st2" d="M58.44-82.35l-3.55-11.12h-1.74v11.12h-4.62v-25.08h9.24c3.06,0,4.51,1.42,4.51,4.48v4.55
		c0,2.49-0.75,3.62-2.95,4.3l3.91,11.76H58.44z M57.7-101.78c0-1.56-0.53-2.06-2.13-2.06h-2.42v6.68h2.42c1.6,0,2.13-0.57,2.13-2.38
		V-101.78z"/>
	<path class="st2" d="M77.77-83.49c-1.49,1.39-3.52,1.67-5.43,1.67c-1.85,0-3.73-0.25-5.22-1.46c-0.75-0.6-1.1-1.21-1.24-1.56
		c-0.43-0.89-0.53-1.95-0.53-2.88v-14.07c0-0.53-0.11-3.06,1.56-4.55c0.92-0.82,2.66-1.63,5.47-1.63c3.62,0,5.54,1.49,6.29,2.95
		c0.39,0.82,0.57,1.6,0.57,3.34v13.96C79.22-86.12,78.98-84.66,77.77-83.49z M74.57-101.35c0-0.14,0.11-1.28-0.28-2.02
		c-0.21-0.46-0.75-1.1-1.92-1.1c-0.25,0-0.92,0.04-1.49,0.46c-1.03,0.71-0.89,1.81-0.89,2.84v12.68c0,0.75-0.04,1.67,0.43,2.31
		c0.53,0.75,1.67,0.75,1.88,0.75s0.89-0.04,1.46-0.43c0.85-0.6,0.82-1.6,0.82-2.52V-101.35z"/>
	<path class="st2" d="M90.95-82.35l-4.44-18.79l0.39,18.79h-4.33v-25.08h5.93l4.51,18.4l-0.46-18.4h4.23v25.08H90.95z"/>
	<path class="st2" d="M107.89-103.81v21.46h-4.65v-21.46h-4.62v-3.62h13.92v3.62H107.89z"/>
	<path class="st2" d="M135.17-94.04c-0.75,0.92-1.81,1.24-4.08,1.24h-3.91v10.44h-4.65v-25.08h9.31c0.14,0,0.75,0,1.24,0.11
		c1.49,0.32,2.2,1.28,2.45,1.78c0.53,1.07,0.53,2.66,0.53,3.77v3.3C136.06-96.13,135.96-95,135.17-94.04z M131.52-101.18
		c0-0.71,0.11-1.46-0.36-2.02c-0.53-0.67-1.53-0.53-1.71-0.53h-2.27v7.35h2.24c0.96,0,1.49-0.11,1.78-0.5
		c0.32-0.43,0.32-1.24,0.32-1.74V-101.18z"/>
	<path class="st2" d="M147.54-82.35l-0.6-4.08h-4.26L142-82.35h-4.62l4.87-25.08h5.29l4.69,25.08H147.54z M144.91-101.07
		l-1.67,10.76h3.2L144.91-101.07z"/>
	<path class="st2" d="M164.23-82.35l-3.55-11.12h-1.74v11.12h-4.62v-25.08h9.24c3.05,0,4.51,1.42,4.51,4.48v4.55
		c0,2.49-0.75,3.62-2.95,4.3l3.91,11.76H164.23z M163.49-101.78c0-1.56-0.53-2.06-2.13-2.06h-2.42v6.68h2.42
		c1.6,0,2.13-0.57,2.13-2.38V-101.78z"/>
	<path class="st2" d="M180.93-82.35l-4.9-12.26v12.26h-4.69v-25.08h4.69v9.77l5.01-9.77h4.76l-5.72,10.83l5.86,14.24H180.93z"/>
	<path class="st2" d="M188.32-77.56h-1.56l2.42-4.8h-2.06v-4.58h4.16v4.58L188.32-77.56z"/>
	<path class="st2" d="M218.66-82.35l0.43-21.74l-4.05,21.74h-4.3l-4.16-21.74l0.35,21.74h-4.55v-25.08h7.53l2.95,17.55l2.98-17.55
		h7.42v25.08H218.66z"/>
	<path class="st2" d="M226.83-82.35v-25.08h4.58v25.08H226.83z"/>
	<path class="st2" d="M243.7-82.35l-0.6-4.08h-4.26l-0.67,4.08h-4.62l4.87-25.08h5.29l4.69,25.08H243.7z M241.07-101.07l-1.67,10.76
		h3.2L241.07-101.07z"/>
	<path class="st2" d="M266.75-82.35l0.43-21.74l-4.05,21.74h-4.3l-4.16-21.74l0.36,21.74h-4.55v-25.08h7.53l2.95,17.55l2.98-17.55
		h7.42v25.08H266.75z"/>
	<path class="st2" d="M274.92-82.35v-25.08h4.58v25.08H274.92z"/>
</g>
<text transform="matrix(1 0 0 1 -482.9697 55.2939)" class="st2" style="font-family:'AkzidenzGroteskStd-LightCn'; font-size:35.5244;">NOVEMBER 12TH, 11AM–7PM</text>
<g>
	<path class="st2" d="M8.3-206.71L2.58-230.4c0.02,3.96,0.05,7.58,0.07,10.87c0,1.4,0,2.79,0.02,4.19c0.01,1.4,0.02,2.68,0.04,3.85
		c0.01,1.17,0.02,2.18,0.02,3.02c0,0.84,0,1.43,0,1.76H0.98v-25.08h2.63l5.9,24.12c-0.02-4.26-0.06-8.11-0.11-11.55
		c-0.02-1.47-0.04-2.92-0.05-4.35c-0.01-1.43-0.02-2.73-0.04-3.89s-0.02-2.13-0.04-2.91c-0.01-0.78-0.02-1.25-0.02-1.42H11v25.08
		H8.3z"/>
	<path class="st2" d="M15.37-226.56c0-0.78,0.1-1.5,0.3-2.17c0.2-0.66,0.5-1.24,0.91-1.74c0.4-0.5,0.93-0.89,1.58-1.17
		c0.65-0.28,1.41-0.43,2.29-0.43c1.18,0,2.11,0.19,2.79,0.57c0.67,0.38,1.18,0.87,1.53,1.47c0.34,0.6,0.56,1.27,0.64,1.99
		s0.12,1.43,0.12,2.11v14.32c0,0.57-0.07,1.16-0.21,1.78c-0.14,0.62-0.4,1.18-0.78,1.69c-0.38,0.51-0.91,0.93-1.58,1.26
		c-0.67,0.33-1.53,0.5-2.58,0.5c-0.92,0-1.71-0.13-2.34-0.39c-0.64-0.26-1.15-0.63-1.54-1.12c-0.39-0.48-0.68-1.07-0.85-1.74
		c-0.18-0.67-0.27-1.43-0.27-2.26V-226.56z M23.79-225.41c0-1-0.08-1.83-0.25-2.5c-0.16-0.66-0.39-1.19-0.68-1.58
		c-0.29-0.39-0.64-0.67-1.05-0.82s-0.87-0.23-1.38-0.23c-0.61,0-1.12,0.11-1.54,0.34c-0.42,0.23-0.76,0.52-1.03,0.87
		s-0.46,0.76-0.58,1.21c-0.12,0.45-0.18,0.91-0.18,1.39v14.79c0,1.28,0.26,2.27,0.79,2.98c0.52,0.7,1.38,1.05,2.57,1.05
		c0.7,0,1.27-0.14,1.71-0.41c0.44-0.27,0.78-0.62,1.01-1.05c0.23-0.43,0.39-0.9,0.47-1.41c0.08-0.51,0.12-0.99,0.12-1.44V-225.41z"
		/>
	<path class="st2" d="M34.55-206.71h-1.81l-4.26-25.08h1.74l3.45,21.39l3.7-21.39h1.74L34.55-206.71z"/>
	<path class="st2" d="M43.93-230.26v9.7h5.86v1.53h-5.86v10.8h7.11v1.53h-8.85v-25.08h8.88v1.53H43.93z"/>
	<path class="st2" d="M66.74-206.71c0-0.26,0-0.89,0-1.88s0-2.19,0-3.59s-0.01-2.92-0.02-4.58c-0.01-1.66-0.02-3.3-0.02-4.94
		s0-3.17,0-4.62s0-2.64,0-3.59l-4.37,23.2h-1.6l-4.4-23.2v23.2h-1.74c0-0.19,0-0.7,0-1.53s0-1.85,0.02-3.06
		c0.01-1.21,0.02-2.56,0.04-4.05c0.01-1.49,0.03-3,0.05-4.51c0.05-3.55,0.08-7.53,0.11-11.94h2.56l4.12,21.42l4.19-21.42h2.56
		c0,0.33,0.01,0.94,0.02,1.83c0.01,0.89,0.02,1.95,0.04,3.2s0.02,2.6,0.04,4.07c0.01,1.47,0.03,2.95,0.05,4.44
		c0.05,3.48,0.08,7.33,0.11,11.55H66.74z"/>
	<path class="st2" d="M73.27-231.79h5.12c0.17,0,0.37,0.01,0.6,0.02c0.24,0.01,0.49,0.05,0.76,0.12c0.27,0.07,0.54,0.18,0.8,0.32
		c0.26,0.14,0.5,0.34,0.71,0.6c0.36,0.4,0.59,0.86,0.69,1.37c0.11,0.51,0.16,1.01,0.16,1.51v4.05c0,0.73-0.11,1.32-0.32,1.76
		c-0.21,0.44-0.47,0.78-0.78,1.01c-0.31,0.24-0.63,0.4-0.96,0.5c-0.33,0.1-0.63,0.17-0.89,0.21c0.09,0,0.24,0.02,0.44,0.05
		c0.2,0.04,0.43,0.09,0.68,0.16c0.25,0.07,0.51,0.17,0.78,0.28c0.27,0.12,0.53,0.27,0.76,0.46c0.57,0.47,0.91,1.04,1.01,1.71
		s0.16,1.33,0.16,1.99v4.44c0,0.62-0.08,1.2-0.23,1.74s-0.4,1.02-0.75,1.44s-0.8,0.74-1.38,0.98c-0.58,0.24-1.3,0.36-2.15,0.36
		h-5.22V-231.79z M74.98-220.99h1.92c0.83,0,1.47-0.12,1.94-0.35c0.46-0.24,0.81-0.52,1.05-0.87c0.24-0.34,0.38-0.7,0.43-1.06
		c0.05-0.37,0.07-0.68,0.07-0.94v-3.57c0-0.61-0.09-1.08-0.28-1.42c-0.19-0.33-0.43-0.57-0.73-0.72c-0.3-0.15-0.63-0.25-1.01-0.28
		c-0.38-0.04-0.77-0.05-1.17-0.05h-2.2V-220.99z M75.02-208.23h2.96c0.71,0,1.29-0.08,1.73-0.23c0.44-0.15,0.77-0.39,1-0.71
		c0.23-0.32,0.38-0.72,0.45-1.21s0.11-1.07,0.11-1.76v-3.66c0-0.83-0.13-1.49-0.39-1.97s-0.61-0.85-1.04-1.1
		c-0.43-0.25-0.9-0.41-1.43-0.48c-0.52-0.07-1.06-0.11-1.61-0.11h-1.79V-208.23z"/>
	<path class="st2" d="M89.08-230.26v9.7h5.86v1.53h-5.86v10.8h7.11v1.53h-8.85v-25.08h8.88v1.53H89.08z"/>
	<path class="st2" d="M108.98-206.71l-4.58-12.18h-2.73v12.18h-1.74v-25.08h5.01c1.56,0,2.75,0.34,3.57,1.03
		c0.82,0.69,1.23,1.8,1.23,3.35v4.2c0,0.74-0.11,1.35-0.34,1.83c-0.23,0.49-0.5,0.89-0.83,1.21c-0.33,0.32-0.71,0.57-1.12,0.75
		c-0.42,0.18-0.82,0.3-1.23,0.37l4.62,12.33H108.98z M101.66-220.42h3.2c0.59,0,1.08-0.07,1.47-0.21c0.39-0.14,0.7-0.33,0.92-0.57
		s0.38-0.51,0.48-0.83c0.09-0.32,0.14-0.64,0.14-0.97v-3.93c0-1.04-0.18-1.85-0.55-2.44s-1.11-0.88-2.22-0.88h-3.45V-220.42z"/>
	<path class="st2" d="M123.72-206.71v-21.85c-0.93,0.78-1.74,1.27-2.44,1.46c-0.69,0.19-1.27,0.31-1.72,0.35v-1.38
		c0.79-0.12,1.44-0.33,1.97-0.62c0.53-0.3,0.96-0.62,1.29-0.98s0.58-0.71,0.75-1.07c0.17-0.35,0.27-0.64,0.32-0.85h1.56v24.94
		H123.72z"/>
	<path class="st2" d="M130.01-206.71v-1.88c0.21-0.71,0.54-1.43,0.99-2.16c0.44-0.73,0.95-1.51,1.52-2.34
		c0.74-1.06,1.43-2.03,2.06-2.91c0.63-0.88,1.18-1.75,1.63-2.62c0.45-0.88,0.81-1.79,1.08-2.73c0.26-0.95,0.39-2.02,0.39-3.23v-1.46
		c0-0.47-0.03-0.96-0.09-1.45c-0.06-0.5-0.19-0.95-0.38-1.37s-0.48-0.76-0.85-1.03c-0.37-0.27-0.87-0.41-1.5-0.41
		c-0.68,0-1.21,0.14-1.59,0.42c-0.39,0.28-0.67,0.65-0.85,1.11c-0.18,0.46-0.3,0.98-0.34,1.57c-0.05,0.59-0.07,1.19-0.07,1.8v1.7
		h-1.53v-2.38c0-0.64,0.04-1.3,0.11-1.97c0.07-0.68,0.25-1.29,0.55-1.85c0.3-0.56,0.73-1.02,1.31-1.39c0.58-0.37,1.38-0.55,2.4-0.55
		c0.83,0,1.53,0.15,2.1,0.46s1.02,0.7,1.35,1.19s0.57,1.03,0.71,1.63s0.21,1.2,0.21,1.79v2.09c0,1.11-0.08,2.1-0.25,2.98
		c-0.17,0.88-0.43,1.73-0.8,2.55c-0.37,0.83-0.83,1.68-1.4,2.55s-1.26,1.88-2.06,3.01c-0.66,0.9-1.28,1.76-1.85,2.57
		c-0.57,0.82-1.02,1.73-1.35,2.75h7.89v1.53H130.01z"/>
	<path class="st2" d="M147.48-230.26v23.55h-1.74v-23.55h-4.37v-1.53h10.55v1.53H147.48z"/>
	<path class="st2" d="M162.51-206.71v-12.4h-6.43v12.4h-1.74v-25.08h1.74v11.15h6.43v-11.15h1.74v25.08H162.51z"/>
	<path class="st2" d="M169.65-209.94v3.23c0,0.76-0.1,1.4-0.28,1.94c-0.19,0.53-0.64,0.95-1.35,1.26v-0.78
		c0.43-0.24,0.68-0.55,0.76-0.94c0.08-0.39,0.12-0.81,0.12-1.26v-0.21h-0.78v-3.23H169.65z"/>
	<path class="st2" d="M184.07-206.71v-21.85c-0.93,0.78-1.74,1.27-2.44,1.46c-0.69,0.19-1.27,0.31-1.72,0.35v-1.38
		c0.79-0.12,1.44-0.33,1.97-0.62c0.53-0.3,0.96-0.62,1.29-0.98s0.59-0.71,0.75-1.07c0.17-0.35,0.28-0.64,0.32-0.85h1.56v24.94
		H184.07z"/>
	<path class="st2" d="M194.98-206.71v-21.85c-0.93,0.78-1.74,1.27-2.44,1.46c-0.69,0.19-1.27,0.31-1.72,0.35v-1.38
		c0.79-0.12,1.44-0.33,1.97-0.62c0.53-0.3,0.96-0.62,1.29-0.98s0.58-0.71,0.75-1.07c0.17-0.35,0.27-0.64,0.32-0.85h1.56v24.94
		H194.98z"/>
	<path class="st2" d="M212.17-206.71l-1.28-7.64h-5.26l-1.31,7.64h-1.85l4.58-25.22h2.42l4.55,25.22H212.17z M208.26-229.62
		l-2.34,13.64h4.65L208.26-229.62z"/>
	<path class="st2" d="M229.01-206.71c0-0.26,0-0.89,0-1.88s0-2.19,0-3.59s-0.01-2.92-0.02-4.58c-0.01-1.66-0.02-3.3-0.02-4.94
		s0-3.17,0-4.62s0-2.64,0-3.59l-4.37,23.2h-1.6l-4.41-23.2v23.2h-1.74c0-0.19,0-0.7,0-1.53s0.01-1.85,0.02-3.06
		c0.01-1.21,0.02-2.56,0.04-4.05c0.01-1.49,0.03-3,0.05-4.51c0.05-3.55,0.08-7.53,0.11-11.94h2.56l4.12,21.42l4.19-21.42h2.56
		c0,0.33,0.01,0.94,0.02,1.83c0.01,0.89,0.02,1.95,0.04,3.2c0.01,1.24,0.02,2.6,0.04,4.07c0.01,1.47,0.03,2.95,0.05,4.44
		c0.05,3.48,0.08,7.33,0.11,11.55H229.01z"/>
	<path class="st2" d="M233.95-216.33v-1.53h10.09v1.53H233.95z"/>
	<path class="st2" d="M256.61-231.68v1.53c-0.73,1.68-1.43,3.36-2.08,5.04c-0.65,1.67-1.22,3.38-1.71,5.12s-0.86,3.53-1.14,5.37
		c-0.27,1.84-0.41,3.75-0.41,5.75v2.17h-1.74v-1.49c0-1.64,0.09-3.29,0.28-4.95c0.19-1.66,0.49-3.39,0.91-5.18
		c0.42-1.79,0.97-3.66,1.65-5.6c0.68-1.95,1.51-4.02,2.49-6.23h-7.89v-1.53H256.61z"/>
	<path class="st2" d="M264.39-231.79c0.69,0,1.38,0.05,2.08,0.14c0.7,0.09,1.33,0.38,1.9,0.86c0.33,0.29,0.59,0.59,0.78,0.93
		c0.19,0.33,0.33,0.7,0.41,1.09c0.08,0.39,0.13,0.8,0.14,1.23c0.01,0.43,0.02,0.88,0.02,1.36v2.86c0,0.69-0.05,1.33-0.14,1.91
		s-0.38,1.16-0.85,1.73c-0.31,0.38-0.67,0.68-1.08,0.89c-0.41,0.21-0.82,0.38-1.22,0.48c-0.4,0.11-0.79,0.17-1.17,0.2
		c-0.38,0.02-0.71,0.04-1,0.04h-2.56v11.37h-1.74v-25.08H264.39z M261.66-219.6h2.83c0.47,0,0.94-0.05,1.41-0.14
		c0.47-0.09,0.89-0.34,1.27-0.74c0.38-0.38,0.61-0.81,0.69-1.31c0.08-0.49,0.12-0.89,0.12-1.2v-2.5c0-0.85-0.03-1.57-0.09-2.17
		c-0.06-0.6-0.2-1.09-0.42-1.48c-0.22-0.39-0.57-0.67-1.04-0.85s-1.12-0.26-1.94-0.26h-2.83V-219.6z"/>
	<path class="st2" d="M285.28-206.71c0-0.26,0-0.89,0-1.88s0-2.19,0-3.59s-0.01-2.92-0.02-4.58c-0.01-1.66-0.02-3.3-0.02-4.94
		s0-3.17,0-4.62s0-2.64,0-3.59l-4.37,23.2h-1.6l-4.41-23.2v23.2h-1.74c0-0.19,0-0.7,0-1.53s0.01-1.85,0.02-3.06
		c0.01-1.21,0.02-2.56,0.04-4.05c0.01-1.49,0.03-3,0.05-4.51c0.05-3.55,0.08-7.53,0.11-11.94h2.56l4.12,21.42l4.19-21.42h2.56
		c0,0.33,0.01,0.94,0.02,1.83c0.01,0.89,0.02,1.95,0.04,3.2c0.01,1.24,0.02,2.6,0.04,4.07c0.01,1.47,0.03,2.95,0.05,4.44
		c0.05,3.48,0.08,7.33,0.11,11.55H285.28z"/>
</g>
<text transform="matrix(1 0 0 1 -482.9697 98.2812)" class="st0" style="font-family:'AkzidenzGroteskBQ-Cnd'; font-size:42.6742;">IT’S FREE</text>
<g>
	<path class="st0" d="M-293.14,184.62h-180.83c-4.95,0-9-4.05-9-9v-47.66c0-4.95,4.05-9,9-9h180.83c4.95,0,9,4.05,9,9v47.66
		C-284.14,180.57-288.19,184.62-293.14,184.62z"/>
	<text transform="matrix(1 0 0 1 -464.8389 167.2783)" class="st1" style="font-family:'AkzidenzGroteskBQ-Cnd'; font-size:41;">LEARN MORE</text>
</g>
<path class="st1" d="M-293.14,274.62h-180.83c-4.95,0-9-4.05-9-9v-47.66c0-4.95,4.05-9,9-9h180.83c4.95,0,9,4.05,9,9v47.66
	C-284.14,270.57-288.19,274.62-293.14,274.62z"/>
<text transform="matrix(1 0 0 1 -464.8389 257.2734)" class="st0" style="font-family:'AkzidenzGroteskBQ-Cnd'; font-size:41;">LEARN MORE</text>
<g>
	<path class="st2" d="M13.5,24.16c0,1.09-0.1,2-0.3,2.72s-0.45,1.31-0.75,1.76c-0.3,0.45-0.63,0.79-0.99,1.03
		c-0.37,0.24-0.73,0.43-1.08,0.57c-0.59,0.21-1.15,0.34-1.69,0.37c-0.53,0.04-0.89,0.05-1.08,0.05c-1.4,0-2.5-0.25-3.3-0.76
		c-0.81-0.51-1.41-1.15-1.81-1.92c-0.4-0.77-0.66-1.59-0.76-2.47c-0.11-0.88-0.16-1.67-0.16-2.38v-9.88c0-0.47,0.01-0.99,0.04-1.56
		c0.02-0.57,0.08-1.14,0.16-1.71c0.08-0.57,0.22-1.12,0.41-1.65C2.36,7.8,2.61,7.32,2.91,6.89c0.28-0.38,0.62-0.7,1-0.96
		C4.29,5.67,4.7,5.46,5.13,5.29C5.57,5.13,6.03,5.01,6.5,4.94s0.92-0.11,1.35-0.11c1.14,0,2.04,0.18,2.7,0.55
		c0.66,0.37,1.16,0.72,1.49,1.05c0.24,0.24,0.44,0.51,0.6,0.82c0.17,0.31,0.3,0.66,0.41,1.05c0.11,0.39,0.18,0.85,0.23,1.37
		c0.05,0.52,0.07,1.12,0.07,1.81v1.63h-2.91v-2.35c0-0.44-0.04-0.87-0.11-1.26s-0.21-0.74-0.41-1.04c-0.2-0.29-0.46-0.52-0.79-0.68
		C8.81,7.61,8.38,7.53,7.87,7.53c-0.19,0-0.42,0.02-0.71,0.05C6.88,7.62,6.6,7.71,6.33,7.87C6.06,8.02,5.81,8.24,5.57,8.54
		C5.34,8.83,5.16,9.22,5.04,9.72c-0.12,0.47-0.21,1.09-0.27,1.87c-0.06,0.78-0.09,1.69-0.09,2.75v6.24c0,0.59,0.01,1.2,0.02,1.83
		s0.04,1.24,0.09,1.8s0.11,1.06,0.18,1.5s0.18,0.77,0.32,1c0.17,0.31,0.37,0.54,0.62,0.71c0.25,0.17,0.49,0.29,0.74,0.37
		c0.25,0.08,0.48,0.13,0.69,0.14c0.21,0.01,0.36,0.02,0.46,0.02c0.68,0,1.21-0.16,1.59-0.47c0.38-0.32,0.65-0.7,0.83-1.16
		c0.18-0.46,0.28-0.96,0.32-1.51c0.04-0.55,0.05-1.05,0.05-1.49v-1.86h2.91V24.16z"/>
	<path class="st2" d="M26.18,30.3V18.58h-5.72V30.3h-3.12V5.22h3.12v10.66h5.72V5.22h3.13V30.3H26.18z"/>
	<path class="st2" d="M34.35,30.3V5.22h3.13V30.3H34.35z"/>
	<path class="st2" d="M48.99,5.22c0.62,0,1.14,0.04,1.58,0.12c0.44,0.08,0.82,0.2,1.16,0.35c0.33,0.15,0.62,0.33,0.85,0.53
		c0.24,0.2,0.45,0.42,0.64,0.66c0.64,0.78,1.02,1.64,1.14,2.57s0.18,2.03,0.18,3.28c0,0.43-0.01,0.89-0.04,1.4
		c-0.02,0.51-0.08,1.02-0.16,1.54c-0.08,0.52-0.21,1.02-0.39,1.49c-0.18,0.47-0.42,0.89-0.73,1.24c-0.28,0.35-0.63,0.63-1.03,0.83
		c-0.4,0.2-0.82,0.35-1.26,0.46s-0.89,0.18-1.35,0.21c-0.46,0.04-0.91,0.05-1.33,0.05h-2.63V30.3h-3.12V5.22H48.99z M45.61,17.26
		h2.63c0.77,0,1.37-0.1,1.81-0.3c0.43-0.2,0.75-0.5,0.95-0.91c0.2-0.4,0.32-0.91,0.35-1.51c0.04-0.6,0.05-1.3,0.05-2.08
		c0-0.9-0.05-1.63-0.14-2.2s-0.29-1.01-0.58-1.33c-0.29-0.32-0.71-0.54-1.26-0.67c-0.55-0.13-1.28-0.2-2.19-0.2h-1.62V17.26z"/>
	<path class="st2" d="M70.23,19.79c0,1.99-0.08,3.67-0.25,5.04c-0.17,1.37-0.48,2.49-0.94,3.36s-1.11,1.49-1.95,1.88
		c-0.84,0.39-1.92,0.59-3.25,0.59c-1.42,0-2.54-0.23-3.34-0.67c-0.8-0.45-1.4-1.08-1.79-1.9c-0.39-0.82-0.63-1.8-0.73-2.95
		c-0.1-1.15-0.14-2.41-0.14-3.78V13c0-1.59,0.12-2.86,0.37-3.82s0.6-1.72,1.05-2.29c0.19-0.26,0.43-0.51,0.73-0.75
		s0.65-0.46,1.05-0.66s0.88-0.36,1.42-0.48c0.54-0.12,1.17-0.18,1.88-0.18c1.18,0,2.16,0.18,2.93,0.53
		c0.77,0.36,1.37,0.87,1.81,1.55c0.44,0.67,0.74,1.5,0.91,2.47c0.17,0.97,0.25,2.07,0.25,3.3V19.79z M60.96,22.61
		c0,0.9,0.02,1.63,0.07,2.2c0.05,0.57,0.13,1.05,0.25,1.45c0.07,0.19,0.16,0.39,0.27,0.6c0.11,0.21,0.27,0.41,0.47,0.58
		c0.21,0.18,0.47,0.32,0.8,0.44s0.72,0.18,1.18,0.18c0.65,0,1.19-0.12,1.6-0.37s0.73-0.65,0.95-1.2c0.22-0.55,0.36-1.27,0.44-2.16
		c0.07-0.88,0.11-1.96,0.11-3.24v-8.21c0-0.68-0.02-1.35-0.05-2c-0.04-0.65-0.14-1.22-0.33-1.72c-0.18-0.5-0.47-0.89-0.87-1.19
		c-0.4-0.29-0.98-0.44-1.73-0.44c-1.28,0-2.13,0.46-2.55,1.36c-0.41,0.91-0.62,2.24-0.62,3.98V22.61z"/>
	<path class="st2" d="M79.71,8.03V30.3h-3.12V8.03h-4.76V5.22h12.65v2.81H79.71z"/>
	<path class="st2" d="M86.57,30.3V5.22h3.12V27.5h7.43v2.81H86.57z"/>
	<path class="st2" d="M99.89,30.3V5.22h11.05v2.81h-7.92v7.46h6.93v2.84h-6.93v9.17h8.17v2.81H99.89z"/>
	<path class="st2" d="M126.43,24.16c0,1.09-0.1,2-0.3,2.72s-0.45,1.31-0.75,1.76c-0.3,0.45-0.63,0.79-0.99,1.03
		c-0.37,0.24-0.73,0.43-1.08,0.57c-0.59,0.21-1.15,0.34-1.69,0.37c-0.53,0.04-0.89,0.05-1.08,0.05c-1.4,0-2.5-0.25-3.3-0.76
		c-0.81-0.51-1.41-1.15-1.81-1.92c-0.4-0.77-0.66-1.59-0.76-2.47c-0.11-0.88-0.16-1.67-0.16-2.38v-9.88c0-0.47,0.01-0.99,0.04-1.56
		c0.02-0.57,0.08-1.14,0.16-1.71c0.08-0.57,0.22-1.12,0.41-1.65c0.19-0.53,0.44-1.01,0.75-1.44c0.28-0.38,0.62-0.7,1-0.96
		c0.38-0.26,0.79-0.47,1.22-0.64c0.44-0.17,0.89-0.28,1.37-0.36s0.92-0.11,1.35-0.11c1.14,0,2.04,0.18,2.7,0.55
		c0.66,0.37,1.16,0.72,1.49,1.05c0.24,0.24,0.44,0.51,0.6,0.82c0.17,0.31,0.3,0.66,0.41,1.05c0.11,0.39,0.18,0.85,0.23,1.37
		c0.05,0.52,0.07,1.12,0.07,1.81v1.63h-2.91v-2.35c0-0.44-0.04-0.87-0.11-1.26s-0.21-0.74-0.41-1.04c-0.2-0.29-0.46-0.52-0.79-0.68
		c-0.33-0.16-0.75-0.25-1.27-0.25c-0.19,0-0.42,0.02-0.71,0.05c-0.28,0.04-0.56,0.13-0.83,0.28c-0.27,0.15-0.52,0.38-0.76,0.67
		c-0.24,0.29-0.41,0.69-0.53,1.18c-0.12,0.47-0.21,1.09-0.27,1.87c-0.06,0.78-0.09,1.69-0.09,2.75v6.24c0,0.59,0.01,1.2,0.02,1.83
		s0.04,1.24,0.09,1.8s0.11,1.06,0.18,1.5s0.18,0.77,0.32,1c0.17,0.31,0.37,0.54,0.62,0.71c0.25,0.17,0.49,0.29,0.74,0.37
		c0.25,0.08,0.48,0.13,0.69,0.14c0.21,0.01,0.36,0.02,0.46,0.02c0.68,0,1.21-0.16,1.59-0.47c0.38-0.32,0.65-0.7,0.83-1.16
		c0.18-0.46,0.28-0.96,0.32-1.51c0.04-0.55,0.05-1.05,0.05-1.49v-1.86h2.91V24.16z"/>
	<path class="st2" d="M142.34,5.22v16.91c0,0.78-0.01,1.45-0.02,2.01c-0.01,0.56-0.04,1.05-0.07,1.47
		c-0.04,0.43-0.09,0.81-0.18,1.14c-0.08,0.33-0.2,0.66-0.34,1c-0.28,0.66-0.67,1.19-1.15,1.58c-0.49,0.39-1,0.68-1.53,0.87
		c-0.53,0.19-1.05,0.31-1.54,0.37c-0.5,0.06-0.91,0.09-1.24,0.09c-1.35,0-2.5-0.21-3.45-0.64s-1.65-1.12-2.1-2.1
		c-0.12-0.28-0.22-0.56-0.3-0.82c-0.08-0.26-0.14-0.59-0.18-0.98c-0.04-0.39-0.06-0.88-0.07-1.47c-0.01-0.59-0.02-1.36-0.02-2.31
		V5.22h3.13v19.01c0,0.54,0.04,1.04,0.12,1.49c0.08,0.45,0.24,0.84,0.47,1.17c0.23,0.33,0.54,0.59,0.94,0.78s0.9,0.28,1.53,0.28
		c0.93,0,1.65-0.23,2.14-0.69c0.49-0.46,0.74-1.4,0.74-2.82V5.22H142.34z"/>
	<path class="st2" d="M147.28,30.3V5.22h3.13V27.5h7.42v2.81H147.28z"/>
	<path class="st2" d="M163.41,8.03V30.3h-3.13V8.03h-4.76V5.22h12.65v2.81H163.41z"/>
	<path class="st2" d="M170.27,30.3V5.22h3.13V30.3H170.27z"/>
	<path class="st2" d="M184.55,30.3h-3.98l-4.69-25.08H179l3.55,21.99l3.52-21.99h3.13L184.55,30.3z"/>
	<path class="st2" d="M200.35,30.3l-0.89-4.83h-5.83l-0.85,4.83h-3.23l5.4-25.08h3.12l5.54,25.08H200.35z M196.48,9.88l-2.31,12.9
		h4.76L196.48,9.88z"/>
	<path class="st2" d="M210.41,8.03V30.3h-3.13V8.03h-4.76V5.22h12.65v2.81H210.41z"/>
	<path class="st2" d="M217.26,30.3V5.22h11.05v2.81h-7.92v7.46h6.93v2.84h-6.93v9.17h8.17v2.81H217.26z"/>
	<path class="st2" d="M231.01,30.3v-4.19h3.02v4.19H231.01z"/>
	<path class="st2" d="M248.99,24.16c0,1.09-0.1,2-0.3,2.72c-0.2,0.72-0.45,1.31-0.75,1.76c-0.3,0.45-0.63,0.79-1,1.03
		c-0.37,0.24-0.73,0.43-1.08,0.57c-0.59,0.21-1.15,0.34-1.69,0.37c-0.53,0.04-0.89,0.05-1.08,0.05c-1.4,0-2.5-0.25-3.3-0.76
		c-0.8-0.51-1.41-1.15-1.81-1.92c-0.4-0.77-0.66-1.59-0.76-2.47c-0.11-0.88-0.16-1.67-0.16-2.38v-9.88c0-0.47,0.01-0.99,0.04-1.56
		c0.02-0.57,0.08-1.14,0.16-1.71c0.08-0.57,0.22-1.12,0.41-1.65s0.44-1.01,0.75-1.44c0.28-0.38,0.62-0.7,0.99-0.96
		c0.38-0.26,0.79-0.47,1.23-0.64c0.44-0.17,0.89-0.28,1.37-0.36c0.47-0.07,0.92-0.11,1.35-0.11c1.14,0,2.04,0.18,2.7,0.55
		s1.16,0.72,1.49,1.05c0.24,0.24,0.44,0.51,0.6,0.82c0.17,0.31,0.3,0.66,0.41,1.05c0.11,0.39,0.18,0.85,0.23,1.37
		c0.05,0.52,0.07,1.12,0.07,1.81v1.63h-2.91v-2.35c0-0.44-0.04-0.87-0.11-1.26c-0.07-0.4-0.21-0.74-0.41-1.04
		c-0.2-0.29-0.46-0.52-0.79-0.68s-0.75-0.25-1.27-0.25c-0.19,0-0.42,0.02-0.71,0.05s-0.56,0.13-0.83,0.28
		c-0.27,0.15-0.52,0.38-0.76,0.67c-0.23,0.29-0.41,0.69-0.53,1.18c-0.12,0.47-0.21,1.09-0.26,1.87c-0.06,0.78-0.09,1.69-0.09,2.75
		v6.24c0,0.59,0,1.2,0.02,1.83c0.01,0.63,0.04,1.24,0.09,1.8c0.05,0.56,0.11,1.06,0.18,1.5s0.18,0.77,0.32,1
		c0.17,0.31,0.37,0.54,0.62,0.71c0.25,0.17,0.49,0.29,0.74,0.37c0.25,0.08,0.48,0.13,0.69,0.14c0.21,0.01,0.37,0.02,0.46,0.02
		c0.68,0,1.21-0.16,1.59-0.47s0.65-0.7,0.83-1.16c0.18-0.46,0.28-0.96,0.32-1.51c0.04-0.55,0.05-1.05,0.05-1.49v-1.86h2.91V24.16z"
		/>
	<path class="st2" d="M265.01,19.79c0,1.99-0.08,3.67-0.25,5.04c-0.17,1.37-0.48,2.49-0.94,3.36c-0.46,0.86-1.11,1.49-1.95,1.88
		c-0.84,0.39-1.92,0.59-3.25,0.59c-1.42,0-2.53-0.23-3.34-0.67c-0.81-0.45-1.4-1.08-1.79-1.9c-0.39-0.82-0.63-1.8-0.73-2.95
		c-0.09-1.15-0.14-2.41-0.14-3.78V13c0-1.59,0.12-2.86,0.37-3.82c0.25-0.96,0.6-1.72,1.05-2.29c0.19-0.26,0.43-0.51,0.73-0.75
		c0.29-0.24,0.64-0.46,1.05-0.66s0.88-0.36,1.42-0.48c0.54-0.12,1.17-0.18,1.88-0.18c1.18,0,2.16,0.18,2.93,0.53
		c0.77,0.36,1.37,0.87,1.81,1.55c0.44,0.67,0.74,1.5,0.91,2.47c0.17,0.97,0.25,2.07,0.25,3.3V19.79z M255.74,22.61
		c0,0.9,0.02,1.63,0.07,2.2c0.05,0.57,0.13,1.05,0.25,1.45c0.07,0.19,0.16,0.39,0.27,0.6s0.27,0.41,0.47,0.58
		c0.21,0.18,0.47,0.32,0.8,0.44c0.33,0.12,0.72,0.18,1.18,0.18c0.65,0,1.19-0.12,1.6-0.37s0.73-0.65,0.95-1.2
		c0.22-0.55,0.36-1.27,0.44-2.16s0.11-1.96,0.11-3.24v-8.21c0-0.68-0.02-1.35-0.06-2c-0.04-0.65-0.14-1.22-0.33-1.72
		s-0.47-0.89-0.87-1.19c-0.4-0.29-0.98-0.44-1.73-0.44c-1.29,0-2.13,0.46-2.55,1.36c-0.41,0.91-0.62,2.24-0.62,3.98V22.61z"/>
	<path class="st2" d="M283.44,30.3c0-0.33,0.01-0.91,0.04-1.72c0.02-0.82,0.04-1.79,0.05-2.91s0.03-2.35,0.05-3.68
		s0.05-2.66,0.07-4.01c0.07-3.15,0.14-6.61,0.21-10.37l-3.8,22.7h-3.94l-3.66-22.7c0.07,3.86,0.14,7.39,0.21,10.59
		c0.02,1.35,0.05,2.69,0.09,4.03c0.04,1.34,0.06,2.56,0.09,3.68c0.02,1.11,0.05,2.06,0.07,2.84c0.02,0.78,0.04,1.3,0.04,1.56h-3.13
		V5.22h4.69l3.52,22.38l3.45-22.38h4.76V30.3H283.44z"/>
	<path class="st0" d="M33.82,48.56l-0.35,3.84h4.3v2.7h-4.58l-0.75,8.21h-2.81l0.75-8.21h-3.09L26.5,63.3h-2.81l0.75-8.21h-4.23
		v-2.7h4.44l0.35-3.84h-4.3v-2.7h4.62L26,38.22h2.84l-0.71,7.64h3.09l0.75-7.64h2.81l-0.75,7.64h4.19v2.7H33.82z M27.85,48.56
		L27.5,52.4h3.12l0.36-3.84H27.85z"/>
	<path class="st0" d="M52.29,57.16c0,1.09-0.1,2-0.3,2.72c-0.2,0.72-0.45,1.31-0.75,1.76c-0.3,0.45-0.63,0.79-1,1.03
		c-0.37,0.24-0.73,0.43-1.08,0.57c-0.59,0.21-1.15,0.34-1.69,0.37c-0.53,0.04-0.89,0.05-1.08,0.05c-1.4,0-2.5-0.25-3.3-0.76
		c-0.8-0.51-1.41-1.15-1.81-1.92c-0.4-0.77-0.66-1.59-0.76-2.47c-0.11-0.88-0.16-1.67-0.16-2.38v-9.88c0-0.47,0.01-0.99,0.04-1.56
		c0.02-0.57,0.08-1.14,0.16-1.71c0.08-0.57,0.22-1.12,0.41-1.65s0.44-1.01,0.75-1.44c0.28-0.38,0.62-0.7,0.99-0.96
		c0.38-0.26,0.79-0.47,1.23-0.64c0.44-0.17,0.89-0.28,1.37-0.36c0.47-0.07,0.92-0.11,1.35-0.11c1.14,0,2.04,0.18,2.7,0.55
		s1.16,0.72,1.49,1.05c0.24,0.24,0.44,0.51,0.6,0.82c0.17,0.31,0.3,0.66,0.41,1.05c0.11,0.39,0.18,0.85,0.23,1.37
		c0.05,0.52,0.07,1.12,0.07,1.81v1.63h-2.91v-2.35c0-0.44-0.04-0.87-0.11-1.26c-0.07-0.4-0.21-0.74-0.41-1.04
		c-0.2-0.29-0.46-0.52-0.79-0.68s-0.75-0.25-1.27-0.25c-0.19,0-0.42,0.02-0.71,0.05s-0.56,0.13-0.83,0.28
		c-0.27,0.15-0.52,0.38-0.76,0.67c-0.23,0.29-0.41,0.69-0.53,1.18c-0.12,0.47-0.21,1.09-0.26,1.87c-0.06,0.78-0.09,1.69-0.09,2.75
		v6.24c0,0.59,0,1.2,0.02,1.83c0.01,0.63,0.04,1.24,0.09,1.8c0.05,0.56,0.11,1.06,0.18,1.5s0.18,0.77,0.32,1
		c0.17,0.31,0.37,0.54,0.62,0.71c0.25,0.17,0.49,0.29,0.74,0.37c0.25,0.08,0.48,0.13,0.69,0.14c0.21,0.01,0.37,0.02,0.46,0.02
		c0.68,0,1.21-0.16,1.59-0.47s0.65-0.7,0.83-1.16c0.18-0.46,0.28-0.96,0.32-1.51c0.04-0.55,0.05-1.05,0.05-1.49v-1.86h2.91V57.16z"
		/>
	<path class="st0" d="M64.97,63.3V51.58h-5.72V63.3h-3.13V38.22h3.13v10.66h5.72V38.22h3.13V63.3H64.97z"/>
	<path class="st0" d="M73.14,63.3V38.22h3.13V63.3H73.14z"/>
	<path class="st0" d="M87.78,38.22c0.62,0,1.14,0.04,1.58,0.12c0.44,0.08,0.82,0.2,1.16,0.35c0.33,0.15,0.62,0.33,0.85,0.53
		c0.24,0.2,0.45,0.42,0.64,0.66c0.64,0.78,1.02,1.64,1.14,2.57c0.12,0.93,0.18,2.03,0.18,3.28c0,0.43-0.01,0.89-0.04,1.4
		s-0.08,1.02-0.16,1.54c-0.08,0.52-0.21,1.02-0.39,1.49c-0.18,0.47-0.42,0.89-0.73,1.24c-0.28,0.35-0.63,0.63-1.03,0.83
		c-0.4,0.2-0.82,0.35-1.26,0.46c-0.44,0.11-0.89,0.18-1.35,0.21c-0.46,0.04-0.91,0.05-1.33,0.05H84.4V63.3h-3.13V38.22H87.78z
		 M84.4,50.26h2.63c0.77,0,1.37-0.1,1.81-0.3c0.43-0.2,0.75-0.5,0.95-0.91c0.2-0.4,0.32-0.91,0.35-1.51c0.04-0.6,0.05-1.3,0.05-2.08
		c0-0.9-0.05-1.63-0.14-2.2c-0.09-0.57-0.29-1.01-0.58-1.33c-0.29-0.32-0.71-0.54-1.26-0.67c-0.55-0.13-1.28-0.2-2.19-0.2H84.4
		V50.26z"/>
	<path class="st0" d="M109.02,52.79c0,1.99-0.08,3.67-0.25,5.04c-0.17,1.37-0.48,2.49-0.94,3.36s-1.11,1.49-1.95,1.88
		c-0.84,0.39-1.93,0.59-3.25,0.59c-1.42,0-2.53-0.23-3.34-0.67c-0.81-0.45-1.4-1.08-1.79-1.9c-0.39-0.82-0.63-1.8-0.73-2.95
		c-0.09-1.15-0.14-2.41-0.14-3.78V46c0-1.59,0.12-2.86,0.37-3.82s0.6-1.72,1.05-2.29c0.19-0.26,0.43-0.51,0.73-0.75
		c0.3-0.24,0.64-0.46,1.05-0.66c0.4-0.2,0.88-0.36,1.42-0.48s1.17-0.18,1.88-0.18c1.18,0,2.16,0.18,2.93,0.53
		c0.77,0.36,1.37,0.87,1.81,1.55c0.44,0.67,0.74,1.5,0.91,2.47c0.17,0.97,0.25,2.07,0.25,3.3V52.79z M99.75,55.61
		c0,0.9,0.02,1.63,0.07,2.2c0.05,0.57,0.13,1.05,0.26,1.45c0.07,0.19,0.16,0.39,0.27,0.6s0.27,0.41,0.47,0.58s0.47,0.32,0.8,0.44
		c0.33,0.12,0.72,0.18,1.18,0.18c0.65,0,1.19-0.12,1.6-0.37c0.41-0.25,0.73-0.65,0.94-1.2c0.22-0.55,0.36-1.27,0.44-2.16
		c0.07-0.88,0.11-1.96,0.11-3.24v-8.21c0-0.68-0.02-1.35-0.06-2c-0.04-0.65-0.15-1.22-0.33-1.72s-0.47-0.89-0.87-1.19
		c-0.4-0.29-0.98-0.44-1.73-0.44c-1.29,0-2.13,0.46-2.54,1.36c-0.41,0.91-0.62,2.24-0.62,3.98V55.61z"/>
	<path class="st0" d="M118.51,41.03V63.3h-3.13V41.03h-4.76v-2.81h12.65v2.81H118.51z"/>
	<path class="st0" d="M125.36,63.3V38.22h3.13V60.5h7.42v2.81H125.36z"/>
	<path class="st0" d="M138.68,63.3V38.22h11.05v2.81h-7.92v7.46h6.93v2.84h-6.93v9.17h8.17v2.81H138.68z"/>
	<path class="st0" d="M165.22,57.16c0,1.09-0.1,2-0.3,2.72c-0.2,0.72-0.45,1.31-0.75,1.76c-0.3,0.45-0.63,0.79-1,1.03
		c-0.37,0.24-0.73,0.43-1.08,0.57c-0.59,0.21-1.15,0.34-1.69,0.37c-0.53,0.04-0.89,0.05-1.08,0.05c-1.4,0-2.5-0.25-3.3-0.76
		c-0.8-0.51-1.41-1.15-1.81-1.92c-0.4-0.77-0.66-1.59-0.76-2.47c-0.11-0.88-0.16-1.67-0.16-2.38v-9.88c0-0.47,0.01-0.99,0.04-1.56
		c0.02-0.57,0.08-1.14,0.16-1.71c0.08-0.57,0.22-1.12,0.41-1.65s0.44-1.01,0.75-1.44c0.28-0.38,0.62-0.7,0.99-0.96
		c0.38-0.26,0.79-0.47,1.23-0.64c0.44-0.17,0.89-0.28,1.37-0.36c0.47-0.07,0.92-0.11,1.35-0.11c1.14,0,2.04,0.18,2.7,0.55
		s1.16,0.72,1.49,1.05c0.24,0.24,0.44,0.51,0.6,0.82c0.17,0.31,0.3,0.66,0.41,1.05c0.11,0.39,0.18,0.85,0.23,1.37
		c0.05,0.52,0.07,1.12,0.07,1.81v1.63h-2.91v-2.35c0-0.44-0.04-0.87-0.11-1.26c-0.07-0.4-0.21-0.74-0.41-1.04
		c-0.2-0.29-0.46-0.52-0.79-0.68s-0.75-0.25-1.27-0.25c-0.19,0-0.42,0.02-0.71,0.05s-0.56,0.13-0.83,0.28
		c-0.27,0.15-0.52,0.38-0.76,0.67c-0.23,0.29-0.41,0.69-0.53,1.18c-0.12,0.47-0.21,1.09-0.26,1.87c-0.06,0.78-0.09,1.69-0.09,2.75
		v6.24c0,0.59,0,1.2,0.02,1.83c0.01,0.63,0.04,1.24,0.09,1.8c0.05,0.56,0.11,1.06,0.18,1.5s0.18,0.77,0.32,1
		c0.17,0.31,0.37,0.54,0.62,0.71c0.25,0.17,0.49,0.29,0.74,0.37c0.25,0.08,0.48,0.13,0.69,0.14c0.21,0.01,0.37,0.02,0.46,0.02
		c0.68,0,1.21-0.16,1.59-0.47s0.65-0.7,0.83-1.16c0.18-0.46,0.28-0.96,0.32-1.51c0.04-0.55,0.05-1.05,0.05-1.49v-1.86h2.91V57.16z"
		/>
	<path class="st0" d="M181.14,38.22v16.91c0,0.78-0.01,1.45-0.02,2.01c-0.01,0.56-0.04,1.05-0.07,1.47
		c-0.04,0.43-0.09,0.81-0.18,1.14c-0.08,0.33-0.2,0.66-0.34,1c-0.28,0.66-0.67,1.19-1.15,1.58c-0.49,0.39-0.99,0.68-1.53,0.87
		s-1.05,0.31-1.54,0.37c-0.5,0.06-0.91,0.09-1.24,0.09c-1.35,0-2.5-0.21-3.45-0.64s-1.65-1.12-2.1-2.1
		c-0.12-0.28-0.22-0.56-0.3-0.82c-0.08-0.26-0.14-0.59-0.18-0.98c-0.04-0.39-0.06-0.88-0.07-1.47c-0.01-0.59-0.02-1.36-0.02-2.31
		V38.22h3.13v19.01c0,0.54,0.04,1.04,0.13,1.49c0.08,0.45,0.24,0.84,0.47,1.17s0.54,0.59,0.94,0.78c0.39,0.19,0.9,0.28,1.53,0.28
		c0.94,0,1.65-0.23,2.14-0.69s0.74-1.4,0.74-2.82V38.22H181.14z"/>
	<path class="st0" d="M186.07,63.3V38.22h3.13V60.5h7.42v2.81H186.07z"/>
	<path class="st0" d="M202.2,41.03V63.3h-3.13V41.03h-4.76v-2.81h12.65v2.81H202.2z"/>
	<path class="st0" d="M209.06,63.3V38.22h3.13V63.3H209.06z"/>
	<path class="st0" d="M223.34,63.3h-3.98l-4.69-25.08h3.13l3.55,21.99l3.52-21.99h3.13L223.34,63.3z"/>
	<path class="st0" d="M239.15,63.3l-0.89-4.83h-5.83l-0.85,4.83h-3.23l5.4-25.08h3.13l5.54,25.08H239.15z M235.27,42.88l-2.31,12.9
		h4.76L235.27,42.88z"/>
	<path class="st0" d="M249.2,41.03V63.3h-3.12V41.03h-4.76v-2.81h12.65v2.81H249.2z"/>
	<path class="st0" d="M256.06,63.3V38.22h11.05v2.81h-7.92v7.46h6.93v2.84h-6.93v9.17h8.17v2.81H256.06z"/>
</g>
</svg>
