<?xml version="1.0" encoding="utf-8"?>
<!-- Generator: Adobe Illustrator 16.0.0, SVG Export Plug-In . SVG Version: 6.00 Build 0)  -->
<!DOCTYPE svg PUBLIC "-//W3C//DTD SVG 1.1//EN" "http://www.w3.org/Graphics/SVG/1.1/DTD/svg11.dtd">
<svg version="1.1" xmlns="http://www.w3.org/2000/svg" xmlns:xlink="http://www.w3.org/1999/xlink" x="0px" y="0px" width="95.77px"
	 height="29.94px" viewBox="0 0 95.77 29.94" style="enable-background:new 0 0 95.77 29.94;" xml:space="preserve">
<style type="text/css">
<![CDATA[
	.st0{fill-rule:evenodd;clip-rule:evenodd;fill:#D55128;}
	.st1{fill-rule:evenodd;clip-rule:evenodd;fill:#D7D8A7;}
	.st2{fill-rule:evenodd;clip-rule:evenodd;fill:#D7DCAE;}
	.st3{fill-rule:evenodd;clip-rule:evenodd;fill:#D7E7C4;}
	.st4{fill-rule:evenodd;clip-rule:evenodd;fill:#D8711C;}
	.st5{fill-rule:evenodd;clip-rule:evenodd;fill:#D8D7A4;}
	.st6{fill-rule:evenodd;clip-rule:evenodd;fill:#D8DCAE;}
	.st7{fill:#AD2426;}
	.st8{fill-rule:evenodd;clip-rule:evenodd;fill:#D9711C;}
	.st9{fill-rule:evenodd;clip-rule:evenodd;fill:#D9721C;}
	.st10{fill-rule:evenodd;clip-rule:evenodd;fill:#D97327;}
	.st11{fill-rule:evenodd;clip-rule:evenodd;fill:#3F6954;}
	.st12{fill-rule:evenodd;clip-rule:evenodd;fill:#70A186;}
	.st13{clip-path:url(#SVGID_11_);fill:#FFFFFF;}
	.st14{fill-rule:evenodd;clip-rule:evenodd;fill:#71A287;}
	.st15{fill-rule:evenodd;clip-rule:evenodd;fill:#A1B7A9;}
	.st16{clip-path:url(#SVGID_19_);fill:#451500;}
	.st17{fill-rule:evenodd;clip-rule:evenodd;fill:#753818;}
	.st18{fill-rule:evenodd;clip-rule:evenodd;fill:#0A341D;}
	.st19{fill-rule:evenodd;clip-rule:evenodd;fill:#0A7D46;}
	.st20{fill-rule:evenodd;clip-rule:evenodd;fill:#76AE54;}
	.st21{fill-rule:evenodd;clip-rule:evenodd;fill:#0B371F;}
	.st22{fill-rule:evenodd;clip-rule:evenodd;fill:#DA5230;}
	.st23{fill-rule:evenodd;clip-rule:evenodd;fill:#DA7327;}
	.st24{fill-rule:evenodd;clip-rule:evenodd;fill:#DAA228;}
	.st25{fill-rule:evenodd;clip-rule:evenodd;fill:#DAA52B;}
	.st26{fill-rule:evenodd;clip-rule:evenodd;fill:#DAA62E;}
	.st27{fill-rule:evenodd;clip-rule:evenodd;fill:#DAA732;}
	.st28{fill-rule:evenodd;clip-rule:evenodd;fill:#DAAB3B;}
	.st29{fill-rule:evenodd;clip-rule:evenodd;fill:#DAAB3D;}
	.st30{fill-rule:evenodd;clip-rule:evenodd;fill:#DAAC3F;}
	.st31{fill-rule:evenodd;clip-rule:evenodd;fill:#DAAD42;}
	.st32{fill-rule:evenodd;clip-rule:evenodd;fill:#DAB351;}
	.st33{fill-rule:evenodd;clip-rule:evenodd;fill:#0C3920;}
	.st34{fill-rule:evenodd;clip-rule:evenodd;fill:#0C84C7;}
	.st35{fill-rule:evenodd;clip-rule:evenodd;fill:#DBA221;}
	.st36{fill-rule:evenodd;clip-rule:evenodd;fill:#DBB85E;}
	.st37{fill-rule:evenodd;clip-rule:evenodd;fill:#DBBC68;}
	.st38{fill-rule:evenodd;clip-rule:evenodd;fill:#0D321D;}
	.st39{fill-rule:evenodd;clip-rule:evenodd;fill:#DBC376;}
	.st40{fill-rule:evenodd;clip-rule:evenodd;fill:#0D3D23;}
	.st41{fill-rule:evenodd;clip-rule:evenodd;fill:#0E4125;}
	.st42{fill-rule:evenodd;clip-rule:evenodd;fill:#0E4226;}
	.st43{fill-rule:evenodd;clip-rule:evenodd;fill:#0E4326;}
	.st44{fill-rule:evenodd;clip-rule:evenodd;fill:#DCE8C8;}
	.st45{fill-rule:evenodd;clip-rule:evenodd;fill:#0E7C47;}
	.st46{fill-rule:evenodd;clip-rule:evenodd;fill:#A96851;}
	.st47{fill-rule:evenodd;clip-rule:evenodd;fill:#DD9179;}
	.st48{clip-path:url(#SVGID_2_);fill:#451500;}
	.st49{filter:url(#Adobe_OpacityMaskFilter);}
	.st50{fill-rule:evenodd;clip-rule:evenodd;fill:#0F7C46;}
	.st51{fill:#4F9DAF;}
	.st52{fill-rule:evenodd;clip-rule:evenodd;fill:#411C11;}
	.st53{fill-rule:evenodd;clip-rule:evenodd;fill:#416855;}
	.st54{fill-rule:evenodd;clip-rule:evenodd;fill:#DFEBCD;}
	.st55{fill-rule:evenodd;clip-rule:evenodd;fill:#421A0D;}
	.st56{opacity:0.24;}
	.st57{opacity:0.35;}
	.st58{opacity:0.36;}
	.st59{opacity:0.37;}
	.st60{opacity:0.41;}
	.st61{opacity:0.43;}
	.st62{opacity:0.47;}
	.st63{opacity:0.48;}
	.st64{opacity:0.52;}
	.st65{opacity:0.56;}
	.st66{opacity:0.58;}
	.st67{opacity:0.62;}
	.st68{opacity:0.63;}
	.st69{opacity:0.82;}
	.st70{fill:#B3B4B4;}
	.st71{clip-path:url(#SVGID_13_);fill:#FFFFFF;}
	.st72{opacity:0.4;clip-path:url(#SVGID_9_);}
	.st73{fill-rule:evenodd;clip-rule:evenodd;fill:#AA2418;}
	.st74{fill-rule:evenodd;clip-rule:evenodd;fill:#7B3719;}
	.st75{fill-rule:evenodd;clip-rule:evenodd;fill:#7B473D;}
	.st76{fill-rule:evenodd;clip-rule:evenodd;fill:#AB2418;}
	.st77{fill-rule:evenodd;clip-rule:evenodd;fill:#AB2524;}
	.st78{fill-rule:evenodd;clip-rule:evenodd;fill:#AD2819;}
	.st79{fill-rule:evenodd;clip-rule:evenodd;fill:#AD2919;}
	.st80{fill-rule:evenodd;clip-rule:evenodd;fill:#107945;}
	.st81{fill-rule:evenodd;clip-rule:evenodd;fill:#107A45;}
	.st82{fill-rule:evenodd;clip-rule:evenodd;fill:#AE2A19;}
	.st83{fill-rule:evenodd;clip-rule:evenodd;fill:#7F1918;}
	.st84{fill-rule:evenodd;clip-rule:evenodd;fill:#E0EED6;}
	.st85{clip-path:url(#SVGID_4_);fill:#451500;}
	.st86{clip-path:url(#SVGID_4_);fill:#AB2318;}
	.st87{fill-rule:evenodd;clip-rule:evenodd;fill:#E7AC76;}
	.st88{fill-rule:evenodd;clip-rule:evenodd;fill:#E9C987;}
	.st89{fill-rule:evenodd;clip-rule:evenodd;fill:#E9F0DA;}
	.st90{fill-rule:evenodd;clip-rule:evenodd;fill:#B16147;}
	.st91{fill-rule:evenodd;clip-rule:evenodd;fill:#831B11;}
	.st92{fill-rule:evenodd;clip-rule:evenodd;fill:#B3361A;}
	.st93{fill-rule:evenodd;clip-rule:evenodd;fill:#841B12;}
	.st94{fill-rule:evenodd;clip-rule:evenodd;fill:#84D2DF;}
	.st95{fill-rule:evenodd;clip-rule:evenodd;fill:#B5381A;}
	.st96{fill-rule:evenodd;clip-rule:evenodd;fill:#B63B1A;}
	.st97{fill-rule:evenodd;clip-rule:evenodd;fill:#88B86A;}
	.st98{fill-rule:evenodd;clip-rule:evenodd;fill:#B83E1B;}
	.st99{fill-rule:evenodd;clip-rule:evenodd;fill:#891D13;}
	.st100{fill-rule:evenodd;clip-rule:evenodd;fill:#ECCB89;}
	.st101{fill-rule:evenodd;clip-rule:evenodd;fill:#B9411B;}
	.st102{fill-rule:evenodd;clip-rule:evenodd;fill:#EDF3E0;}
	.st103{clip-path:url(#SVGID_2_);}
	.st104{clip-path:url(#SVGID_4_);}
	.st105{fill-rule:evenodd;clip-rule:evenodd;fill:#EEB687;}
	.st106{fill-rule:evenodd;clip-rule:evenodd;fill:#558068;}
	.st107{fill-rule:evenodd;clip-rule:evenodd;fill:#566C5D;}
	.st108{fill-rule:evenodd;clip-rule:evenodd;fill:#568068;}
	.st109{fill-rule:evenodd;clip-rule:evenodd;fill:#8B1D13;}
	.st110{fill-rule:evenodd;clip-rule:evenodd;fill:#592D15;}
	.st111{fill-rule:evenodd;clip-rule:evenodd;fill:#BC461B;}
	.st112{fill-rule:evenodd;clip-rule:evenodd;fill:#8D1E14;}
	.st113{fill-rule:evenodd;clip-rule:evenodd;}
	.st114{opacity:0.6;}
	.st115{opacity:0.7;}
	.st116{fill-rule:evenodd;clip-rule:evenodd;fill:#BE491B;}
	.st117{fill-rule:evenodd;clip-rule:evenodd;fill:#8F1E14;}
	.st118{fill-rule:evenodd;clip-rule:evenodd;fill:#210F0F;}
	.st119{fill-rule:evenodd;clip-rule:evenodd;fill:#BF4B1C;}
	.st120{fill-rule:evenodd;clip-rule:evenodd;fill:#223D2F;}
	.st121{fill:#FFFFFF;}
	.st122{fill-rule:evenodd;clip-rule:evenodd;fill:#F2C7A1;}
	.st123{opacity:0.6;fill:#4F9DAF;}
	.st124{fill-rule:evenodd;clip-rule:evenodd;fill:#F5F9EE;}
	.st125{fill-rule:evenodd;clip-rule:evenodd;fill:#F6FAEF;}
	.st126{fill-rule:evenodd;clip-rule:evenodd;fill:#F7DDCD;}
	.st127{clip-path:url(#SVGID_13_);fill:#451500;}
	.st128{fill-rule:evenodd;clip-rule:evenodd;fill:#F7FAF2;}
	.st129{clip-path:url(#SVGID_4_);mask:url(#SVGID_5_);}
	.st130{fill-rule:evenodd;clip-rule:evenodd;fill:#914933;}
	.st131{fill-rule:evenodd;clip-rule:evenodd;fill:#921F14;}
	.st132{fill-rule:evenodd;clip-rule:evenodd;fill:#C2501C;}
	.st133{fill-rule:evenodd;clip-rule:evenodd;fill:#931F15;}
	.st134{fill-rule:evenodd;clip-rule:evenodd;fill:#C53B27;}
	.st135{fill-rule:evenodd;clip-rule:evenodd;fill:#965A34;}
	.st136{fill-rule:evenodd;clip-rule:evenodd;fill:#2B4A38;}
	.st137{clip-path:url(#SVGID_2_);fill:#FFFFFF;}
	.st138{fill-rule:evenodd;clip-rule:evenodd;fill:#2C4C39;}
	.st139{fill-rule:evenodd;clip-rule:evenodd;fill:#FAFCF7;}
	.st140{fill-rule:evenodd;clip-rule:evenodd;fill:#2D4C3A;}
	.st141{fill-rule:evenodd;clip-rule:evenodd;fill:#992116;}
	.st142{fill-rule:evenodd;clip-rule:evenodd;fill:#602F28;}
	.st143{clip-path:url(#SVGID_15_);fill:#451500;}
	.st144{fill-rule:evenodd;clip-rule:evenodd;fill:#9B4B23;}
	.st145{fill-rule:evenodd;clip-rule:evenodd;fill:#CB765B;}
	.st146{fill:#D7E7C4;}
	.st147{fill-rule:evenodd;clip-rule:evenodd;fill:#CE621C;}
	.st148{clip-path:url(#SVGID_4_);fill:#FFFFFF;}
	.st149{clip-path:url(#SVGID_23_);}
	.st150{clip-path:url(#SVGID_27_);}
	.st151{fill-rule:evenodd;clip-rule:evenodd;fill:#368A4C;}
	.st152{clip-path:url(#SVGID_17_);fill:#451500;}
	.st153{fill-rule:evenodd;clip-rule:evenodd;fill:#005C31;}
	.st154{fill:#402312;}
	.st155{fill:#411C11;}
	.st156{fill-rule:evenodd;clip-rule:evenodd;fill:#024D26;}
	.st157{fill-rule:evenodd;clip-rule:evenodd;fill:#D2681D;}
	.st158{fill-rule:evenodd;clip-rule:evenodd;fill:#D37028;}
]]>
</style>
<g id="Layer_1">
	<g>
		<path class="st7" d="M92.77,29.94H3c-1.65,0-3-1.35-3-3V3c0-1.65,1.35-3,3-3h89.77c1.65,0,3,1.35,3,3v23.94
			C95.77,28.59,94.42,29.94,92.77,29.94z"/>
		<g>
			<path class="st121" d="M8.31,23.21V8.77h1.84v12.82h4.23v1.62H8.31z"/>
			<path class="st121" d="M15.34,23.21V8.77h6.36v1.62h-4.56v4.29h3.99v1.64h-3.99v5.28h4.7v1.62H15.34z"/>
			<path class="st121" d="M28.43,23.21l-0.51-2.78h-3.35l-0.49,2.78h-1.86l3.11-14.44h1.8l3.19,14.44H28.43z M26.2,11.45l-1.33,7.42
				h2.74L26.2,11.45z"/>
			<path class="st121" d="M36.85,23.21l-2.45-6.34H32.9v6.34h-1.78V8.77h3.15c0.92,0,1.92,0.04,2.7,0.67
				c1.21,0.98,1.12,2.88,1.12,3.17c0,0.61-0.04,1.21-0.14,1.8c-0.14,0.82-0.37,1.23-0.59,1.51c-0.45,0.55-0.98,0.67-1.21,0.74
				l2.58,6.54H36.85z M36.13,11.37c-0.37-1.04-1.47-0.96-2.35-0.96H32.9v5.05h0.94c0.8,0,1.19-0.02,1.57-0.16
				c0.9-0.37,0.88-1.64,0.88-2.39C36.29,12.41,36.29,11.84,36.13,11.37z"/>
			<path class="st121" d="M44.2,23.21l-2.82-12.51l0.25,12.51h-1.78V8.77h2.47l2.92,12.64L45,8.77h1.74v14.44H44.2z"/>
			<path class="st121" d="M60.42,23.21l0.25-13.07l-2.15,13.07h-2.27L54.1,10.14l0.29,13.07h-1.76V8.77h2.7l2.02,12.88l1.98-12.88
				h2.74v14.44H60.42z"/>
			<path class="st121" d="M70.86,18.34c0,0.43-0.02,0.86-0.04,1.29c-0.08,1.04-0.25,2.29-1.08,3.03c-0.47,0.41-1.19,0.76-2.49,0.76
				c-0.41,0-1.94,0.06-2.8-1.17c-0.12-0.16-0.31-0.45-0.43-0.92c-0.22-0.8-0.22-2.47-0.22-4.56c0-1.31,0.02-2.6,0.04-3.91
				c0.04-1.66,0.27-2.47,0.78-3.13c0.45-0.57,1.29-1.19,2.92-1.19c0.43,0,2.21,0.02,2.96,1.59c0.21,0.41,0.31,0.84,0.35,1.29
				c0.12,1.02,0.12,3.35,0.1,4.36C70.94,16.64,70.88,17.48,70.86,18.34z M69.08,12.78c0-0.57,0.02-1.47-0.29-2
				c-0.16-0.29-0.59-0.72-1.39-0.72c-0.21,0-0.65,0.02-1.06,0.35c-0.7,0.55-0.72,1.51-0.72,3.19v1c0,1.39,0,2.78,0.02,4.17
				c0,1.04,0,1.66,0.14,2.11c0.14,0.43,0.49,1.06,1.55,1.06c0.59,0,1.17-0.27,1.41-0.84c0.29-0.61,0.31-1.8,0.33-3.39
				c0.02-0.63,0.02-1.27,0.02-1.92C69.1,14.78,69.1,13.78,69.08,12.78z"/>
			<path class="st121" d="M78.36,23.21l-2.45-6.34h-1.49v6.34h-1.78V8.77h3.15c0.92,0,1.92,0.04,2.7,0.67
				c1.21,0.98,1.12,2.88,1.12,3.17c0,0.61-0.04,1.21-0.14,1.8c-0.14,0.82-0.37,1.23-0.59,1.51c-0.45,0.55-0.98,0.67-1.21,0.74
				l2.58,6.54H78.36z M77.64,11.37c-0.37-1.04-1.47-0.96-2.35-0.96h-0.88v5.05h0.94c0.8,0,1.19-0.02,1.57-0.16
				c0.9-0.37,0.88-1.64,0.88-2.39C77.81,12.41,77.81,11.84,77.64,11.37z"/>
			<path class="st121" d="M81.36,23.21V8.77h6.36v1.62h-4.56v4.29h3.99v1.64h-3.99v5.28h4.7v1.62H81.36z"/>
		</g>
	</g>
</g>
<g id="Layer_2">
</g>
</svg>
