<?xml version="1.0" encoding="utf-8"?>
<!-- Generator: Adobe Illustrator 16.0.0, SVG Export Plug-In . SVG Version: 6.00 Build 0)  -->
<!DOCTYPE svg PUBLIC "-//W3C//DTD SVG 1.1//EN" "http://www.w3.org/Graphics/SVG/1.1/DTD/svg11.dtd">
<svg version="1.1" xmlns="http://www.w3.org/2000/svg" xmlns:xlink="http://www.w3.org/1999/xlink" x="0px" y="0px" width="307.8px"
	 height="16.7px" viewBox="0 0 307.8 16.7" style="enable-background:new 0 0 307.8 16.7;" xml:space="preserve">
<style type="text/css">
<![CDATA[
	.st0{fill-rule:evenodd;clip-rule:evenodd;fill:#D55128;}
	.st1{fill-rule:evenodd;clip-rule:evenodd;fill:#D7D8A7;}
	.st2{fill-rule:evenodd;clip-rule:evenodd;fill:#D7DCAE;}
	.st3{fill-rule:evenodd;clip-rule:evenodd;fill:#D7E7C4;}
	.st4{fill-rule:evenodd;clip-rule:evenodd;fill:#D8711C;}
	.st5{fill-rule:evenodd;clip-rule:evenodd;fill:#D8D7A4;}
	.st6{fill-rule:evenodd;clip-rule:evenodd;fill:#D8DCAE;}
	.st7{fill:#AD2426;}
	.st8{fill-rule:evenodd;clip-rule:evenodd;fill:#D9711C;}
	.st9{fill-rule:evenodd;clip-rule:evenodd;fill:#D9721C;}
	.st10{fill-rule:evenodd;clip-rule:evenodd;fill:#D97327;}
	.st11{fill-rule:evenodd;clip-rule:evenodd;fill:#3F6954;}
	.st12{fill-rule:evenodd;clip-rule:evenodd;fill:#70A186;}
	.st13{clip-path:url(#SVGID_11_);fill:#FFFFFF;}
	.st14{fill-rule:evenodd;clip-rule:evenodd;fill:#71A287;}
	.st15{fill-rule:evenodd;clip-rule:evenodd;fill:#A1B7A9;}
	.st16{clip-path:url(#SVGID_19_);fill:#451500;}
	.st17{fill-rule:evenodd;clip-rule:evenodd;fill:#753818;}
	.st18{fill-rule:evenodd;clip-rule:evenodd;fill:#0A341D;}
	.st19{fill-rule:evenodd;clip-rule:evenodd;fill:#0A7D46;}
	.st20{fill-rule:evenodd;clip-rule:evenodd;fill:#76AE54;}
	.st21{fill-rule:evenodd;clip-rule:evenodd;fill:#0B371F;}
	.st22{fill-rule:evenodd;clip-rule:evenodd;fill:#DA5230;}
	.st23{fill-rule:evenodd;clip-rule:evenodd;fill:#DA7327;}
	.st24{fill-rule:evenodd;clip-rule:evenodd;fill:#DAA228;}
	.st25{fill-rule:evenodd;clip-rule:evenodd;fill:#DAA52B;}
	.st26{fill-rule:evenodd;clip-rule:evenodd;fill:#DAA62E;}
	.st27{fill-rule:evenodd;clip-rule:evenodd;fill:#DAA732;}
	.st28{fill-rule:evenodd;clip-rule:evenodd;fill:#DAAB3B;}
	.st29{fill-rule:evenodd;clip-rule:evenodd;fill:#DAAB3D;}
	.st30{fill-rule:evenodd;clip-rule:evenodd;fill:#DAAC3F;}
	.st31{fill-rule:evenodd;clip-rule:evenodd;fill:#DAAD42;}
	.st32{fill-rule:evenodd;clip-rule:evenodd;fill:#DAB351;}
	.st33{fill-rule:evenodd;clip-rule:evenodd;fill:#0C3920;}
	.st34{fill-rule:evenodd;clip-rule:evenodd;fill:#0C84C7;}
	.st35{fill-rule:evenodd;clip-rule:evenodd;fill:#DBA221;}
	.st36{fill-rule:evenodd;clip-rule:evenodd;fill:#DBB85E;}
	.st37{fill-rule:evenodd;clip-rule:evenodd;fill:#DBBC68;}
	.st38{fill-rule:evenodd;clip-rule:evenodd;fill:#0D321D;}
	.st39{fill-rule:evenodd;clip-rule:evenodd;fill:#DBC376;}
	.st40{fill-rule:evenodd;clip-rule:evenodd;fill:#0D3D23;}
	.st41{fill-rule:evenodd;clip-rule:evenodd;fill:#0E4125;}
	.st42{fill-rule:evenodd;clip-rule:evenodd;fill:#0E4226;}
	.st43{fill-rule:evenodd;clip-rule:evenodd;fill:#0E4326;}
	.st44{fill-rule:evenodd;clip-rule:evenodd;fill:#DCE8C8;}
	.st45{fill-rule:evenodd;clip-rule:evenodd;fill:#0E7C47;}
	.st46{fill-rule:evenodd;clip-rule:evenodd;fill:#A96851;}
	.st47{fill-rule:evenodd;clip-rule:evenodd;fill:#DD9179;}
	.st48{clip-path:url(#SVGID_2_);fill:#451500;}
	.st49{filter:url(#Adobe_OpacityMaskFilter);}
	.st50{fill-rule:evenodd;clip-rule:evenodd;fill:#0F7C46;}
	.st51{fill:#4F9DAF;}
	.st52{fill-rule:evenodd;clip-rule:evenodd;fill:#411C11;}
	.st53{fill-rule:evenodd;clip-rule:evenodd;fill:#416855;}
	.st54{fill-rule:evenodd;clip-rule:evenodd;fill:#DFEBCD;}
	.st55{fill-rule:evenodd;clip-rule:evenodd;fill:#421A0D;}
	.st56{opacity:0.24;}
	.st57{opacity:0.35;}
	.st58{opacity:0.36;}
	.st59{opacity:0.37;}
	.st60{opacity:0.41;}
	.st61{opacity:0.43;}
	.st62{opacity:0.47;}
	.st63{opacity:0.48;}
	.st64{opacity:0.52;}
	.st65{opacity:0.56;}
	.st66{opacity:0.58;}
	.st67{opacity:0.62;}
	.st68{opacity:0.63;}
	.st69{opacity:0.82;}
	.st70{fill:#B3B4B4;}
	.st71{clip-path:url(#SVGID_13_);fill:#FFFFFF;}
	.st72{opacity:0.4;clip-path:url(#SVGID_9_);}
	.st73{fill-rule:evenodd;clip-rule:evenodd;fill:#AA2418;}
	.st74{fill-rule:evenodd;clip-rule:evenodd;fill:#7B3719;}
	.st75{fill-rule:evenodd;clip-rule:evenodd;fill:#7B473D;}
	.st76{fill-rule:evenodd;clip-rule:evenodd;fill:#AB2418;}
	.st77{fill-rule:evenodd;clip-rule:evenodd;fill:#AB2524;}
	.st78{fill-rule:evenodd;clip-rule:evenodd;fill:#AD2819;}
	.st79{fill-rule:evenodd;clip-rule:evenodd;fill:#AD2919;}
	.st80{fill-rule:evenodd;clip-rule:evenodd;fill:#107945;}
	.st81{fill-rule:evenodd;clip-rule:evenodd;fill:#107A45;}
	.st82{fill-rule:evenodd;clip-rule:evenodd;fill:#AE2A19;}
	.st83{fill-rule:evenodd;clip-rule:evenodd;fill:#7F1918;}
	.st84{fill-rule:evenodd;clip-rule:evenodd;fill:#E0EED6;}
	.st85{clip-path:url(#SVGID_4_);fill:#451500;}
	.st86{clip-path:url(#SVGID_4_);fill:#AB2318;}
	.st87{fill-rule:evenodd;clip-rule:evenodd;fill:#E7AC76;}
	.st88{fill-rule:evenodd;clip-rule:evenodd;fill:#E9C987;}
	.st89{fill-rule:evenodd;clip-rule:evenodd;fill:#E9F0DA;}
	.st90{fill-rule:evenodd;clip-rule:evenodd;fill:#B16147;}
	.st91{fill-rule:evenodd;clip-rule:evenodd;fill:#831B11;}
	.st92{fill-rule:evenodd;clip-rule:evenodd;fill:#B3361A;}
	.st93{fill-rule:evenodd;clip-rule:evenodd;fill:#841B12;}
	.st94{fill-rule:evenodd;clip-rule:evenodd;fill:#84D2DF;}
	.st95{fill-rule:evenodd;clip-rule:evenodd;fill:#B5381A;}
	.st96{fill-rule:evenodd;clip-rule:evenodd;fill:#B63B1A;}
	.st97{fill-rule:evenodd;clip-rule:evenodd;fill:#88B86A;}
	.st98{fill-rule:evenodd;clip-rule:evenodd;fill:#B83E1B;}
	.st99{fill-rule:evenodd;clip-rule:evenodd;fill:#891D13;}
	.st100{fill-rule:evenodd;clip-rule:evenodd;fill:#ECCB89;}
	.st101{fill-rule:evenodd;clip-rule:evenodd;fill:#B9411B;}
	.st102{fill-rule:evenodd;clip-rule:evenodd;fill:#EDF3E0;}
	.st103{clip-path:url(#SVGID_2_);}
	.st104{clip-path:url(#SVGID_4_);}
	.st105{fill-rule:evenodd;clip-rule:evenodd;fill:#EEB687;}
	.st106{fill-rule:evenodd;clip-rule:evenodd;fill:#558068;}
	.st107{fill-rule:evenodd;clip-rule:evenodd;fill:#566C5D;}
	.st108{fill-rule:evenodd;clip-rule:evenodd;fill:#568068;}
	.st109{fill-rule:evenodd;clip-rule:evenodd;fill:#8B1D13;}
	.st110{fill-rule:evenodd;clip-rule:evenodd;fill:#592D15;}
	.st111{fill-rule:evenodd;clip-rule:evenodd;fill:#BC461B;}
	.st112{fill-rule:evenodd;clip-rule:evenodd;fill:#8D1E14;}
	.st113{fill-rule:evenodd;clip-rule:evenodd;}
	.st114{opacity:0.6;}
	.st115{opacity:0.7;}
	.st116{fill-rule:evenodd;clip-rule:evenodd;fill:#BE491B;}
	.st117{fill-rule:evenodd;clip-rule:evenodd;fill:#8F1E14;}
	.st118{fill-rule:evenodd;clip-rule:evenodd;fill:#210F0F;}
	.st119{fill-rule:evenodd;clip-rule:evenodd;fill:#BF4B1C;}
	.st120{fill-rule:evenodd;clip-rule:evenodd;fill:#223D2F;}
	.st121{fill:#FFFFFF;}
	.st122{fill-rule:evenodd;clip-rule:evenodd;fill:#F2C7A1;}
	.st123{opacity:0.6;fill:#4F9DAF;}
	.st124{fill-rule:evenodd;clip-rule:evenodd;fill:#F5F9EE;}
	.st125{fill-rule:evenodd;clip-rule:evenodd;fill:#F6FAEF;}
	.st126{fill-rule:evenodd;clip-rule:evenodd;fill:#F7DDCD;}
	.st127{clip-path:url(#SVGID_13_);fill:#451500;}
	.st128{fill-rule:evenodd;clip-rule:evenodd;fill:#F7FAF2;}
	.st129{clip-path:url(#SVGID_4_);mask:url(#SVGID_5_);}
	.st130{fill-rule:evenodd;clip-rule:evenodd;fill:#914933;}
	.st131{fill-rule:evenodd;clip-rule:evenodd;fill:#921F14;}
	.st132{fill-rule:evenodd;clip-rule:evenodd;fill:#C2501C;}
	.st133{fill-rule:evenodd;clip-rule:evenodd;fill:#931F15;}
	.st134{fill-rule:evenodd;clip-rule:evenodd;fill:#C53B27;}
	.st135{fill-rule:evenodd;clip-rule:evenodd;fill:#965A34;}
	.st136{fill-rule:evenodd;clip-rule:evenodd;fill:#2B4A38;}
	.st137{clip-path:url(#SVGID_2_);fill:#FFFFFF;}
	.st138{fill-rule:evenodd;clip-rule:evenodd;fill:#2C4C39;}
	.st139{fill-rule:evenodd;clip-rule:evenodd;fill:#FAFCF7;}
	.st140{fill-rule:evenodd;clip-rule:evenodd;fill:#2D4C3A;}
	.st141{fill-rule:evenodd;clip-rule:evenodd;fill:#992116;}
	.st142{fill-rule:evenodd;clip-rule:evenodd;fill:#602F28;}
	.st143{clip-path:url(#SVGID_15_);fill:#451500;}
	.st144{fill-rule:evenodd;clip-rule:evenodd;fill:#9B4B23;}
	.st145{fill-rule:evenodd;clip-rule:evenodd;fill:#CB765B;}
	.st146{fill:#D7E7C4;}
	.st147{fill-rule:evenodd;clip-rule:evenodd;fill:#CE621C;}
	.st148{clip-path:url(#SVGID_4_);fill:#FFFFFF;}
	.st149{clip-path:url(#SVGID_23_);}
	.st150{clip-path:url(#SVGID_27_);}
	.st151{fill-rule:evenodd;clip-rule:evenodd;fill:#368A4C;}
	.st152{clip-path:url(#SVGID_17_);fill:#451500;}
	.st153{fill-rule:evenodd;clip-rule:evenodd;fill:#005C31;}
	.st154{fill:#402312;}
	.st155{fill:#411C11;}
	.st156{fill-rule:evenodd;clip-rule:evenodd;fill:#024D26;}
	.st157{fill-rule:evenodd;clip-rule:evenodd;fill:#D2681D;}
	.st158{fill-rule:evenodd;clip-rule:evenodd;fill:#D37028;}
]]>
</style>
<g id="Layer_1">
	<g>
		<path class="st155" d="M6.49,13.34c0,0.37-0.03,0.75-0.1,1.14c-0.07,0.39-0.22,0.75-0.45,1.07c-0.23,0.32-0.56,0.59-1,0.8
			c-0.44,0.21-1.02,0.32-1.76,0.32c-0.69,0-1.24-0.12-1.66-0.36s-0.73-0.54-0.95-0.9c-0.22-0.36-0.37-0.75-0.45-1.16
			C0.04,13.85,0,13.46,0,13.11V3.27c0-0.6,0.1-1.1,0.29-1.52s0.44-0.75,0.74-1S1.67,0.31,2.06,0.2c0.39-0.12,0.78-0.17,1.16-0.17
			c0.87,0,1.61,0.25,2.2,0.74C6.01,1.25,6.3,2.01,6.3,3.04v2.39H5.17V4.01c0-0.4-0.02-0.79-0.05-1.15C5.1,2.5,5.02,2.18,4.89,1.91
			C4.76,1.64,4.57,1.42,4.32,1.26C4.07,1.09,3.71,1.01,3.25,1.01c-0.49,0-0.87,0.1-1.16,0.29S1.6,1.72,1.46,1.99
			C1.31,2.26,1.22,2.53,1.18,2.8C1.15,3.07,1.13,3.28,1.13,3.43v8.81c0,1.12,0.15,1.97,0.46,2.53c0.31,0.56,0.9,0.84,1.79,0.84
			c0.37,0,0.68-0.06,0.93-0.17s0.46-0.27,0.61-0.47s0.26-0.43,0.33-0.69c0.07-0.26,0.1-0.53,0.1-0.81v-2.64h1.13V13.34z"/>
		<path class="st155" d="M14.31,16.42V8.39h-4.16v8.03H9.02V0.18h1.13v7.22h4.16V0.18h1.13v16.24H14.31z"/>
		<path class="st155" d="M18.58,16.42V0.18h1.13v16.24H18.58z"/>
		<path class="st155" d="M25.78,0.18c0.44,0,0.89,0.03,1.35,0.09c0.45,0.06,0.86,0.25,1.23,0.55c0.21,0.19,0.38,0.39,0.51,0.6
			c0.12,0.22,0.21,0.45,0.26,0.71c0.05,0.25,0.08,0.52,0.09,0.8s0.01,0.57,0.01,0.88v1.85c0,0.45-0.03,0.86-0.09,1.24
			c-0.06,0.38-0.25,0.75-0.55,1.12c-0.2,0.25-0.43,0.44-0.7,0.58s-0.53,0.24-0.79,0.31s-0.51,0.11-0.76,0.13s-0.46,0.02-0.64,0.02
			h-1.66v7.36h-1.13V0.18H25.78z M24.01,8.07h1.83c0.3,0,0.61-0.03,0.92-0.09c0.3-0.06,0.58-0.22,0.82-0.48
			c0.24-0.24,0.39-0.53,0.45-0.85c0.05-0.32,0.08-0.58,0.08-0.78V4.26c0-0.55-0.02-1.02-0.06-1.41c-0.04-0.39-0.13-0.71-0.27-0.96
			c-0.14-0.25-0.37-0.43-0.67-0.55s-0.72-0.17-1.26-0.17h-1.83V8.07z"/>
		<path class="st155" d="M31.44,3.56c0-0.51,0.06-0.97,0.2-1.4c0.13-0.43,0.33-0.81,0.59-1.13c0.26-0.32,0.6-0.58,1.02-0.76
			C33.67,0.09,34.16,0,34.73,0c0.77,0,1.37,0.12,1.81,0.37c0.44,0.25,0.77,0.56,0.99,0.95c0.22,0.39,0.36,0.82,0.41,1.29
			s0.08,0.92,0.08,1.37v9.27c0,0.37-0.05,0.75-0.14,1.15c-0.09,0.4-0.26,0.76-0.51,1.09c-0.25,0.33-0.59,0.6-1.02,0.82
			c-0.44,0.21-0.99,0.32-1.67,0.32c-0.6,0-1.1-0.08-1.52-0.25c-0.41-0.17-0.75-0.41-1-0.72s-0.44-0.69-0.55-1.13
			c-0.11-0.44-0.17-0.92-0.17-1.46V3.56z M36.89,4.31c0-0.65-0.05-1.18-0.16-1.62c-0.11-0.43-0.25-0.77-0.44-1.03
			c-0.19-0.25-0.42-0.43-0.68-0.53c-0.26-0.1-0.56-0.15-0.89-0.15c-0.39,0-0.72,0.07-1,0.22c-0.27,0.15-0.49,0.33-0.67,0.57
			s-0.3,0.49-0.37,0.78c-0.08,0.29-0.11,0.59-0.11,0.9v9.57c0,0.83,0.17,1.47,0.51,1.93c0.34,0.45,0.89,0.68,1.66,0.68
			c0.45,0,0.82-0.09,1.11-0.26c0.29-0.18,0.51-0.4,0.66-0.68c0.15-0.28,0.25-0.58,0.3-0.91c0.05-0.33,0.08-0.64,0.08-0.93V4.31z"/>
		<path class="st155" d="M43.42,1.17v15.25H42.3V1.17h-2.83V0.18h6.83v0.99H43.42z"/>
		<path class="st155" d="M47.84,16.42V0.18h1.13v15.25h4.23v0.99H47.84z"/>
		<path class="st155" d="M56.19,1.17v6.28h3.79v0.99h-3.79v6.99h4.6v0.99h-5.73V0.18h5.75v0.99H56.19z"/>
		<path class="st155" d="M69.04,13.34c0,0.37-0.03,0.75-0.1,1.14c-0.07,0.39-0.22,0.75-0.45,1.07c-0.23,0.32-0.56,0.59-1,0.8
			c-0.44,0.21-1.02,0.32-1.76,0.32c-0.69,0-1.24-0.12-1.66-0.36s-0.73-0.54-0.95-0.9c-0.22-0.36-0.37-0.75-0.45-1.16
			c-0.08-0.41-0.11-0.8-0.11-1.15V3.27c0-0.6,0.1-1.1,0.29-1.52s0.44-0.75,0.74-1s0.64-0.44,1.04-0.55
			c0.39-0.12,0.78-0.17,1.16-0.17c0.87,0,1.61,0.25,2.2,0.74c0.59,0.49,0.89,1.25,0.89,2.28v2.39h-1.13V4.01
			c0-0.4-0.02-0.79-0.05-1.15c-0.03-0.36-0.11-0.68-0.24-0.95c-0.13-0.27-0.32-0.49-0.57-0.65c-0.25-0.16-0.61-0.24-1.06-0.24
			c-0.49,0-0.87,0.1-1.16,0.29s-0.5,0.42-0.64,0.69c-0.14,0.27-0.24,0.54-0.27,0.81c-0.04,0.27-0.06,0.48-0.06,0.63v8.81
			c0,1.12,0.15,1.97,0.46,2.53c0.31,0.56,0.9,0.84,1.79,0.84c0.37,0,0.68-0.06,0.93-0.17s0.46-0.27,0.61-0.47s0.26-0.43,0.33-0.69
			c0.07-0.26,0.1-0.53,0.1-0.81v-2.64h1.13V13.34z"/>
		<path class="st155" d="M71.53,0.18h1.13v12.58c0,0.37,0.02,0.73,0.06,1.08c0.04,0.35,0.13,0.66,0.27,0.92s0.36,0.47,0.65,0.63
			c0.29,0.16,0.68,0.24,1.17,0.24c0.43,0,0.77-0.06,1.04-0.2c0.27-0.13,0.48-0.31,0.63-0.55s0.26-0.53,0.31-0.86
			c0.05-0.34,0.08-0.71,0.08-1.1V0.18h1.13V13.2c0,0.64-0.08,1.19-0.25,1.63c-0.17,0.44-0.4,0.8-0.7,1.08
			c-0.3,0.28-0.64,0.48-1.04,0.6c-0.39,0.12-0.82,0.18-1.28,0.18c-0.41,0-0.81-0.06-1.2-0.17c-0.38-0.12-0.72-0.31-1.02-0.58
			c-0.3-0.27-0.54-0.62-0.71-1.07c-0.18-0.44-0.26-1-0.26-1.68V0.18z"/>
		<path class="st155" d="M81.14,16.42V0.18h1.13v15.25h4.23v0.99H81.14z"/>
		<path class="st155" d="M89.7,1.17v15.25h-1.13V1.17h-2.83V0.18h6.83v0.99H89.7z"/>
		<path class="st155" d="M94.11,16.42V0.18h1.13v16.24H94.11z"/>
		<path class="st155" d="M101.17,16.42H100L97.24,0.18h1.13l2.23,13.85l2.39-13.85h1.13L101.17,16.42z"/>
		<path class="st155" d="M111.13,16.42l-0.83-4.95h-3.4l-0.85,4.95h-1.2l2.97-16.33h1.56l2.94,16.33H111.13z M108.6,1.59l-1.52,8.83
			h3.01L108.6,1.59z"/>
		<path class="st155" d="M116.1,1.17v15.25h-1.13V1.17h-2.83V0.18h6.83v0.99H116.1z"/>
		<path class="st155" d="M121.67,1.17v6.28h3.79v0.99h-3.79v6.99h4.6v0.99h-5.73V0.18h5.75v0.99H121.67z"/>
		<path class="st155" d="M128.04,16.42v-2.07h0.99v2.07H128.04z"/>
		<path class="st155" d="M137.88,13.34c0,0.37-0.03,0.75-0.1,1.14c-0.07,0.39-0.22,0.75-0.45,1.07c-0.23,0.32-0.56,0.59-1,0.8
			c-0.44,0.21-1.02,0.32-1.76,0.32c-0.69,0-1.24-0.12-1.66-0.36s-0.73-0.54-0.95-0.9c-0.22-0.36-0.37-0.75-0.45-1.16
			c-0.08-0.41-0.11-0.8-0.11-1.15V3.27c0-0.6,0.1-1.1,0.29-1.52s0.44-0.75,0.74-1s0.64-0.44,1.04-0.55
			c0.39-0.12,0.78-0.17,1.16-0.17c0.87,0,1.61,0.25,2.2,0.74c0.59,0.49,0.89,1.25,0.89,2.28v2.39h-1.13V4.01
			c0-0.4-0.02-0.79-0.05-1.15c-0.03-0.36-0.11-0.68-0.24-0.95c-0.13-0.27-0.32-0.49-0.57-0.65c-0.25-0.16-0.61-0.24-1.06-0.24
			c-0.49,0-0.87,0.1-1.16,0.29s-0.5,0.42-0.64,0.69c-0.14,0.27-0.24,0.54-0.27,0.81c-0.04,0.27-0.06,0.48-0.06,0.63v8.81
			c0,1.12,0.15,1.97,0.46,2.53c0.31,0.56,0.9,0.84,1.79,0.84c0.37,0,0.68-0.06,0.93-0.17s0.46-0.27,0.61-0.47s0.26-0.43,0.33-0.69
			c0.07-0.26,0.1-0.53,0.1-0.81v-2.64h1.13V13.34z"/>
		<path class="st155" d="M140.3,3.56c0-0.51,0.06-0.97,0.2-1.4c0.13-0.43,0.33-0.81,0.59-1.13c0.26-0.32,0.6-0.58,1.02-0.76
			c0.42-0.18,0.92-0.28,1.48-0.28c0.77,0,1.37,0.12,1.81,0.37c0.44,0.25,0.77,0.56,0.99,0.95c0.22,0.39,0.36,0.82,0.41,1.29
			s0.08,0.92,0.08,1.37v9.27c0,0.37-0.05,0.75-0.14,1.15c-0.09,0.4-0.26,0.76-0.51,1.09c-0.25,0.33-0.59,0.6-1.02,0.82
			c-0.44,0.21-0.99,0.32-1.67,0.32c-0.6,0-1.1-0.08-1.52-0.25c-0.41-0.17-0.75-0.41-1-0.72s-0.44-0.69-0.55-1.13
			c-0.11-0.44-0.17-0.92-0.17-1.46V3.56z M145.75,4.31c0-0.65-0.05-1.18-0.16-1.62c-0.11-0.43-0.25-0.77-0.44-1.03
			c-0.19-0.25-0.42-0.43-0.68-0.53c-0.26-0.1-0.56-0.15-0.89-0.15c-0.39,0-0.72,0.07-1,0.22c-0.27,0.15-0.49,0.33-0.67,0.57
			s-0.3,0.49-0.37,0.78c-0.08,0.29-0.11,0.59-0.11,0.9v9.57c0,0.83,0.17,1.47,0.51,1.93c0.34,0.45,0.89,0.68,1.66,0.68
			c0.45,0,0.82-0.09,1.11-0.26c0.29-0.18,0.51-0.4,0.66-0.68c0.15-0.28,0.25-0.58,0.3-0.91c0.05-0.33,0.08-0.64,0.08-0.93V4.31z"/>
		<path class="st155" d="M157.5,16.42c0-0.17,0-0.58,0-1.22c0-0.64,0-1.42,0-2.32c0-0.9,0-1.89-0.01-2.97s-0.01-2.14-0.01-3.2
			s0-2.05,0-2.99c0-0.93,0-1.71,0-2.32l-2.83,15.02h-1.04L150.76,1.4v15.02h-1.13c0-0.12,0-0.45,0-0.99c0-0.54,0-1.2,0.01-1.98
			c0.01-0.78,0.01-1.66,0.02-2.62s0.02-1.94,0.03-2.92c0.03-2.3,0.05-4.88,0.07-7.73h1.66l2.67,13.87l2.71-13.87h1.66
			c0,0.21,0,0.61,0.01,1.18c0.01,0.58,0.01,1.27,0.02,2.07s0.02,1.68,0.02,2.63c0.01,0.95,0.02,1.91,0.03,2.88
			c0.03,2.25,0.05,4.75,0.07,7.47H157.5z"/>
		<path class="st7" d="M176.61,6.92l-0.21,2.53h3.15v0.92h-3.24l-0.48,6.05h-0.99l0.53-6.05h-2.32l-0.51,6.05h-0.99l0.51-6.05h-3.11
			V9.45h3.17l0.23-2.53h-3.04V5.93h3.13l0.48-5.75h0.99l-0.48,5.75h2.3l0.48-5.75h0.97l-0.48,5.75h3.13v0.99H176.61z M173.35,6.92
			l-0.21,2.53h2.3l0.21-2.53H173.35z"/>
		<path class="st7" d="M188,13.34c0,0.37-0.03,0.75-0.1,1.14c-0.07,0.39-0.22,0.75-0.45,1.07c-0.23,0.32-0.56,0.59-1,0.8
			c-0.44,0.21-1.02,0.32-1.76,0.32c-0.69,0-1.24-0.12-1.66-0.36s-0.73-0.54-0.95-0.9c-0.22-0.36-0.37-0.75-0.45-1.16
			c-0.08-0.41-0.11-0.8-0.11-1.15V3.27c0-0.6,0.1-1.1,0.29-1.52s0.44-0.75,0.74-1s0.64-0.44,1.04-0.55
			c0.39-0.12,0.78-0.17,1.16-0.17c0.87,0,1.61,0.25,2.2,0.74c0.59,0.49,0.89,1.25,0.89,2.28v2.39h-1.13V4.01
			c0-0.4-0.02-0.79-0.05-1.15c-0.03-0.36-0.11-0.68-0.24-0.95c-0.13-0.27-0.32-0.49-0.57-0.65c-0.25-0.16-0.61-0.24-1.06-0.24
			c-0.49,0-0.87,0.1-1.16,0.29s-0.5,0.42-0.64,0.69c-0.14,0.27-0.24,0.54-0.27,0.81c-0.04,0.27-0.06,0.48-0.06,0.63v8.81
			c0,1.12,0.15,1.97,0.46,2.53c0.31,0.56,0.9,0.84,1.79,0.84c0.37,0,0.68-0.06,0.93-0.17s0.46-0.27,0.61-0.47s0.26-0.43,0.33-0.69
			c0.07-0.26,0.1-0.53,0.1-0.81v-2.64H188V13.34z"/>
		<path class="st7" d="M195.82,16.42V8.39h-4.16v8.03h-1.13V0.18h1.13v7.22h4.16V0.18h1.13v16.24H195.82z"/>
		<path class="st7" d="M200.1,16.42V0.18h1.13v16.24H200.1z"/>
		<path class="st7" d="M207.29,0.18c0.44,0,0.89,0.03,1.35,0.09c0.45,0.06,0.86,0.25,1.23,0.55c0.21,0.19,0.38,0.39,0.51,0.6
			c0.12,0.22,0.21,0.45,0.26,0.71c0.05,0.25,0.08,0.52,0.09,0.8s0.01,0.57,0.01,0.88v1.85c0,0.45-0.03,0.86-0.09,1.24
			c-0.06,0.38-0.25,0.75-0.55,1.12c-0.2,0.25-0.43,0.44-0.7,0.58s-0.53,0.24-0.79,0.31s-0.51,0.11-0.76,0.13s-0.46,0.02-0.64,0.02
			h-1.66v7.36h-1.13V0.18H207.29z M205.52,8.07h1.83c0.3,0,0.61-0.03,0.92-0.09c0.3-0.06,0.58-0.22,0.82-0.48
			c0.24-0.24,0.39-0.53,0.45-0.85c0.05-0.32,0.08-0.58,0.08-0.78V4.26c0-0.55-0.02-1.02-0.06-1.41c-0.04-0.39-0.13-0.71-0.27-0.96
			c-0.14-0.25-0.37-0.43-0.67-0.55s-0.72-0.17-1.26-0.17h-1.83V8.07z"/>
		<path class="st7" d="M212.95,3.56c0-0.51,0.06-0.97,0.2-1.4c0.13-0.43,0.33-0.81,0.59-1.13c0.26-0.32,0.6-0.58,1.02-0.76
			c0.42-0.18,0.92-0.28,1.48-0.28c0.77,0,1.37,0.12,1.81,0.37c0.44,0.25,0.77,0.56,0.99,0.95c0.22,0.39,0.36,0.82,0.41,1.29
			s0.08,0.92,0.08,1.37v9.27c0,0.37-0.05,0.75-0.14,1.15c-0.09,0.4-0.26,0.76-0.51,1.09c-0.25,0.33-0.59,0.6-1.02,0.82
			c-0.44,0.21-0.99,0.32-1.67,0.32c-0.6,0-1.1-0.08-1.52-0.25c-0.41-0.17-0.75-0.41-1-0.72s-0.44-0.69-0.55-1.13
			c-0.11-0.44-0.17-0.92-0.17-1.46V3.56z M218.4,4.31c0-0.65-0.05-1.18-0.16-1.62c-0.11-0.43-0.25-0.77-0.44-1.03
			c-0.19-0.25-0.42-0.43-0.68-0.53c-0.26-0.1-0.56-0.15-0.89-0.15c-0.39,0-0.72,0.07-1,0.22c-0.27,0.15-0.49,0.33-0.67,0.57
			s-0.3,0.49-0.37,0.78c-0.08,0.29-0.11,0.59-0.11,0.9v9.57c0,0.83,0.17,1.47,0.51,1.93c0.34,0.45,0.89,0.68,1.66,0.68
			c0.45,0,0.82-0.09,1.11-0.26c0.29-0.18,0.51-0.4,0.66-0.68c0.15-0.28,0.25-0.58,0.3-0.91c0.05-0.33,0.08-0.64,0.08-0.93V4.31z"/>
		<path class="st7" d="M224.94,1.17v15.25h-1.13V1.17h-2.83V0.18h6.83v0.99H224.94z"/>
		<path class="st7" d="M229.35,16.42V0.18h1.13v15.25h4.23v0.99H229.35z"/>
		<path class="st7" d="M237.7,1.17v6.28h3.79v0.99h-3.79v6.99h4.6v0.99h-5.73V0.18h5.75v0.99H237.7z"/>
		<path class="st7" d="M250.56,13.34c0,0.37-0.03,0.75-0.1,1.14c-0.07,0.39-0.22,0.75-0.45,1.07c-0.23,0.32-0.56,0.59-1,0.8
			c-0.44,0.21-1.02,0.32-1.76,0.32c-0.69,0-1.24-0.12-1.66-0.36s-0.73-0.54-0.95-0.9c-0.22-0.36-0.37-0.75-0.45-1.16
			c-0.08-0.41-0.11-0.8-0.11-1.15V3.27c0-0.6,0.1-1.1,0.29-1.52s0.44-0.75,0.74-1s0.64-0.44,1.04-0.55
			c0.39-0.12,0.78-0.17,1.16-0.17c0.87,0,1.61,0.25,2.2,0.74c0.59,0.49,0.89,1.25,0.89,2.28v2.39h-1.13V4.01
			c0-0.4-0.02-0.79-0.05-1.15c-0.03-0.36-0.11-0.68-0.24-0.95c-0.13-0.27-0.32-0.49-0.57-0.65c-0.25-0.16-0.61-0.24-1.06-0.24
			c-0.49,0-0.87,0.1-1.16,0.29s-0.5,0.42-0.64,0.69c-0.14,0.27-0.24,0.54-0.27,0.81c-0.04,0.27-0.06,0.48-0.06,0.63v8.81
			c0,1.12,0.15,1.97,0.46,2.53c0.31,0.56,0.9,0.84,1.79,0.84c0.37,0,0.68-0.06,0.93-0.17s0.46-0.27,0.61-0.47s0.26-0.43,0.33-0.69
			c0.07-0.26,0.1-0.53,0.1-0.81v-2.64h1.13V13.34z"/>
		<path class="st7" d="M253.04,0.18h1.13v12.58c0,0.37,0.02,0.73,0.06,1.08c0.04,0.35,0.13,0.66,0.27,0.92s0.36,0.47,0.65,0.63
			c0.29,0.16,0.68,0.24,1.17,0.24c0.43,0,0.77-0.06,1.04-0.2c0.27-0.13,0.48-0.31,0.63-0.55s0.26-0.53,0.31-0.86
			c0.05-0.34,0.08-0.71,0.08-1.1V0.18h1.13V13.2c0,0.64-0.08,1.19-0.25,1.63c-0.17,0.44-0.4,0.8-0.7,1.08
			c-0.3,0.28-0.64,0.48-1.04,0.6c-0.39,0.12-0.82,0.18-1.28,0.18c-0.41,0-0.81-0.06-1.2-0.17c-0.38-0.12-0.72-0.31-1.02-0.58
			c-0.3-0.27-0.54-0.62-0.71-1.07c-0.18-0.44-0.26-1-0.26-1.68V0.18z"/>
		<path class="st7" d="M262.66,16.42V0.18h1.13v15.25h4.23v0.99H262.66z"/>
		<path class="st7" d="M271.21,1.17v15.25h-1.13V1.17h-2.83V0.18h6.83v0.99H271.21z"/>
		<path class="st7" d="M275.63,16.42V0.18h1.13v16.24H275.63z"/>
		<path class="st7" d="M282.69,16.42h-1.17l-2.76-16.24h1.13l2.23,13.85l2.39-13.85h1.13L282.69,16.42z"/>
		<path class="st7" d="M292.65,16.42l-0.83-4.95h-3.4l-0.85,4.95h-1.2l2.97-16.33h1.56l2.94,16.33H292.65z M290.12,1.59l-1.52,8.83
			h3.01L290.12,1.59z"/>
		<path class="st7" d="M297.61,1.17v15.25h-1.13V1.17h-2.83V0.18h6.83v0.99H297.61z"/>
		<path class="st7" d="M303.18,1.17v6.28h3.79v0.99h-3.79v6.99h4.6v0.99h-5.73V0.18h5.75v0.99H303.18z"/>
	</g>
</g>
<g id="Layer_2">
</g>
</svg>
