<?xml version="1.0" encoding="utf-8"?>
<!-- Generator: Adobe Illustrator 16.0.0, SVG Export Plug-In . SVG Version: 6.00 Build 0)  -->
<!DOCTYPE svg PUBLIC "-//W3C//DTD SVG 1.1//EN" "http://www.w3.org/Graphics/SVG/1.1/DTD/svg11.dtd">
<svg version="1.1" id="Layer_1" xmlns="http://www.w3.org/2000/svg" xmlns:xlink="http://www.w3.org/1999/xlink" x="0px" y="0px"
	 width="294.78px" height="33px" viewBox="0 0 294.78 33" style="enable-background:new 0 0 294.78 33;" xml:space="preserve">
<style type="text/css">
<![CDATA[
	.st0{fill:#AC2325;}
	.st1{fill:#FFFFFF;}
	.st2{fill:#421A0D;}
]]>
</style>
<g>
	<path class="st2" d="M15.45,23.44c-0.04,0.6-0.18,2.81-2.2,3.73c-1.1,0.5-2.38,0.5-3.55,0.5H1.78V2.59h7.78
		c1.49,0,2.91-0.04,4.16,0.96c1.42,1.1,1.49,2.56,1.49,4.16v2.24c0,0.07,0,1.1-0.14,1.78c-0.46,2.1-2.03,2.31-2.77,2.45
		c1.46,0.28,2.02,0.64,2.49,1.21c0.78,1.03,0.71,2.2,0.71,3.38v3.55C15.49,22.69,15.45,23.08,15.45,23.44z M10.62,8.48
		c0-0.6-0.04-0.78-0.11-1.1C10.19,6.21,9.2,6.17,8.24,6.17H6.39v6.32h1.67c0.64,0,0.96-0.04,1.24-0.07
		c0.89-0.18,1.31-0.71,1.31-2.24V8.48z M10.94,18.57c0-0.75,0-1.03-0.14-1.39c-0.36-1.03-1.49-1.07-2.42-1.07H6.39v7.92h1.95
		c0.39,0,0.82,0,1.17-0.07c0.99-0.14,1.42-0.75,1.42-2.45V18.57z"/>
	<path class="st2" d="M27.53,27.67l-0.6-4.08h-4.26l-0.67,4.08h-4.62l4.87-25.08h5.29l4.69,25.08H27.53z M24.9,8.95l-1.67,10.76h3.2
		L24.9,8.95z"/>
	<path class="st2" d="M41.14,20.24v7.42h-4.72v-7.74L31.41,2.59h4.87l2.56,12.65l2.45-12.65h4.87L41.14,20.24z"/>
	<path class="st2" d="M52.61,6.46v6.29h7.17v3.73h-7.17v11.19h-4.65V2.59h12.29v3.87H52.61z"/>
	<path class="st2" d="M71.94,27.67l-3.55-11.12h-1.74v11.12h-4.62V2.59h9.24c3.06,0,4.51,1.42,4.51,4.48v4.55
		c0,2.49-0.75,3.62-2.95,4.3l3.91,11.76H71.94z M71.19,8.24c0-1.56-0.53-2.06-2.13-2.06h-2.42v6.68h2.42c1.6,0,2.13-0.57,2.13-2.38
		V8.24z"/>
	<path class="st2" d="M91.26,26.53c-1.49,1.39-3.52,1.67-5.43,1.67c-1.85,0-3.73-0.25-5.22-1.46c-0.75-0.6-1.1-1.21-1.24-1.56
		c-0.43-0.89-0.53-1.95-0.53-2.88V8.24c0-0.53-0.11-3.06,1.56-4.55c0.92-0.82,2.66-1.63,5.47-1.63c3.62,0,5.54,1.49,6.29,2.95
		c0.39,0.82,0.57,1.6,0.57,3.34V22.3C92.72,23.9,92.47,25.36,91.26,26.53z M88.06,8.66c0-0.14,0.11-1.28-0.28-2.02
		c-0.21-0.46-0.75-1.1-1.92-1.1c-0.25,0-0.92,0.04-1.49,0.46c-1.03,0.71-0.89,1.81-0.89,2.84v12.68c0,0.75-0.04,1.67,0.43,2.31
		c0.53,0.75,1.67,0.75,1.88,0.75s0.89-0.04,1.46-0.43c0.85-0.6,0.82-1.6,0.82-2.52V8.66z"/>
	<path class="st2" d="M104.44,27.67L100,8.87l0.39,18.79h-4.33V2.59h5.93l4.51,18.4l-0.46-18.4h4.23v25.08H104.44z"/>
	<path class="st2" d="M121.39,6.21v21.46h-4.65V6.21h-4.62V2.59h13.92v3.62H121.39z"/>
	<path class="st2" d="M148.67,15.98c-0.75,0.92-1.81,1.24-4.08,1.24h-3.91v10.44h-4.65V2.59h9.31c0.14,0,0.75,0,1.24,0.11
		c1.49,0.32,2.2,1.28,2.45,1.78c0.53,1.07,0.53,2.66,0.53,3.77v3.3C149.56,13.88,149.45,15.02,148.67,15.98z M145.01,8.84
		c0-0.71,0.11-1.46-0.36-2.02c-0.53-0.67-1.53-0.53-1.71-0.53h-2.27v7.35h2.24c0.96,0,1.49-0.11,1.78-0.5
		c0.32-0.43,0.32-1.24,0.32-1.74V8.84z"/>
	<path class="st2" d="M161.03,27.67l-0.6-4.08h-4.26l-0.67,4.08h-4.62l4.87-25.08h5.29l4.69,25.08H161.03z M158.4,8.95l-1.67,10.76
		h3.2L158.4,8.95z"/>
	<path class="st2" d="M177.73,27.67l-3.55-11.12h-1.74v11.12h-4.62V2.59h9.24c3.05,0,4.51,1.42,4.51,4.48v4.55
		c0,2.49-0.75,3.62-2.95,4.3l3.91,11.76H177.73z M176.98,8.24c0-1.56-0.53-2.06-2.13-2.06h-2.42v6.68h2.42
		c1.6,0,2.13-0.57,2.13-2.38V8.24z"/>
	<path class="st2" d="M194.42,27.67l-4.9-12.26v12.26h-4.69V2.59h4.69v9.77l5.01-9.77h4.76l-5.72,10.83l5.86,14.24H194.42z"/>
	<path class="st2" d="M201.81,32.46h-1.56l2.42-4.8h-2.06v-4.58h4.16v4.58L201.81,32.46z"/>
	<path class="st2" d="M232.15,27.67l0.43-21.74l-4.05,21.74h-4.3l-4.16-21.74l0.35,21.74h-4.55V2.59h7.53l2.95,17.55l2.98-17.55
		h7.42v25.08H232.15z"/>
	<path class="st2" d="M240.32,27.67V2.59h4.58v25.08H240.32z"/>
	<path class="st2" d="M257.19,27.67l-0.6-4.08h-4.26l-0.67,4.08h-4.62l4.87-25.08h5.29l4.69,25.08H257.19z M254.56,8.95l-1.67,10.76
		h3.2L254.56,8.95z"/>
	<path class="st2" d="M280.25,27.67l0.43-21.74l-4.05,21.74h-4.3l-4.16-21.74l0.36,21.74h-4.55V2.59h7.53l2.95,17.55l2.98-17.55
		h7.42v25.08H280.25z"/>
	<path class="st2" d="M288.42,27.67V2.59H293v25.08H288.42z"/>
</g>
</svg>
