<?xml version="1.0" encoding="utf-8"?>
<!-- Generator: Adobe Illustrator 16.0.0, SVG Export Plug-In . SVG Version: 6.00 Build 0)  -->
<!DOCTYPE svg PUBLIC "-//W3C//DTD SVG 1.1//EN" "http://www.w3.org/Graphics/SVG/1.1/DTD/svg11.dtd">
<svg version="1.1" xmlns="http://www.w3.org/2000/svg" xmlns:xlink="http://www.w3.org/1999/xlink" x="0px" y="0px" width="40.55px"
	 height="176.57px" viewBox="0 0 40.55 176.57" style="enable-background:new 0 0 40.55 176.57;" xml:space="preserve">
<style type="text/css">
<![CDATA[
	.st0{fill-rule:evenodd;clip-rule:evenodd;fill:#D55128;}
	.st1{fill-rule:evenodd;clip-rule:evenodd;fill:#D7D8A7;}
	.st2{fill-rule:evenodd;clip-rule:evenodd;fill:#D7DCAE;}
	.st3{fill-rule:evenodd;clip-rule:evenodd;fill:#D7E7C4;}
	.st4{fill-rule:evenodd;clip-rule:evenodd;fill:#D8711C;}
	.st5{fill-rule:evenodd;clip-rule:evenodd;fill:#D8D7A4;}
	.st6{fill-rule:evenodd;clip-rule:evenodd;fill:#D8DCAE;}
	.st7{fill:#AD2426;}
	.st8{fill-rule:evenodd;clip-rule:evenodd;fill:#D9711C;}
	.st9{fill-rule:evenodd;clip-rule:evenodd;fill:#D9721C;}
	.st10{fill-rule:evenodd;clip-rule:evenodd;fill:#D97327;}
	.st11{fill-rule:evenodd;clip-rule:evenodd;fill:#3F6954;}
	.st12{fill-rule:evenodd;clip-rule:evenodd;fill:#70A186;}
	.st13{clip-path:url(#SVGID_11_);fill:#FFFFFF;}
	.st14{fill-rule:evenodd;clip-rule:evenodd;fill:#71A287;}
	.st15{fill-rule:evenodd;clip-rule:evenodd;fill:#A1B7A9;}
	.st16{clip-path:url(#SVGID_19_);fill:#451500;}
	.st17{fill-rule:evenodd;clip-rule:evenodd;fill:#753818;}
	.st18{fill-rule:evenodd;clip-rule:evenodd;fill:#0A341D;}
	.st19{fill-rule:evenodd;clip-rule:evenodd;fill:#0A7D46;}
	.st20{fill-rule:evenodd;clip-rule:evenodd;fill:#76AE54;}
	.st21{fill-rule:evenodd;clip-rule:evenodd;fill:#0B371F;}
	.st22{fill-rule:evenodd;clip-rule:evenodd;fill:#DA5230;}
	.st23{fill-rule:evenodd;clip-rule:evenodd;fill:#DA7327;}
	.st24{fill-rule:evenodd;clip-rule:evenodd;fill:#DAA228;}
	.st25{fill-rule:evenodd;clip-rule:evenodd;fill:#DAA52B;}
	.st26{fill-rule:evenodd;clip-rule:evenodd;fill:#DAA62E;}
	.st27{fill-rule:evenodd;clip-rule:evenodd;fill:#DAA732;}
	.st28{fill-rule:evenodd;clip-rule:evenodd;fill:#DAAB3B;}
	.st29{fill-rule:evenodd;clip-rule:evenodd;fill:#DAAB3D;}
	.st30{fill-rule:evenodd;clip-rule:evenodd;fill:#DAAC3F;}
	.st31{fill-rule:evenodd;clip-rule:evenodd;fill:#DAAD42;}
	.st32{fill-rule:evenodd;clip-rule:evenodd;fill:#DAB351;}
	.st33{fill-rule:evenodd;clip-rule:evenodd;fill:#0C3920;}
	.st34{fill-rule:evenodd;clip-rule:evenodd;fill:#0C84C7;}
	.st35{fill-rule:evenodd;clip-rule:evenodd;fill:#DBA221;}
	.st36{fill-rule:evenodd;clip-rule:evenodd;fill:#DBB85E;}
	.st37{fill-rule:evenodd;clip-rule:evenodd;fill:#DBBC68;}
	.st38{fill-rule:evenodd;clip-rule:evenodd;fill:#0D321D;}
	.st39{fill-rule:evenodd;clip-rule:evenodd;fill:#DBC376;}
	.st40{fill-rule:evenodd;clip-rule:evenodd;fill:#0D3D23;}
	.st41{fill-rule:evenodd;clip-rule:evenodd;fill:#0E4125;}
	.st42{fill-rule:evenodd;clip-rule:evenodd;fill:#0E4226;}
	.st43{fill-rule:evenodd;clip-rule:evenodd;fill:#0E4326;}
	.st44{fill-rule:evenodd;clip-rule:evenodd;fill:#DCE8C8;}
	.st45{fill-rule:evenodd;clip-rule:evenodd;fill:#0E7C47;}
	.st46{fill-rule:evenodd;clip-rule:evenodd;fill:#A96851;}
	.st47{fill-rule:evenodd;clip-rule:evenodd;fill:#DD9179;}
	.st48{clip-path:url(#SVGID_2_);fill:#451500;}
	.st49{filter:url(#Adobe_OpacityMaskFilter);}
	.st50{fill-rule:evenodd;clip-rule:evenodd;fill:#0F7C46;}
	.st51{fill:#4F9DAF;}
	.st52{fill-rule:evenodd;clip-rule:evenodd;fill:#411C11;}
	.st53{fill-rule:evenodd;clip-rule:evenodd;fill:#416855;}
	.st54{fill-rule:evenodd;clip-rule:evenodd;fill:#DFEBCD;}
	.st55{fill-rule:evenodd;clip-rule:evenodd;fill:#421A0D;}
	.st56{opacity:0.24;}
	.st57{opacity:0.35;}
	.st58{opacity:0.36;}
	.st59{opacity:0.37;}
	.st60{opacity:0.41;}
	.st61{opacity:0.43;}
	.st62{opacity:0.47;}
	.st63{opacity:0.48;}
	.st64{opacity:0.52;}
	.st65{opacity:0.56;}
	.st66{opacity:0.58;}
	.st67{opacity:0.62;}
	.st68{opacity:0.63;}
	.st69{opacity:0.82;}
	.st70{fill:#B3B4B4;}
	.st71{clip-path:url(#SVGID_13_);fill:#FFFFFF;}
	.st72{opacity:0.4;clip-path:url(#SVGID_9_);}
	.st73{fill-rule:evenodd;clip-rule:evenodd;fill:#AA2418;}
	.st74{fill-rule:evenodd;clip-rule:evenodd;fill:#7B3719;}
	.st75{fill-rule:evenodd;clip-rule:evenodd;fill:#7B473D;}
	.st76{fill-rule:evenodd;clip-rule:evenodd;fill:#AB2418;}
	.st77{fill-rule:evenodd;clip-rule:evenodd;fill:#AB2524;}
	.st78{fill-rule:evenodd;clip-rule:evenodd;fill:#AD2819;}
	.st79{fill-rule:evenodd;clip-rule:evenodd;fill:#AD2919;}
	.st80{fill-rule:evenodd;clip-rule:evenodd;fill:#107945;}
	.st81{fill-rule:evenodd;clip-rule:evenodd;fill:#107A45;}
	.st82{fill-rule:evenodd;clip-rule:evenodd;fill:#AE2A19;}
	.st83{fill-rule:evenodd;clip-rule:evenodd;fill:#7F1918;}
	.st84{fill-rule:evenodd;clip-rule:evenodd;fill:#E0EED6;}
	.st85{clip-path:url(#SVGID_4_);fill:#451500;}
	.st86{clip-path:url(#SVGID_4_);fill:#AB2318;}
	.st87{fill-rule:evenodd;clip-rule:evenodd;fill:#E7AC76;}
	.st88{fill-rule:evenodd;clip-rule:evenodd;fill:#E9C987;}
	.st89{fill-rule:evenodd;clip-rule:evenodd;fill:#E9F0DA;}
	.st90{fill-rule:evenodd;clip-rule:evenodd;fill:#B16147;}
	.st91{fill-rule:evenodd;clip-rule:evenodd;fill:#831B11;}
	.st92{fill-rule:evenodd;clip-rule:evenodd;fill:#B3361A;}
	.st93{fill-rule:evenodd;clip-rule:evenodd;fill:#841B12;}
	.st94{fill-rule:evenodd;clip-rule:evenodd;fill:#84D2DF;}
	.st95{fill-rule:evenodd;clip-rule:evenodd;fill:#B5381A;}
	.st96{fill-rule:evenodd;clip-rule:evenodd;fill:#B63B1A;}
	.st97{fill-rule:evenodd;clip-rule:evenodd;fill:#88B86A;}
	.st98{fill-rule:evenodd;clip-rule:evenodd;fill:#B83E1B;}
	.st99{fill-rule:evenodd;clip-rule:evenodd;fill:#891D13;}
	.st100{fill-rule:evenodd;clip-rule:evenodd;fill:#ECCB89;}
	.st101{fill-rule:evenodd;clip-rule:evenodd;fill:#B9411B;}
	.st102{fill-rule:evenodd;clip-rule:evenodd;fill:#EDF3E0;}
	.st103{clip-path:url(#SVGID_2_);}
	.st104{clip-path:url(#SVGID_4_);}
	.st105{fill-rule:evenodd;clip-rule:evenodd;fill:#EEB687;}
	.st106{fill-rule:evenodd;clip-rule:evenodd;fill:#558068;}
	.st107{fill-rule:evenodd;clip-rule:evenodd;fill:#566C5D;}
	.st108{fill-rule:evenodd;clip-rule:evenodd;fill:#568068;}
	.st109{fill-rule:evenodd;clip-rule:evenodd;fill:#8B1D13;}
	.st110{fill-rule:evenodd;clip-rule:evenodd;fill:#592D15;}
	.st111{fill-rule:evenodd;clip-rule:evenodd;fill:#BC461B;}
	.st112{fill-rule:evenodd;clip-rule:evenodd;fill:#8D1E14;}
	.st113{fill-rule:evenodd;clip-rule:evenodd;}
	.st114{opacity:0.6;}
	.st115{opacity:0.7;}
	.st116{fill-rule:evenodd;clip-rule:evenodd;fill:#BE491B;}
	.st117{fill-rule:evenodd;clip-rule:evenodd;fill:#8F1E14;}
	.st118{fill-rule:evenodd;clip-rule:evenodd;fill:#210F0F;}
	.st119{fill-rule:evenodd;clip-rule:evenodd;fill:#BF4B1C;}
	.st120{fill-rule:evenodd;clip-rule:evenodd;fill:#223D2F;}
	.st121{fill-rule:evenodd;clip-rule:evenodd;fill:#F2C7A1;}
	.st122{opacity:0.6;fill:#4F9DAF;}
	.st123{fill-rule:evenodd;clip-rule:evenodd;fill:#F5F9EE;}
	.st124{fill-rule:evenodd;clip-rule:evenodd;fill:#F6FAEF;}
	.st125{fill-rule:evenodd;clip-rule:evenodd;fill:#F7DDCD;}
	.st126{clip-path:url(#SVGID_13_);fill:#451500;}
	.st127{fill-rule:evenodd;clip-rule:evenodd;fill:#F7FAF2;}
	.st128{clip-path:url(#SVGID_4_);mask:url(#SVGID_5_);}
	.st129{fill-rule:evenodd;clip-rule:evenodd;fill:#914933;}
	.st130{fill-rule:evenodd;clip-rule:evenodd;fill:#921F14;}
	.st131{fill-rule:evenodd;clip-rule:evenodd;fill:#C2501C;}
	.st132{fill-rule:evenodd;clip-rule:evenodd;fill:#931F15;}
	.st133{fill-rule:evenodd;clip-rule:evenodd;fill:#C53B27;}
	.st134{fill-rule:evenodd;clip-rule:evenodd;fill:#965A34;}
	.st135{fill-rule:evenodd;clip-rule:evenodd;fill:#2B4A38;}
	.st136{clip-path:url(#SVGID_2_);fill:#FFFFFF;}
	.st137{fill-rule:evenodd;clip-rule:evenodd;fill:#2C4C39;}
	.st138{fill-rule:evenodd;clip-rule:evenodd;fill:#FAFCF7;}
	.st139{fill-rule:evenodd;clip-rule:evenodd;fill:#2D4C3A;}
	.st140{fill-rule:evenodd;clip-rule:evenodd;fill:#992116;}
	.st141{fill-rule:evenodd;clip-rule:evenodd;fill:#602F28;}
	.st142{clip-path:url(#SVGID_15_);fill:#451500;}
	.st143{fill-rule:evenodd;clip-rule:evenodd;fill:#9B4B23;}
	.st144{fill-rule:evenodd;clip-rule:evenodd;fill:#CB765B;}
	.st145{fill:#D7E7C4;}
	.st146{fill-rule:evenodd;clip-rule:evenodd;fill:#CE621C;}
	.st147{clip-path:url(#SVGID_4_);fill:#FFFFFF;}
	.st148{clip-path:url(#SVGID_23_);}
	.st149{clip-path:url(#SVGID_27_);}
	.st150{fill-rule:evenodd;clip-rule:evenodd;fill:#368A4C;}
	.st151{clip-path:url(#SVGID_17_);fill:#451500;}
	.st152{fill-rule:evenodd;clip-rule:evenodd;fill:#005C31;}
	.st153{fill:#402312;}
	.st154{fill-rule:evenodd;clip-rule:evenodd;fill:#024D26;}
	.st155{fill-rule:evenodd;clip-rule:evenodd;fill:#D2681D;}
	.st156{fill-rule:evenodd;clip-rule:evenodd;fill:#D37028;}
]]>
</style>
<g id="Layer_1">
	<g>
		<path class="st21" d="M29.92,12.86c-0.07,0.24-0.08,0.52-0.22,0.7c-0.85,1.18-1.71,2.35-2.58,3.52c-0.36,0.48-0.74,0.95-1.11,1.42
			c0.45,0.61,0.96,0.72,1.53,0.32c1.1-1.57,2.21-3.13,3.3-4.71c0.42-0.61-0.04-1.12-0.42-1.61C30.25,12.62,30.08,12.74,29.92,12.86z
			"/>
		<path class="st18" d="M20,175.56c-1.2-2.34-2.57-4.61-3.58-7.03c-2.22-5.33-4.4-10.68-6.33-16.09c-1.38-3.87-2.46-7.84-3.46-11.81
			c-1.02-4.05-1.93-8.13-2.63-12.21c-1.06-6.16-1.78-12.34-1.91-18.51c-0.1-4.64-0.07-9.27,0.06-13.89c0.09-3.26,0.24-6.54,0.7-9.72
			c0.77-5.26,1.72-10.48,2.79-15.65c0.72-3.48,1.77-6.85,2.66-10.27c0.06-0.23,0.02-0.49,0.03-0.73c-0.27-0.81-0.54-1.63-0.81-2.44
			c-0.21,0.24-0.52,0.44-0.61,0.73C6,61.12,5,64.3,4.28,67.56C3.3,72.03,2.42,76.55,1.7,81.1C1.08,85.03,0.58,89,0.34,93.01
			c-0.41,7.07-0.58,14.18,0.2,21.35c0.53,4.85,1,9.7,1.75,14.53c1.2,7.82,3.15,15.54,5.69,23.14c0.96,2.86,1.94,5.71,2.95,8.56
			c0.12,0.35,0.46,0.64,0.77,1.06c0.04,0.33,0.01,0.94,0.21,1.46c0.5,1.26,1.16,2.46,1.68,3.71c0.47,1.13,0.8,2.33,1.3,3.45
			c0.47,1.04,0.58,2.25,1.66,3.04c0.31,0.23,0.21,0.99,0.42,1.47c0.26,0.6,0.64,1.15,0.98,1.71c0.35-0.26,0.69-0.57,1.07,0.06
			c0.31-0.03,0.62-0.06,0.92-0.09c0.03-0.21,0.05-0.43,0.07-0.64l0,0.01C20,175.75,20,175.65,20,175.56z"/>
		<path class="st45" d="M11,52.04c1.38-3.36,2.71-6.74,4.15-10.06c2.96-6.85,6.53-13.32,10.29-19.67c0.16-0.28,0.03-0.75,0.03-1.13
			c-0.21-0.3-0.42-0.6-0.63-0.9c-0.84,1.17-1.77,2.29-2.52,3.52c-3.76,6.23-7.11,12.71-10.02,19.46c-0.06,0.14-0.06,0.3-0.09,0.45
			c0.24-0.05,0.48-0.1,0.72-0.16c0.05,0.24,0.18,0.51,0.12,0.7c-0.16,0.53-0.4,1.04-0.61,1.56c-0.37-0.23-0.63-0.39-0.9-0.54
			c-0.68,1.71-1.35,3.41-2.03,5.12c0.29,0.62,0.59,1.24,0.88,1.87C10.6,52.17,10.8,52.1,11,52.04z"/>
		<path class="st42" d="M7.51,57.2c0.27,0.81,0.54,1.63,0.81,2.44c0.36-1.1,0.72-2.2,1.08-3.3c-0.6-0.12-1.2-0.24-1.81-0.37
			C7.57,56.37,7.54,56.79,7.51,57.2z"/>
		<path class="st33" d="M8.46,53.39c-0.14,0.38-0.28,0.75-0.42,1.13c0.59,0.31,1.17,0.62,1.76,0.94c0.12-0.38,0.24-0.76,0.36-1.15
			C9.59,54.01,9.02,53.7,8.46,53.39z"/>
		<path class="st81" d="M8.46,53.39c0.56,0.31,1.13,0.62,1.7,0.93c0.17-0.58,0.32-1.17,0.51-1.74c0.07-0.2,0.22-0.36,0.33-0.54
			c-0.2,0.07-0.4,0.14-0.6,0.21c-0.47,0.39-0.95,0.82-1.53,0C8.73,52.63,8.59,53.01,8.46,53.39z"/>
		<path class="st80" d="M9.79,55.46c-0.59-0.31-1.17-0.62-1.76-0.94c-0.15,0.48-0.29,0.96-0.44,1.44c0.6,0.12,1.2,0.25,1.81,0.37
			C9.53,56.05,9.66,55.75,9.79,55.46z"/>
		<path class="st40" d="M24.83,20.27c0.21,0.3,0.42,0.6,0.63,0.9c0.44-0.34,0.88-0.68,1.31-1.03c-0.38-0.27-0.76-0.54-1.15-0.81
			C25.36,19.64,25.09,19.96,24.83,20.27z"/>
		<path class="st41" d="M8.87,52.24c0.58,0.82,1.06,0.39,1.53,0C10.1,51.62,9.81,51,9.51,50.38C9.3,51,9.08,51.62,8.87,52.24z"/>
		<path class="st43" d="M11.54,45.26c0.26,0.16,0.53,0.32,0.9,0.54c0.21-0.52,0.45-1.03,0.61-1.56c0.06-0.19-0.08-0.46-0.12-0.7
			c-0.24,0.05-0.48,0.11-0.72,0.16C11.98,44.22,11.76,44.74,11.54,45.26z"/>
		<path class="st50" d="M25.62,19.33c0.38,0.27,0.77,0.54,1.15,0.81c0.25-0.44,0.51-0.88,0.77-1.32c-0.56,0.4-1.07,0.29-1.53-0.32
			C25.88,18.77,25.75,19.05,25.62,19.33z"/>
		<path class="st93" d="M40.52,7.37c-0.97,0.08-1.18,0.66-1.37,1.41c-0.1,0.4-0.2,0.79-0.38,1.47"/>
		<path class="st145" d="M40.55,7.79c0,0.58-0.7,1.08-1.08,1.62l-0.01,0.05c-0.15-0.07-0.29-0.13-0.43-0.2c0,0.18,0,0.36-0.01,0.54
			c-0.01,0.1-0.03,0.2-0.04,0.3c-0.21-0.04-0.41-0.09-0.62-0.14c-0.04-0.06-0.07-0.12-0.12-0.18C38.12,9.74,38,9.7,37.89,9.65
			c-0.23-0.08-0.47-0.15-0.7-0.24c-0.36-0.36-0.67-0.8-1.09-1.06c-0.18-0.12-0.58,0.07-0.83,0.21c-0.28,0.15-0.51,0.41-0.76,0.62
			c-0.49-0.22-0.98-0.45-1.47-0.67c-0.13-0.06-0.26-0.11-0.4-0.17c-0.3,0.03-0.6,0.06-0.91,0.08c-0.08-0.12-0.16-0.23-0.24-0.35
			c-0.2-0.26-0.41-0.52-0.61-0.77c-0.18,0.21-0.36,0.42-0.54,0.63c-0.2-0.16-0.41-0.32-0.61-0.48c0.02-0.19,0.05-0.38,0.07-0.57
			c-0.13-0.31-0.25-0.62-0.39-0.95c-0.84,0.24-0.73,0.62-0.23,1.1c-0.41,0.18-0.81,0.36-1.22,0.54c-0.25-0.17-0.5-0.34-0.75-0.51
			c-0.08-0.16-0.15-0.33-0.23-0.49c-0.12-0.63-0.24-1.27-0.37-1.9c0.45,0.54,0.72,0.24,0.99-0.12c0.18-0.01,0.36-0.05,0.55-0.03
			c0.27,0.03,0.54,0.09,0.86,0.15c-0.35-0.91-0.63-1.62-0.91-2.33c0.02-0.13,0.04-0.26,0.06-0.39c0.22-0.16,0.43-0.32,0.65-0.48
			c0.88-0.37,1.74-0.81,2.65-1.09c2.32-0.7,4.59-0.48,6.73,1.19c0.11,0.08,0.25,0.12,0.38,0.17c0.49,0.66,0.97,1.32,1.45,1.98
			C40.23,5.08,40.56,6.45,40.55,7.79z M38.44,8.77c0.05-0.04,0.01-0.18,0.01-0.28c-0.12,0-0.24-0.01-0.34,0.03
			c-0.05,0.02-0.03,0.16-0.06,0.35C38.23,8.83,38.36,8.83,38.44,8.77z"/>
		<path class="st35" d="M33.2,9.33c0.29,0.94,1.17,1.28,1.97,0.76c0.36-0.06,0.72-0.12,1.08-0.17c0.01,0.07,0.01,0.14-0.01,0.21
			c-0.07,0.2-0.14,0.41-0.27,0.82c0.38-0.18,0.58-0.27,0.79-0.37c0.2-0.07,0.41-0.14,0.61-0.21c0.2,0.14,0.4,0.28,0.6,0.42
			c-0.14,0.23-0.28,0.46-0.42,0.69c0.12,0.04,0.24,0.08,0.35,0.12c0.03-0.27,0.05-0.54,0.07-0.81c0.54-0.45,0.94-0.17,1.28,0.38
			c-2.36,3.34-6.45,5.26-10.47,3.5c-0.62-0.27-1.2-0.69-1.79-1.04c-0.49-0.66-0.97-1.32-1.46-1.98c-0.17-1.37-0.34-2.73-0.51-4.1
			c0.68,0.54,0.76-0.19,1.06-0.46c0.06,0.12,0.12,0.23,0.18,0.35c0.08,0.14,0.17,0.29,0.25,0.43l0-0.01
			c0.21,0.51,0.39,1.02,0.64,1.51c0.05,0.1,0.49,0.15,0.52,0.09c0.18-0.37,0.28-0.78,0.41-1.17c0.11-0.07,0.22-0.13,0.33-0.2
			c0.23-0.01,0.46-0.03,0.68-0.04c0.08,0.08,0.16,0.15,0.24,0.23c0.14,0.09,0.27,0.17,0.41,0.26c0.05,0.05,0.09,0.11,0.13,0.18
			c-0.13,0.28-0.27,0.55-0.4,0.83c0.07,0.08,0.14,0.15,0.21,0.23c0.24-0.11,0.48-0.22,0.72-0.33c0.08,0.21,0.16,0.42,0.24,0.62
			c0.13,0.24,0.26,0.48,0.4,0.72c0.08-0.03,0.17-0.06,0.26-0.09c-0.1-0.27-0.2-0.55-0.3-0.82c0.1-0.19,0.2-0.38,0.3-0.56
			c0.27-0.1,0.55-0.2,0.82-0.31c0.17-0.23,0.34-0.45,0.51-0.68c0.14,0.06,0.27,0.12,0.4,0.17C33.09,8.78,33.12,9.07,33.2,9.33z
			 M32.71,10.41c-0.1,0.06-0.2,0.11-0.3,0.17c0.14,0.24,0.29,0.49,0.43,0.73c0.11-0.06,0.21-0.12,0.32-0.18
			C33.01,10.89,32.86,10.65,32.71,10.41z M33.97,10.85c0.01,0.06,0,0.12,0.02,0.17c0,0.01,0.08,0.03,0.09,0.02
			c0.03-0.05,0.04-0.11,0.06-0.16C34.08,10.87,34.02,10.86,33.97,10.85z"/>
		<path class="st37" d="M26.55,4.6c-1.04,0.67-1.41,1.74-1.54,2.97c0.68,0.54,0.76-0.19,1.06-0.46c0.31-0.18,0.61-0.36,0.92-0.54
			c-0.12-0.64-0.24-1.27-0.37-1.9C26.63,4.67,26.55,4.6,26.55,4.6z"/>
		<path class="st32" d="M28.11,2.33c-0.63,0.49-1.73,0.64-1.24,1.95c0.25,0.09,0.5,0.17,0.74,0.26c0.18-0.01,0.36-0.05,0.55-0.03
			c0.27,0.03,0.54,0.09,0.86,0.15C28.66,3.76,28.39,3.04,28.11,2.33z"/>
		<path class="st30" d="M35.17,10.1c0.36-0.06,0.72-0.12,1.08-0.17c0.31-0.17,0.62-0.34,0.94-0.51c-0.36-0.36-0.67-0.8-1.09-1.06
			c-0.18-0.12-0.58,0.07-0.83,0.21c-0.28,0.15-0.51,0.41-0.76,0.62C34.74,9.49,34.95,9.79,35.17,10.1z"/>
		<path class="st27" d="M35.17,10.1c-0.22-0.31-0.44-0.61-0.66-0.92c-0.49-0.22-0.98-0.45-1.47-0.67c0.05,0.27,0.07,0.56,0.16,0.83
			C33.49,10.28,34.37,10.61,35.17,10.1z"/>
		<path class="st31" d="M31.31,9.32c0.27-0.1,0.55-0.2,0.82-0.31c-0.13-0.2-0.26-0.39-0.4-0.59c-0.08-0.12-0.16-0.23-0.24-0.35
			c-0.2-0.26-0.41-0.52-0.61-0.77c-0.18,0.21-0.36,0.42-0.54,0.63C30.54,8.47,30.49,9.2,31.31,9.32z"/>
		<path class="st39" d="M31.31,9.32c-0.82-0.12-0.77-0.84-0.97-1.39c-0.2-0.16-0.41-0.32-0.61-0.48c-0.21,0.2-0.42,0.41-0.63,0.61
			c0.08,0.08,0.16,0.15,0.24,0.23c0.14,0.09,0.28,0.17,0.41,0.26c0.05,0.05,0.09,0.11,0.13,0.18c0.18,0.24,0.35,0.48,0.53,0.72
			c0.08,0.21,0.16,0.42,0.24,0.62c0.12-0.06,0.24-0.12,0.36-0.19C31.11,9.69,31.21,9.5,31.31,9.32z"/>
		<path class="st28" d="M27.97,7.57c-0.25-0.17-0.5-0.34-0.75-0.51c-0.19,0.1-0.37,0.2-0.56,0.31c-0.05,0.17-0.11,0.35-0.16,0.53
			l0-0.01c0.43,0.87,1,0.37,1.53,0.31c0.02-0.05,0.04-0.09,0.06-0.13C28.06,7.89,28.01,7.73,27.97,7.57z"/>
		<path class="st5" d="M27.97,7.57c0.04,0.16,0.09,0.33,0.13,0.49c0.11,0.02,0.21,0.03,0.31,0.04c0.23-0.01,0.46-0.03,0.68-0.04
			c0.21-0.2,0.42-0.41,0.63-0.61c0.02-0.19,0.05-0.38,0.07-0.57c-0.2,0.05-0.41,0.1-0.61,0.15C28.78,7.21,28.37,7.39,27.97,7.57z"/>
		<path class="st29" d="M39.24,11.18c0.07-0.14,0.14-0.28,0.21-0.42c-0.16-0.22-0.32-0.44-0.48-0.65c-0.21-0.04-0.41-0.09-0.62-0.14
			c-0.04-0.06-0.08-0.12-0.12-0.18C38.12,9.74,38,9.7,37.89,9.65c-0.17,0.25-0.35,0.49-0.52,0.73c0.2,0.14,0.4,0.28,0.6,0.42l0,0
			C38.5,10.35,38.9,10.63,39.24,11.18z"/>
		<path class="st6" d="M37.36,10.38c0.18-0.24,0.35-0.49,0.52-0.73c-0.23-0.08-0.47-0.15-0.7-0.24c-0.31,0.17-0.62,0.34-0.94,0.51
			c0.01,0.07,0.01,0.14-0.01,0.21c0.17,0.15,0.35,0.3,0.52,0.46C36.96,10.52,37.16,10.45,37.36,10.38z"/>
		<path class="st25" d="M29.19,7.02c0.21-0.05,0.41-0.1,0.61-0.15c-0.13-0.31-0.25-0.62-0.39-0.95C28.57,6.17,28.68,6.55,29.19,7.02
			z"/>
		<path class="st35" d="M38.97,10.11c0.16,0.22,0.32,0.44,0.48,0.65c0-0.45,0.01-0.9,0.01-1.34l-0.01,0.05
			c-0.15,0.11-0.29,0.23-0.44,0.34C39,9.9,38.99,10.01,38.97,10.11z"/>
		<path class="st2" d="M26.67,7.36c0.19-0.1,0.37-0.21,0.56-0.31c-0.08-0.16-0.15-0.33-0.23-0.49c-0.31,0.18-0.61,0.36-0.92,0.54
			c0.06,0.12,0.12,0.23,0.18,0.35C26.39,7.43,26.53,7.39,26.67,7.36z"/>
		<path class="st27" d="M31.74,8.42c0.13,0.2,0.26,0.39,0.4,0.59c0.17-0.23,0.34-0.45,0.51-0.68C32.34,8.36,32.04,8.39,31.74,8.42z"
			/>
		<path class="st2" d="M27.61,4.55c-0.25-0.09-0.5-0.18-0.74-0.26c-0.11,0.1-0.21,0.21-0.32,0.31c0,0,0.08,0.07,0.08,0.07
			C27.07,5.21,27.35,4.91,27.61,4.55z"/>
		<path class="st36" d="M38.04,8.88c0.19-0.04,0.32-0.04,0.39-0.11c0.05-0.04,0.01-0.18,0.01-0.28c-0.12,0-0.24-0.01-0.34,0.03
			C38.06,8.54,38.07,8.69,38.04,8.88z"/>
		<path class="st6" d="M39.02,9.8c0.15-0.11,0.29-0.22,0.44-0.34c-0.15-0.07-0.29-0.13-0.43-0.2C39.02,9.44,39.02,9.62,39.02,9.8z"
			/>
		<path class="st6" d="M38.24,9.79c0.04,0.06,0.08,0.12,0.12,0.18C38.32,9.91,38.28,9.85,38.24,9.79z"/>
		<path class="st37" d="M28.04,8.18c-0.53,0.06-1.1,0.56-1.53-0.31c0.21,0.51,0.39,1.02,0.64,1.51c0.05,0.1,0.49,0.15,0.52,0.09
			c0.18-0.37,0.28-0.78,0.41-1.17C28.08,8.26,28.06,8.22,28.04,8.18z"/>
		<path class="st26" d="M30.41,9.44c-0.18-0.24-0.35-0.48-0.53-0.72c-0.13,0.28-0.27,0.55-0.4,0.83c0.07,0.08,0.14,0.15,0.21,0.23
			C29.93,9.66,30.17,9.55,30.41,9.44z"/>
		<path class="st27" d="M33.16,11.12c-0.15-0.24-0.3-0.48-0.45-0.72c-0.1,0.06-0.2,0.11-0.3,0.17c0.14,0.24,0.29,0.49,0.43,0.73
			C32.95,11.25,33.06,11.19,33.16,11.12z"/>
		<path class="st29" d="M37.96,10.8c-0.14,0.23-0.28,0.46-0.42,0.69c0.12,0.04,0.24,0.08,0.35,0.12
			C37.92,11.34,37.94,11.07,37.96,10.8L37.96,10.8z"/>
		<path class="st26" d="M31.01,9.88c-0.12,0.06-0.24,0.13-0.36,0.19c0.13,0.24,0.26,0.48,0.4,0.72c0.08-0.03,0.17-0.06,0.26-0.09
			C31.2,10.43,31.1,10.16,31.01,9.88z"/>
		<path class="st29" d="M36.75,10.59c-0.17-0.15-0.35-0.31-0.52-0.46c-0.07,0.2-0.14,0.41-0.27,0.82
			C36.34,10.78,36.55,10.69,36.75,10.59z"/>
		<path class="st27" d="M34.13,10.88c-0.05-0.01-0.11-0.03-0.17-0.04c0.01,0.06,0,0.12,0.02,0.17c0,0.01,0.08,0.03,0.09,0.02
			C34.1,10.99,34.11,10.94,34.13,10.88z"/>
		<path class="st26" d="M29.75,8.54c-0.14-0.09-0.28-0.17-0.41-0.26C29.48,8.37,29.61,8.46,29.75,8.54z"/>
		<path class="st37" d="M26.67,7.36c-0.14,0.03-0.27,0.07-0.41,0.1c0.08,0.14,0.17,0.29,0.25,0.43C26.56,7.71,26.61,7.54,26.67,7.36
			z"/>
		<path class="st3" d="M28.04,8.18c0.03,0.04,0.05,0.08,0.05,0.12c0.11-0.07,0.22-0.13,0.33-0.2c-0.1-0.01-0.21-0.03-0.31-0.04
			C28.08,8.1,28.05,8.14,28.04,8.18z"/>
	</g>
</g>
<g id="Layer_2">
</g>
</svg>
