<?xml version="1.0" encoding="utf-8"?>
<!-- Generator: Adobe Illustrator 16.0.0, SVG Export Plug-In . SVG Version: 6.00 Build 0)  -->
<!DOCTYPE svg PUBLIC "-//W3C//DTD SVG 1.1//EN" "http://www.w3.org/Graphics/SVG/1.1/DTD/svg11.dtd">
<svg version="1.1" xmlns="http://www.w3.org/2000/svg" xmlns:xlink="http://www.w3.org/1999/xlink" x="0px" y="0px"
	 width="353.69px" height="117.47px" viewBox="0 0 353.69 117.47" style="enable-background:new 0 0 353.69 117.47;"
	 xml:space="preserve">
<style type="text/css">
<![CDATA[
	.st0{clip-path:url(#SVGID_16_);fill:#CD5F29;}
	.st1{clip-path:url(#SVGID_16_);fill:#CD802B;}
	.st2{clip-path:url(#SVGID_32_);fill:#E2925D;}
	.st3{clip-path:url(#SVGID_10_);fill:#E38C69;}
	.st4{clip-path:url(#SVGID_10_);fill:#E3BD70;}
	.st5{clip-path:url(#SVGID_10_);fill:#E3BD71;}
	.st6{clip-path:url(#SVGID_20_);fill-rule:evenodd;clip-rule:evenodd;fill:#73A654;}
	.st7{clip-path:url(#SVGID_50_);fill:#F1C8A2;}
	.st8{clip-path:url(#SVGID_54_);fill:#E2925D;}
	.st9{clip-path:url(#SVGID_118_);fill:#5FAFBF;}
	.st10{clip-path:url(#SVGID_10_);fill:#E48C6A;}
	.st11{fill:#AB2218;}
	.st12{clip-path:url(#SVGID_32_);fill:#E49966;}
	.st13{clip-path:url(#SVGID_10_);fill:#E5BE72;}
	.st14{clip-path:url(#SVGID_20_);fill-rule:evenodd;clip-rule:evenodd;fill:#75A955;}
	.st15{clip-path:url(#SVGID_20_);fill-rule:evenodd;clip-rule:evenodd;fill:#75AA55;}
	.st16{clip-path:url(#SVGID_20_);fill-rule:evenodd;clip-rule:evenodd;fill:#75AB55;}
	.st17{clip-path:url(#SVGID_82_);fill:#5FAFBF;}
	.st18{fill-rule:evenodd;clip-rule:evenodd;fill:#D7D6A3;}
	.st19{fill-rule:evenodd;clip-rule:evenodd;fill:#D7DBAE;}
	.st20{clip-path:url(#SVGID_54_);fill:#E49966;}
	.st21{fill:#AC2325;}
	.st22{fill-rule:evenodd;clip-rule:evenodd;fill:#D8711C;}
	.st23{clip-path:url(#SVGID_10_);fill:#E6EDD7;}
	.st24{clip-path:url(#SVGID_20_);fill-rule:evenodd;clip-rule:evenodd;fill:#76AB55;}
	.st25{clip-path:url(#SVGID_20_);fill-rule:evenodd;clip-rule:evenodd;fill:#76AD56;}
	.st26{fill-rule:evenodd;clip-rule:evenodd;fill:#D8E8C4;}
	.st27{clip-path:url(#SVGID_134_);fill:#DA7427;}
	.st28{clip-path:url(#SVGID_32_);fill:#E69F6C;}
	.st29{clip-path:url(#SVGID_30_);fill:#EFC197;}
	.st30{clip-path:url(#SVGID_30_);fill:#EFC39B;}
	.st31{fill-rule:evenodd;clip-rule:evenodd;fill:#D9A731;}
	.st32{clip-path:url(#SVGID_54_);fill:#E69F6C;}
	.st33{clip-path:url(#SVGID_50_);fill:#F5DBC1;}
	.st34{clip-path:url(#SVGID_52_);fill:#EFC197;}
	.st35{clip-path:url(#SVGID_52_);fill:#EFC39B;}
	.st36{clip-path:url(#SVGID_44_);fill:#7F5426;}
	.st37{clip-path:url(#SVGID_44_);fill:#7F5726;}
	.st38{clip-path:url(#SVGID_36_);fill-rule:evenodd;clip-rule:evenodd;fill:#AA2524;}
	.st39{clip-path:url(#SVGID_10_);fill:#E9F1DB;}
	.st40{clip-path:url(#SVGID_44_);fill:#E0A04D;}
	.st41{clip-path:url(#SVGID_62_);fill:#8F5A21;}
	.st42{clip-path:url(#SVGID_38_);fill-rule:evenodd;clip-rule:evenodd;fill:#005C31;}
	.st43{clip-path:url(#SVGID_108_);fill:#5FAFBF;}
	.st44{clip-path:url(#SVGID_8_);fill-rule:evenodd;clip-rule:evenodd;fill:#ECF2DF;}
	.st45{clip-path:url(#SVGID_40_);fill-rule:evenodd;clip-rule:evenodd;fill:#D45128;}
	.st46{clip-path:url(#SVGID_44_);fill:#E3AB5B;}
	.st47{clip-path:url(#SVGID_72_);fill:#5FAFBF;}
	.st48{fill-rule:evenodd;clip-rule:evenodd;fill:#0A341D;}
	.st49{clip-path:url(#SVGID_24_);fill-rule:evenodd;clip-rule:evenodd;fill:#F6DCCC;}
	.st50{clip-path:url(#SVGID_94_);fill:#5FAFBF;}
	.st51{fill-rule:evenodd;clip-rule:evenodd;fill:#0B371F;}
	.st52{fill-rule:evenodd;clip-rule:evenodd;fill:#0B7D46;}
	.st53{clip-path:url(#SVGID_354_);fill:none;stroke:#FFFFFF;stroke-width:1.25;stroke-miterlimit:10;}
	.st54{fill-rule:evenodd;clip-rule:evenodd;fill:#DAA120;}
	.st55{fill-rule:evenodd;clip-rule:evenodd;fill:#DAA52B;}
	.st56{fill-rule:evenodd;clip-rule:evenodd;fill:#DAA62E;}
	.st57{fill-rule:evenodd;clip-rule:evenodd;fill:#DAAB3B;}
	.st58{fill-rule:evenodd;clip-rule:evenodd;fill:#DAAB3C;}
	.st59{fill-rule:evenodd;clip-rule:evenodd;fill:#DAAC3E;}
	.st60{fill-rule:evenodd;clip-rule:evenodd;fill:#DAAD42;}
	.st61{fill-rule:evenodd;clip-rule:evenodd;fill:#DAB251;}
	.st62{fill-rule:evenodd;clip-rule:evenodd;fill:#DAB85E;}
	.st63{fill-rule:evenodd;clip-rule:evenodd;fill:#DABC68;}
	.st64{fill-rule:evenodd;clip-rule:evenodd;fill:#0C3920;}
	.st65{fill-rule:evenodd;clip-rule:evenodd;fill:#0C3D23;}
	.st66{fill-rule:evenodd;clip-rule:evenodd;fill:#DBC276;}
	.st67{fill-rule:evenodd;clip-rule:evenodd;fill:#0D4125;}
	.st68{fill-rule:evenodd;clip-rule:evenodd;fill:#0D4226;}
	.st69{fill-rule:evenodd;clip-rule:evenodd;fill:#0D7C46;}
	.st70{clip-path:url(#SVGID_24_);fill-rule:evenodd;clip-rule:evenodd;fill:#F9FBF7;}
	.st71{clip-path:url(#SVGID_40_);fill-rule:evenodd;clip-rule:evenodd;fill:#D97327;}
	.st72{clip-path:url(#SVGID_20_);fill-rule:evenodd;clip-rule:evenodd;fill:#478847;}
	.st73{clip-path:url(#SVGID_32_);fill:#EAB483;}
	.st74{clip-path:url(#SVGID_134_);fill:#AB2524;}
	.st75{clip-path:url(#SVGID_44_);fill:#E9BB76;}
	.st76{clip-path:url(#SVGID_44_);fill:#E9BE7A;}
	.st77{fill-rule:evenodd;clip-rule:evenodd;fill:#0F7A45;}
	.st78{clip-path:url(#SVGID_54_);fill:#EAB483;}
	.st79{clip-path:url(#SVGID_44_);fill:#807442;}
	.st80{clip-path:url(#SVGID_12_);fill-rule:evenodd;clip-rule:evenodd;fill:#D87327;}
	.st81{clip-path:url(#SVGID_16_);fill:#D4AD7B;}
	.st82{clip-path:url(#SVGID_44_);fill:#818C3C;}
	.st83{clip-path:url(#SVGID_12_);fill-rule:evenodd;clip-rule:evenodd;fill:#D9A128;}
	.st84{clip-path:url(#SVGID_30_);fill:#F3CEAB;}
	.st85{clip-path:url(#SVGID_354_);fill:none;stroke:#000000;stroke-width:0.25;stroke-miterlimit:10;}
	.st86{clip-path:url(#SVGID_10_);fill:#EEF4E4;}
	.st87{clip-path:url(#SVGID_84_);fill:#5FAFBF;}
	.st88{clip-path:url(#SVGID_52_);fill:#F3CEAB;}
	.st89{clip-path:url(#SVGID_44_);fill:#B3B986;}
	.st90{clip-path:url(#SVGID_20_);fill-rule:evenodd;clip-rule:evenodd;fill:#136335;}
	.st91{clip-path:url(#SVGID_352_);fill:none;stroke:#FFFFFF;stroke-width:3.061;}
	.st92{clip-path:url(#SVGID_8_);fill-rule:evenodd;clip-rule:evenodd;fill:#213D2F;}
	.st93{clip-path:url(#SVGID_44_);fill:#868945;}
	.st94{clip-path:url(#SVGID_44_);fill:#EACC8B;}
	.st95{clip-path:url(#SVGID_38_);fill-rule:evenodd;clip-rule:evenodd;fill:#0A7D46;}
	.st96{clip-path:url(#SVGID_44_);fill:#EBCC8F;}
	.st97{clip-path:url(#SVGID_74_);fill:#5FAFBF;}
	.st98{clip-path:url(#SVGID_134_);fill:#4C8A4E;}
	.st99{fill-rule:evenodd;clip-rule:evenodd;fill:#107945;}
	.st100{clip-path:url(#SVGID_62_);fill:#C8AA77;}
	.st101{clip-path:url(#SVGID_96_);fill:#5FAFBF;}
	.st102{clip-path:url(#SVGID_60_);fill-rule:evenodd;clip-rule:evenodd;fill:#D45128;}
	.st103{clip-path:url(#SVGID_8_);fill-rule:evenodd;clip-rule:evenodd;fill:#F5F9ED;}
	.st104{clip-path:url(#SVGID_8_);fill-rule:evenodd;clip-rule:evenodd;fill:#F6F9EE;}
	.st105{clip-path:url(#SVGID_20_);fill-rule:evenodd;clip-rule:evenodd;fill:#4F8E4A;}
	.st106{clip-path:url(#SVGID_18_);fill:#D1A15A;}
	.st107{clip-path:url(#SVGID_130_);fill:#5FAFBF;}
	.st108{clip-path:url(#SVGID_58_);fill-rule:evenodd;clip-rule:evenodd;fill:#D45128;}
	.st109{clip-path:url(#SVGID_12_);fill-rule:evenodd;clip-rule:evenodd;fill:#DFEDD5;}
	.st110{fill:#54A4B4;}
	.st111{clip-path:url(#SVGID_348_);fill:#FFFFFF;}
	.st112{clip-path:url(#SVGID_60_);fill-rule:evenodd;clip-rule:evenodd;fill:#D97327;}
	.st113{clip-path:url(#SVGID_28_);fill:#A2663E;}
	.st114{clip-path:url(#SVGID_86_);fill:#5FAFBF;}
	.st115{clip-path:url(#SVGID_10_);fill:#F5F9EE;}
	.st116{clip-path:url(#SVGID_10_);fill:#5B7959;}
	.st117{clip-path:url(#SVGID_58_);fill-rule:evenodd;clip-rule:evenodd;fill:#D97327;}
	.st118{clip-path:url(#SVGID_10_);fill:#F6F9EE;}
	.st119{clip-path:url(#SVGID_10_);fill:#F6F9F0;}
	.st120{clip-path:url(#SVGID_10_);fill:#F6F9F1;}
	.st121{clip-path:url(#SVGID_26_);fill:#AE9A80;}
	.st122{clip-path:url(#SVGID_18_);fill:#D89A56;}
	.st123{clip-path:url(#SVGID_10_);fill:#5C7959;}
	.st124{clip-path:url(#SVGID_10_);fill:#5C795A;}
	.st125{clip-path:url(#SVGID_18_);fill:#D8B65D;}
	.st126{clip-path:url(#SVGID_48_);fill:#AE9A80;}
	.st127{clip-path:url(#SVGID_20_);fill-rule:evenodd;clip-rule:evenodd;fill:#1C6938;}
	.st128{clip-path:url(#SVGID_56_);fill-rule:evenodd;clip-rule:evenodd;fill:#E8C886;}
	.st129{clip-path:url(#SVGID_120_);fill:#5FAFBF;}
	.st130{clip-path:url(#SVGID_44_);fill:#8F5A21;}
	.st131{clip-path:url(#SVGID_42_);fill-rule:evenodd;clip-rule:evenodd;fill:#D45128;}
	.st132{clip-path:url(#SVGID_76_);fill:#5FAFBF;}
	.st133{clip-path:url(#SVGID_20_);fill-rule:evenodd;clip-rule:evenodd;fill:#52904B;}
	.st134{clip-path:url(#SVGID_98_);fill:#5FAFBF;}
	.st135{clip-path:url(#SVGID_18_);fill:#A5D1C4;}
	.st136{clip-path:url(#SVGID_42_);fill-rule:evenodd;clip-rule:evenodd;fill:#D97327;}
	.st137{clip-path:url(#SVGID_40_);fill-rule:evenodd;clip-rule:evenodd;fill:#E7AC76;}
	.st138{clip-path:url(#SVGID_110_);fill:#5FAFBF;}
	.st139{clip-path:url(#SVGID_56_);fill-rule:evenodd;clip-rule:evenodd;fill:#EBCA88;}
	.st140{clip-path:url(#SVGID_20_);fill-rule:evenodd;clip-rule:evenodd;fill:#57934C;}
	.st141{clip-path:url(#SVGID_18_);fill:#DCE3C1;}
	.st142{clip-path:url(#SVGID_36_);fill-rule:evenodd;clip-rule:evenodd;fill:#F4E2D9;}
	.st143{clip-path:url(#SVGID_62_);fill:#6D7F35;}
	.st144{fill:#5FAFBF;}
	.st145{clip-path:url(#SVGID_66_);fill:#5FAFBF;}
	.st146{clip-path:url(#SVGID_88_);fill:#5FAFBF;}
	.st147{clip-path:url(#SVGID_36_);fill-rule:evenodd;clip-rule:evenodd;fill:#5D9B75;}
	.st148{clip-path:url(#SVGID_28_);fill:#7E7760;}
	.st149{clip-path:url(#SVGID_62_);fill:#D28E2A;}
	.st150{clip-path:url(#SVGID_100_);fill:#5FAFBF;}
	.st151{clip-path:url(#SVGID_28_);fill:#E08D4D;}
	.st152{clip-path:url(#SVGID_122_);fill:#5FAFBF;}
	.st153{clip-path:url(#SVGID_22_);fill:#C6392A;}
	.st154{clip-path:url(#SVGID_50_);fill:#A2663E;}
	.st155{clip-path:url(#SVGID_22_);fill:#C74A2A;}
	.st156{clip-path:url(#SVGID_14_);fill:#8A9A81;}
	.st157{clip-path:url(#SVGID_24_);fill-rule:evenodd;clip-rule:evenodd;fill:#D97327;}
	.st158{clip-path:url(#SVGID_62_);fill:#D67928;}
	.st159{fill:#98D5E0;}
	.st160{clip-path:url(#SVGID_20_);fill-rule:evenodd;clip-rule:evenodd;fill:#5A8344;}
	.st161{clip-path:url(#SVGID_44_);fill:#C8AA77;}
	.st162{clip-path:url(#SVGID_78_);fill:#5FAFBF;}
	.st163{clip-path:url(#SVGID_38_);fill-rule:evenodd;clip-rule:evenodd;fill:#87B76A;}
	.st164{clip-path:url(#SVGID_46_);fill-rule:evenodd;clip-rule:evenodd;fill:#F6DCCC;}
	.st165{clip-path:url(#SVGID_36_);fill-rule:evenodd;clip-rule:evenodd;fill:#C54235;}
	.st166{clip-path:url(#SVGID_20_);fill-rule:evenodd;clip-rule:evenodd;fill:#5C8645;}
	.st167{clip-path:url(#SVGID_62_);fill:#D98827;}
	.st168{clip-path:url(#SVGID_62_);fill:#D9A128;}
	.st169{clip-path:url(#SVGID_62_);fill:#D9AC42;}
	.st170{clip-path:url(#SVGID_20_);fill-rule:evenodd;clip-rule:evenodd;fill:#5D8746;}
	.st171{clip-path:url(#SVGID_20_);fill-rule:evenodd;clip-rule:evenodd;fill:#5D8846;}
	.st172{clip-path:url(#SVGID_20_);fill-rule:evenodd;clip-rule:evenodd;fill:#5D964D;}
	.st173{fill:#FFFFFF;}
	.st174{clip-path:url(#SVGID_350_);fill:none;stroke:#FFFFFF;stroke-width:3.061;}
	.st175{clip-path:url(#SVGID_20_);fill-rule:evenodd;clip-rule:evenodd;fill:#5E8846;}
	.st176{clip-path:url(#SVGID_20_);fill-rule:evenodd;clip-rule:evenodd;fill:#5E994E;}
	.st177{clip-path:url(#SVGID_112_);fill:#5FAFBF;}
	.st178{clip-path:url(#SVGID_62_);fill:#A06523;}
	.st179{clip-path:url(#SVGID_46_);fill-rule:evenodd;clip-rule:evenodd;fill:#F9FBF7;}
	.st180{clip-path:url(#SVGID_20_);fill-rule:evenodd;clip-rule:evenodd;fill:#5F8946;}
	.st181{clip-path:url(#SVGID_20_);fill-rule:evenodd;clip-rule:evenodd;fill:#5F8A47;}
	.st182{clip-path:url(#SVGID_2_);fill:#5FAFBF;}
	.st183{clip-path:url(#SVGID_68_);fill:#5FAFBF;}
	.st184{clip-path:url(#SVGID_8_);fill-rule:evenodd;clip-rule:evenodd;fill:#024D26;}
	.st185{clip-path:url(#SVGID_58_);fill-rule:evenodd;clip-rule:evenodd;fill:#E7AC76;}
	.st186{clip-path:url(#SVGID_102_);fill:#5FAFBF;}
	.st187{clip-path:url(#SVGID_124_);fill:#5FAFBF;}
	.st188{clip-path:url(#SVGID_36_);fill-rule:evenodd;clip-rule:evenodd;fill:#CA473B;}
	.st189{clip-path:url(#SVGID_16_);fill:#8A9A81;}
	.st190{clip-path:url(#SVGID_62_);fill:#DE9945;}
	.st191{clip-path:url(#SVGID_62_);fill:#DF9D4A;}
	.st192{clip-path:url(#SVGID_62_);fill:#DFC781;}
	.st193{clip-path:url(#SVGID_20_);fill-rule:evenodd;clip-rule:evenodd;fill:#608A47;}
	.st194{clip-path:url(#SVGID_20_);fill-rule:evenodd;clip-rule:evenodd;fill:#608B48;}
	.st195{clip-path:url(#SVGID_50_);fill:#7E7760;}
	.st196{clip-path:url(#SVGID_20_);fill-rule:evenodd;clip-rule:evenodd;fill:#618C48;}
	.st197{clip-path:url(#SVGID_8_);fill-rule:evenodd;clip-rule:evenodd;fill:#D9522F;}
	.st198{clip-path:url(#SVGID_8_);fill-rule:evenodd;clip-rule:evenodd;fill:#D9A128;}
	.st199{clip-path:url(#SVGID_20_);fill-rule:evenodd;clip-rule:evenodd;fill:#628D49;}
	.st200{clip-path:url(#SVGID_20_);fill-rule:evenodd;clip-rule:evenodd;fill:#628E49;}
	.st201{clip-path:url(#SVGID_20_);fill-rule:evenodd;clip-rule:evenodd;fill:#628F49;}
	.st202{clip-path:url(#SVGID_50_);fill:#E08D4D;}
	.st203{clip-path:url(#SVGID_26_);fill:#F5D6B8;}
	.st204{clip-path:url(#SVGID_20_);fill-rule:evenodd;clip-rule:evenodd;fill:#638F49;}
	.st205{clip-path:url(#SVGID_48_);fill:#F5D6B8;}
	.st206{clip-path:url(#SVGID_8_);fill-rule:evenodd;clip-rule:evenodd;fill:#A0B6A8;}
	.st207{clip-path:url(#SVGID_20_);fill-rule:evenodd;clip-rule:evenodd;fill:#64904A;}
	.st208{clip-path:url(#SVGID_20_);fill-rule:evenodd;clip-rule:evenodd;fill:#64914B;}
	.st209{clip-path:url(#SVGID_114_);fill:#5FAFBF;}
	.st210{clip-path:url(#SVGID_348_);fill:#451500;}
	.st211{clip-path:url(#SVGID_20_);fill-rule:evenodd;clip-rule:evenodd;fill:#65924A;}
	.st212{clip-path:url(#SVGID_20_);fill-rule:evenodd;clip-rule:evenodd;fill:#65924B;}
	.st213{clip-path:url(#SVGID_20_);fill-rule:evenodd;clip-rule:evenodd;fill:#65934B;}
	.st214{clip-path:url(#SVGID_20_);fill-rule:evenodd;clip-rule:evenodd;fill:#659F51;}
	.st215{clip-path:url(#SVGID_132_);}
	.st216{clip-path:url(#SVGID_134_);}
	.st217{clip-path:url(#SVGID_136_);}
	.st218{clip-path:url(#SVGID_140_);}
	.st219{clip-path:url(#SVGID_144_);}
	.st220{clip-path:url(#SVGID_148_);}
	.st221{clip-path:url(#SVGID_152_);}
	.st222{clip-path:url(#SVGID_156_);}
	.st223{clip-path:url(#SVGID_160_);}
	.st224{clip-path:url(#SVGID_164_);}
	.st225{clip-path:url(#SVGID_168_);}
	.st226{clip-path:url(#SVGID_172_);}
	.st227{clip-path:url(#SVGID_176_);}
	.st228{clip-path:url(#SVGID_180_);}
	.st229{clip-path:url(#SVGID_184_);}
	.st230{clip-path:url(#SVGID_188_);}
	.st231{clip-path:url(#SVGID_192_);}
	.st232{clip-path:url(#SVGID_196_);}
	.st233{clip-path:url(#SVGID_20_);fill-rule:evenodd;clip-rule:evenodd;fill:#66934B;}
	.st234{clip-path:url(#SVGID_20_);fill-rule:evenodd;clip-rule:evenodd;fill:#66944B;}
	.st235{clip-path:url(#SVGID_44_);fill:#6D7F35;}
	.st236{clip-path:url(#SVGID_200_);}
	.st237{clip-path:url(#SVGID_204_);}
	.st238{clip-path:url(#SVGID_208_);}
	.st239{clip-path:url(#SVGID_212_);}
	.st240{clip-path:url(#SVGID_216_);}
	.st241{clip-path:url(#SVGID_220_);}
	.st242{clip-path:url(#SVGID_224_);}
	.st243{clip-path:url(#SVGID_228_);}
	.st244{clip-path:url(#SVGID_232_);}
	.st245{clip-path:url(#SVGID_236_);}
	.st246{clip-path:url(#SVGID_240_);}
	.st247{clip-path:url(#SVGID_244_);}
	.st248{clip-path:url(#SVGID_248_);}
	.st249{clip-path:url(#SVGID_252_);}
	.st250{clip-path:url(#SVGID_256_);}
	.st251{clip-path:url(#SVGID_260_);}
	.st252{clip-path:url(#SVGID_264_);}
	.st253{clip-path:url(#SVGID_268_);}
	.st254{clip-path:url(#SVGID_272_);}
	.st255{clip-path:url(#SVGID_276_);}
	.st256{clip-path:url(#SVGID_280_);}
	.st257{clip-path:url(#SVGID_284_);}
	.st258{clip-path:url(#SVGID_288_);}
	.st259{clip-path:url(#SVGID_292_);}
	.st260{clip-path:url(#SVGID_296_);}
	.st261{clip-path:url(#SVGID_20_);fill-rule:evenodd;clip-rule:evenodd;fill:#67954C;}
	.st262{clip-path:url(#SVGID_300_);}
	.st263{clip-path:url(#SVGID_304_);}
	.st264{clip-path:url(#SVGID_308_);}
	.st265{clip-path:url(#SVGID_312_);}
	.st266{clip-path:url(#SVGID_316_);}
	.st267{clip-path:url(#SVGID_320_);}
	.st268{clip-path:url(#SVGID_324_);}
	.st269{clip-path:url(#SVGID_328_);}
	.st270{clip-path:url(#SVGID_332_);}
	.st271{clip-path:url(#SVGID_336_);}
	.st272{clip-path:url(#SVGID_340_);}
	.st273{clip-path:url(#SVGID_344_);}
	.st274{clip-path:url(#SVGID_348_);fill:#AB2218;}
	.st275{clip-path:url(#SVGID_4_);fill:#5FAFBF;}
	.st276{clip-path:url(#SVGID_20_);fill-rule:evenodd;clip-rule:evenodd;fill:#68A151;}
	.st277{clip-path:url(#SVGID_20_);fill:#76AD56;}
	.st278{clip-path:url(#SVGID_20_);fill-rule:evenodd;clip-rule:evenodd;fill:#69974C;}
	.st279{clip-path:url(#SVGID_20_);fill-rule:evenodd;clip-rule:evenodd;fill:#69984D;}
	.st280{clip-path:url(#SVGID_62_);fill:#7F5426;}
	.st281{clip-path:url(#SVGID_62_);fill:#7F5726;}
	.st282{clip-path:url(#SVGID_8_);fill-rule:evenodd;clip-rule:evenodd;fill:#0C83C6;}
	.st283{fill:#034E5E;}
	.st284{clip-path:url(#SVGID_20_);fill-rule:evenodd;clip-rule:evenodd;fill:#30733D;}
	.st285{clip-path:url(#SVGID_62_);fill:#E0A04D;}
	.st286{clip-path:url(#SVGID_8_);fill-rule:evenodd;clip-rule:evenodd;fill:#DBE7C7;}
	.st287{clip-path:url(#SVGID_44_);fill:#D28E2A;}
	.st288{clip-path:url(#SVGID_104_);fill:#5FAFBF;}
	.st289{clip-path:url(#SVGID_36_);fill-rule:evenodd;clip-rule:evenodd;fill:#003A19;}
	.st290{clip-path:url(#SVGID_36_);fill-rule:evenodd;clip-rule:evenodd;fill:#005C31;}
	.st291{clip-path:url(#SVGID_126_);fill:#5FAFBF;}
	.st292{clip-path:url(#SVGID_62_);fill:#E3AB5B;}
	.st293{clip-path:url(#SVGID_8_);fill-rule:evenodd;clip-rule:evenodd;fill:#DEEACC;}
	.st294{clip-path:url(#SVGID_8_);fill-rule:evenodd;clip-rule:evenodd;fill:#416855;}
	.st295{clip-path:url(#SVGID_28_);fill:#F1C8A2;}
	.st296{clip-path:url(#SVGID_90_);fill:#5FAFBF;}
	.st297{clip-path:url(#SVGID_44_);fill:#D67928;}
	.st298{clip-path:url(#SVGID_20_);fill-rule:evenodd;clip-rule:evenodd;fill:#6A994E;}
	.st299{clip-path:url(#SVGID_10_);fill:#77A5D2;}
	.st300{clip-path:url(#SVGID_36_);fill-rule:evenodd;clip-rule:evenodd;fill:#054825;}
	.st301{fill:#D8E8C4;}
	.st302{clip-path:url(#SVGID_20_);fill-rule:evenodd;clip-rule:evenodd;fill:#6B9A4E;}
	.st303{clip-path:url(#SVGID_20_);fill-rule:evenodd;clip-rule:evenodd;fill:#6B9B4F;}
	.st304{clip-path:url(#SVGID_10_);fill:#78A5D3;}
	.st305{clip-path:url(#SVGID_10_);fill:#78A5D4;}
	.st306{clip-path:url(#SVGID_44_);fill:#D98827;}
	.st307{clip-path:url(#SVGID_44_);fill:#D9A128;}
	.st308{clip-path:url(#SVGID_44_);fill:#D9AC42;}
	.st309{clip-path:url(#SVGID_28_);fill:#F5DBC1;}
	.st310{clip-path:url(#SVGID_20_);fill-rule:evenodd;clip-rule:evenodd;fill:#6C9C4F;}
	.st311{clip-path:url(#SVGID_32_);fill:#A87851;}
	.st312{clip-path:url(#SVGID_44_);fill:#A06523;}
	.st313{clip-path:url(#SVGID_62_);fill:#E9BB76;}
	.st314{clip-path:url(#SVGID_62_);fill:#E9BE7A;}
	.st315{clip-path:url(#SVGID_20_);fill-rule:evenodd;clip-rule:evenodd;fill:#6D9D4F;}
	.st316{clip-path:url(#SVGID_54_);fill:#A87851;}
	.st317{clip-path:url(#SVGID_116_);fill:#5FAFBF;}
	.st318{clip-path:url(#SVGID_62_);fill:#807442;}
	.st319{clip-path:url(#SVGID_20_);fill-rule:evenodd;clip-rule:evenodd;fill:#6E9F51;}
	.st320{clip-path:url(#SVGID_20_);fill-rule:evenodd;clip-rule:evenodd;fill:#6EA051;}
	.st321{clip-path:url(#SVGID_20_);fill-rule:evenodd;clip-rule:evenodd;fill:#6EA653;}
	.st322{clip-path:url(#SVGID_20_);fill-rule:evenodd;clip-rule:evenodd;fill:#004925;}
	.st323{clip-path:url(#SVGID_20_);fill-rule:evenodd;clip-rule:evenodd;fill:#004A24;}
	.st324{clip-path:url(#SVGID_20_);fill-rule:evenodd;clip-rule:evenodd;fill:#004A26;}
	.st325{clip-path:url(#SVGID_20_);fill-rule:evenodd;clip-rule:evenodd;fill:#004B28;}
	.st326{clip-path:url(#SVGID_20_);fill-rule:evenodd;clip-rule:evenodd;fill:#004C27;}
	.st327{clip-path:url(#SVGID_20_);fill-rule:evenodd;clip-rule:evenodd;fill:#004D27;}
	.st328{clip-path:url(#SVGID_20_);fill-rule:evenodd;clip-rule:evenodd;fill:#004D28;}
	.st329{clip-path:url(#SVGID_20_);fill-rule:evenodd;clip-rule:evenodd;fill:#004E28;}
	.st330{clip-path:url(#SVGID_20_);fill-rule:evenodd;clip-rule:evenodd;fill:#004F29;}
	.st331{clip-path:url(#SVGID_20_);fill-rule:evenodd;clip-rule:evenodd;fill:#005029;}
	.st332{clip-path:url(#SVGID_20_);fill-rule:evenodd;clip-rule:evenodd;fill:#00502A;}
	.st333{clip-path:url(#SVGID_20_);fill-rule:evenodd;clip-rule:evenodd;fill:#00512A;}
	.st334{clip-path:url(#SVGID_20_);fill-rule:evenodd;clip-rule:evenodd;fill:#00522B;}
	.st335{clip-path:url(#SVGID_20_);fill-rule:evenodd;clip-rule:evenodd;fill:#00542C;}
	.st336{clip-path:url(#SVGID_20_);fill-rule:evenodd;clip-rule:evenodd;fill:#00552D;}
	.st337{clip-path:url(#SVGID_20_);fill-rule:evenodd;clip-rule:evenodd;fill:#00562D;}
	.st338{clip-path:url(#SVGID_20_);fill-rule:evenodd;clip-rule:evenodd;fill:#00572E;}
	.st339{clip-path:url(#SVGID_20_);fill-rule:evenodd;clip-rule:evenodd;fill:#00582F;}
	.st340{clip-path:url(#SVGID_20_);fill-rule:evenodd;clip-rule:evenodd;fill:#00592F;}
	.st341{clip-path:url(#SVGID_20_);fill-rule:evenodd;clip-rule:evenodd;fill:#005A30;}
	.st342{clip-path:url(#SVGID_20_);fill-rule:evenodd;clip-rule:evenodd;fill:#005B30;}
	.st343{clip-path:url(#SVGID_20_);fill-rule:evenodd;clip-rule:evenodd;fill:#005C31;}
	.st344{clip-path:url(#SVGID_62_);fill:#818C3C;}
	.st345{clip-path:url(#SVGID_80_);fill:#5FAFBF;}
	.st346{clip-path:url(#SVGID_20_);fill-rule:evenodd;clip-rule:evenodd;fill:#014827;}
	.st347{clip-path:url(#SVGID_60_);fill-rule:evenodd;clip-rule:evenodd;fill:#F6F9EE;}
	.st348{clip-path:url(#SVGID_20_);fill-rule:evenodd;clip-rule:evenodd;fill:#024525;}
	.st349{clip-path:url(#SVGID_132_);fill:#DA7427;}
	.st350{clip-path:url(#SVGID_20_);fill-rule:evenodd;clip-rule:evenodd;fill:#034224;}
	.st351{clip-path:url(#SVGID_20_);fill-rule:evenodd;clip-rule:evenodd;fill:#034324;}
	.st352{clip-path:url(#SVGID_6_);fill:#5FAFBF;}
	.st353{clip-path:url(#SVGID_62_);fill:#B3B986;}
	.st354{clip-path:url(#SVGID_34_);fill-rule:evenodd;clip-rule:evenodd;fill:#E8C886;}
	.st355{clip-path:url(#SVGID_64_);fill:#7ECFDA;}
	.st356{clip-path:url(#SVGID_20_);fill-rule:evenodd;clip-rule:evenodd;fill:#044425;}
	.st357{clip-path:url(#SVGID_20_);fill-rule:evenodd;clip-rule:evenodd;fill:#053E22;}
	.st358{clip-path:url(#SVGID_20_);fill-rule:evenodd;clip-rule:evenodd;fill:#054023;}
	.st359{clip-path:url(#SVGID_62_);fill:#868945;}
	.st360{clip-path:url(#SVGID_36_);fill-rule:evenodd;clip-rule:evenodd;fill:#741613;}
	.st361{clip-path:url(#SVGID_62_);fill:#EACC8B;}
	.st362{clip-path:url(#SVGID_106_);fill:#5FAFBF;}
	.st363{clip-path:url(#SVGID_20_);fill-rule:evenodd;clip-rule:evenodd;fill:#073C21;}
	.st364{clip-path:url(#SVGID_128_);fill:#5FAFBF;}
	.st365{clip-path:url(#SVGID_62_);fill:#EBCC8F;}
	.st366{clip-path:url(#SVGID_36_);fill-rule:evenodd;clip-rule:evenodd;fill:#0A7D46;}
	.st367{clip-path:url(#SVGID_70_);fill:#5FAFBF;}
	.st368{clip-path:url(#SVGID_44_);fill:#DE9945;}
	.st369{clip-path:url(#SVGID_20_);fill-rule:evenodd;clip-rule:evenodd;fill:#09361E;}
	.st370{clip-path:url(#SVGID_20_);fill-rule:evenodd;clip-rule:evenodd;fill:#095E32;}
	.st371{clip-path:url(#SVGID_92_);fill:#5FAFBF;}
	.st372{clip-path:url(#SVGID_44_);fill:#DF9D4A;}
	.st373{clip-path:url(#SVGID_44_);fill:#DFC781;}
	.st374{clip-path:url(#SVGID_20_);fill-rule:evenodd;clip-rule:evenodd;fill:#3E8144;}
	.st375{clip-path:url(#SVGID_46_);fill-rule:evenodd;clip-rule:evenodd;fill:#D97327;}
	.st376{clip-path:url(#SVGID_20_);fill-rule:evenodd;clip-rule:evenodd;fill:#70A151;}
	.st377{fill:#451500;}
	.st378{clip-path:url(#SVGID_42_);fill-rule:evenodd;clip-rule:evenodd;fill:#F6F9EE;}
	.st379{clip-path:url(#SVGID_34_);fill-rule:evenodd;clip-rule:evenodd;fill:#EBCA88;}
	.st380{clip-path:url(#SVGID_10_);fill:#E28C68;}
	.st381{clip-path:url(#SVGID_10_);fill:#E28C69;}
	.st382{clip-path:url(#SVGID_8_);fill-rule:evenodd;clip-rule:evenodd;fill:#E9F0D9;}
	.st383{clip-path:url(#SVGID_132_);fill:#AB2524;}
]]>
</style>
<g id="Layer_1">
</g>
<g id="Layer_2">
	<g>
		<g>
			<path class="st173" d="M15.82,58.7c-0.59,2.09-2.31,3.96-6.71,3.96c-1.83,0-3.78-0.26-5.32-1.47c-0.84-0.66-1.17-1.36-1.36-1.76
				c-0.29-0.73-0.51-1.21-0.51-2.68v-3.78h4.73v3.01c0,0.95-0.07,2.05,0.84,2.64C7.78,58.81,8.22,59,8.96,59
				c0.84,0,1.32-0.18,1.65-0.48c0.7-0.55,0.7-1.69,0.7-3.45c0-0.33,0.07-1.5-0.51-2.38c-0.37-0.55-0.92-0.88-1.1-1.03l-4.51-3.04
				c-0.99-0.66-1.5-1.06-2.17-2.13c-0.55-0.92-0.92-1.91-0.92-4.11c0-0.37-0.04-2.2,0.62-3.56c1.47-3.15,5.91-3.15,6.42-3.15
				c0.77,0,4.92,0,6.27,3.41c0.26,0.66,0.4,0.92,0.4,2.16v2.57h-4.77v-2.64c0-0.77-0.29-1.87-2.13-1.87c-1.1,0-2.13,0.4-2.13,2.57
				c0,0.11-0.07,1.65,0.51,2.49c0.15,0.22,0.48,0.48,0.99,0.84l4.62,3.19c0.33,0.22,1.36,0.99,2.13,2.02
				c1.14,1.5,1.03,2.64,1.03,4.48C16.07,56.87,16.07,57.71,15.82,58.7z"/>
			<path class="st173" d="M28.44,39.96v22.16h-4.81V39.96h-4.77v-3.74h14.38v3.74H28.44z"/>
			<path class="st173" d="M36.03,62.11v-4.73h4.29v4.73H36.03z"/>
		</g>
		<g>
			<path class="st173" d="M49.68,62.11v-25.9h4.77v21.97h7.01v3.92H49.68z"/>
			<path class="st173" d="M77.71,60.43c-1.83,2.38-5.36,2.24-5.98,2.24c-1.91,0-3.89-0.4-5.28-1.87c-0.26-0.26-0.77-0.88-1.1-1.76
				c-0.37-0.92-0.48-1.94-0.48-2.86V36.22h4.77v19.26c0,0.7,0,1.39,0.26,2.02c0.48,1.06,1.69,1.1,1.98,1.1c0.22,0,0.84,0,1.39-0.4
				c0.92-0.62,0.81-1.83,0.81-2.75V36.22h4.8v20.06C78.88,57.82,78.73,59.11,77.71,60.43z"/>
			<path class="st173" d="M97.51,59.14c-1.25,3.59-6.05,3.52-6.6,3.52c-1.1,0-2.13-0.18-2.46-0.26c-1.91-0.37-3.6-1.21-4.37-3.08
				c-0.37-0.95-0.37-1.76-0.37-2.71V42.53c0-0.44,0.04-0.92,0.07-1.36c0.07-1.65,0.51-2.93,1.83-4c1.06-0.84,2.49-1.5,5.36-1.5
				c1.65,0,3.41,0.22,4.84,1.17c0.7,0.48,1.28,1.14,1.61,1.91c0.4,0.84,0.44,1.36,0.44,2.93v3.96h-4.7v-3.26
				c0-1.98-0.33-3.04-2.46-3.04c-1.83,0-2.2,1.14-2.2,2.82v13.87c0,1.69,0.37,2.93,2.35,2.93c2.13,0,2.31-1.21,2.31-3.19v-3.37h4.7
				v3.67C97.88,57.09,97.85,58.19,97.51,59.14z"/>
			<path class="st173" d="M102.17,62.11v-25.9h4.73v25.9H102.17z"/>
			<path class="st173" d="M121.07,62.11l-0.62-4.22h-4.4l-0.7,4.22h-4.77l5.03-25.9h5.46l4.84,25.9H121.07z M118.35,42.78
				l-1.72,11.11h3.3L118.35,42.78z"/>
		</g>
		<g>
			<path class="st173" d="M135.78,49.2v-0.07c0-2.09,1.76-3.81,3.89-3.81c2.13,0,3.89,1.72,3.89,3.81v0.07
				c0,2.09-1.76,3.81-3.89,3.81C137.54,53.02,135.78,51.29,135.78,49.2z"/>
		</g>
		<g>
			<path class="st173" d="M169.12,59.14c-1.25,3.59-6.05,3.52-6.6,3.52c-1.1,0-2.13-0.18-2.46-0.26c-1.91-0.37-3.59-1.21-4.37-3.08
				c-0.37-0.95-0.37-1.76-0.37-2.71V42.53c0-0.44,0.04-0.92,0.07-1.36c0.07-1.65,0.51-2.93,1.83-4c1.06-0.84,2.49-1.5,5.36-1.5
				c1.65,0,3.41,0.22,4.84,1.17c0.7,0.48,1.28,1.14,1.61,1.91c0.4,0.84,0.44,1.36,0.44,2.93v3.96h-4.7v-3.26
				c0-1.98-0.33-3.04-2.46-3.04c-1.83,0-2.2,1.14-2.2,2.82v13.87c0,1.69,0.37,2.93,2.35,2.93c2.13,0,2.31-1.21,2.31-3.19v-3.37h4.7
				v3.67C169.49,57.09,169.46,58.19,169.12,59.14z"/>
			<path class="st173" d="M173.79,62.11v-25.9h4.77v21.97h7.01v3.92H173.79z"/>
			<path class="st173" d="M189.01,62.11v-25.9h12.54v3.92h-7.78v6.09h7.34v3.92h-7.34v7.96h8.14v4H189.01z"/>
			<path class="st173" d="M214.8,62.11l-0.62-4.22h-4.4l-0.7,4.22h-4.77l5.03-25.9h5.47l4.84,25.9H214.8z M212.08,42.78l-1.72,11.11
				h3.3L212.08,42.78z"/>
			<path class="st173" d="M231.89,62.11l-4.58-19.4l0.4,19.4h-4.48v-25.9h6.13l4.66,19l-0.48-19h4.37v25.9H231.89z"/>
			<path class="st173" d="M267,57.75c-0.04,0.62-0.18,2.9-2.27,3.85c-1.14,0.51-2.46,0.51-3.67,0.51h-8.18v-25.9h8.03
				c1.54,0,3.01-0.04,4.29,0.99c1.47,1.14,1.54,2.64,1.54,4.29v2.31c0,0.07,0,1.14-0.15,1.83c-0.48,2.16-2.09,2.38-2.86,2.53
				c1.5,0.29,2.09,0.66,2.57,1.25c0.81,1.06,0.73,2.27,0.73,3.48v3.67C267.04,56.98,267,57.38,267,57.75z M262.01,42.31
				c0-0.62-0.04-0.81-0.11-1.14c-0.33-1.21-1.36-1.25-2.35-1.25h-1.91v6.53h1.72c0.66,0,0.99-0.04,1.28-0.07
				c0.92-0.18,1.36-0.73,1.36-2.31V42.31z M262.34,52.72c0-0.77,0-1.06-0.15-1.43c-0.37-1.06-1.54-1.1-2.49-1.1h-2.05v8.18h2.02
				c0.4,0,0.84,0,1.21-0.07c1.03-0.15,1.47-0.77,1.47-2.53V52.72z"/>
			<path class="st173" d="M280.94,62.11l-0.62-4.22h-4.4l-0.7,4.22h-4.77l5.03-25.9h5.47l4.84,25.9H280.94z M278.23,42.78
				L276.5,53.9h3.3L278.23,42.78z"/>
			<path class="st173" d="M298.04,62.11l-4.58-19.4l0.4,19.4h-4.48v-25.9h6.13l4.66,19l-0.48-19h4.37v25.9H298.04z"/>
			<path class="st173" d="M323.35,56.57c-0.15,2.75-1.39,4.15-2.42,4.73c-1.32,0.77-2.68,0.81-4.11,0.81h-7.67v-25.9h8.77
				c0.7,0,2.16,0.11,3.56,1.28c1.76,1.5,1.91,3.41,1.91,5.54v12.1C323.39,55.62,323.39,56.1,323.35,56.57z M318.62,42.64
				c0-0.81,0.04-1.61-0.66-2.2c-0.62-0.51-1.43-0.44-2.16-0.44h-1.87v18.34h1.69c0.44,0,0.92,0,1.36-0.07
				c1.54-0.29,1.65-1.43,1.65-2.71V42.64z"/>
			<path class="st173" d="M328.19,62.11v-25.9h4.73v25.9H328.19z"/>
			<path class="st173" d="M345.87,39.96v22.16h-4.81V39.96h-4.77v-3.74h14.38v3.74H345.87z"/>
		</g>
		<g>
			<path class="st173" d="M71.31,117.07V98.4h3.44v15.84h5.05v2.83H71.31z"/>
			<path class="st173" d="M91.91,115.85c-1.32,1.72-3.86,1.61-4.31,1.61c-1.38,0-2.8-0.29-3.81-1.35c-0.19-0.19-0.56-0.63-0.79-1.27
				c-0.27-0.66-0.34-1.4-0.34-2.06V98.4h3.44v13.88c0,0.5,0,1,0.18,1.45c0.34,0.77,1.22,0.79,1.43,0.79c0.16,0,0.61,0,1-0.29
				c0.66-0.45,0.58-1.32,0.58-1.98V98.4h3.46v14.46C92.76,113.98,92.65,114.9,91.91,115.85z"/>
			<path class="st173" d="M103.04,117.07l-3.3-13.99l0.29,13.99H96.8V98.4h4.42l3.36,13.7l-0.34-13.7h3.15v18.67H103.04z"/>
			<path class="st173" d="M121.26,114.93c-0.9,2.59-4.36,2.54-4.76,2.54c-0.79,0-1.53-0.13-1.77-0.19
				c-1.38-0.26-2.59-0.87-3.15-2.22c-0.26-0.69-0.26-1.27-0.26-1.96v-10.15c0-0.32,0.03-0.66,0.05-0.98
				c0.05-1.19,0.37-2.12,1.32-2.88c0.77-0.61,1.8-1.08,3.86-1.08c1.19,0,2.46,0.16,3.49,0.85c0.5,0.34,0.93,0.82,1.16,1.38
				c0.29,0.61,0.32,0.98,0.32,2.12v2.86h-3.38v-2.35c0-1.43-0.24-2.19-1.77-2.19c-1.32,0-1.59,0.82-1.59,2.04v10
				c0,1.22,0.27,2.12,1.69,2.12c1.53,0,1.67-0.87,1.67-2.3v-2.43h3.38v2.64C121.53,113.45,121.5,114.24,121.26,114.93z"/>
			<path class="st173" d="M131.6,117.07v-8.54h-3.15v8.54h-3.44V98.4h3.44v7.32h3.15V98.4h3.44v18.67H131.6z"/>
			<path class="st173" d="M151.25,117.07l0.32-16.18l-3.01,16.18h-3.2l-3.09-16.18l0.27,16.18h-3.38V98.4h5.61l2.2,13.06l2.22-13.06
				h5.53v18.67H151.25z"/>
			<path class="st173" d="M167.88,116.22c-1.11,1.03-2.62,1.24-4.05,1.24c-1.38,0-2.78-0.19-3.89-1.08
				c-0.56-0.45-0.82-0.9-0.93-1.16c-0.32-0.66-0.4-1.45-0.4-2.14v-10.47c0-0.4-0.08-2.27,1.16-3.38c0.69-0.61,1.98-1.22,4.07-1.22
				c2.7,0,4.12,1.11,4.68,2.19c0.29,0.61,0.42,1.19,0.42,2.49v10.39C168.97,114.27,168.78,115.35,167.88,116.22z M165.5,102.92
				c0-0.11,0.08-0.95-0.21-1.51c-0.16-0.34-0.56-0.82-1.43-0.82c-0.18,0-0.69,0.03-1.11,0.34c-0.77,0.53-0.66,1.35-0.66,2.12v9.44
				c0,0.56-0.03,1.24,0.32,1.72c0.4,0.56,1.24,0.56,1.4,0.56c0.16,0,0.66-0.03,1.08-0.32c0.63-0.45,0.61-1.19,0.61-1.88V102.92z"/>
			<path class="st173" d="M179.15,117.07l-3.31-13.99l0.29,13.99h-3.23V98.4h4.42l3.36,13.7l-0.34-13.7h3.15v18.67H179.15z"/>
			<path class="st173" d="M187.56,117.07V98.4h9.04v2.83H191v4.39h5.29v2.83H191v5.74h5.87v2.88H187.56z"/>
			<path class="st173" d="M205.99,111.54v5.53h-3.52v-5.76l-3.73-12.9h3.62l1.9,9.41l1.83-9.41h3.62L205.99,111.54z"/>
		</g>
		<g>
			<path class="st173" d="M218.5,117.07V98.4h3.44v15.84h5.05v2.83H218.5z"/>
			<path class="st173" d="M229.84,117.07V98.4h9.04v2.83h-5.61v4.39h5.29v2.83h-5.29v5.74h5.87v2.88H229.84z"/>
			<path class="st173" d="M255.84,117.07h-3.62l-1.8-12.75l-2.01,12.75h-3.68l-3.41-18.67h3.57l1.88,14.07l2.01-14.07h3.25
				l1.96,14.07l1.96-14.07h3.49L255.84,117.07z"/>
			<path class="st173" d="M262.47,117.07V98.4h3.41v18.67H262.47z"/>
			<path class="st173" d="M279.69,114.61c-0.42,1.51-1.67,2.86-4.84,2.86c-1.32,0-2.72-0.19-3.83-1.06
				c-0.61-0.48-0.85-0.98-0.98-1.27c-0.21-0.53-0.37-0.87-0.37-1.93v-2.72h3.41v2.17c0,0.69-0.05,1.48,0.61,1.9
				c0.21,0.13,0.53,0.26,1.06,0.26c0.61,0,0.95-0.13,1.19-0.34c0.5-0.4,0.5-1.22,0.5-2.49c0-0.24,0.05-1.08-0.37-1.72
				c-0.26-0.4-0.66-0.63-0.79-0.74l-3.25-2.19c-0.71-0.48-1.08-0.77-1.56-1.53c-0.4-0.66-0.66-1.38-0.66-2.96
				c0-0.26-0.03-1.59,0.45-2.56C271.3,98,274.5,98,274.87,98c0.56,0,3.54,0,4.52,2.46c0.18,0.48,0.29,0.66,0.29,1.56v1.85h-3.44
				v-1.9c0-0.56-0.21-1.35-1.53-1.35c-0.79,0-1.53,0.29-1.53,1.85c0,0.08-0.05,1.19,0.37,1.8c0.11,0.16,0.34,0.34,0.71,0.61
				l3.33,2.3c0.24,0.16,0.98,0.71,1.53,1.45c0.82,1.08,0.74,1.9,0.74,3.23C279.87,113.29,279.87,113.9,279.69,114.61z"/>
		</g>
		<g>
			<path class="st173" d="M11.65,81.81c-6.83,0-8.96-2.25-8.96-5.21c0-4.35,4.6-5.84,10.25-5.84c6.05,0,10.12,2.02,10.12,2.02
				l-2.35,3.52c0,0-3.37-1.32-8.35-1.32c-3.92,0-4.83,0.56-4.83,1.37c0,1.04,1.21,1.26,4.12,1.26h3.82c6.2,0,8.15,2.43,8.15,5.36
				c0,3.09-3.01,6.12-10.5,6.12c-6.55,0-11.21-2.3-11.21-2.3l2.28-3.72c0,0,4.28,1.8,8.93,1.8c4.43,0,5.67-0.89,5.67-1.8
				c0-0.96-0.66-1.27-3.31-1.27H11.65z M15.47,80.01c4.15,0,5.34,1.32,5.34,2.96c0,1.92-2.1,3.69-7.69,3.69
				c-4.28,0-8.17-1.39-8.17-1.39L4.6,85.88c0,0,3.95,1.42,8.53,1.42c5.92,0,8.48-1.8,8.48-4.33c0-2.07-1.42-3.59-6.12-3.59h-3.82
				c-5.11,0-6.15-1.29-6.15-2.93c0-1.87,1.85-3.26,7.44-3.26c4.02,0,7.16,0.96,7.16,0.96l0.35-0.53c0,0-2.94-1.06-7.51-1.06
				c-6.17,0-8.22,1.57-8.22,3.9c0,2.07,1.44,3.57,6.93,3.57H15.47z"/>
			<path class="st173" d="M31.74,86.13l-1.42,2.71h-5.31l9.28-17.71h6.38l9.28,17.71h-5.31l-1.39-2.71H31.74z M30.42,84.34h14.09
				l1.44,2.71h0.83l-7.41-14.12h-3.79l-7.41,14.12h0.83L30.42,84.34z M30.75,83.7l5.34-10.15h2.78l5.31,10.15H30.75z M33.94,81.91
				h7.08l-3.39-6.48h-0.3L33.94,81.91z"/>
			<path class="st173" d="M66.62,85.58h-4l-6.1-8.93v12.19h-4.83V71.13h6.38l6.55,9.59l6.55-9.59h6.38v17.71h-4.83V76.65
				L66.62,85.58z M72.16,72.93l-7.01,10.22h-1.06l-7.01-10.22h-3.36v14.12h0.78V73.56h2.12l6.98,10.22h2.02l6.98-10.22h2.12v13.48
				h0.78V72.93H72.16z"/>
			<path class="st173" d="M89.41,88.84V71.13h17.15v4.23H94.24v2.35h8.83v4.23h-8.83v6.91H89.41z M91.43,87.04h0.78v-6.91h8.83V79.5
				h-8.83v-5.95h12.32v-0.63h-13.1V87.04z"/>
			<path class="st173" d="M128.37,88.84h-19.3V71.13h18.67v4.23H113.9v2.18h8.83v4.22h-8.83v2.86h14.47V88.84z M111.09,87.04h15.25
				v-0.63h-14.47v-6.45h8.83v-0.63h-8.83v-5.77h13.84v-0.63h-14.62V87.04z"/>
			<path class="st173" d="M148.35,88.84h-17.46V71.13h4.83v13.48h12.62V88.84z M132.92,87.04h13.41v-0.63H133.7V72.93h-0.79V87.04z"
				/>
			<path class="st173" d="M150.75,88.84V71.13h11.59c7.82,0,10.4,4.15,10.4,8.85c0,4.71-2.58,8.85-10.4,8.85H150.75z M152.77,87.04
				h9.56c6.45,0,8.37-3.04,8.37-7.06c0-4.02-1.92-7.06-8.37-7.06h-9.56V87.04z M153.56,73.56h8.78c5.79,0,7.59,2.73,7.59,6.43
				c0,3.69-1.8,6.43-7.59,6.43h-8.78V73.56z M162.34,84.62c4.55,0,5.56-2.05,5.56-4.63c0-2.58-1.01-4.63-5.56-4.63h-6.76v9.26
				H162.34z"/>
			<path class="st173" d="M182.49,88.84V75.36h-7.77v-4.23h20.37v4.23h-7.77v13.48H182.49z M184.52,87.04h0.78V73.56h7.77v-0.63
				h-16.32v0.63h7.77V87.04z"/>
		</g>
		<g>
			<path class="st173" d="M199.49,79.94v-0.05c0-1.44,1.21-2.63,2.68-2.63c1.47,0,2.68,1.19,2.68,2.63v0.05
				c0,1.44-1.21,2.63-2.68,2.63C200.71,82.57,199.49,81.38,199.49,79.94z"/>
		</g>
		<g>
			<path class="st173" d="M217.1,83.12v5.72h-4.83V71.13h14.45c5.04,0,7.08,2.58,7.08,6s-2.05,6-7.08,6H217.1z M215.08,87.04v-5.72
				h11.64c3.9,0,5.06-2.05,5.06-4.2s-1.16-4.2-5.06-4.2h-12.42v14.12H215.08z M226.71,80.69c3.26,0,4.28-1.75,4.28-3.57
				c0-1.82-1.01-3.57-4.28-3.57h-11.64v7.13H226.71z M217.1,78.9v-3.54h9.61c1.75,0,2.25,0.81,2.25,1.77s-0.51,1.77-2.25,1.77H217.1
				z"/>
			<path class="st173" d="M252.72,88.84v-7.01h-11.56v7.01h-4.83V71.13h4.83v6.48h11.56v-6.48h4.83v17.71H252.72z M255.52,72.93
				h-0.79v6.48h-15.61v-6.48h-0.78v14.12h0.78v-7.01h15.61v7.01h0.79V72.93z"/>
			<path class="st173" d="M266.02,86.13l-1.42,2.71h-5.31l9.29-17.71h6.38l9.29,17.71h-5.31l-1.39-2.71H266.02z M264.7,84.34h14.09
				l1.44,2.71h0.83l-7.41-14.12h-3.79l-7.41,14.12h0.83L264.7,84.34z M265.03,83.7l5.34-10.15h2.78l5.31,10.15H265.03z
				 M268.22,81.91h7.08l-3.39-6.48h-0.3L268.22,81.91z"/>
			<path class="st173" d="M294.58,81.81c-6.83,0-8.96-2.25-8.96-5.21c0-4.35,4.6-5.84,10.25-5.84c6.05,0,10.12,2.02,10.12,2.02
				l-2.35,3.52c0,0-3.36-1.32-8.35-1.32c-3.92,0-4.83,0.56-4.83,1.37c0,1.04,1.21,1.26,4.12,1.26h3.82c6.2,0,8.15,2.43,8.15,5.36
				c0,3.09-3.01,6.12-10.5,6.12c-6.55,0-11.21-2.3-11.21-2.3l2.28-3.72c0,0,4.28,1.8,8.93,1.8c4.43,0,5.67-0.89,5.67-1.8
				c0-0.96-0.66-1.27-3.31-1.27H294.58z M298.4,80.01c4.15,0,5.34,1.32,5.34,2.96c0,1.92-2.1,3.69-7.69,3.69
				c-4.28,0-8.17-1.39-8.17-1.39l-0.35,0.61c0,0,3.95,1.42,8.53,1.42c5.92,0,8.48-1.8,8.48-4.33c0-2.07-1.42-3.59-6.12-3.59h-3.82
				c-5.11,0-6.15-1.29-6.15-2.93c0-1.87,1.85-3.26,7.44-3.26c4.02,0,7.16,0.96,7.16,0.96l0.35-0.53c0,0-2.93-1.06-7.51-1.06
				c-6.17,0-8.22,1.57-8.22,3.9c0,2.07,1.44,3.57,6.93,3.57H298.4z"/>
			<path class="st173" d="M328.5,88.84h-19.3V71.13h18.67v4.23h-13.84v2.18h8.83v4.22h-8.83v2.86h14.47V88.84z M311.22,87.04h15.26
				v-0.63H312v-6.45h8.83v-0.63H312v-5.77h13.84v-0.63h-14.62V87.04z"/>
			<path class="st173" d="M339.63,81.81c-6.83,0-8.96-2.25-8.96-5.21c0-4.35,4.6-5.84,10.25-5.84c6.05,0,10.12,2.02,10.12,2.02
				l-2.35,3.52c0,0-3.36-1.32-8.35-1.32c-3.92,0-4.83,0.56-4.83,1.37c0,1.04,1.21,1.26,4.12,1.26h3.82c6.2,0,8.15,2.43,8.15,5.36
				c0,3.09-3.01,6.12-10.5,6.12c-6.55,0-11.21-2.3-11.21-2.3l2.28-3.72c0,0,4.28,1.8,8.93,1.8c4.43,0,5.67-0.89,5.67-1.8
				c0-0.96-0.66-1.27-3.31-1.27H339.63z M343.45,80.01c4.15,0,5.34,1.32,5.34,2.96c0,1.92-2.1,3.69-7.69,3.69
				c-4.28,0-8.17-1.39-8.17-1.39l-0.35,0.61c0,0,3.95,1.42,8.53,1.42c5.92,0,8.48-1.8,8.48-4.33c0-2.07-1.42-3.59-6.12-3.59h-3.82
				c-5.11,0-6.15-1.29-6.15-2.93c0-1.87,1.85-3.26,7.44-3.26c4.02,0,7.16,0.96,7.16,0.96l0.35-0.53c0,0-2.93-1.06-7.51-1.06
				c-6.17,0-8.22,1.57-8.22,3.9c0,2.07,1.44,3.57,6.93,3.57H343.45z"/>
		</g>
		<g>
			<path class="st173" d="M16.11,0.64c8.63,0,13.13,4.47,13.13,4.47l-4.37,4.5c0,0-2.84-3.19-8.77-3.19c-6.31,0-9.5,3.08-9.5,6.86
				c0,3.85,3.26,6.86,9.67,6.86c6.1,0,9.42-3.95,9.42-3.95l4.37,4.5c0,0-4.89,5.23-13.79,5.23C5.58,25.93,0,20.35,0,13.28
				C0,6.28,5.51,0.64,16.11,0.64z M16.11,3.96c5.65,0,8.49,2.29,8.49,2.29l0.73-0.73c0,0-2.88-2.43-9.22-2.43
				c-8.8,0-13.34,4.64-13.34,10.19c0,5.61,4.61,10.19,13.52,10.19c6.51,0,9.88-3.19,9.88-3.19l-0.73-0.73c0,0-3.33,3.05-9.15,3.05
				c-8.11,0-12.44-4.19-12.44-9.32C3.85,8.22,8.11,3.96,16.11,3.96z"/>
			<path class="st173" d="M40.17,21.7l-1.94,3.71h-7.28L43.67,1.16h8.73l12.72,24.26h-7.28l-1.91-3.71H40.17z M38.37,19.24h19.3
				l1.98,3.71h1.14L50.63,3.62h-5.2L35.28,22.95h1.14L38.37,19.24z M38.82,18.38l7.31-13.9h3.81l7.28,13.9H38.82z M43.18,15.92h9.7
				l-4.64-8.87h-0.42L43.18,15.92z"/>
			<path class="st173" d="M74.17,17.58v7.83h-6.62V1.16h19.79c6.9,0,9.7,3.53,9.7,8.21c0,4.68-2.81,8.21-9.7,8.21H74.17z
				 M71.39,22.95v-7.83h15.94c5.34,0,6.93-2.81,6.93-5.75c0-2.95-1.59-5.75-6.93-5.75H70.32v19.34H71.39z M87.33,14.25
				c4.47,0,5.86-2.39,5.86-4.89c0-2.49-1.39-4.89-5.86-4.89H71.39v9.77H87.33z M74.17,11.79V6.94h13.17c2.39,0,3.08,1.11,3.08,2.43
				c0,1.32-0.69,2.43-3.08,2.43H74.17z"/>
			<path class="st173" d="M107.13,25.41h-6.62V1.16h6.62V25.41z M104.35,22.95V3.62h-1.07v19.34H104.35z"/>
			<path class="st173" d="M121.06,25.41V6.94h-10.64V1.16h27.9v5.79h-10.64v18.47H121.06z M123.83,22.95h1.07V4.48h10.64V3.62
				h-22.35v0.87h10.64V22.95z"/>
			<path class="st173" d="M149.06,21.7l-1.94,3.71h-7.28l12.72-24.26h8.73l12.72,24.26h-7.28l-1.91-3.71H149.06z M147.26,19.24h19.3
				l1.98,3.71h1.14L159.53,3.62h-5.2l-10.15,19.34h1.14L147.26,19.24z M147.71,18.38l7.31-13.9h3.81l7.28,13.9H147.71z
				 M152.08,15.92h9.7l-4.64-8.87h-0.42L152.08,15.92z"/>
			<path class="st173" d="M200.35,25.41h-23.91V1.16h6.62v18.47h17.29V25.41z M179.22,22.95h18.37v-0.87h-17.29V3.62h-1.07V22.95z"
				/>
		</g>
		<g>
			<path class="st173" d="M226.56,0.64c8.63,0,13.13,4.47,13.13,4.47l-4.37,4.5c0,0-2.84-3.19-8.77-3.19c-6.31,0-9.5,3.08-9.5,6.86
				c0,3.85,3.26,6.86,9.67,6.86c6.1,0,9.43-3.95,9.43-3.95l4.37,4.5c0,0-4.89,5.23-13.79,5.23c-10.71,0-16.29-5.58-16.29-12.65
				C210.45,6.28,215.96,0.64,226.56,0.64z M226.56,3.96c5.65,0,8.49,2.29,8.49,2.29l0.73-0.73c0,0-2.88-2.43-9.22-2.43
				c-8.8,0-13.34,4.64-13.34,10.19c0,5.61,4.61,10.19,13.51,10.19c6.51,0,9.88-3.19,9.88-3.19l-0.73-0.73c0,0-3.33,3.05-9.15,3.05
				c-8.11,0-12.44-4.19-12.44-9.32C214.29,8.22,218.55,3.96,226.56,3.96z"/>
			<path class="st173" d="M249.75,25.41h-6.62V1.16h6.62V25.41z M246.97,22.95V3.62h-1.07v19.34H246.97z"/>
			<path class="st173" d="M263.68,25.41V6.94h-10.64V1.16h27.9v5.79H270.3v18.47H263.68z M266.45,22.95h1.07V4.48h10.64V3.62h-22.35
				v0.87h10.64V22.95z"/>
			<path class="st173" d="M290.82,25.41h-6.62V1.16h6.62V25.41z M288.04,22.95V3.62h-1.07v19.34H288.04z"/>
			<path class="st173" d="M321.42,25.41h-26.44V1.16h25.57v5.79h-18.96v2.98h12.09v5.79h-12.09v3.92h19.82V25.41z M297.75,22.95
				h20.9v-0.87h-19.82v-8.84h12.09v-0.87h-12.09v-7.9h18.96V3.62h-20.03V22.95z"/>
			<path class="st173" d="M336.67,15.78c-9.36,0-12.27-3.08-12.27-7.14c0-5.96,6.31-8,14.03-8c8.28,0,13.86,2.77,13.86,2.77
				l-3.22,4.82c0,0-4.61-1.8-11.44-1.8c-5.37,0-6.62,0.76-6.62,1.87c0,1.42,1.66,1.73,5.65,1.73h5.23c8.49,0,11.16,3.33,11.16,7.35
				c0,4.23-4.12,8.39-14.38,8.39c-8.98,0-15.35-3.15-15.35-3.15l3.12-5.09c0,0,5.86,2.46,12.23,2.46c6.06,0,7.76-1.21,7.76-2.46
				c0-1.32-0.9-1.73-4.54-1.73H336.67z M341.9,13.32c5.68,0,7.31,1.8,7.31,4.05c0,2.63-2.88,5.06-10.53,5.06
				c-5.86,0-11.19-1.91-11.19-1.91L327,21.36c0,0,5.41,1.94,11.68,1.94c8.11,0,11.61-2.46,11.61-5.93c0-2.84-1.94-4.92-8.39-4.92
				h-5.23c-7,0-8.42-1.77-8.42-4.02c0-2.56,2.53-4.47,10.19-4.47c5.51,0,9.81,1.32,9.81,1.32l0.49-0.73c0,0-4.02-1.46-10.29-1.46
				c-8.46,0-11.26,2.15-11.26,5.34c0,2.84,1.98,4.89,9.5,4.89H341.9z"/>
		</g>
		<g>
			<path class="st283" d="M16.45,58.07c-0.59,2.09-2.31,3.96-6.71,3.96c-1.83,0-3.78-0.26-5.32-1.47C3.58,59.9,3.25,59.2,3.06,58.8
				c-0.29-0.73-0.51-1.21-0.51-2.68v-3.78h4.73v3.01c0,0.95-0.07,2.05,0.84,2.64c0.29,0.18,0.73,0.37,1.47,0.37
				c0.84,0,1.32-0.18,1.65-0.48c0.7-0.55,0.7-1.69,0.7-3.45c0-0.33,0.07-1.5-0.51-2.38c-0.37-0.55-0.92-0.88-1.1-1.03l-4.51-3.04
				c-0.99-0.66-1.5-1.06-2.17-2.13c-0.55-0.92-0.92-1.91-0.92-4.11c0-0.37-0.04-2.2,0.62-3.56c1.47-3.15,5.91-3.15,6.42-3.15
				c0.77,0,4.92,0,6.27,3.41c0.26,0.66,0.4,0.92,0.4,2.16v2.57h-4.77v-2.64c0-0.77-0.29-1.87-2.13-1.87c-1.1,0-2.13,0.4-2.13,2.57
				c0,0.11-0.07,1.65,0.51,2.49c0.15,0.22,0.48,0.48,0.99,0.84l4.62,3.19c0.33,0.22,1.36,0.99,2.13,2.02
				c1.14,1.5,1.03,2.64,1.03,4.48C16.71,56.23,16.71,57.08,16.45,58.07z"/>
			<path class="st283" d="M29.07,39.32v22.16h-4.81V39.32H19.5v-3.74h14.38v3.74H29.07z"/>
			<path class="st283" d="M36.67,61.48v-4.73h4.29v4.73H36.67z"/>
		</g>
		<g>
			<path class="st283" d="M50.31,61.48v-25.9h4.77v21.97h7.01v3.92H50.31z"/>
			<path class="st283" d="M78.34,59.79c-1.83,2.38-5.36,2.24-5.98,2.24c-1.91,0-3.89-0.4-5.28-1.87c-0.26-0.26-0.77-0.88-1.1-1.76
				c-0.37-0.92-0.48-1.94-0.48-2.86V35.58h4.77v19.26c0,0.7,0,1.39,0.26,2.02c0.48,1.06,1.69,1.1,1.98,1.1c0.22,0,0.84,0,1.39-0.4
				c0.92-0.62,0.81-1.83,0.81-2.75V35.58h4.8v20.06C79.51,57.19,79.37,58.47,78.34,59.79z"/>
			<path class="st283" d="M98.15,58.51c-1.25,3.59-6.05,3.52-6.6,3.52c-1.1,0-2.13-0.18-2.46-0.26c-1.91-0.37-3.6-1.21-4.37-3.08
				c-0.37-0.95-0.37-1.76-0.37-2.71V41.89c0-0.44,0.04-0.92,0.07-1.36c0.07-1.65,0.51-2.93,1.83-4c1.06-0.84,2.49-1.5,5.36-1.5
				c1.65,0,3.41,0.22,4.84,1.17c0.7,0.48,1.28,1.14,1.61,1.91c0.4,0.84,0.44,1.36,0.44,2.93v3.96h-4.7v-3.26
				c0-1.98-0.33-3.04-2.46-3.04c-1.83,0-2.2,1.14-2.2,2.82v13.87c0,1.69,0.37,2.93,2.35,2.93c2.13,0,2.31-1.21,2.31-3.19v-3.37h4.7
				v3.67C98.52,56.45,98.48,57.55,98.15,58.51z"/>
			<path class="st283" d="M102.81,61.48v-25.9h4.73v25.9H102.81z"/>
			<path class="st283" d="M121.7,61.48l-0.62-4.22h-4.4l-0.7,4.22h-4.77l5.03-25.9h5.46l4.84,25.9H121.7z M118.99,42.15l-1.72,11.11
				h3.3L118.99,42.15z"/>
		</g>
		<g>
			<path class="st283" d="M136.41,48.57v-0.07c0-2.09,1.76-3.81,3.89-3.81c2.13,0,3.89,1.72,3.89,3.81v0.07
				c0,2.09-1.76,3.81-3.89,3.81C138.17,52.38,136.41,50.66,136.41,48.57z"/>
		</g>
		<g>
			<path class="st283" d="M169.76,58.51c-1.25,3.59-6.05,3.52-6.6,3.52c-1.1,0-2.13-0.18-2.46-0.26c-1.91-0.37-3.59-1.21-4.37-3.08
				c-0.37-0.95-0.37-1.76-0.37-2.71V41.89c0-0.44,0.04-0.92,0.07-1.36c0.07-1.65,0.51-2.93,1.83-4c1.06-0.84,2.49-1.5,5.36-1.5
				c1.65,0,3.41,0.22,4.84,1.17c0.7,0.48,1.28,1.14,1.61,1.91c0.4,0.84,0.44,1.36,0.44,2.93v3.96h-4.7v-3.26
				c0-1.98-0.33-3.04-2.46-3.04c-1.83,0-2.2,1.14-2.2,2.82v13.87c0,1.69,0.37,2.93,2.35,2.93c2.13,0,2.31-1.21,2.31-3.19v-3.37h4.7
				v3.67C170.13,56.45,170.09,57.55,169.76,58.51z"/>
			<path class="st283" d="M174.42,61.48v-25.9h4.77v21.97h7.01v3.92H174.42z"/>
			<path class="st283" d="M189.64,61.48v-25.9h12.54v3.92h-7.78v6.09h7.34v3.92h-7.34v7.96h8.14v4H189.64z"/>
			<path class="st283" d="M215.43,61.48l-0.62-4.22h-4.4l-0.7,4.22h-4.77l5.03-25.9h5.47l4.84,25.9H215.43z M212.72,42.15
				l-1.72,11.11h3.3L212.72,42.15z"/>
			<path class="st283" d="M232.57,61.48l-4.58-19.4l0.4,19.4h-4.48v-25.9h6.13l4.66,19l-0.48-19h4.37v25.9H232.57z"/>
			<path class="st283" d="M267.67,57.11c-0.04,0.62-0.18,2.9-2.27,3.85c-1.14,0.51-2.46,0.51-3.67,0.51h-8.18v-25.9h8.03
				c1.54,0,3.01-0.04,4.29,0.99c1.47,1.14,1.54,2.64,1.54,4.29v2.31c0,0.07,0,1.14-0.15,1.83c-0.48,2.16-2.09,2.38-2.86,2.53
				c1.5,0.29,2.09,0.66,2.57,1.25c0.81,1.06,0.73,2.27,0.73,3.48v3.67C267.71,56.34,267.67,56.75,267.67,57.11z M262.68,41.67
				c0-0.62-0.04-0.81-0.11-1.14c-0.33-1.21-1.36-1.25-2.35-1.25h-1.91v6.53h1.72c0.66,0,0.99-0.04,1.28-0.07
				c0.92-0.18,1.36-0.73,1.36-2.31V41.67z M263.01,52.09c0-0.77,0-1.06-0.15-1.43c-0.37-1.06-1.54-1.1-2.49-1.1h-2.05v8.18h2.02
				c0.4,0,0.84,0,1.21-0.07c1.03-0.15,1.47-0.77,1.47-2.53V52.09z"/>
			<path class="st283" d="M281.61,61.48l-0.62-4.22h-4.4l-0.7,4.22h-4.77l5.03-25.9h5.47l4.84,25.9H281.61z M278.9,42.15
				l-1.72,11.11h3.3L278.9,42.15z"/>
			<path class="st283" d="M298.71,61.48l-4.58-19.4l0.4,19.4h-4.48v-25.9h6.13l4.66,19l-0.48-19h4.37v25.9H298.71z"/>
			<path class="st283" d="M324.06,55.94c-0.15,2.75-1.39,4.15-2.42,4.73c-1.32,0.77-2.68,0.81-4.11,0.81h-7.67v-25.9h8.77
				c0.7,0,2.16,0.11,3.56,1.28c1.76,1.5,1.91,3.41,1.91,5.54v12.1C324.09,54.99,324.09,55.46,324.06,55.94z M319.33,42
				c0-0.81,0.04-1.61-0.66-2.2c-0.62-0.51-1.43-0.44-2.16-0.44h-1.87V57.7h1.69c0.44,0,0.92,0,1.36-0.07
				c1.54-0.29,1.65-1.43,1.65-2.71V42z"/>
			<path class="st283" d="M328.9,61.48v-25.9h4.73v25.9H328.9z"/>
			<path class="st283" d="M346.58,39.32v22.16h-4.81V39.32h-4.77v-3.74h14.38v3.74H346.58z"/>
		</g>
		<g>
			<path class="st283" d="M71.95,116.44V97.77h3.44v15.84h5.05v2.83H71.95z"/>
			<path class="st283" d="M92.55,115.22c-1.32,1.72-3.86,1.61-4.31,1.61c-1.38,0-2.8-0.29-3.81-1.35c-0.19-0.19-0.55-0.63-0.79-1.27
				c-0.26-0.66-0.34-1.4-0.34-2.06V97.77h3.44v13.88c0,0.5,0,1,0.19,1.45c0.34,0.77,1.22,0.79,1.43,0.79c0.16,0,0.61,0,1-0.29
				c0.66-0.45,0.58-1.32,0.58-1.98V97.77h3.46v14.46C93.39,113.34,93.29,114.27,92.55,115.22z"/>
			<path class="st283" d="M103.68,116.44l-3.31-13.99l0.29,13.99h-3.23V97.77h4.42l3.36,13.7l-0.34-13.7h3.15v18.67H103.68z"/>
			<path class="st283" d="M121.87,114.29c-0.9,2.59-4.36,2.54-4.76,2.54c-0.79,0-1.53-0.13-1.77-0.19
				c-1.38-0.26-2.59-0.87-3.15-2.22c-0.26-0.69-0.26-1.27-0.26-1.96v-10.15c0-0.32,0.03-0.66,0.05-0.98
				c0.05-1.19,0.37-2.12,1.32-2.88c0.77-0.61,1.8-1.08,3.86-1.08c1.19,0,2.46,0.16,3.49,0.85c0.5,0.34,0.93,0.82,1.16,1.38
				c0.29,0.61,0.32,0.98,0.32,2.12v2.86h-3.38v-2.35c0-1.43-0.24-2.19-1.77-2.19c-1.32,0-1.59,0.82-1.59,2.04v10
				c0,1.22,0.26,2.12,1.69,2.12c1.53,0,1.67-0.87,1.67-2.3v-2.43h3.38v2.64C122.14,112.81,122.11,113.61,121.87,114.29z"/>
			<path class="st283" d="M132.24,116.44v-8.54h-3.15v8.54h-3.44V97.77h3.44v7.32h3.15v-7.32h3.44v18.67H132.24z"/>
			<path class="st283" d="M151.89,116.44l0.32-16.18l-3.01,16.18h-3.2l-3.09-16.18l0.26,16.18h-3.38V97.77h5.61l2.2,13.06
				l2.22-13.06h5.53v18.67H151.89z"/>
			<path class="st283" d="M168.52,115.59c-1.11,1.03-2.62,1.24-4.05,1.24c-1.38,0-2.78-0.19-3.89-1.08
				c-0.56-0.45-0.82-0.9-0.93-1.16c-0.32-0.66-0.4-1.45-0.4-2.14v-10.47c0-0.4-0.08-2.27,1.16-3.38c0.69-0.61,1.98-1.22,4.07-1.22
				c2.7,0,4.12,1.11,4.68,2.19c0.29,0.61,0.42,1.19,0.42,2.49v10.39C169.6,113.63,169.42,114.72,168.52,115.59z M166.14,102.29
				c0-0.11,0.08-0.95-0.21-1.51c-0.16-0.34-0.56-0.82-1.43-0.82c-0.19,0-0.69,0.03-1.11,0.34c-0.77,0.53-0.66,1.35-0.66,2.12v9.44
				c0,0.56-0.03,1.24,0.32,1.72c0.4,0.56,1.24,0.56,1.4,0.56c0.16,0,0.66-0.03,1.08-0.32c0.63-0.45,0.61-1.19,0.61-1.88V102.29z"/>
			<path class="st283" d="M179.78,116.44l-3.3-13.99l0.29,13.99h-3.23V97.77h4.42l3.36,13.7l-0.34-13.7h3.15v18.67H179.78z"/>
			<path class="st283" d="M188.19,116.44V97.77h9.04v2.83h-5.61v4.39h5.29v2.83h-5.29v5.74h5.87v2.88H188.19z"/>
			<path class="st283" d="M206.62,110.91v5.53h-3.52v-5.76l-3.73-12.9H203l1.9,9.41l1.83-9.41h3.62L206.62,110.91z"/>
		</g>
		<g>
			<path class="st283" d="M219.13,116.44V97.77h3.44v15.84h5.05v2.83H219.13z"/>
			<path class="st283" d="M230.5,116.44V97.77h9.04v2.83h-5.61v4.39h5.29v2.83h-5.29v5.74h5.87v2.88H230.5z"/>
			<path class="st283" d="M256.5,116.44h-3.62l-1.8-12.75l-2.01,12.75h-3.68l-3.41-18.67h3.57l1.88,14.07l2.01-14.07h3.25
				l1.96,14.07l1.96-14.07h3.49L256.5,116.44z"/>
			<path class="st283" d="M263.13,116.44V97.77h3.41v18.67H263.13z"/>
			<path class="st283" d="M280.35,113.98c-0.42,1.51-1.67,2.86-4.84,2.86c-1.32,0-2.72-0.19-3.83-1.06
				c-0.61-0.48-0.85-0.98-0.98-1.27c-0.21-0.53-0.37-0.87-0.37-1.93v-2.72h3.41v2.17c0,0.69-0.05,1.48,0.61,1.9
				c0.21,0.13,0.53,0.26,1.06,0.26c0.61,0,0.95-0.13,1.19-0.34c0.5-0.4,0.5-1.22,0.5-2.49c0-0.24,0.05-1.08-0.37-1.72
				c-0.26-0.4-0.66-0.63-0.79-0.74l-3.25-2.19c-0.71-0.48-1.08-0.77-1.56-1.53c-0.4-0.66-0.66-1.38-0.66-2.96
				c0-0.26-0.03-1.59,0.45-2.56c1.06-2.27,4.26-2.27,4.63-2.27c0.56,0,3.54,0,4.52,2.46c0.18,0.48,0.29,0.66,0.29,1.56v1.85h-3.44
				v-1.9c0-0.56-0.21-1.35-1.53-1.35c-0.79,0-1.53,0.29-1.53,1.85c0,0.08-0.05,1.19,0.37,1.8c0.11,0.16,0.34,0.34,0.71,0.61
				l3.33,2.3c0.24,0.16,0.98,0.71,1.53,1.45c0.82,1.08,0.74,1.9,0.74,3.23C280.53,112.65,280.53,113.26,280.35,113.98z"/>
		</g>
		<g>
			<path class="st11" d="M12.29,81.17c-6.83,0-8.96-2.25-8.96-5.21c0-4.35,4.6-5.84,10.25-5.84c6.05,0,10.12,2.02,10.12,2.02
				l-2.35,3.52c0,0-3.37-1.32-8.35-1.32c-3.92,0-4.83,0.56-4.83,1.37c0,1.04,1.21,1.26,4.12,1.26h3.82c6.2,0,8.15,2.43,8.15,5.36
				c0,3.09-3.01,6.12-10.5,6.12c-6.55,0-11.21-2.3-11.21-2.3l2.28-3.72c0,0,4.28,1.8,8.93,1.8c4.43,0,5.67-0.89,5.67-1.8
				c0-0.96-0.66-1.27-3.31-1.27H12.29z M16.11,79.38c4.15,0,5.34,1.32,5.34,2.96c0,1.92-2.1,3.69-7.69,3.69
				c-4.28,0-8.17-1.39-8.17-1.39l-0.35,0.61c0,0,3.95,1.42,8.53,1.42c5.92,0,8.48-1.8,8.48-4.33c0-2.07-1.42-3.59-6.12-3.59h-3.82
				c-5.11,0-6.15-1.29-6.15-2.93c0-1.87,1.85-3.26,7.44-3.26c4.02,0,7.16,0.96,7.16,0.96l0.35-0.53c0,0-2.94-1.06-7.51-1.06
				c-6.17,0-8.22,1.57-8.22,3.9c0,2.07,1.44,3.57,6.93,3.57H16.11z"/>
			<path class="st11" d="M32.37,85.5l-1.42,2.71h-5.31l9.28-17.71h6.38l9.28,17.71h-5.31l-1.39-2.71H32.37z M31.06,83.7h14.09
				l1.44,2.71h0.83l-7.41-14.12h-3.79l-7.41,14.12h0.83L31.06,83.7z M31.39,83.07l5.34-10.15h2.78l5.31,10.15H31.39z M34.57,81.27
				h7.08l-3.39-6.48h-0.3L34.57,81.27z"/>
			<path class="st11" d="M67.26,84.94h-4l-6.1-8.93v12.19h-4.83V70.5h6.38l6.55,9.59l6.55-9.59h6.38v17.71h-4.83V76.01L67.26,84.94z
				 M72.8,72.29l-7.01,10.22h-1.06l-7.01-10.22h-3.36v14.12h0.78V72.92h2.12l6.98,10.22h2.02l6.98-10.22h2.12v13.48h0.78V72.29H72.8
				z"/>
			<path class="st11" d="M90.04,88.21V70.5h17.15v4.23H94.88v2.35h8.83v4.23h-8.83v6.91H90.04z M92.07,86.41h0.78V79.5h8.83v-0.63
				h-8.83v-5.95h12.32v-0.63h-13.1V86.41z"/>
			<path class="st11" d="M129,88.21h-19.3V70.5h18.67v4.23h-13.84v2.18h8.83v4.22h-8.83v2.86H129V88.21z M111.72,86.41h15.25v-0.63
				h-14.47v-6.45h8.83v-0.63h-8.83v-5.77h13.84v-0.63h-14.62V86.41z"/>
			<path class="st11" d="M148.98,88.21h-17.46V70.5h4.83v13.48h12.62V88.21z M133.55,86.41h13.41v-0.63h-12.62V72.29h-0.79V86.41z"
				/>
			<path class="st11" d="M151.38,88.21V70.5h11.59c7.82,0,10.4,4.15,10.4,8.85c0,4.71-2.58,8.85-10.4,8.85H151.38z M153.41,86.41
				h9.56c6.45,0,8.37-3.04,8.37-7.06c0-4.02-1.92-7.06-8.37-7.06h-9.56V86.41z M154.19,72.92h8.78c5.79,0,7.59,2.73,7.59,6.43
				c0,3.69-1.8,6.43-7.59,6.43h-8.78V72.92z M162.97,83.98c4.55,0,5.56-2.05,5.56-4.63c0-2.58-1.01-4.63-5.56-4.63h-6.76v9.26
				H162.97z"/>
			<path class="st11" d="M183.15,88.21V74.72h-7.77V70.5h20.37v4.23h-7.77v13.48H183.15z M185.18,86.41h0.78V72.92h7.77v-0.63
				h-16.32v0.63h7.77V86.41z"/>
		</g>
		<g>
			<path class="st11" d="M200.13,79.3v-0.05c0-1.44,1.21-2.63,2.68-2.63c1.47,0,2.68,1.19,2.68,2.63v0.05
				c0,1.44-1.21,2.63-2.68,2.63C201.34,81.93,200.13,80.74,200.13,79.3z"/>
		</g>
		<g>
			<path class="st11" d="M217.73,82.49v5.72h-4.83V70.5h14.45c5.04,0,7.08,2.58,7.08,6s-2.05,6-7.08,6H217.73z M215.71,86.41v-5.72
				h11.64c3.9,0,5.06-2.05,5.06-4.2s-1.16-4.2-5.06-4.2h-12.42v14.12H215.71z M227.35,80.06c3.26,0,4.28-1.75,4.28-3.57
				c0-1.82-1.01-3.57-4.28-3.57h-11.64v7.13H227.35z M217.73,78.26v-3.54h9.61c1.75,0,2.25,0.81,2.25,1.77s-0.51,1.77-2.25,1.77
				H217.73z"/>
			<path class="st11" d="M253.35,88.21V81.2h-11.56v7.01h-4.83V70.5h4.83v6.48h11.56V70.5h4.83v17.71H253.35z M256.16,72.29h-0.79
				v6.48h-15.61v-6.48h-0.78v14.12h0.78V79.4h15.61v7.01h0.79V72.29z"/>
			<path class="st11" d="M266.65,85.5l-1.42,2.71h-5.31l9.29-17.71h6.38l9.29,17.71h-5.31l-1.39-2.71H266.65z M265.34,83.7h14.09
				l1.44,2.71h0.83l-7.41-14.12h-3.79l-7.41,14.12h0.83L265.34,83.7z M265.67,83.07L271,72.92h2.78l5.31,10.15H265.67z
				 M268.85,81.27h7.08l-3.39-6.48h-0.3L268.85,81.27z"/>
			<path class="st11" d="M295.21,81.17c-6.83,0-8.96-2.25-8.96-5.21c0-4.35,4.6-5.84,10.25-5.84c6.05,0,10.12,2.02,10.12,2.02
				l-2.35,3.52c0,0-3.36-1.32-8.35-1.32c-3.92,0-4.83,0.56-4.83,1.37c0,1.04,1.21,1.26,4.12,1.26h3.82c6.2,0,8.15,2.43,8.15,5.36
				c0,3.09-3.01,6.12-10.5,6.12c-6.55,0-11.21-2.3-11.21-2.3l2.28-3.72c0,0,4.28,1.8,8.93,1.8c4.43,0,5.67-0.89,5.67-1.8
				c0-0.96-0.66-1.27-3.31-1.27H295.21z M299.03,79.38c4.15,0,5.34,1.32,5.34,2.96c0,1.92-2.1,3.69-7.69,3.69
				c-4.28,0-8.17-1.39-8.17-1.39l-0.35,0.61c0,0,3.95,1.42,8.53,1.42c5.92,0,8.48-1.8,8.48-4.33c0-2.07-1.42-3.59-6.12-3.59h-3.82
				c-5.11,0-6.15-1.29-6.15-2.93c0-1.87,1.85-3.26,7.44-3.26c4.02,0,7.16,0.96,7.16,0.96l0.35-0.53c0,0-2.93-1.06-7.51-1.06
				c-6.17,0-8.22,1.57-8.22,3.9c0,2.07,1.44,3.57,6.93,3.57H299.03z"/>
			<path class="st11" d="M329.13,88.21h-19.3V70.5h18.67v4.23h-13.84v2.18h8.83v4.22h-8.83v2.86h14.47V88.21z M311.86,86.41h15.26
				v-0.63h-14.47v-6.45h8.83v-0.63h-8.83v-5.77h13.84v-0.63h-14.62V86.41z"/>
			<path class="st11" d="M340.26,81.17c-6.83,0-8.96-2.25-8.96-5.21c0-4.35,4.6-5.84,10.25-5.84c6.05,0,10.12,2.02,10.12,2.02
				l-2.35,3.52c0,0-3.36-1.32-8.35-1.32c-3.92,0-4.83,0.56-4.83,1.37c0,1.04,1.21,1.26,4.12,1.26h3.82c6.2,0,8.15,2.43,8.15,5.36
				c0,3.09-3.01,6.12-10.5,6.12c-6.55,0-11.21-2.3-11.21-2.3l2.28-3.72c0,0,4.28,1.8,8.93,1.8c4.43,0,5.67-0.89,5.67-1.8
				c0-0.96-0.66-1.27-3.31-1.27H340.26z M344.08,79.38c4.15,0,5.34,1.32,5.34,2.96c0,1.92-2.1,3.69-7.69,3.69
				c-4.28,0-8.17-1.39-8.17-1.39l-0.35,0.61c0,0,3.95,1.42,8.53,1.42c5.92,0,8.48-1.8,8.48-4.33c0-2.07-1.42-3.59-6.12-3.59h-3.82
				c-5.11,0-6.15-1.29-6.15-2.93c0-1.87,1.85-3.26,7.44-3.26c4.02,0,7.16,0.96,7.16,0.96l0.35-0.53c0,0-2.93-1.06-7.51-1.06
				c-6.17,0-8.22,1.57-8.22,3.9c0,2.07,1.44,3.57,6.93,3.57H344.08z"/>
		</g>
		<g>
			<path class="st11" d="M16.75,0c8.63,0,13.13,4.47,13.13,4.47l-4.37,4.5c0,0-2.84-3.19-8.77-3.19c-6.31,0-9.49,3.08-9.49,6.86
				c0,3.85,3.26,6.86,9.67,6.86c6.1,0,9.43-3.95,9.43-3.95l4.37,4.5c0,0-4.88,5.23-13.79,5.23c-10.71,0-16.29-5.58-16.29-12.65
				C0.63,5.65,6.14,0,16.75,0z M16.75,3.33c5.65,0,8.49,2.29,8.49,2.29l0.73-0.73c0,0-2.88-2.43-9.22-2.43
				c-8.8,0-13.34,4.64-13.34,10.19c0,5.61,4.61,10.19,13.51,10.19c6.51,0,9.88-3.19,9.88-3.19l-0.73-0.73c0,0-3.33,3.05-9.15,3.05
				c-8.11,0-12.44-4.19-12.44-9.32C4.48,7.59,8.74,3.33,16.75,3.33z"/>
			<path class="st11" d="M40.8,21.07l-1.94,3.71h-7.28L44.3,0.52h8.73l12.72,24.26h-7.28l-1.91-3.71H40.8z M39,18.61h19.3l1.98,3.71
				h1.14L51.27,2.98h-5.2L35.92,22.32h1.14L39,18.61z M39.45,17.74l7.31-13.9h3.81l7.28,13.9H39.45z M43.82,15.28h9.7l-4.64-8.87
				h-0.42L43.82,15.28z"/>
			<path class="st11" d="M74.8,16.95v7.83h-6.62V0.52h19.79c6.9,0,9.7,3.53,9.7,8.21c0,4.68-2.81,8.21-9.7,8.21H74.8z M72.03,22.32
				v-7.83h15.94c5.34,0,6.93-2.81,6.93-5.75c0-2.95-1.59-5.75-6.93-5.75H70.96v19.34H72.03z M87.97,13.62
				c4.47,0,5.86-2.39,5.86-4.89c0-2.49-1.39-4.89-5.86-4.89H72.03v9.77H87.97z M74.8,11.16V6.31h13.17c2.39,0,3.08,1.11,3.08,2.43
				c0,1.32-0.69,2.43-3.08,2.43H74.8z"/>
			<path class="st11" d="M107.76,24.78h-6.62V0.52h6.62V24.78z M104.99,22.32V2.98h-1.07v19.34H104.99z"/>
			<path class="st11" d="M121.69,24.78V6.31h-10.64V0.52h27.9v5.79h-10.64v18.47H121.69z M124.47,22.32h1.07V3.85h10.64V2.98h-22.35
				v0.87h10.64V22.32z"/>
			<path class="st11" d="M149.73,21.07l-1.94,3.71h-7.28l12.72-24.26h8.73l12.72,24.26h-7.28l-1.91-3.71H149.73z M147.93,18.61h19.3
				l1.98,3.71h1.14L160.2,2.98H155l-10.15,19.34h1.14L147.93,18.61z M148.38,17.74l7.31-13.9h3.81l7.28,13.9H148.38z M152.75,15.28
				h9.7l-4.64-8.87h-0.42L152.75,15.28z"/>
			<path class="st11" d="M201.02,24.78h-23.91V0.52h6.62v18.47h17.29V24.78z M179.89,22.32h18.37v-0.87h-17.29V2.98h-1.07V22.32z"/>
		</g>
		<g>
			<path class="st11" d="M227.19,0c8.63,0,13.13,4.47,13.13,4.47l-4.37,4.5c0,0-2.84-3.19-8.77-3.19c-6.31,0-9.5,3.08-9.5,6.86
				c0,3.85,3.26,6.86,9.67,6.86c6.1,0,9.43-3.95,9.43-3.95l4.37,4.5c0,0-4.89,5.23-13.79,5.23c-10.71,0-16.29-5.58-16.29-12.65
				C211.08,5.65,216.59,0,227.19,0z M227.19,3.33c5.65,0,8.49,2.29,8.49,2.29l0.73-0.73c0,0-2.88-2.43-9.22-2.43
				c-8.8,0-13.34,4.64-13.34,10.19c0,5.61,4.61,10.19,13.51,10.19c6.51,0,9.88-3.19,9.88-3.19l-0.73-0.73c0,0-3.33,3.05-9.15,3.05
				c-8.11,0-12.44-4.19-12.44-9.32C214.93,7.59,219.19,3.33,227.19,3.33z"/>
			<path class="st11" d="M250.38,24.78h-6.62V0.52h6.62V24.78z M247.61,22.32V2.98h-1.07v19.34H247.61z"/>
			<path class="st11" d="M264.31,24.78V6.31h-10.64V0.52h27.9v5.79h-10.64v18.47H264.31z M267.08,22.32h1.07V3.85h10.64V2.98h-22.35
				v0.87h10.64V22.32z"/>
			<path class="st11" d="M291.45,24.78h-6.62V0.52h6.62V24.78z M288.68,22.32V2.98h-1.07v19.34H288.68z"/>
			<path class="st11" d="M322.05,24.78h-26.44V0.52h25.57v5.79h-18.96v2.98h12.09v5.79h-12.09v3.92h19.82V24.78z M298.38,22.32h20.9
				v-0.87h-19.82v-8.84h12.09v-0.87h-12.09v-7.9h18.96V2.98h-20.03V22.32z"/>
			<path class="st11" d="M337.3,15.14c-9.36,0-12.27-3.08-12.27-7.14c0-5.96,6.31-8,14.03-8c8.28,0,13.86,2.77,13.86,2.77
				l-3.22,4.82c0,0-4.61-1.8-11.44-1.8c-5.37,0-6.62,0.76-6.62,1.87c0,1.42,1.66,1.73,5.65,1.73h5.23c8.49,0,11.16,3.33,11.16,7.35
				c0,4.23-4.12,8.39-14.38,8.39c-8.98,0-15.35-3.15-15.35-3.15l3.12-5.09c0,0,5.86,2.46,12.23,2.46c6.06,0,7.76-1.21,7.76-2.46
				c0-1.32-0.9-1.73-4.54-1.73H337.3z M342.53,12.68c5.68,0,7.31,1.8,7.31,4.05c0,2.63-2.88,5.06-10.53,5.06
				c-5.86,0-11.19-1.91-11.19-1.91l-0.49,0.83c0,0,5.41,1.94,11.68,1.94c8.11,0,11.61-2.46,11.61-5.93c0-2.84-1.94-4.92-8.39-4.92
				h-5.23c-7,0-8.42-1.77-8.42-4.02c0-2.56,2.53-4.47,10.19-4.47c5.51,0,9.81,1.32,9.81,1.32l0.49-0.73c0,0-4.02-1.46-10.29-1.46
				c-8.46,0-11.26,2.15-11.26,5.34c0,2.84,1.98,4.89,9.5,4.89H342.53z"/>
		</g>
	</g>
</g>
</svg>
