<?xml version="1.0" encoding="utf-8"?>
<!-- Generator: Adobe Illustrator 16.0.0, SVG Export Plug-In . SVG Version: 6.00 Build 0)  -->
<!DOCTYPE svg PUBLIC "-//W3C//DTD SVG 1.1//EN" "http://www.w3.org/Graphics/SVG/1.1/DTD/svg11.dtd">
<svg version="1.1" xmlns="http://www.w3.org/2000/svg" xmlns:xlink="http://www.w3.org/1999/xlink" x="0px" y="0px"
	 width="332.25px" height="102.4px" viewBox="0 0 332.25 102.4" style="enable-background:new 0 0 332.25 102.4;"
	 xml:space="preserve">
<style type="text/css">
<![CDATA[
	.st0{clip-path:url(#SVGID_16_);fill:#CD5F29;}
	.st1{clip-path:url(#SVGID_16_);fill:#CD802B;}
	.st2{clip-path:url(#SVGID_32_);fill:#E2925D;}
	.st3{clip-path:url(#SVGID_10_);fill:#E38C69;}
	.st4{clip-path:url(#SVGID_10_);fill:#E3BD70;}
	.st5{clip-path:url(#SVGID_10_);fill:#E3BD71;}
	.st6{clip-path:url(#SVGID_20_);fill-rule:evenodd;clip-rule:evenodd;fill:#73A654;}
	.st7{clip-path:url(#SVGID_50_);fill:#F1C8A2;}
	.st8{clip-path:url(#SVGID_54_);fill:#E2925D;}
	.st9{clip-path:url(#SVGID_118_);fill:#5FAFBF;}
	.st10{clip-path:url(#SVGID_10_);fill:#E48C6A;}
	.st11{fill:#AB2218;}
	.st12{clip-path:url(#SVGID_32_);fill:#E49966;}
	.st13{clip-path:url(#SVGID_10_);fill:#E5BE72;}
	.st14{clip-path:url(#SVGID_20_);fill-rule:evenodd;clip-rule:evenodd;fill:#75A955;}
	.st15{clip-path:url(#SVGID_20_);fill-rule:evenodd;clip-rule:evenodd;fill:#75AA55;}
	.st16{clip-path:url(#SVGID_20_);fill-rule:evenodd;clip-rule:evenodd;fill:#75AB55;}
	.st17{clip-path:url(#SVGID_82_);fill:#5FAFBF;}
	.st18{fill-rule:evenodd;clip-rule:evenodd;fill:#D7D6A3;}
	.st19{fill-rule:evenodd;clip-rule:evenodd;fill:#D7DBAE;}
	.st20{clip-path:url(#SVGID_54_);fill:#E49966;}
	.st21{fill:#AC2325;}
	.st22{fill-rule:evenodd;clip-rule:evenodd;fill:#D8711C;}
	.st23{clip-path:url(#SVGID_10_);fill:#E6EDD7;}
	.st24{clip-path:url(#SVGID_20_);fill-rule:evenodd;clip-rule:evenodd;fill:#76AB55;}
	.st25{clip-path:url(#SVGID_20_);fill-rule:evenodd;clip-rule:evenodd;fill:#76AD56;}
	.st26{fill-rule:evenodd;clip-rule:evenodd;fill:#D8E8C4;}
	.st27{clip-path:url(#SVGID_134_);fill:#DA7427;}
	.st28{clip-path:url(#SVGID_32_);fill:#E69F6C;}
	.st29{clip-path:url(#SVGID_30_);fill:#EFC197;}
	.st30{clip-path:url(#SVGID_30_);fill:#EFC39B;}
	.st31{fill-rule:evenodd;clip-rule:evenodd;fill:#D9A731;}
	.st32{clip-path:url(#SVGID_54_);fill:#E69F6C;}
	.st33{clip-path:url(#SVGID_50_);fill:#F5DBC1;}
	.st34{clip-path:url(#SVGID_52_);fill:#EFC197;}
	.st35{clip-path:url(#SVGID_52_);fill:#EFC39B;}
	.st36{clip-path:url(#SVGID_44_);fill:#7F5426;}
	.st37{clip-path:url(#SVGID_44_);fill:#7F5726;}
	.st38{clip-path:url(#SVGID_36_);fill-rule:evenodd;clip-rule:evenodd;fill:#AA2524;}
	.st39{clip-path:url(#SVGID_10_);fill:#E9F1DB;}
	.st40{clip-path:url(#SVGID_44_);fill:#E0A04D;}
	.st41{clip-path:url(#SVGID_62_);fill:#8F5A21;}
	.st42{clip-path:url(#SVGID_38_);fill-rule:evenodd;clip-rule:evenodd;fill:#005C31;}
	.st43{clip-path:url(#SVGID_108_);fill:#5FAFBF;}
	.st44{clip-path:url(#SVGID_8_);fill-rule:evenodd;clip-rule:evenodd;fill:#ECF2DF;}
	.st45{clip-path:url(#SVGID_40_);fill-rule:evenodd;clip-rule:evenodd;fill:#D45128;}
	.st46{clip-path:url(#SVGID_44_);fill:#E3AB5B;}
	.st47{clip-path:url(#SVGID_72_);fill:#5FAFBF;}
	.st48{fill-rule:evenodd;clip-rule:evenodd;fill:#0A341D;}
	.st49{clip-path:url(#SVGID_24_);fill-rule:evenodd;clip-rule:evenodd;fill:#F6DCCC;}
	.st50{clip-path:url(#SVGID_94_);fill:#5FAFBF;}
	.st51{fill-rule:evenodd;clip-rule:evenodd;fill:#0B371F;}
	.st52{fill-rule:evenodd;clip-rule:evenodd;fill:#0B7D46;}
	.st53{clip-path:url(#SVGID_354_);fill:none;stroke:#FFFFFF;stroke-width:1.25;stroke-miterlimit:10;}
	.st54{fill-rule:evenodd;clip-rule:evenodd;fill:#DAA120;}
	.st55{fill-rule:evenodd;clip-rule:evenodd;fill:#DAA52B;}
	.st56{fill-rule:evenodd;clip-rule:evenodd;fill:#DAA62E;}
	.st57{fill-rule:evenodd;clip-rule:evenodd;fill:#DAAB3B;}
	.st58{fill-rule:evenodd;clip-rule:evenodd;fill:#DAAB3C;}
	.st59{fill-rule:evenodd;clip-rule:evenodd;fill:#DAAC3E;}
	.st60{fill-rule:evenodd;clip-rule:evenodd;fill:#DAAD42;}
	.st61{fill-rule:evenodd;clip-rule:evenodd;fill:#DAB251;}
	.st62{fill-rule:evenodd;clip-rule:evenodd;fill:#DAB85E;}
	.st63{fill-rule:evenodd;clip-rule:evenodd;fill:#DABC68;}
	.st64{fill-rule:evenodd;clip-rule:evenodd;fill:#0C3920;}
	.st65{fill-rule:evenodd;clip-rule:evenodd;fill:#0C3D23;}
	.st66{fill-rule:evenodd;clip-rule:evenodd;fill:#DBC276;}
	.st67{fill-rule:evenodd;clip-rule:evenodd;fill:#0D4125;}
	.st68{fill-rule:evenodd;clip-rule:evenodd;fill:#0D4226;}
	.st69{fill-rule:evenodd;clip-rule:evenodd;fill:#0D7C46;}
	.st70{clip-path:url(#SVGID_24_);fill-rule:evenodd;clip-rule:evenodd;fill:#F9FBF7;}
	.st71{clip-path:url(#SVGID_40_);fill-rule:evenodd;clip-rule:evenodd;fill:#D97327;}
	.st72{clip-path:url(#SVGID_20_);fill-rule:evenodd;clip-rule:evenodd;fill:#478847;}
	.st73{clip-path:url(#SVGID_32_);fill:#EAB483;}
	.st74{clip-path:url(#SVGID_134_);fill:#AB2524;}
	.st75{clip-path:url(#SVGID_44_);fill:#E9BB76;}
	.st76{clip-path:url(#SVGID_44_);fill:#E9BE7A;}
	.st77{fill-rule:evenodd;clip-rule:evenodd;fill:#0F7A45;}
	.st78{clip-path:url(#SVGID_54_);fill:#EAB483;}
	.st79{clip-path:url(#SVGID_44_);fill:#807442;}
	.st80{clip-path:url(#SVGID_12_);fill-rule:evenodd;clip-rule:evenodd;fill:#D87327;}
	.st81{clip-path:url(#SVGID_16_);fill:#D4AD7B;}
	.st82{clip-path:url(#SVGID_44_);fill:#818C3C;}
	.st83{clip-path:url(#SVGID_12_);fill-rule:evenodd;clip-rule:evenodd;fill:#D9A128;}
	.st84{clip-path:url(#SVGID_30_);fill:#F3CEAB;}
	.st85{clip-path:url(#SVGID_354_);fill:none;stroke:#000000;stroke-width:0.25;stroke-miterlimit:10;}
	.st86{clip-path:url(#SVGID_10_);fill:#EEF4E4;}
	.st87{clip-path:url(#SVGID_84_);fill:#5FAFBF;}
	.st88{clip-path:url(#SVGID_52_);fill:#F3CEAB;}
	.st89{clip-path:url(#SVGID_44_);fill:#B3B986;}
	.st90{clip-path:url(#SVGID_20_);fill-rule:evenodd;clip-rule:evenodd;fill:#136335;}
	.st91{clip-path:url(#SVGID_352_);fill:none;stroke:#FFFFFF;stroke-width:3.061;}
	.st92{clip-path:url(#SVGID_8_);fill-rule:evenodd;clip-rule:evenodd;fill:#213D2F;}
	.st93{clip-path:url(#SVGID_44_);fill:#868945;}
	.st94{clip-path:url(#SVGID_44_);fill:#EACC8B;}
	.st95{clip-path:url(#SVGID_38_);fill-rule:evenodd;clip-rule:evenodd;fill:#0A7D46;}
	.st96{clip-path:url(#SVGID_44_);fill:#EBCC8F;}
	.st97{clip-path:url(#SVGID_74_);fill:#5FAFBF;}
	.st98{clip-path:url(#SVGID_134_);fill:#4C8A4E;}
	.st99{fill-rule:evenodd;clip-rule:evenodd;fill:#107945;}
	.st100{clip-path:url(#SVGID_62_);fill:#C8AA77;}
	.st101{clip-path:url(#SVGID_96_);fill:#5FAFBF;}
	.st102{clip-path:url(#SVGID_60_);fill-rule:evenodd;clip-rule:evenodd;fill:#D45128;}
	.st103{clip-path:url(#SVGID_8_);fill-rule:evenodd;clip-rule:evenodd;fill:#F5F9ED;}
	.st104{clip-path:url(#SVGID_8_);fill-rule:evenodd;clip-rule:evenodd;fill:#F6F9EE;}
	.st105{clip-path:url(#SVGID_20_);fill-rule:evenodd;clip-rule:evenodd;fill:#4F8E4A;}
	.st106{clip-path:url(#SVGID_18_);fill:#D1A15A;}
	.st107{clip-path:url(#SVGID_130_);fill:#5FAFBF;}
	.st108{clip-path:url(#SVGID_58_);fill-rule:evenodd;clip-rule:evenodd;fill:#D45128;}
	.st109{clip-path:url(#SVGID_12_);fill-rule:evenodd;clip-rule:evenodd;fill:#DFEDD5;}
	.st110{fill:#54A4B4;}
	.st111{clip-path:url(#SVGID_348_);fill:#FFFFFF;}
	.st112{clip-path:url(#SVGID_60_);fill-rule:evenodd;clip-rule:evenodd;fill:#D97327;}
	.st113{clip-path:url(#SVGID_28_);fill:#A2663E;}
	.st114{clip-path:url(#SVGID_86_);fill:#5FAFBF;}
	.st115{clip-path:url(#SVGID_10_);fill:#F5F9EE;}
	.st116{clip-path:url(#SVGID_10_);fill:#5B7959;}
	.st117{clip-path:url(#SVGID_58_);fill-rule:evenodd;clip-rule:evenodd;fill:#D97327;}
	.st118{clip-path:url(#SVGID_10_);fill:#F6F9EE;}
	.st119{clip-path:url(#SVGID_10_);fill:#F6F9F0;}
	.st120{clip-path:url(#SVGID_10_);fill:#F6F9F1;}
	.st121{clip-path:url(#SVGID_26_);fill:#AE9A80;}
	.st122{clip-path:url(#SVGID_18_);fill:#D89A56;}
	.st123{clip-path:url(#SVGID_10_);fill:#5C7959;}
	.st124{clip-path:url(#SVGID_10_);fill:#5C795A;}
	.st125{clip-path:url(#SVGID_18_);fill:#D8B65D;}
	.st126{clip-path:url(#SVGID_48_);fill:#AE9A80;}
	.st127{clip-path:url(#SVGID_20_);fill-rule:evenodd;clip-rule:evenodd;fill:#1C6938;}
	.st128{clip-path:url(#SVGID_56_);fill-rule:evenodd;clip-rule:evenodd;fill:#E8C886;}
	.st129{clip-path:url(#SVGID_120_);fill:#5FAFBF;}
	.st130{clip-path:url(#SVGID_44_);fill:#8F5A21;}
	.st131{clip-path:url(#SVGID_42_);fill-rule:evenodd;clip-rule:evenodd;fill:#D45128;}
	.st132{clip-path:url(#SVGID_76_);fill:#5FAFBF;}
	.st133{clip-path:url(#SVGID_20_);fill-rule:evenodd;clip-rule:evenodd;fill:#52904B;}
	.st134{clip-path:url(#SVGID_98_);fill:#5FAFBF;}
	.st135{clip-path:url(#SVGID_18_);fill:#A5D1C4;}
	.st136{clip-path:url(#SVGID_42_);fill-rule:evenodd;clip-rule:evenodd;fill:#D97327;}
	.st137{clip-path:url(#SVGID_40_);fill-rule:evenodd;clip-rule:evenodd;fill:#E7AC76;}
	.st138{clip-path:url(#SVGID_110_);fill:#5FAFBF;}
	.st139{clip-path:url(#SVGID_56_);fill-rule:evenodd;clip-rule:evenodd;fill:#EBCA88;}
	.st140{clip-path:url(#SVGID_20_);fill-rule:evenodd;clip-rule:evenodd;fill:#57934C;}
	.st141{clip-path:url(#SVGID_18_);fill:#DCE3C1;}
	.st142{clip-path:url(#SVGID_36_);fill-rule:evenodd;clip-rule:evenodd;fill:#F4E2D9;}
	.st143{clip-path:url(#SVGID_62_);fill:#6D7F35;}
	.st144{fill:#5FAFBF;}
	.st145{clip-path:url(#SVGID_66_);fill:#5FAFBF;}
	.st146{clip-path:url(#SVGID_88_);fill:#5FAFBF;}
	.st147{clip-path:url(#SVGID_36_);fill-rule:evenodd;clip-rule:evenodd;fill:#5D9B75;}
	.st148{clip-path:url(#SVGID_28_);fill:#7E7760;}
	.st149{clip-path:url(#SVGID_62_);fill:#D28E2A;}
	.st150{clip-path:url(#SVGID_100_);fill:#5FAFBF;}
	.st151{clip-path:url(#SVGID_28_);fill:#E08D4D;}
	.st152{clip-path:url(#SVGID_122_);fill:#5FAFBF;}
	.st153{clip-path:url(#SVGID_22_);fill:#C6392A;}
	.st154{clip-path:url(#SVGID_50_);fill:#A2663E;}
	.st155{clip-path:url(#SVGID_22_);fill:#C74A2A;}
	.st156{clip-path:url(#SVGID_14_);fill:#8A9A81;}
	.st157{clip-path:url(#SVGID_24_);fill-rule:evenodd;clip-rule:evenodd;fill:#D97327;}
	.st158{clip-path:url(#SVGID_62_);fill:#D67928;}
	.st159{fill:#98D5E0;}
	.st160{clip-path:url(#SVGID_20_);fill-rule:evenodd;clip-rule:evenodd;fill:#5A8344;}
	.st161{clip-path:url(#SVGID_44_);fill:#C8AA77;}
	.st162{clip-path:url(#SVGID_78_);fill:#5FAFBF;}
	.st163{clip-path:url(#SVGID_38_);fill-rule:evenodd;clip-rule:evenodd;fill:#87B76A;}
	.st164{clip-path:url(#SVGID_46_);fill-rule:evenodd;clip-rule:evenodd;fill:#F6DCCC;}
	.st165{clip-path:url(#SVGID_36_);fill-rule:evenodd;clip-rule:evenodd;fill:#C54235;}
	.st166{clip-path:url(#SVGID_20_);fill-rule:evenodd;clip-rule:evenodd;fill:#5C8645;}
	.st167{clip-path:url(#SVGID_62_);fill:#D98827;}
	.st168{clip-path:url(#SVGID_62_);fill:#D9A128;}
	.st169{clip-path:url(#SVGID_62_);fill:#D9AC42;}
	.st170{clip-path:url(#SVGID_20_);fill-rule:evenodd;clip-rule:evenodd;fill:#5D8746;}
	.st171{clip-path:url(#SVGID_20_);fill-rule:evenodd;clip-rule:evenodd;fill:#5D8846;}
	.st172{clip-path:url(#SVGID_20_);fill-rule:evenodd;clip-rule:evenodd;fill:#5D964D;}
	.st173{fill:#FFFFFF;}
	.st174{clip-path:url(#SVGID_350_);fill:none;stroke:#FFFFFF;stroke-width:3.061;}
	.st175{clip-path:url(#SVGID_20_);fill-rule:evenodd;clip-rule:evenodd;fill:#5E8846;}
	.st176{clip-path:url(#SVGID_20_);fill-rule:evenodd;clip-rule:evenodd;fill:#5E994E;}
	.st177{clip-path:url(#SVGID_112_);fill:#5FAFBF;}
	.st178{clip-path:url(#SVGID_62_);fill:#A06523;}
	.st179{clip-path:url(#SVGID_46_);fill-rule:evenodd;clip-rule:evenodd;fill:#F9FBF7;}
	.st180{clip-path:url(#SVGID_20_);fill-rule:evenodd;clip-rule:evenodd;fill:#5F8946;}
	.st181{clip-path:url(#SVGID_20_);fill-rule:evenodd;clip-rule:evenodd;fill:#5F8A47;}
	.st182{clip-path:url(#SVGID_2_);fill:#5FAFBF;}
	.st183{clip-path:url(#SVGID_68_);fill:#5FAFBF;}
	.st184{clip-path:url(#SVGID_8_);fill-rule:evenodd;clip-rule:evenodd;fill:#024D26;}
	.st185{clip-path:url(#SVGID_58_);fill-rule:evenodd;clip-rule:evenodd;fill:#E7AC76;}
	.st186{clip-path:url(#SVGID_102_);fill:#5FAFBF;}
	.st187{clip-path:url(#SVGID_124_);fill:#5FAFBF;}
	.st188{clip-path:url(#SVGID_36_);fill-rule:evenodd;clip-rule:evenodd;fill:#CA473B;}
	.st189{clip-path:url(#SVGID_16_);fill:#8A9A81;}
	.st190{clip-path:url(#SVGID_62_);fill:#DE9945;}
	.st191{clip-path:url(#SVGID_62_);fill:#DF9D4A;}
	.st192{clip-path:url(#SVGID_62_);fill:#DFC781;}
	.st193{clip-path:url(#SVGID_20_);fill-rule:evenodd;clip-rule:evenodd;fill:#608A47;}
	.st194{clip-path:url(#SVGID_20_);fill-rule:evenodd;clip-rule:evenodd;fill:#608B48;}
	.st195{clip-path:url(#SVGID_50_);fill:#7E7760;}
	.st196{clip-path:url(#SVGID_20_);fill-rule:evenodd;clip-rule:evenodd;fill:#618C48;}
	.st197{clip-path:url(#SVGID_8_);fill-rule:evenodd;clip-rule:evenodd;fill:#D9522F;}
	.st198{clip-path:url(#SVGID_8_);fill-rule:evenodd;clip-rule:evenodd;fill:#D9A128;}
	.st199{clip-path:url(#SVGID_20_);fill-rule:evenodd;clip-rule:evenodd;fill:#628D49;}
	.st200{clip-path:url(#SVGID_20_);fill-rule:evenodd;clip-rule:evenodd;fill:#628E49;}
	.st201{clip-path:url(#SVGID_20_);fill-rule:evenodd;clip-rule:evenodd;fill:#628F49;}
	.st202{clip-path:url(#SVGID_50_);fill:#E08D4D;}
	.st203{clip-path:url(#SVGID_26_);fill:#F5D6B8;}
	.st204{clip-path:url(#SVGID_20_);fill-rule:evenodd;clip-rule:evenodd;fill:#638F49;}
	.st205{clip-path:url(#SVGID_48_);fill:#F5D6B8;}
	.st206{clip-path:url(#SVGID_8_);fill-rule:evenodd;clip-rule:evenodd;fill:#A0B6A8;}
	.st207{clip-path:url(#SVGID_20_);fill-rule:evenodd;clip-rule:evenodd;fill:#64904A;}
	.st208{clip-path:url(#SVGID_20_);fill-rule:evenodd;clip-rule:evenodd;fill:#64914B;}
	.st209{clip-path:url(#SVGID_114_);fill:#5FAFBF;}
	.st210{clip-path:url(#SVGID_348_);fill:#451500;}
	.st211{clip-path:url(#SVGID_20_);fill-rule:evenodd;clip-rule:evenodd;fill:#65924A;}
	.st212{clip-path:url(#SVGID_20_);fill-rule:evenodd;clip-rule:evenodd;fill:#65924B;}
	.st213{clip-path:url(#SVGID_20_);fill-rule:evenodd;clip-rule:evenodd;fill:#65934B;}
	.st214{clip-path:url(#SVGID_20_);fill-rule:evenodd;clip-rule:evenodd;fill:#659F51;}
	.st215{clip-path:url(#SVGID_132_);}
	.st216{clip-path:url(#SVGID_134_);}
	.st217{clip-path:url(#SVGID_136_);}
	.st218{clip-path:url(#SVGID_140_);}
	.st219{clip-path:url(#SVGID_144_);}
	.st220{clip-path:url(#SVGID_148_);}
	.st221{clip-path:url(#SVGID_152_);}
	.st222{clip-path:url(#SVGID_156_);}
	.st223{clip-path:url(#SVGID_160_);}
	.st224{clip-path:url(#SVGID_164_);}
	.st225{clip-path:url(#SVGID_168_);}
	.st226{clip-path:url(#SVGID_172_);}
	.st227{clip-path:url(#SVGID_176_);}
	.st228{clip-path:url(#SVGID_180_);}
	.st229{clip-path:url(#SVGID_184_);}
	.st230{clip-path:url(#SVGID_188_);}
	.st231{clip-path:url(#SVGID_192_);}
	.st232{clip-path:url(#SVGID_196_);}
	.st233{clip-path:url(#SVGID_20_);fill-rule:evenodd;clip-rule:evenodd;fill:#66934B;}
	.st234{clip-path:url(#SVGID_20_);fill-rule:evenodd;clip-rule:evenodd;fill:#66944B;}
	.st235{clip-path:url(#SVGID_44_);fill:#6D7F35;}
	.st236{clip-path:url(#SVGID_200_);}
	.st237{clip-path:url(#SVGID_204_);}
	.st238{clip-path:url(#SVGID_208_);}
	.st239{clip-path:url(#SVGID_212_);}
	.st240{clip-path:url(#SVGID_216_);}
	.st241{clip-path:url(#SVGID_220_);}
	.st242{clip-path:url(#SVGID_224_);}
	.st243{clip-path:url(#SVGID_228_);}
	.st244{clip-path:url(#SVGID_232_);}
	.st245{clip-path:url(#SVGID_236_);}
	.st246{clip-path:url(#SVGID_240_);}
	.st247{clip-path:url(#SVGID_244_);}
	.st248{clip-path:url(#SVGID_248_);}
	.st249{clip-path:url(#SVGID_252_);}
	.st250{clip-path:url(#SVGID_256_);}
	.st251{clip-path:url(#SVGID_260_);}
	.st252{clip-path:url(#SVGID_264_);}
	.st253{clip-path:url(#SVGID_268_);}
	.st254{clip-path:url(#SVGID_272_);}
	.st255{clip-path:url(#SVGID_276_);}
	.st256{clip-path:url(#SVGID_280_);}
	.st257{clip-path:url(#SVGID_284_);}
	.st258{clip-path:url(#SVGID_288_);}
	.st259{clip-path:url(#SVGID_292_);}
	.st260{clip-path:url(#SVGID_296_);}
	.st261{clip-path:url(#SVGID_20_);fill-rule:evenodd;clip-rule:evenodd;fill:#67954C;}
	.st262{clip-path:url(#SVGID_300_);}
	.st263{clip-path:url(#SVGID_304_);}
	.st264{clip-path:url(#SVGID_308_);}
	.st265{clip-path:url(#SVGID_312_);}
	.st266{clip-path:url(#SVGID_316_);}
	.st267{clip-path:url(#SVGID_320_);}
	.st268{clip-path:url(#SVGID_324_);}
	.st269{clip-path:url(#SVGID_328_);}
	.st270{clip-path:url(#SVGID_332_);}
	.st271{clip-path:url(#SVGID_336_);}
	.st272{clip-path:url(#SVGID_340_);}
	.st273{clip-path:url(#SVGID_344_);}
	.st274{clip-path:url(#SVGID_348_);fill:#AB2218;}
	.st275{clip-path:url(#SVGID_4_);fill:#5FAFBF;}
	.st276{clip-path:url(#SVGID_20_);fill-rule:evenodd;clip-rule:evenodd;fill:#68A151;}
	.st277{clip-path:url(#SVGID_20_);fill:#76AD56;}
	.st278{clip-path:url(#SVGID_20_);fill-rule:evenodd;clip-rule:evenodd;fill:#69974C;}
	.st279{clip-path:url(#SVGID_20_);fill-rule:evenodd;clip-rule:evenodd;fill:#69984D;}
	.st280{clip-path:url(#SVGID_62_);fill:#7F5426;}
	.st281{clip-path:url(#SVGID_62_);fill:#7F5726;}
	.st282{clip-path:url(#SVGID_8_);fill-rule:evenodd;clip-rule:evenodd;fill:#0C83C6;}
	.st283{clip-path:url(#SVGID_20_);fill-rule:evenodd;clip-rule:evenodd;fill:#30733D;}
	.st284{clip-path:url(#SVGID_62_);fill:#E0A04D;}
	.st285{clip-path:url(#SVGID_8_);fill-rule:evenodd;clip-rule:evenodd;fill:#DBE7C7;}
	.st286{clip-path:url(#SVGID_44_);fill:#D28E2A;}
	.st287{clip-path:url(#SVGID_104_);fill:#5FAFBF;}
	.st288{clip-path:url(#SVGID_36_);fill-rule:evenodd;clip-rule:evenodd;fill:#003A19;}
	.st289{clip-path:url(#SVGID_36_);fill-rule:evenodd;clip-rule:evenodd;fill:#005C31;}
	.st290{clip-path:url(#SVGID_126_);fill:#5FAFBF;}
	.st291{clip-path:url(#SVGID_62_);fill:#E3AB5B;}
	.st292{clip-path:url(#SVGID_8_);fill-rule:evenodd;clip-rule:evenodd;fill:#DEEACC;}
	.st293{clip-path:url(#SVGID_8_);fill-rule:evenodd;clip-rule:evenodd;fill:#416855;}
	.st294{clip-path:url(#SVGID_28_);fill:#F1C8A2;}
	.st295{clip-path:url(#SVGID_90_);fill:#5FAFBF;}
	.st296{clip-path:url(#SVGID_44_);fill:#D67928;}
	.st297{clip-path:url(#SVGID_20_);fill-rule:evenodd;clip-rule:evenodd;fill:#6A994E;}
	.st298{clip-path:url(#SVGID_10_);fill:#77A5D2;}
	.st299{clip-path:url(#SVGID_36_);fill-rule:evenodd;clip-rule:evenodd;fill:#054825;}
	.st300{fill:#D8E8C4;}
	.st301{clip-path:url(#SVGID_20_);fill-rule:evenodd;clip-rule:evenodd;fill:#6B9A4E;}
	.st302{clip-path:url(#SVGID_20_);fill-rule:evenodd;clip-rule:evenodd;fill:#6B9B4F;}
	.st303{clip-path:url(#SVGID_10_);fill:#78A5D3;}
	.st304{clip-path:url(#SVGID_10_);fill:#78A5D4;}
	.st305{clip-path:url(#SVGID_44_);fill:#D98827;}
	.st306{clip-path:url(#SVGID_44_);fill:#D9A128;}
	.st307{clip-path:url(#SVGID_44_);fill:#D9AC42;}
	.st308{clip-path:url(#SVGID_28_);fill:#F5DBC1;}
	.st309{clip-path:url(#SVGID_20_);fill-rule:evenodd;clip-rule:evenodd;fill:#6C9C4F;}
	.st310{clip-path:url(#SVGID_32_);fill:#A87851;}
	.st311{clip-path:url(#SVGID_44_);fill:#A06523;}
	.st312{clip-path:url(#SVGID_62_);fill:#E9BB76;}
	.st313{clip-path:url(#SVGID_62_);fill:#E9BE7A;}
	.st314{clip-path:url(#SVGID_20_);fill-rule:evenodd;clip-rule:evenodd;fill:#6D9D4F;}
	.st315{clip-path:url(#SVGID_54_);fill:#A87851;}
	.st316{clip-path:url(#SVGID_116_);fill:#5FAFBF;}
	.st317{clip-path:url(#SVGID_62_);fill:#807442;}
	.st318{clip-path:url(#SVGID_20_);fill-rule:evenodd;clip-rule:evenodd;fill:#6E9F51;}
	.st319{clip-path:url(#SVGID_20_);fill-rule:evenodd;clip-rule:evenodd;fill:#6EA051;}
	.st320{clip-path:url(#SVGID_20_);fill-rule:evenodd;clip-rule:evenodd;fill:#6EA653;}
	.st321{clip-path:url(#SVGID_20_);fill-rule:evenodd;clip-rule:evenodd;fill:#004925;}
	.st322{clip-path:url(#SVGID_20_);fill-rule:evenodd;clip-rule:evenodd;fill:#004A24;}
	.st323{clip-path:url(#SVGID_20_);fill-rule:evenodd;clip-rule:evenodd;fill:#004A26;}
	.st324{clip-path:url(#SVGID_20_);fill-rule:evenodd;clip-rule:evenodd;fill:#004B28;}
	.st325{clip-path:url(#SVGID_20_);fill-rule:evenodd;clip-rule:evenodd;fill:#004C27;}
	.st326{clip-path:url(#SVGID_20_);fill-rule:evenodd;clip-rule:evenodd;fill:#004D27;}
	.st327{clip-path:url(#SVGID_20_);fill-rule:evenodd;clip-rule:evenodd;fill:#004D28;}
	.st328{clip-path:url(#SVGID_20_);fill-rule:evenodd;clip-rule:evenodd;fill:#004E28;}
	.st329{clip-path:url(#SVGID_20_);fill-rule:evenodd;clip-rule:evenodd;fill:#004F29;}
	.st330{clip-path:url(#SVGID_20_);fill-rule:evenodd;clip-rule:evenodd;fill:#005029;}
	.st331{clip-path:url(#SVGID_20_);fill-rule:evenodd;clip-rule:evenodd;fill:#00502A;}
	.st332{clip-path:url(#SVGID_20_);fill-rule:evenodd;clip-rule:evenodd;fill:#00512A;}
	.st333{clip-path:url(#SVGID_20_);fill-rule:evenodd;clip-rule:evenodd;fill:#00522B;}
	.st334{clip-path:url(#SVGID_20_);fill-rule:evenodd;clip-rule:evenodd;fill:#00542C;}
	.st335{clip-path:url(#SVGID_20_);fill-rule:evenodd;clip-rule:evenodd;fill:#00552D;}
	.st336{clip-path:url(#SVGID_20_);fill-rule:evenodd;clip-rule:evenodd;fill:#00562D;}
	.st337{clip-path:url(#SVGID_20_);fill-rule:evenodd;clip-rule:evenodd;fill:#00572E;}
	.st338{clip-path:url(#SVGID_20_);fill-rule:evenodd;clip-rule:evenodd;fill:#00582F;}
	.st339{clip-path:url(#SVGID_20_);fill-rule:evenodd;clip-rule:evenodd;fill:#00592F;}
	.st340{clip-path:url(#SVGID_20_);fill-rule:evenodd;clip-rule:evenodd;fill:#005A30;}
	.st341{clip-path:url(#SVGID_20_);fill-rule:evenodd;clip-rule:evenodd;fill:#005B30;}
	.st342{clip-path:url(#SVGID_20_);fill-rule:evenodd;clip-rule:evenodd;fill:#005C31;}
	.st343{clip-path:url(#SVGID_62_);fill:#818C3C;}
	.st344{clip-path:url(#SVGID_80_);fill:#5FAFBF;}
	.st345{clip-path:url(#SVGID_20_);fill-rule:evenodd;clip-rule:evenodd;fill:#014827;}
	.st346{clip-path:url(#SVGID_60_);fill-rule:evenodd;clip-rule:evenodd;fill:#F6F9EE;}
	.st347{clip-path:url(#SVGID_20_);fill-rule:evenodd;clip-rule:evenodd;fill:#024525;}
	.st348{clip-path:url(#SVGID_132_);fill:#DA7427;}
	.st349{clip-path:url(#SVGID_20_);fill-rule:evenodd;clip-rule:evenodd;fill:#034224;}
	.st350{clip-path:url(#SVGID_20_);fill-rule:evenodd;clip-rule:evenodd;fill:#034324;}
	.st351{clip-path:url(#SVGID_6_);fill:#5FAFBF;}
	.st352{clip-path:url(#SVGID_62_);fill:#B3B986;}
	.st353{clip-path:url(#SVGID_34_);fill-rule:evenodd;clip-rule:evenodd;fill:#E8C886;}
	.st354{clip-path:url(#SVGID_64_);fill:#7ECFDA;}
	.st355{clip-path:url(#SVGID_20_);fill-rule:evenodd;clip-rule:evenodd;fill:#044425;}
	.st356{clip-path:url(#SVGID_20_);fill-rule:evenodd;clip-rule:evenodd;fill:#053E22;}
	.st357{clip-path:url(#SVGID_20_);fill-rule:evenodd;clip-rule:evenodd;fill:#054023;}
	.st358{clip-path:url(#SVGID_62_);fill:#868945;}
	.st359{clip-path:url(#SVGID_36_);fill-rule:evenodd;clip-rule:evenodd;fill:#741613;}
	.st360{clip-path:url(#SVGID_62_);fill:#EACC8B;}
	.st361{clip-path:url(#SVGID_106_);fill:#5FAFBF;}
	.st362{clip-path:url(#SVGID_20_);fill-rule:evenodd;clip-rule:evenodd;fill:#073C21;}
	.st363{clip-path:url(#SVGID_128_);fill:#5FAFBF;}
	.st364{clip-path:url(#SVGID_62_);fill:#EBCC8F;}
	.st365{clip-path:url(#SVGID_36_);fill-rule:evenodd;clip-rule:evenodd;fill:#0A7D46;}
	.st366{clip-path:url(#SVGID_70_);fill:#5FAFBF;}
	.st367{clip-path:url(#SVGID_44_);fill:#DE9945;}
	.st368{clip-path:url(#SVGID_20_);fill-rule:evenodd;clip-rule:evenodd;fill:#09361E;}
	.st369{clip-path:url(#SVGID_20_);fill-rule:evenodd;clip-rule:evenodd;fill:#095E32;}
	.st370{clip-path:url(#SVGID_92_);fill:#5FAFBF;}
	.st371{clip-path:url(#SVGID_44_);fill:#DF9D4A;}
	.st372{clip-path:url(#SVGID_44_);fill:#DFC781;}
	.st373{clip-path:url(#SVGID_20_);fill-rule:evenodd;clip-rule:evenodd;fill:#3E8144;}
	.st374{clip-path:url(#SVGID_46_);fill-rule:evenodd;clip-rule:evenodd;fill:#D97327;}
	.st375{clip-path:url(#SVGID_20_);fill-rule:evenodd;clip-rule:evenodd;fill:#70A151;}
	.st376{fill:#451500;}
	.st377{clip-path:url(#SVGID_42_);fill-rule:evenodd;clip-rule:evenodd;fill:#F6F9EE;}
	.st378{clip-path:url(#SVGID_34_);fill-rule:evenodd;clip-rule:evenodd;fill:#EBCA88;}
	.st379{clip-path:url(#SVGID_10_);fill:#E28C68;}
	.st380{clip-path:url(#SVGID_10_);fill:#E28C69;}
	.st381{clip-path:url(#SVGID_8_);fill-rule:evenodd;clip-rule:evenodd;fill:#E9F0D9;}
	.st382{clip-path:url(#SVGID_132_);fill:#AB2524;}
]]>
</style>
<g id="Layer_1">
</g>
<g id="Layer_2">
	<g>
		<g>
			<path class="st173" d="M102.4,51.19c0,28.28-22.92,51.2-51.2,51.2C22.92,102.4,0,79.48,0,51.19C0,22.92,22.92,0,51.19,0
				C79.47,0,102.4,22.92,102.4,51.19"/>
			<g>
				<path class="st11" d="M51.19,21.92c-16.16,0-29.27,13.11-29.27,29.28c0,16.17,13.11,29.28,29.27,29.28
					c16.18,0,29.29-13.11,29.29-29.28C80.48,35.03,67.37,21.92,51.19,21.92 M99.69,51.19c0,26.79-21.71,48.5-48.5,48.5
					c-26.78,0-48.49-21.71-48.49-48.5C2.7,24.41,24.42,2.7,51.19,2.7C77.98,2.7,99.69,24.41,99.69,51.19"/>
				<path class="st376" d="M78.52,51.19c0,15.09-12.23,27.32-27.33,27.32c-15.08,0-27.31-12.23-27.31-27.32
					c0-15.08,12.23-27.31,27.31-27.31C66.29,23.88,78.52,36.11,78.52,51.19"/>
				<path class="st173" d="M55.56,68.3c1.16,0,4.4-1.73,3.2-2.52c-0.76-0.5-1.65-1.16-3.29-2.42c-0.74-0.56-1.06-0.41-1.29-0.41
					c-0.68,0,0.42-1.1,0.06-1.98c-0.4-0.96-0.63-2.44-0.97-2.78c-0.34-0.34-0.2-2.12,0.51-2.83c0.78-0.78,1.89-3.03,2.5-3.9
					c0.73-1.03,1.23-3.3,0.94-3.59c-0.29-0.29-1.62-3.04-2.2-3.63c-0.38-0.37-0.99-1.29-1.61-2.04l-0.14-0.21l-0.62,0.36
					c-0.62,0.36-1.4,1.1-1.4,1.1s-0.54,0.18-1.78-0.07c-0.67-0.13-0.91-0.6-0.91-1.14c0-0.54-0.35-0.4-0.35-0.4s-6.28,0.3-6.73,0.57
					c-0.46,0.27-2.46,3.01-2.46,3.01s-1.07,10.44-0.25,11.27c0.99,0.98,6.11,9.06,7.07,10.02C46.79,68.02,54.39,68.3,55.56,68.3
					 M43.45,45.18c-0.65,0.12-1.69-0.07-2.18,0.83l-0.94,4.06c0,0,0.1,4.08,0.19,4.89c0.09,0.81,1.14,3.43,1.73,4.03
					c0.52,0.52,1.53,2.24,2.44,3.14c0.25,0.24,0.75,0.36,0.96,0.65c0.38,0.51,0.14,0.16-0.54-0.85c-2.51-3.71-3.05-6.92-3.17-7.47
					c-0.27-1.2-0.07-4,0-5.13c0.04-0.6,0.45-1.93,0.84-2.23c0.18-0.14,1.9-0.33,2.25-0.43c0.54-0.16,1.3-0.15,1.79-0.25
					C48.4,46.1,51.3,46.9,51.49,47c2.36,1.09,1.44,1.47,1.48,1.6c0.04,0.13-3.28,6.82-3.27,7.13c0.02,0.34,0.14,3.68,0.45,4.6
					c0.09,0.27,1.14,2.8,1.33,3.26c0.83,2.01-1.79-0.33-1.95-0.43c-0.17-0.09-3.62-6.02-4.12-7.28c-0.34-0.85-0.21-2.12-0.15-2.39
					c0.09-0.37-0.18-3.23,0.35-3.63c0.36-0.27,1.98-0.43,2.76-0.09c0.71,0.31,1.09,1.11,1.02,1.29c-0.06,0.16-1.18,3.77-1.35,3.47
					c-0.06-0.1-0.06-1.24-0.21-1.36c-0.15-0.12-0.97-0.29-1.07-0.16c-0.1,0.14-0.3,1.35-0.2,1.77c0.5,2.01,1.66,1.38,1.88,1.01
					c0.33-0.56,1.9-5,1.88-5.28c-0.07-0.65-0.55-1.78-1.58-2.12c-0.61-0.21-3.29-0.09-4.02,0.29c-1.13,0.59-1.06,5.73-0.85,6.47
					c0.21,0.74,3.77,6.71,3.94,7.17c0.33,0.9,2.48,3.02,2.82,3.22c0.14,0.08,3.08,1.23,3.46,0.65c0.17-0.25,0.08-0.94-0.65-1.42
					c-0.7-0.46-2.37-5.34-2.37-5.72c0.01-0.36-0.44-3.08-0.14-3.64c0.56-1.08,4.56-7.07,4.12-7.56c-0.59-0.65-2.38-3.67-3.22-2.54
					c-0.76,1.03-4.36-0.03-5.25-0.69C46.5,44.59,44.38,45.01,43.45,45.18 M60.96,31.09c0.36,0.04,1.93,0.6,1.93,0.6
					s1.52,2.22,1.91,2.7c0.39,0.48,0.22,0.82,0.22,0.82l-0.75,2.73c0,0,0.27,0.22,0,0c-0.27-0.22-2.29-0.04-2.77,0.01
					c-0.48,0.04,0.43-0.56,0.65-0.78c0.22-0.22,1.09-0.82,0.97-1.17c-0.1-0.35-1.42-2.88-1.42-2.88s-2.29-0.02-3.37,0.11
					c-1.08,0.13-3.37,2.4-3.37,2.4l-0.83,3.28c0,0,0.33,0.6,0.81,1c0.48,0.39,1.87,0.26,2.38,0.22c0.52-0.04,0.3,0.56-0.13,0.96
					c-0.44,0.39-2,0.39-2,0.39l0.65,0.22c0.72,0.65,2.03,3.98,2.81,4.76c0.78,0.77-0.02,4.68-1.14,5.8
					c-1.12,1.11-1.65,3.51-2.33,4.19c-0.68,0.68-1.38,0.41-0.68,1.11c0.71,0.7,0.38,1.55,0.49,2.17c0.07,0.4,0.19,1.12,0.53,1.46
					c0.34,0.34,5.48,3.9,7.55,4.07c0.38,0.03,0.38,1.85-1.74,4.07c0,0-0.38,1.29-3.91,1.4c-3.86,0.12-7.65-0.52-8.52-0.52
					s-3.4-1.44-3.4-1.44c-0.48,0-8.53-11.19-8.53-11.96c0-0.78-0.57-2.87-0.57-3.65c0-0.77,0.9-7.86,0.75-8.72
					c-0.11-0.67,0.24-0.83,1.01-1.61c0.77-0.77,2.17-2.08,2.7-2.62c0.24-0.24,2.09-0.19,4.34-0.67l0.35-0.15l-0.45-0.22
					c0,0-0.72-0.91-1.89-0.87c-1.17,0.04-1.56,0.13-0.95-0.13c0.61-0.26,1.7-1.08,1.7-1.08l2.55,1.13h1.93l2.41-1.99l5.48-4.45
					L60.96,31.09z"/>
				<path class="st173" d="M90.1,50.57c-0.61-0.01-1.11,0.47-1.13,1.08c-0.01,0.61,0.47,1.11,1.08,1.13
					c0.61,0.01,1.12-0.47,1.13-1.08C91.2,51.08,90.72,50.58,90.1,50.57 M11.98,34.53c0.45-1.05,1.25-1.71,2.22-2.17
					c0.16-0.07,0.22-0.27,0.15-0.43l-0.56-1.16c-0.08-0.15-0.27-0.22-0.42-0.14c-1.21,0.57-2.29,1.46-3.03,3.17
					c-1.35,3.09,0.08,6.29,3,7.56l-0.06-0.03c2.91,1.27,6.23,0.13,7.57-2.96c0.75-1.71,0.66-3.1,0.26-4.38
					c-0.05-0.17-0.23-0.26-0.4-0.21l-1.23,0.38c-0.16,0.05-0.26,0.23-0.21,0.4c0.32,1.02,0.39,2.05-0.07,3.1
					c-0.85,1.96-3.07,2.67-5.08,1.79C12.11,38.6,11.13,36.49,11.98,34.53 M41.44,14.09c-0.17,0.04-0.34-0.08-0.38-0.25l-0.67-3.3
					c-0.03-0.17,0.08-0.34,0.25-0.38l1.91-0.39c1.43-0.29,2.49,0.19,2.75,1.49c0.24,1.17-0.51,2.14-1.95,2.44L41.44,14.09z
					 M47.78,10.83c-0.45-2.22-2.88-3.33-5.42-2.82l-3.99,0.81c-0.17,0.04-0.28,0.2-0.25,0.37l2.08,10.28
					c0.03,0.17,0.2,0.28,0.37,0.25l1.29-0.26c0.17-0.04,0.28-0.2,0.25-0.38l-0.58-2.88c-0.04-0.17,0.08-0.34,0.25-0.37l1.85-0.38
					C46.04,14.96,48.28,13.29,47.78,10.83 M92.69,39.88c-0.16,0.06-0.34-0.02-0.41-0.18L90.3,34.4c-0.06-0.17-0.24-0.25-0.41-0.19
					l-2.77,1.04c-0.16,0.06-0.25,0.24-0.19,0.41l1.49,3.97c0.06,0.16-0.02,0.35-0.19,0.41l-1.04,0.39
					c-0.16,0.06-0.34-0.02-0.41-0.18l-1.49-3.97c-0.06-0.16-0.25-0.25-0.41-0.19l-1.55,0.58c-0.17,0.06-0.25,0.25-0.19,0.41
					l2.01,5.37c0.06,0.16-0.02,0.35-0.19,0.41l-1.04,0.39c-0.16,0.06-0.35-0.02-0.41-0.19l-2.71-7.2c-0.06-0.16,0.03-0.35,0.19-0.41
					l9.81-3.68c0.16-0.06,0.35,0.02,0.41,0.19l2.68,7.13c0.06,0.16-0.03,0.35-0.19,0.41L92.69,39.88z M82.5,20.18
					c0.13-0.11,0.34-0.1,0.45,0.03l0.86,1c0.11,0.13,0.1,0.33-0.04,0.45l-6.6,5.67c-0.14,0.12-0.15,0.31-0.04,0.45l3.4,3.95
					c0.11,0.13,0.1,0.33-0.03,0.45l-0.87,0.74c-0.14,0.11-0.34,0.1-0.45-0.03l-4.67-5.44c-0.11-0.13-0.1-0.33,0.03-0.45L82.5,20.18z
					 M69.27,23.08c-0.09,0.15-0.29,0.2-0.44,0.11l-1.15-0.68c-0.15-0.09-0.2-0.29-0.11-0.44l4.44-7.45
					c0.08-0.15,0.04-0.34-0.11-0.44l-2.48-1.48c-0.15-0.09-0.2-0.28-0.11-0.43l0.6-1.01c0.09-0.15,0.29-0.2,0.44-0.11l7.2,4.3
					c0.15,0.09,0.2,0.28,0.11,0.43l-0.6,1.01c-0.09,0.15-0.29,0.2-0.43,0.11l-2.49-1.48c-0.15-0.09-0.35-0.04-0.44,0.11L69.27,23.08
					z M58.79,9.37c-2.18-0.38-4,1.09-4.38,3.23c-0.38,2.14,0.87,4.18,3.04,4.56c2.18,0.38,3.99-1.09,4.37-3.23
					C62.19,11.79,60.96,9.75,58.79,9.37 M57.11,18.93c-3.37-0.59-5.27-3.55-4.72-6.65c0.54-3.1,3.38-5.26,6.75-4.67
					c3.36,0.59,5.26,3.55,4.71,6.65C63.3,17.35,60.47,19.52,57.11,18.93 M30.99,11.67c0.15-0.08,0.35-0.02,0.43,0.14l4.85,9.29
					c0.08,0.15,0.02,0.35-0.13,0.43l-1.17,0.61c-0.15,0.08-0.35,0.02-0.43-0.13l-4.85-9.29c-0.08-0.15-0.02-0.35,0.14-0.43
					L30.99,11.67z M22.64,27.39c-0.12,0.12-0.12,0.33,0.01,0.45l2.4,2.34c0.12,0.12,0.13,0.32,0.01,0.45l-0.92,0.95
					c-0.12,0.13-0.32,0.13-0.45,0.01l-7.5-7.33c-0.12-0.12-0.12-0.32-0.01-0.45l0.92-0.94c0.12-0.13,0.32-0.13,0.45-0.01l3.35,3.28
					c0.12,0.12,0.33,0.12,0.45,0l3.59-3.68c0.12-0.13,0.12-0.33,0-0.45l-3.35-3.28c-0.12-0.12-0.12-0.32,0-0.45l0.92-0.94
					c0.12-0.12,0.33-0.13,0.45-0.01l7.5,7.33c0.12,0.12,0.13,0.32,0.01,0.45l-0.92,0.95c-0.12,0.12-0.32,0.13-0.45,0l-2.4-2.34
					c-0.12-0.12-0.33-0.12-0.45,0.01L22.64,27.39z M12.97,67.43l3.78-1.41l-3.08-0.71l-0.02-0.03l1.85-2.52l-3.75,1.4l-0.47-1.25
					l5.79-2.16l0.51,1.37l-1.88,2.43l3.02,0.61l0.51,1.37l-5.79,2.16L12.97,67.43z M90.39,66.57l-5.84-1.99l0.44-1.29l4.67,1.6
					l1-2.91l1.17,0.4L90.39,66.57z M86.35,74.3l-5.3-3.16l0.69-1.16l4.24,2.53l1.57-2.64l1.06,0.63L86.35,74.3z M82.61,79.07
					l-4.66-4.04L78.84,74l4.66,4.04L82.61,79.07z M75.9,79.97c-0.36-0.46-0.87-0.44-1.38-0.03l-1.06,0.84l1.09,1.39l1.08-0.85
					c0.52-0.41,0.6-0.92,0.28-1.33L75.9,79.97z M78.4,83.17l-2.26-0.73L75.3,83.1l1.23,1.55l-1.06,0.85l-3.83-4.84l2.21-1.75
					c1.14-0.9,2.31-0.84,3.09,0.16l0.01,0.01c0.62,0.78,0.59,1.61,0.15,2.32l2.55,0.8L78.4,83.17z M69.15,89.18
					c-1.75,0.8-3.51,0.12-4.28-1.54l-0.01-0.01c-0.73-1.59-0.09-3.47,1.61-4.25c1.01-0.46,1.74-0.47,2.56-0.24l-0.35,1.29
					c-0.6-0.16-1.08-0.19-1.73,0.1c-0.9,0.41-1.25,1.54-0.81,2.49l0.01,0.02c0.47,1.03,1.52,1.46,2.51,1
					c0.45-0.21,0.8-0.51,1.01-0.87l-0.37-0.8l-1.24,0.57l-0.49-1.07l2.43-1.12l1.12,2.44C70.78,87.94,70.17,88.71,69.15,89.18
					 M58.29,92.45l-3.45-3.52l0.49,3.9l-1.33,0.16l-0.76-6.12l1.25-0.15l3.34,3.41l-0.47-3.77l1.33-0.17l0.76,6.12L58.29,92.45z
					 M46.95,88.1l-1.06,1.89l1.63,0.2L46.95,88.1z M48.25,92.88l-0.39-1.44l-2.59-0.32l-0.73,1.31l-1.38-0.17l3.38-5.86l1.24,0.15
					l1.88,6.49L48.25,92.88z M36.95,90.48c-1.7-0.65-2.46-2.44-1.83-4.1l0-0.02c0.63-1.64,2.37-2.51,4.14-1.83
					c1.09,0.41,1.6,1.02,1.93,1.76l-1.16,0.62c-0.29-0.58-0.65-1-1.23-1.22c-0.97-0.37-1.98,0.17-2.36,1.16l-0.01,0.02
					c-0.38,0.99-0.01,2.07,0.98,2.45c0.66,0.25,1.16,0.14,1.77-0.1l0.5,1.12C38.87,90.75,38.06,90.9,36.95,90.48 M28.94,86.36
					l3.25-5.24l1.15,0.71l-3.25,5.24L28.94,86.36z M24.24,82.87l0.42-2.49l-2.46,0.62l-1.13-1.05l3.71-0.86l0.53-3.63l1.17,1.07
					l-0.4,2.36l2.32-0.59l1.13,1.04l-3.56,0.83l-0.55,3.78L24.24,82.87z M15.78,72.96l5.1-3.49l2.63,3.84l-1,0.69l-1.87-2.73
					l-1.03,0.71l1.65,2.4l-1,0.68l-1.65-2.4l-1.07,0.73l1.9,2.76l-1,0.69L15.78,72.96z M11.21,51.7c0.01,0.61,0.52,1.09,1.13,1.08
					c0.61-0.01,1.1-0.52,1.08-1.13c-0.01-0.61-0.52-1.09-1.13-1.08C11.68,50.58,11.2,51.08,11.21,51.7"/>
			</g>
		</g>
		<g>
			<polygon class="st144" points="293.04,22.33 293.33,22.36 293.33,22.36 293.22,22.12 			"/>
			<path class="st173" d="M130.67,45.71h-10.72c-1.77,0-3.29-0.63-4.55-1.89c-1.26-1.26-1.89-2.78-1.89-4.55V9.24
				c0-1.77,0.63-3.29,1.89-4.54c1.26-1.26,2.77-1.89,4.55-1.89h10.72v8.58h-4.29c-1.43,0-2.14,0.72-2.14,2.15v21.45
				c0,1.43,0.71,2.14,2.14,2.14h4.29V45.71z"/>
			<path class="st173" d="M161.07,41.99c0,1.77-0.63,3.29-1.89,4.55c-1.26,1.26-2.78,1.89-4.55,1.89h-12.87
				c-1.77,0-3.29-0.63-4.54-1.89c-1.26-1.26-1.89-2.77-1.89-4.55V5.53h10.72V37.7c0,1.43,0.71,2.15,2.14,2.15s2.14-0.72,2.14-2.15
				V5.53h10.72V41.99z"/>
			<polygon class="st173" points="182.89,45.71 165.73,45.71 165.73,2.81 176.45,2.81 176.45,37.13 182.89,37.13 			"/>
			<polygon class="st173" points="202.5,14.11 198.21,14.11 198.21,48.43 187.48,48.43 187.48,14.11 183.19,14.11 183.19,5.53 
				202.5,5.53 			"/>
			<rect x="207.16" y="2.81" class="st173" width="10.72" height="42.9"/>
			<path class="st173" d="M248.28,22.69c0,6.98-1.06,12.87-3.17,17.67c-2.4,5.38-5.63,8.07-9.7,8.07c-3.21,0-6.15-2.69-8.83-8.07
				c-2.69-5.37-4.03-11.26-4.03-17.67V5.53h10.72v17.16c0,8.58,0.72,13.58,2.15,15.01c1.43-1.43,2.15-6.44,2.15-15.01V5.53h10.72
				V22.69z"/>
			<path class="st173" d="M267.95,26.4V13.53c0-1.43-0.72-2.15-2.14-2.15c-1.43,0-2.14,0.72-2.14,2.15V26.4H267.95z M278.68,45.71
				h-10.72V34.98h-4.29v10.72h-10.73V9.24c0-1.77,0.63-3.29,1.89-4.54c1.26-1.26,2.77-1.89,4.55-1.89h12.87
				c1.77,0,3.29,0.63,4.55,1.89c1.26,1.26,1.89,2.78,1.89,4.54V45.71z"/>
			<polygon class="st173" points="302.1,14.11 297.81,14.11 297.81,48.43 287.08,48.43 287.08,14.11 282.8,14.11 282.8,5.53 
				302.1,5.53 			"/>
			<path class="st173" d="M326.06,45.71h-12.87c-1.78,0-3.29-0.63-4.55-1.89c-1.26-1.26-1.88-2.78-1.88-4.55V9.24
				c0-1.77,0.63-3.29,1.88-4.54c1.26-1.26,2.77-1.89,4.55-1.89h12.87v8.58h-6.43c-1.43,0-2.14,0.72-2.14,2.15v6.43h8.58v8.58h-8.58
				v6.43c0,1.43,0.71,2.14,2.14,2.14h6.43V45.71z"/>
			<path class="st376" d="M132.18,43.9h-10.72c-1.77,0-3.29-0.63-4.55-1.89c-1.26-1.26-1.89-2.77-1.89-4.55V7.43
				c0-1.77,0.63-3.29,1.89-4.54c1.26-1.26,2.77-1.89,4.55-1.89h10.72v8.58h-4.29c-1.43,0-2.14,0.72-2.14,2.14v21.45
				c0,1.43,0.71,2.14,2.14,2.14h4.29V43.9z"/>
			<path class="st376" d="M162.58,40.18c0,1.77-0.63,3.29-1.89,4.55c-1.26,1.26-2.78,1.89-4.55,1.89h-12.87
				c-1.77,0-3.29-0.63-4.54-1.89c-1.26-1.25-1.89-2.77-1.89-4.55V3.72h10.72v32.17c0,1.43,0.72,2.15,2.15,2.15s2.14-0.72,2.14-2.15
				V3.72h10.72V40.18z"/>
			<polygon class="st376" points="184.39,43.9 167.23,43.9 167.23,1 177.96,1 177.96,35.32 184.39,35.32 			"/>
			<polygon class="st376" points="204,12.3 199.71,12.3 199.71,46.62 188.99,46.62 188.99,12.3 184.7,12.3 184.7,3.72 204,3.72 			
				"/>
			<rect x="208.67" y="1" class="st376" width="10.72" height="42.9"/>
			<path class="st376" d="M249.79,20.88c0,6.98-1.06,12.87-3.17,17.67c-2.4,5.38-5.63,8.07-9.69,8.07c-3.21,0-6.15-2.69-8.83-8.07
				c-2.69-5.37-4.03-11.26-4.03-17.67V3.72h10.72v17.16c0,8.58,0.71,13.58,2.15,15.01c1.43-1.43,2.14-6.44,2.14-15.01V3.72h10.72
				V20.88z"/>
			<path class="st376" d="M269.46,24.59V11.72c0-1.43-0.72-2.15-2.14-2.15c-1.43,0-2.14,0.72-2.14,2.15v12.87H269.46z M280.19,43.9
				h-10.72V33.17h-4.29V43.9h-10.73V7.43c0-1.77,0.63-3.29,1.89-4.54C257.6,1.63,259.11,1,260.88,1h12.87
				c1.77,0,3.29,0.63,4.55,1.89c1.26,1.26,1.89,2.78,1.89,4.54V43.9z"/>
			<polygon class="st376" points="303.6,12.3 299.31,12.3 299.31,46.62 288.59,46.62 288.59,12.3 284.3,12.3 284.3,3.72 303.6,3.72 
							"/>
			<path class="st376" d="M327.57,43.9H314.7c-1.77,0-3.29-0.63-4.55-1.89c-1.26-1.26-1.88-2.77-1.88-4.55V7.43
				c0-1.77,0.63-3.29,1.88-4.54C311.41,1.63,312.93,1,314.7,1h12.87v8.58h-6.43c-1.43,0-2.15,0.72-2.15,2.14v6.43h8.58v8.58h-8.58
				v6.43c0,1.43,0.71,2.14,2.15,2.14h6.43V43.9z"/>
			<path class="st376" d="M117.83,75.06h1.07V65.8h12.03v-0.85h-12.03v-7.98h16.78v-0.85h-17.85V75.06z M115.07,77.47V53.72h23.36
				v5.67h-16.78v3.16h12.02v5.67h-12.02v9.26H115.07z"/>
			<path class="st376" d="M144.64,75.06h20.78v-0.85h-19.71v-8.65h12.03v-0.85h-12.03v-7.74h18.85v-0.85h-19.92V75.06z
				 M168.17,77.47h-26.29V53.72h25.43v5.67h-18.86v2.92h12.03v5.66h-12.03v3.84h19.71V77.47z"/>
			<path class="st376" d="M188.71,65.63c5.65,0,7.28,1.76,7.28,3.97c0,2.58-2.86,4.95-10.47,4.95c-5.83,0-11.13-1.86-11.13-1.86
				l-0.48,0.81c0,0,5.37,1.9,11.62,1.9c8.06,0,11.54-2.41,11.54-5.8c0-2.79-1.93-4.82-8.35-4.82h-5.21c-6.96,0-8.37-1.73-8.37-3.94
				c0-2.52,2.52-4.38,10.13-4.38c5.49,0,9.76,1.29,9.76,1.29l0.49-0.71c0,0-4-1.43-10.24-1.43c-8.4,0-11.2,2.11-11.2,5.23
				c0,2.78,1.96,4.78,9.44,4.78H188.71z M183.51,68.04c-9.3,0-12.19-3.02-12.19-6.99c0-5.83,6.27-7.84,13.95-7.84
				c8.24,0,13.79,2.72,13.79,2.72l-3.21,4.72c0,0-4.58-1.77-11.37-1.77c-5.33,0-6.58,0.75-6.58,1.83c0,1.39,1.66,1.7,5.62,1.7h5.21
				c8.44,0,11.1,3.25,11.1,7.19c0,4.14-4.1,8.21-14.3,8.21c-8.93,0-15.27-3.09-15.27-3.09l3.11-4.98c0,0,5.83,2.4,12.17,2.4
				c6.02,0,7.72-1.19,7.72-2.4c0-1.29-0.9-1.7-4.52-1.7H183.51z"/>
			<path class="st376" d="M214.53,75.06h1.07V56.98h10.58v-0.85h-22.23v0.85h10.58V75.06z M211.78,77.47V59.39H201.2v-5.67h27.74
				v5.67h-10.58v18.08H211.78z"/>
			<path class="st376" d="M236.03,56.13h-1.06v18.93h1.06V56.13z M238.79,77.47h-6.58V53.72h6.58V77.47z"/>
			<path class="st376" d="M254.95,75.06h4.52l9.54-18.93h-1.07l-9.1,18.08h-3.21l-9.09-18.08h-1.14L254.95,75.06z M257.23,71.37
				l8.85-17.65h7.17l-11.92,23.75h-8.2L241.2,53.72h7.17L257.23,71.37z"/>
			<path class="st376" d="M279.56,68.18h9.65l-4.62-8.69h-0.41L279.56,68.18z M275.22,70.58l7.27-13.6h3.79l7.23,13.6H275.22z
				 M274.77,71.43h19.2l1.96,3.63h1.14l-10.1-18.93h-5.17l-10.1,18.93h1.13L274.77,71.43z M276.56,73.85l-1.93,3.63h-7.23
				l12.64-23.75h8.68l12.65,23.75h-7.24l-1.9-3.63H276.56z"/>
			<path class="st376" d="M306.54,75.06h18.27v-0.85h-17.2V56.13h-1.07V75.06z M327.57,77.47h-23.78V53.72h6.58v18.09h17.2V77.47z"
				/>
			<path class="st376" d="M116.89,87.49v2.82h6.46v1.66h-6.46v4.89h-1.83V85.82h11.13v1.66H116.89z"/>
			<path class="st376" d="M138.75,95.72c-1.22,0.91-2.93,1.46-4.85,1.46c-1.92,0-3.67-0.56-4.88-1.48
				c-1.48-1.11-2.23-2.58-2.23-4.37c0-1.77,0.76-3.23,2.26-4.36c1.23-0.93,2.96-1.49,4.85-1.49c1.88,0,3.61,0.56,4.83,1.49
				c1.48,1.13,2.24,2.61,2.24,4.36C140.97,93.13,140.23,94.6,138.75,95.72z M137.42,88.19c-0.88-0.64-2.13-1.04-3.52-1.04
				c-3.08,0-5.2,1.77-5.2,4.18c0,2.48,2.03,4.18,5.2,4.18c3.16,0,5.17-1.71,5.17-4.18C139.07,90.05,138.52,89,137.42,88.19z"/>
			<path class="st376" d="M155.5,95.72c-1.22,0.91-2.93,1.46-4.85,1.46c-1.92,0-3.67-0.56-4.88-1.48c-1.48-1.11-2.22-2.58-2.22-4.37
				c0-1.77,0.76-3.23,2.26-4.36c1.23-0.93,2.96-1.49,4.85-1.49c1.88,0,3.61,0.56,4.83,1.49c1.48,1.13,2.24,2.61,2.24,4.36
				C157.73,93.13,156.98,94.6,155.5,95.72z M154.18,88.19c-0.88-0.64-2.13-1.04-3.52-1.04c-3.08,0-5.2,1.77-5.2,4.18
				c0,2.48,2.03,4.18,5.2,4.18c3.15,0,5.17-1.71,5.17-4.18C155.82,90.05,155.28,89,154.18,88.19z"/>
			<path class="st376" d="M174.1,91.46c0,1.55-0.61,2.91-1.78,3.93c-1.07,0.95-2.51,1.46-4.12,1.46h-7.33V85.82h6.98
				C171.71,85.82,174.1,88.05,174.1,91.46z M172.12,91.42c0-2.35-1.65-3.93-4.12-3.93h-5.3v7.71h5.66
				C170.55,95.2,172.12,93.63,172.12,91.42z"/>
			<path class="st376" d="M175.34,96.86V95.2h2.36v1.66H175.34z"/>
			<path class="st376" d="M185.73,96.86V85.82h1.83v11.04H185.73z"/>
			<path class="st376" d="M204.52,91.46c0,1.55-0.61,2.91-1.78,3.93c-1.07,0.95-2.51,1.46-4.12,1.46h-7.33V85.82h6.98
				C202.13,85.82,204.52,88.05,204.52,91.46z M202.54,91.42c0-2.35-1.65-3.93-4.12-3.93h-5.3v7.71h5.66
				C200.97,95.2,202.54,93.63,202.54,91.42z"/>
			<path class="st376" d="M207.58,96.86V85.82h11.13v1.66h-9.3v2.82h6.46v1.66h-6.46v3.23h9.72v1.66H207.58z"/>
			<path class="st376" d="M232.64,96.86l-1.28-2.47h-7.42l-1.28,2.47h-2l5.84-11.04h2.3l5.84,11.04H232.64z M227.66,87.39
				l-2.82,5.34h5.62L227.66,87.39z"/>
			<path class="st376" d="M240.8,87.17c-2.29,0-3.49,0.58-3.49,1.49c0,0.5,0.32,0.84,0.96,1.07c1.2,0.43,3.02,0.29,5.26,0.58
				c2.74,0.35,4.05,1.3,4.05,3.14c0,2.32-2.1,3.67-6.02,3.67c-2.8,0-4.97-0.59-6.57-1.86l1.01-1.33c1.77,1.08,3.57,1.59,5.58,1.59
				c2.62,0,4.02-0.76,4.02-1.95c0-1.57-1.88-1.57-5.12-1.78c-3.4-0.23-5.11-0.76-5.11-2.88c0-2.06,1.98-3.35,5.56-3.35
				c2.38,0,4.38,0.55,5.98,1.63l-1.11,1.23C244.15,87.58,242.54,87.17,240.8,87.17z"/>
			<path class="st376" d="M249.69,96.86V95.2h2.36v1.66H249.69z"/>
			<path class="st376" d="M273.41,96.86v-9.02h-0.05l-5.73,7.19l-5.69-7.19h-0.05v9.02h-1.83V85.82h2.27l5.3,6.68l5.32-6.68h2.27
				v11.04H273.41z"/>
			<path class="st376" d="M285.17,97.2c-3.87,0-6.27-1.66-6.27-3.9v-7.47h1.83v7.03c0,1.71,1.52,2.67,4.44,2.67
				c2.9,0,4.4-0.96,4.4-2.67v-7.03h1.83v7.47C291.4,95.55,289.02,97.2,285.17,97.2z"/>
			<path class="st376" d="M299.73,87.17c-2.29,0-3.49,0.58-3.49,1.49c0,0.5,0.32,0.84,0.96,1.07c1.2,0.43,3.02,0.29,5.26,0.58
				c2.74,0.35,4.05,1.3,4.05,3.14c0,2.32-2.1,3.67-6.02,3.67c-2.8,0-4.97-0.59-6.57-1.86l1.01-1.33c1.77,1.08,3.57,1.59,5.58,1.59
				c2.62,0,4.02-0.76,4.02-1.95c0-1.57-1.88-1.57-5.12-1.78c-3.4-0.23-5.11-0.76-5.11-2.88c0-2.06,1.98-3.35,5.56-3.35
				c2.38,0,4.38,0.55,5.98,1.63l-1.11,1.23C303.08,87.58,301.47,87.17,299.73,87.17z"/>
			<path class="st376" d="M309.43,96.86V85.82h1.83v11.04H309.43z"/>
			<path class="st376" d="M326.2,88.93c-1.16-1.23-2.67-1.78-4.69-1.78c-3.08,0-5.17,1.77-5.17,4.16c0,2.48,2.01,4.18,5.27,4.18
				c1.98,0,3.43-0.55,4.6-1.81l1.57,0.87c-1.6,1.88-3.54,2.62-6.28,2.62c-1.92,0-3.66-0.55-4.86-1.46
				c-1.48-1.11-2.21-2.59-2.21-4.39c0-1.77,0.75-3.23,2.24-4.36c1.22-0.93,2.94-1.48,4.83-1.48c2.71,0,4.91,0.99,6.36,2.87
				L326.2,88.93z"/>
			<path class="st376" d="M329.89,96.86V95.2h2.36v1.66H329.89z"/>
		</g>
	</g>
</g>
</svg>
