<?xml version="1.0" encoding="utf-8"?>
<!-- Generator: Adobe Illustrator 16.0.0, SVG Export Plug-In . SVG Version: 6.00 Build 0)  -->
<!DOCTYPE svg PUBLIC "-//W3C//DTD SVG 1.1//EN" "http://www.w3.org/Graphics/SVG/1.1/DTD/svg11.dtd">
<svg version="1.1" id="Layer_1" xmlns="http://www.w3.org/2000/svg" xmlns:xlink="http://www.w3.org/1999/xlink" x="0px" y="0px"
	 width="297.04px" height="56.34px" viewBox="0 0 297.04 56.34" style="enable-background:new 0 0 297.04 56.34;"
	 xml:space="preserve">
<style type="text/css">
<![CDATA[
	.st0{fill:#FFFFFF;}
	.st1{fill:#034E5E;}
]]>
</style>
<g>
	<g>
		<path class="st0" d="M19.28,15.46l-0.35-2.38h-2.48l-0.39,2.38h-2.69l2.83-14.61h3.08l2.73,14.61H19.28z M17.75,4.55l-0.97,6.27
			h1.86L17.75,4.55z"/>
		<path class="st0" d="M33.43,15.46l0.25-12.66l-2.36,12.66h-2.5L26.4,2.79l0.21,12.66h-2.65V0.85h4.39l1.72,10.22L31.8,0.85h4.33
			v14.61H33.43z"/>
		<path class="st0" d="M44.01,15.46l-0.35-2.38h-2.48l-0.39,2.38h-2.69l2.83-14.61h3.08l2.73,14.61H44.01z M42.48,4.55l-0.97,6.27
			h1.86L42.48,4.55z"/>
		<path class="st0" d="M53.55,15.46L50.97,4.51l0.23,10.95h-2.52V0.85h3.46l2.63,10.72L54.48,0.85h2.46v14.61H53.55z"/>
		<path class="st0" d="M67.75,12.33c-0.08,1.55-0.79,2.34-1.37,2.67c-0.75,0.43-1.51,0.46-2.32,0.46h-4.33V0.85h4.95
			c0.39,0,1.22,0.06,2.01,0.72c0.99,0.85,1.08,1.92,1.08,3.12v6.83C67.77,11.79,67.77,12.06,67.75,12.33z M65.08,4.47
			c0-0.46,0.02-0.91-0.37-1.24c-0.35-0.29-0.81-0.25-1.22-0.25h-1.05v10.35h0.95c0.25,0,0.52,0,0.77-0.04
			c0.87-0.17,0.93-0.81,0.93-1.53V4.47z"/>
		<path class="st0" d="M75.47,15.46l-0.35-2.38h-2.48l-0.39,2.38h-2.69l2.83-14.61h3.08l2.73,14.61H75.47z M73.94,4.55l-0.97,6.27
			h1.86L73.94,4.55z"/>
		<path class="st0" d="M88.3,3.1v3.66h4.18v2.17H88.3v6.52h-2.71V0.85h7.16V3.1H88.3z"/>
		<path class="st0" d="M100.27,15.46L98.2,8.98h-1.01v6.48h-2.69V0.85h5.38c1.78,0,2.63,0.83,2.63,2.61V6.1
			c0,1.45-0.43,2.11-1.72,2.5l2.28,6.85H100.27z M99.83,4.14c0-0.91-0.31-1.2-1.24-1.2h-1.41v3.89h1.41c0.93,0,1.24-0.33,1.24-1.39
			V4.14z"/>
		<path class="st0" d="M105.13,15.46V0.85h7.08v2.21h-4.39V6.5h4.14v2.21h-4.14v4.49h4.59v2.25H105.13z"/>
		<path class="st0" d="M114.49,15.46V0.85h2.67v14.61H114.49z"/>
		<path class="st0" d="M124.36,2.96v12.5h-2.71V2.96h-2.69V0.85h8.11v2.11H124.36z"/>
		<path class="st0" d="M133.94,15.46l-0.35-2.38h-2.48l-0.39,2.38h-2.69l2.83-14.61h3.08l2.73,14.61H133.94z M132.41,4.55
			l-0.97,6.27h1.86L132.41,4.55z"/>
		<path class="st0" d="M144.23,15.46v-0.87c-0.29,0.31-0.39,0.41-0.58,0.56c-0.79,0.6-1.7,0.62-2.03,0.62
			c-1.82,0-2.65-0.97-2.94-1.7c-0.17-0.41-0.21-0.85-0.21-1.28V4.47c0-0.66,0.04-1.32,0.27-1.94c0.6-1.61,2.4-1.99,3.89-1.99
			c1.18,0,2.77,0.25,3.5,1.34c0.41,0.62,0.39,1.34,0.39,1.55v2.13h-2.69V4.16c0-0.5,0.04-0.99-0.46-1.3
			c-0.12-0.08-0.39-0.21-0.81-0.21c-0.12,0-0.54,0-0.85,0.23c-0.41,0.29-0.52,0.75-0.52,1.66v7.72c0,0.08-0.02,0.43,0.1,0.77
			c0.12,0.31,0.39,0.66,1.16,0.66c0.15,0,0.7,0.04,1.06-0.37c0.33-0.35,0.31-0.85,0.31-1.3V9.72h-1.66V7.53h4.34v7.92H144.23z"/>
	</g>
	<g>
		<path class="st0" d="M154.21,6.91V6.87c0-1.7,1.39-3.06,3.08-3.06s3.08,1.37,3.08,3.06v0.04c0,1.7-1.39,3.06-3.08,3.06
			S154.21,8.61,154.21,6.91z"/>
	</g>
	<g>
		<path class="st0" d="M172.98,15.46l-2.07-6.48h-1.01v6.48h-2.69V0.85h5.38c1.78,0,2.63,0.83,2.63,2.61V6.1
			c0,1.45-0.43,2.11-1.72,2.5l2.28,6.85H172.98z M172.54,4.14c0-0.91-0.31-1.2-1.24-1.2h-1.41v3.89h1.41c0.93,0,1.24-0.33,1.24-1.39
			V4.14z"/>
		<path class="st0" d="M177.84,15.46V0.85h2.67v14.61H177.84z"/>
		<path class="st0" d="M190.96,13.78c-0.7,2.03-3.41,1.99-3.72,1.99c-0.62,0-1.2-0.1-1.39-0.15c-1.08-0.21-2.03-0.68-2.46-1.74
			c-0.21-0.54-0.21-0.99-0.21-1.53V4.41c0-0.25,0.02-0.52,0.04-0.77c0.04-0.93,0.29-1.66,1.03-2.25c0.6-0.48,1.41-0.85,3.02-0.85
			c0.93,0,1.92,0.12,2.73,0.66c0.39,0.27,0.72,0.64,0.91,1.08c0.23,0.48,0.25,0.76,0.25,1.66v2.23h-2.65V4.32
			c0-1.12-0.19-1.72-1.39-1.72c-1.03,0-1.24,0.64-1.24,1.59v7.82c0,0.95,0.21,1.66,1.32,1.66c1.2,0,1.3-0.68,1.3-1.8v-1.9h2.65v2.07
			C191.17,12.62,191.15,13.24,190.96,13.78z"/>
		<path class="st0" d="M198.66,15.46V8.77h-2.46v6.68h-2.69V0.85h2.69v5.73h2.46V0.85h2.69v14.61H198.66z"/>
		<path class="st0" d="M209.24,15.46l-0.35-2.38h-2.48l-0.39,2.38h-2.69l2.83-14.61h3.08l2.73,14.61H209.24z M207.71,4.55
			l-0.97,6.27h1.86L207.71,4.55z"/>
		<path class="st0" d="M219.67,15.46l-2.07-6.48h-1.01v6.48h-2.69V0.85h5.38c1.78,0,2.63,0.83,2.63,2.61V6.1
			c0,1.45-0.43,2.11-1.72,2.5l2.28,6.85H219.67z M219.24,4.14c0-0.91-0.31-1.2-1.24-1.2h-1.41v3.89H218c0.93,0,1.24-0.33,1.24-1.39
			V4.14z"/>
		<path class="st0" d="M232.54,12.33c-0.08,1.55-0.79,2.34-1.37,2.67c-0.75,0.43-1.51,0.46-2.32,0.46h-4.33V0.85h4.95
			c0.39,0,1.22,0.06,2.01,0.72c0.99,0.85,1.08,1.92,1.08,3.12v6.83C232.56,11.79,232.56,12.06,232.54,12.33z M229.88,4.47
			c0-0.46,0.02-0.91-0.37-1.24c-0.35-0.29-0.81-0.25-1.22-0.25h-1.05v10.35h0.95c0.25,0,0.52,0,0.77-0.04
			c0.87-0.17,0.93-0.81,0.93-1.53V4.47z"/>
		<path class="st0" d="M248.61,12.99c-0.02,0.35-0.1,1.63-1.28,2.17c-0.64,0.29-1.39,0.29-2.07,0.29h-4.61V0.85h4.53
			c0.87,0,1.7-0.02,2.42,0.56c0.83,0.64,0.87,1.49,0.87,2.42v1.3c0,0.04,0,0.64-0.08,1.04c-0.27,1.22-1.18,1.34-1.61,1.43
			c0.85,0.17,1.18,0.37,1.45,0.7c0.46,0.6,0.41,1.28,0.41,1.97v2.07C248.63,12.56,248.61,12.79,248.61,12.99z M245.79,4.28
			c0-0.35-0.02-0.46-0.06-0.64c-0.19-0.68-0.77-0.7-1.32-0.7h-1.08v3.68h0.97c0.37,0,0.56-0.02,0.72-0.04
			c0.52-0.1,0.77-0.41,0.77-1.3V4.28z M245.98,10.16c0-0.43,0-0.6-0.08-0.81c-0.21-0.6-0.87-0.62-1.41-0.62h-1.16v4.61h1.14
			c0.23,0,0.48,0,0.68-0.04c0.58-0.08,0.83-0.43,0.83-1.43V10.16z"/>
		<path class="st0" d="M251.28,15.46V0.85h2.69v12.39h3.95v2.21H251.28z"/>
		<path class="st0" d="M264.83,15.46l-0.35-2.38H262l-0.39,2.38h-2.69l2.83-14.61h3.08l2.73,14.61H264.83z M263.3,4.55l-0.97,6.27
			h1.86L263.3,4.55z"/>
		<path class="st0" d="M269.51,15.46V0.85h2.67v14.61H269.51z"/>
		<path class="st0" d="M282.57,13.53c-0.33,1.18-1.3,2.23-3.79,2.23c-1.03,0-2.13-0.15-3-0.83c-0.48-0.37-0.66-0.77-0.77-0.99
			c-0.17-0.41-0.29-0.68-0.29-1.51V10.3h2.67V12c0,0.54-0.04,1.16,0.48,1.49c0.17,0.1,0.41,0.21,0.83,0.21
			c0.48,0,0.75-0.1,0.93-0.27c0.39-0.31,0.39-0.95,0.39-1.95c0-0.19,0.04-0.85-0.29-1.34c-0.21-0.31-0.52-0.5-0.62-0.58l-2.54-1.72
			c-0.56-0.37-0.85-0.6-1.22-1.2c-0.31-0.52-0.52-1.08-0.52-2.32c0-0.21-0.02-1.24,0.35-2.01c0.83-1.78,3.33-1.78,3.62-1.78
			c0.43,0,2.77,0,3.54,1.92c0.14,0.37,0.23,0.52,0.23,1.22v1.45h-2.69V3.64c0-0.43-0.17-1.06-1.2-1.06c-0.62,0-1.2,0.23-1.2,1.45
			c0,0.06-0.04,0.93,0.29,1.41c0.08,0.12,0.27,0.27,0.56,0.48l2.61,1.8c0.19,0.12,0.77,0.56,1.2,1.14c0.64,0.85,0.58,1.49,0.58,2.52
			C282.71,12.5,282.71,12.97,282.57,13.53z"/>
	</g>
	<g>
		<path class="st0" d="M8.5,36.09l0.22-11.36L6.61,36.09H4.36L2.19,24.74l0.19,11.36H0v-13.1h3.93l1.54,9.17l1.56-9.17h3.88v13.1
			H8.5z"/>
		<path class="st0" d="M13.04,36.09v-13.1h2.39v13.1H13.04z"/>
		<path class="st0" d="M24.44,34.59c-0.63,1.82-3.06,1.78-3.34,1.78c-0.56,0-1.08-0.09-1.24-0.13c-0.96-0.19-1.82-0.61-2.21-1.56
			c-0.19-0.48-0.19-0.89-0.19-1.37v-7.12c0-0.22,0.02-0.46,0.04-0.69c0.04-0.83,0.26-1.48,0.93-2.02c0.54-0.43,1.26-0.76,2.71-0.76
			c0.83,0,1.73,0.11,2.45,0.59c0.35,0.24,0.65,0.58,0.82,0.96c0.2,0.43,0.22,0.69,0.22,1.48v2h-2.38v-1.65c0-1-0.17-1.54-1.24-1.54
			c-0.93,0-1.11,0.58-1.11,1.43v7.01c0,0.85,0.19,1.48,1.19,1.48c1.08,0,1.17-0.61,1.17-1.61v-1.71h2.38v1.86
			C24.62,33.55,24.6,34.11,24.44,34.59z"/>
		<path class="st0" d="M30.95,36.09V30.1h-2.21v5.99h-2.41v-13.1h2.41v5.14h2.21v-5.14h2.41v13.1H30.95z"/>
		<path class="st0" d="M35.5,36.09v-13.1h6.35v1.99h-3.93v3.08h3.71v1.99h-3.71v4.03h4.12v2.02H35.5z"/>
		<path class="st0" d="M43.51,36.09v-13.1h2.41v11.11h3.54v1.99H43.51z"/>
		<path class="st0" d="M50.75,36.09v-13.1h2.41v11.11h3.54v1.99H50.75z"/>
		<path class="st0" d="M57.97,36.09v-13.1h6.35v1.99h-3.93v3.08h3.71v1.99h-3.71v4.03h4.12v2.02H57.97z"/>
		<path class="st0" d="M77.66,33.89c-0.02,0.32-0.09,1.47-1.15,1.95c-0.58,0.26-1.24,0.26-1.86,0.26h-4.14v-13.1h4.06
			c0.78,0,1.52-0.02,2.17,0.5c0.74,0.58,0.78,1.34,0.78,2.17v1.17c0,0.04,0,0.58-0.07,0.93c-0.24,1.09-1.06,1.21-1.45,1.28
			c0.76,0.15,1.06,0.33,1.3,0.63c0.41,0.54,0.37,1.15,0.37,1.76v1.86C77.68,33.5,77.66,33.7,77.66,33.89z M75.13,26.07
			c0-0.32-0.02-0.41-0.06-0.58c-0.17-0.61-0.69-0.63-1.19-0.63h-0.96v3.3h0.87c0.33,0,0.5-0.02,0.65-0.04
			c0.46-0.09,0.69-0.37,0.69-1.17V26.07z M75.3,31.34c0-0.39,0-0.54-0.07-0.72c-0.19-0.54-0.78-0.56-1.26-0.56h-1.04v4.14h1.02
			c0.2,0,0.43,0,0.61-0.04c0.52-0.07,0.74-0.39,0.74-1.28V31.34z"/>
		<path class="st0" d="M79.68,36.09v-13.1h6.35v1.99h-3.93v3.08h3.71v1.99h-3.71v4.03h4.12v2.02H79.68z"/>
		<path class="st0" d="M92.87,36.09l-1.86-5.81h-0.91v5.81H87.7v-13.1h4.82c1.6,0,2.36,0.74,2.36,2.34v2.38
			c0,1.3-0.39,1.89-1.54,2.25l2.04,6.14H92.87z M92.48,25.94c0-0.82-0.28-1.08-1.11-1.08h-1.26v3.49h1.26c0.83,0,1.11-0.3,1.11-1.24
			V25.94z"/>
		<path class="st0" d="M101.24,36.09l-2.32-9.82l0.2,9.82h-2.26v-13.1h3.1l2.36,9.61l-0.24-9.61h2.21v13.1H101.24z"/>
		<path class="st0" d="M113.21,34.37c-0.3,1.06-1.17,2-3.4,2c-0.93,0-1.91-0.13-2.69-0.74c-0.43-0.33-0.59-0.69-0.69-0.89
			c-0.15-0.37-0.26-0.61-0.26-1.35v-1.91h2.39V33c0,0.48-0.04,1.04,0.43,1.34c0.15,0.09,0.37,0.19,0.74,0.19
			c0.43,0,0.67-0.09,0.83-0.24c0.35-0.28,0.35-0.85,0.35-1.74c0-0.17,0.04-0.76-0.26-1.21c-0.19-0.28-0.46-0.45-0.56-0.52
			l-2.28-1.54c-0.5-0.33-0.76-0.54-1.09-1.08c-0.28-0.46-0.46-0.96-0.46-2.08c0-0.19-0.02-1.11,0.32-1.8c0.74-1.6,2.99-1.6,3.25-1.6
			c0.39,0,2.49,0,3.17,1.73c0.13,0.33,0.2,0.46,0.2,1.09v1.3h-2.41V25.5c0-0.39-0.15-0.95-1.08-0.95c-0.56,0-1.08,0.2-1.08,1.3
			c0,0.06-0.04,0.83,0.26,1.26c0.07,0.11,0.24,0.24,0.5,0.43l2.34,1.61c0.17,0.11,0.69,0.5,1.08,1.02c0.58,0.76,0.52,1.34,0.52,2.26
			C113.34,33.44,113.34,33.87,113.21,34.37z"/>
		<path class="st0" d="M119.11,24.89v11.21h-2.43V24.89h-2.41v-1.89h7.27v1.89H119.11z"/>
		<path class="st0" d="M122.77,36.09v-13.1h6.35v1.99h-3.93v3.08h3.71v1.99h-3.71v4.03h4.12v2.02H122.77z"/>
		<path class="st0" d="M130.79,36.09v-13.1h2.39v13.1H130.79z"/>
	</g>
	<g>
		<path class="st0" d="M139.79,36.09l-2.32-9.82l0.2,9.82h-2.26v-13.1h3.1l2.36,9.61l-0.24-9.61h2.21v13.1H139.79z"/>
	</g>
	<g>
		<path class="st0" d="M148.88,28.54V28.5c0-1.46,1.2-2.64,2.66-2.64s2.66,1.18,2.66,2.64v0.04c0,1.46-1.2,2.64-2.66,2.64
			S148.88,30,148.88,28.54z"/>
	</g>
	<g>
		<path class="st0" d="M170.22,36.09l0.22-11.36l-2.12,11.36h-2.25l-2.17-11.36l0.19,11.36h-2.38v-13.1h3.93l1.54,9.17l1.56-9.17
			h3.88v13.1H170.22z"/>
		<path class="st0" d="M174.77,36.09v-13.1h2.39v13.1H174.77z"/>
		<path class="st0" d="M186.17,34.59c-0.63,1.82-3.06,1.78-3.34,1.78c-0.56,0-1.08-0.09-1.24-0.13c-0.96-0.19-1.82-0.61-2.21-1.56
			c-0.19-0.48-0.19-0.89-0.19-1.37v-7.12c0-0.22,0.02-0.46,0.04-0.69c0.04-0.83,0.26-1.48,0.93-2.02c0.54-0.43,1.26-0.76,2.71-0.76
			c0.83,0,1.73,0.11,2.45,0.59c0.35,0.24,0.65,0.58,0.82,0.96c0.2,0.43,0.22,0.69,0.22,1.48v2h-2.38v-1.65c0-1-0.17-1.54-1.24-1.54
			c-0.93,0-1.11,0.58-1.11,1.43v7.01c0,0.85,0.19,1.48,1.19,1.48c1.08,0,1.17-0.61,1.17-1.61v-1.71h2.38v1.86
			C186.35,33.55,186.33,34.11,186.17,34.59z"/>
		<path class="st0" d="M192.68,36.09V30.1h-2.21v5.99h-2.41v-13.1h2.41v5.14h2.21v-5.14h2.41v13.1H192.68z"/>
		<path class="st0" d="M201.79,36.09l-0.32-2.13h-2.23l-0.35,2.13h-2.41l2.54-13.1h2.76l2.45,13.1H201.79z M200.42,26.32l-0.87,5.62
			h1.67L200.42,26.32z"/>
		<path class="st0" d="M205.59,36.09v-13.1h6.35v1.99h-3.93v3.08h3.71v1.99h-3.71v4.03h4.12v2.02H205.59z"/>
		<path class="st0" d="M213.61,36.09v-13.1h2.41v11.11h3.54v1.99H213.61z"/>
		<path class="st0" d="M232.17,34.37c-0.3,1.06-1.17,2-3.4,2c-0.93,0-1.91-0.13-2.69-0.74c-0.43-0.33-0.59-0.69-0.69-0.89
			c-0.15-0.37-0.26-0.61-0.26-1.35v-1.91h2.39V33c0,0.48-0.04,1.04,0.43,1.34c0.15,0.09,0.37,0.19,0.74,0.19
			c0.43,0,0.67-0.09,0.83-0.24c0.35-0.28,0.35-0.85,0.35-1.74c0-0.17,0.04-0.76-0.26-1.21c-0.19-0.28-0.46-0.45-0.56-0.52
			l-2.28-1.54c-0.5-0.33-0.76-0.54-1.09-1.08c-0.28-0.46-0.46-0.96-0.46-2.08c0-0.19-0.02-1.11,0.32-1.8c0.74-1.6,2.99-1.6,3.25-1.6
			c0.39,0,2.49,0,3.17,1.73c0.13,0.33,0.2,0.46,0.2,1.09v1.3h-2.41V25.5c0-0.39-0.15-0.95-1.08-0.95c-0.56,0-1.08,0.2-1.08,1.3
			c0,0.06-0.04,0.83,0.26,1.26c0.07,0.11,0.24,0.24,0.5,0.43l2.34,1.61c0.17,0.11,0.69,0.5,1.08,1.02c0.58,0.76,0.52,1.34,0.52,2.26
			C232.3,33.44,232.3,33.87,232.17,34.37z"/>
		<path class="st0" d="M240.98,34.59c-0.63,1.82-3.06,1.78-3.34,1.78c-0.56,0-1.08-0.09-1.24-0.13c-0.96-0.19-1.82-0.61-2.21-1.56
			C234,34.2,234,33.79,234,33.31v-7.12c0-0.22,0.02-0.46,0.04-0.69c0.04-0.83,0.26-1.48,0.93-2.02c0.54-0.43,1.26-0.76,2.71-0.76
			c0.83,0,1.73,0.11,2.45,0.59c0.35,0.24,0.65,0.58,0.82,0.96c0.2,0.43,0.22,0.69,0.22,1.48v2h-2.38v-1.65c0-1-0.17-1.54-1.24-1.54
			c-0.93,0-1.11,0.58-1.11,1.43v7.01c0,0.85,0.19,1.48,1.19,1.48c1.08,0,1.17-0.61,1.17-1.61v-1.71h2.38v1.86
			C241.17,33.55,241.15,34.11,240.98,34.59z"/>
		<path class="st0" d="M247.51,36.09V30.1h-2.21v5.99h-2.41v-13.1h2.41v5.14h2.21v-5.14h2.41v13.1H247.51z"/>
		<path class="st0" d="M261.54,36.09H259l-1.26-8.94l-1.41,8.94h-2.58l-2.39-13.1h2.5l1.32,9.87l1.41-9.87h2.28l1.37,9.87l1.37-9.87
			h2.45L261.54,36.09z"/>
		<path class="st0" d="M270.02,36.09l-0.32-2.13h-2.23l-0.35,2.13h-2.41l2.54-13.1h2.76l2.45,13.1H270.02z M268.65,26.32l-0.87,5.62
			h1.67L268.65,26.32z"/>
		<path class="st0" d="M279,36.09l-1.86-5.81h-0.91v5.81h-2.41v-13.1h4.82c1.6,0,2.36,0.74,2.36,2.34v2.38
			c0,1.3-0.39,1.89-1.54,2.25l2.04,6.14H279z M278.61,25.94c0-0.82-0.28-1.08-1.11-1.08h-1.26v3.49h1.26c0.83,0,1.11-0.3,1.11-1.24
			V25.94z"/>
		<path class="st0" d="M286.94,24.89v11.21h-2.43V24.89h-2.41v-1.89h7.27v1.89H286.94z"/>
		<path class="st0" d="M292.75,34.05h4.21v2.04h-6.85v-1.52l4.17-9.56h-3.64v-2.02h6.38v1.3L292.75,34.05z"/>
	</g>
	<g>
		<path class="st0" d="M95.88,56.08l-0.3-2.01h-2.1l-0.33,2.01h-2.27l2.4-12.35h2.61l2.31,12.35H95.88z M94.59,46.86l-0.82,5.3h1.57
			L94.59,46.86z"/>
		<path class="st0" d="M106.95,53.44c-0.07,1.31-0.66,1.98-1.15,2.26c-0.63,0.37-1.28,0.38-1.96,0.38h-3.66V43.73h4.18
			c0.33,0,1.03,0.05,1.7,0.61c0.84,0.72,0.91,1.63,0.91,2.64v5.77C106.97,52.98,106.97,53.21,106.95,53.44z M104.7,46.79
			c0-0.38,0.02-0.77-0.31-1.05c-0.3-0.24-0.68-0.21-1.03-0.21h-0.89v8.74h0.8c0.21,0,0.44,0,0.65-0.04
			c0.73-0.14,0.79-0.68,0.79-1.29V46.79z"/>
		<path class="st0" d="M114.4,56.08l-1.75-5.47h-0.86v5.47h-2.27V43.73h4.55c1.5,0,2.22,0.7,2.22,2.2v2.24
			c0,1.22-0.37,1.78-1.45,2.12l1.92,5.79H114.4z M114.04,46.51c0-0.77-0.26-1.01-1.05-1.01h-1.19v3.29h1.19
			c0.79,0,1.05-0.28,1.05-1.17V46.51z"/>
		<path class="st0" d="M118.86,56.08V43.73h2.26v12.35H118.86z"/>
		<path class="st0" d="M128.13,56.08l-0.3-2.01h-2.1l-0.33,2.01h-2.27l2.4-12.35h2.61l2.31,12.35H128.13z M126.83,46.86l-0.82,5.3
			h1.57L126.83,46.86z"/>
		<path class="st0" d="M136.56,56.08l-2.19-9.25l0.19,9.25h-2.13V43.73h2.92l2.22,9.06l-0.23-9.06h2.08v12.35H136.56z"/>
		<path class="st0" d="M146.26,56.08l-2.19-9.25l0.19,9.25h-2.13V43.73h2.92l2.22,9.06l-0.23-9.06h2.08v12.35H146.26z"/>
		<path class="st0" d="M151.82,56.08V43.73h5.98v1.87h-3.71v2.9h3.5v1.87h-3.5v3.79h3.88v1.91H151.82z"/>
		<path class="st0" d="M171.51,54.66c-0.59,1.71-2.89,1.68-3.15,1.68c-0.53,0-1.01-0.09-1.17-0.12c-0.91-0.17-1.71-0.58-2.08-1.47
			c-0.17-0.45-0.17-0.84-0.17-1.29v-6.71c0-0.21,0.02-0.44,0.04-0.65c0.04-0.79,0.24-1.4,0.87-1.91c0.51-0.4,1.19-0.72,2.55-0.72
			c0.79,0,1.63,0.1,2.31,0.56c0.33,0.23,0.61,0.54,0.77,0.91c0.19,0.4,0.21,0.65,0.21,1.4v1.89h-2.24v-1.56
			c0-0.94-0.16-1.45-1.17-1.45c-0.87,0-1.05,0.54-1.05,1.35v6.61c0,0.8,0.17,1.4,1.12,1.4c1.01,0,1.1-0.58,1.1-1.52v-1.61h2.24v1.75
			C171.69,53.68,171.67,54.21,171.51,54.66z"/>
		<path class="st0" d="M178.31,56.08l-0.3-2.01h-2.1l-0.33,2.01h-2.27l2.4-12.35h2.61l2.31,12.35H178.31z M177.02,46.86l-0.82,5.3
			h1.57L177.02,46.86z"/>
		<path class="st0" d="M182.6,56.08V43.73h2.27v10.47h3.34v1.87H182.6z"/>
		<path class="st0" d="M194.09,56.08h-2.29l-2.45-12.35h2.41l1.21,8.17l1.12-8.17h2.33L194.09,56.08z"/>
		<path class="st0" d="M204.38,55.52c-0.73,0.68-1.73,0.82-2.68,0.82c-0.91,0-1.84-0.12-2.57-0.72c-0.37-0.3-0.54-0.59-0.61-0.77
			c-0.21-0.44-0.26-0.96-0.26-1.42v-6.92c0-0.26-0.05-1.5,0.77-2.24c0.45-0.4,1.31-0.8,2.69-0.8c1.78,0,2.73,0.73,3.1,1.45
			c0.19,0.4,0.28,0.79,0.28,1.64v6.87C205.1,54.22,204.98,54.94,204.38,55.52z M202.81,46.72c0-0.07,0.05-0.63-0.14-1
			c-0.1-0.23-0.37-0.54-0.94-0.54c-0.12,0-0.45,0.02-0.73,0.23c-0.51,0.35-0.44,0.89-0.44,1.4v6.24c0,0.37-0.02,0.82,0.21,1.14
			c0.26,0.37,0.82,0.37,0.93,0.37c0.1,0,0.44-0.02,0.72-0.21c0.42-0.3,0.4-0.79,0.4-1.24V46.72z"/>
	</g>
	<g>
		<path class="st1" d="M19.28,14.92l-0.35-2.38h-2.48l-0.39,2.38h-2.69l2.83-14.61h3.08l2.73,14.61H19.28z M17.75,4.01l-0.97,6.27
			h1.86L17.75,4.01z"/>
		<path class="st1" d="M33.43,14.92l0.25-12.66l-2.36,12.66h-2.5L26.4,2.25l0.21,12.66h-2.65V0.31h4.39l1.72,10.22L31.8,0.31h4.33
			v14.61H33.43z"/>
		<path class="st1" d="M44.01,14.92l-0.35-2.38h-2.48l-0.39,2.38h-2.69l2.83-14.61h3.08l2.73,14.61H44.01z M42.48,4.01l-0.97,6.27
			h1.86L42.48,4.01z"/>
		<path class="st1" d="M53.55,14.92L50.97,3.97l0.23,10.95h-2.52V0.31h3.46l2.63,10.72L54.48,0.31h2.46v14.61H53.55z"/>
		<path class="st1" d="M67.75,11.79c-0.08,1.55-0.79,2.34-1.37,2.67c-0.75,0.43-1.51,0.46-2.32,0.46h-4.33V0.31h4.95
			c0.39,0,1.22,0.06,2.01,0.72c0.99,0.85,1.08,1.92,1.08,3.12v6.83C67.77,11.26,67.77,11.52,67.75,11.79z M65.08,3.93
			c0-0.46,0.02-0.91-0.37-1.24c-0.35-0.29-0.81-0.25-1.22-0.25h-1.05v10.35h0.95c0.25,0,0.52,0,0.77-0.04
			c0.87-0.17,0.93-0.81,0.93-1.53V3.93z"/>
		<path class="st1" d="M75.47,14.92l-0.35-2.38h-2.48l-0.39,2.38h-2.69l2.83-14.61h3.08l2.73,14.61H75.47z M73.94,4.01l-0.97,6.27
			h1.86L73.94,4.01z"/>
		<path class="st1" d="M88.3,2.57v3.66h4.18V8.4H88.3v6.52h-2.71V0.31h7.16v2.25H88.3z"/>
		<path class="st1" d="M100.27,14.92L98.2,8.44h-1.01v6.48h-2.69V0.31h5.38c1.78,0,2.63,0.83,2.63,2.61v2.65
			c0,1.45-0.43,2.11-1.72,2.5l2.28,6.85H100.27z M99.83,3.6c0-0.91-0.31-1.2-1.24-1.2h-1.41v3.89h1.41c0.93,0,1.24-0.33,1.24-1.39
			V3.6z"/>
		<path class="st1" d="M105.13,14.92V0.31h7.08v2.21h-4.39v3.43h4.14v2.21h-4.14v4.49h4.59v2.25H105.13z"/>
		<path class="st1" d="M114.49,14.92V0.31h2.67v14.61H114.49z"/>
		<path class="st1" d="M124.36,2.42v12.5h-2.71V2.42h-2.69V0.31h8.11v2.11H124.36z"/>
		<path class="st1" d="M133.94,14.92l-0.35-2.38h-2.48l-0.39,2.38h-2.69l2.83-14.61h3.08l2.73,14.61H133.94z M132.41,4.01
			l-0.97,6.27h1.86L132.41,4.01z"/>
		<path class="st1" d="M144.23,14.92v-0.87c-0.29,0.31-0.39,0.41-0.58,0.56c-0.79,0.6-1.7,0.62-2.03,0.62
			c-1.82,0-2.65-0.97-2.94-1.7c-0.17-0.41-0.21-0.85-0.21-1.28V3.93c0-0.66,0.04-1.32,0.27-1.94c0.6-1.61,2.4-1.99,3.89-1.99
			c1.18,0,2.77,0.25,3.5,1.34c0.41,0.62,0.39,1.34,0.39,1.55v2.13h-2.69V3.62c0-0.5,0.04-0.99-0.46-1.3
			c-0.12-0.08-0.39-0.21-0.81-0.21c-0.12,0-0.54,0-0.85,0.23c-0.41,0.29-0.52,0.75-0.52,1.66v7.72c0,0.08-0.02,0.43,0.1,0.77
			c0.12,0.31,0.39,0.66,1.16,0.66c0.15,0,0.7,0.04,1.06-0.37c0.33-0.35,0.31-0.85,0.31-1.3V9.19h-1.66V6.99h4.34v7.92H144.23z"/>
	</g>
	<g>
		<path class="st1" d="M154.21,6.37V6.33c0-1.7,1.39-3.06,3.08-3.06s3.08,1.37,3.08,3.06v0.04c0,1.7-1.39,3.06-3.08,3.06
			S154.21,8.07,154.21,6.37z"/>
	</g>
	<g>
		<path class="st1" d="M172.98,14.92l-2.07-6.48h-1.01v6.48h-2.69V0.31h5.38c1.78,0,2.63,0.83,2.63,2.61v2.65
			c0,1.45-0.43,2.11-1.72,2.5l2.28,6.85H172.98z M172.54,3.6c0-0.91-0.31-1.2-1.24-1.2h-1.41v3.89h1.41c0.93,0,1.24-0.33,1.24-1.39
			V3.6z"/>
		<path class="st1" d="M177.84,14.92V0.31h2.67v14.61H177.84z"/>
		<path class="st1" d="M190.96,13.24c-0.7,2.03-3.41,1.99-3.72,1.99c-0.62,0-1.2-0.1-1.39-0.15c-1.08-0.21-2.03-0.68-2.46-1.74
			c-0.21-0.54-0.21-0.99-0.21-1.53V3.87c0-0.25,0.02-0.52,0.04-0.77c0.04-0.93,0.29-1.66,1.03-2.25c0.6-0.48,1.41-0.85,3.02-0.85
			c0.93,0,1.92,0.12,2.73,0.66c0.39,0.27,0.72,0.64,0.91,1.08c0.23,0.48,0.25,0.76,0.25,1.66v2.23h-2.65V3.79
			c0-1.12-0.19-1.72-1.39-1.72c-1.03,0-1.24,0.64-1.24,1.59v7.82c0,0.95,0.21,1.66,1.32,1.66c1.2,0,1.3-0.68,1.3-1.8v-1.9h2.65v2.07
			C191.17,12.08,191.15,12.7,190.96,13.24z"/>
		<path class="st1" d="M198.66,14.92V8.23h-2.46v6.68h-2.69V0.31h2.69v5.73h2.46V0.31h2.69v14.61H198.66z"/>
		<path class="st1" d="M209.24,14.92l-0.35-2.38h-2.48l-0.39,2.38h-2.69l2.83-14.61h3.08l2.73,14.61H209.24z M207.71,4.01
			l-0.97,6.27h1.86L207.71,4.01z"/>
		<path class="st1" d="M219.67,14.92l-2.07-6.48h-1.01v6.48h-2.69V0.31h5.38c1.78,0,2.63,0.83,2.63,2.61v2.65
			c0,1.45-0.43,2.11-1.72,2.5l2.28,6.85H219.67z M219.24,3.6c0-0.91-0.31-1.2-1.24-1.2h-1.41v3.89H218c0.93,0,1.24-0.33,1.24-1.39
			V3.6z"/>
		<path class="st1" d="M232.54,11.79c-0.08,1.55-0.79,2.34-1.37,2.67c-0.75,0.43-1.51,0.46-2.32,0.46h-4.33V0.31h4.95
			c0.39,0,1.22,0.06,2.01,0.72c0.99,0.85,1.08,1.92,1.08,3.12v6.83C232.56,11.26,232.56,11.52,232.54,11.79z M229.88,3.93
			c0-0.46,0.02-0.91-0.37-1.24c-0.35-0.29-0.81-0.25-1.22-0.25h-1.05v10.35h0.95c0.25,0,0.52,0,0.77-0.04
			c0.87-0.17,0.93-0.81,0.93-1.53V3.93z"/>
		<path class="st1" d="M248.61,12.46c-0.02,0.35-0.1,1.63-1.28,2.17c-0.64,0.29-1.39,0.29-2.07,0.29h-4.61V0.31h4.53
			c0.87,0,1.7-0.02,2.42,0.56c0.83,0.64,0.87,1.49,0.87,2.42v1.3c0,0.04,0,0.64-0.08,1.04c-0.27,1.22-1.18,1.34-1.61,1.43
			c0.85,0.17,1.18,0.37,1.45,0.7c0.46,0.6,0.41,1.28,0.41,1.97v2.07C248.63,12.02,248.61,12.25,248.61,12.46z M245.79,3.75
			c0-0.35-0.02-0.46-0.06-0.64c-0.19-0.68-0.77-0.7-1.32-0.7h-1.08v3.68h0.97c0.37,0,0.56-0.02,0.72-0.04
			c0.52-0.1,0.77-0.41,0.77-1.3V3.75z M245.98,9.62c0-0.43,0-0.6-0.08-0.81c-0.21-0.6-0.87-0.62-1.41-0.62h-1.16v4.61h1.14
			c0.23,0,0.48,0,0.68-0.04c0.58-0.08,0.83-0.43,0.83-1.43V9.62z"/>
		<path class="st1" d="M251.28,14.92V0.31h2.69V12.7h3.95v2.21H251.28z"/>
		<path class="st1" d="M264.83,14.92l-0.35-2.38H262l-0.39,2.38h-2.69l2.83-14.61h3.08l2.73,14.61H264.83z M263.3,4.01l-0.97,6.27
			h1.86L263.3,4.01z"/>
		<path class="st1" d="M269.51,14.92V0.31h2.67v14.61H269.51z"/>
		<path class="st1" d="M282.57,12.99c-0.33,1.18-1.3,2.23-3.79,2.23c-1.03,0-2.13-0.15-3-0.83c-0.48-0.37-0.66-0.77-0.77-0.99
			c-0.17-0.41-0.29-0.68-0.29-1.51V9.77h2.67v1.7c0,0.54-0.04,1.16,0.48,1.49c0.17,0.1,0.41,0.21,0.83,0.21
			c0.48,0,0.75-0.1,0.93-0.27c0.39-0.31,0.39-0.95,0.39-1.95c0-0.19,0.04-0.85-0.29-1.34c-0.21-0.31-0.52-0.5-0.62-0.58l-2.54-1.72
			c-0.56-0.37-0.85-0.6-1.22-1.2c-0.31-0.52-0.52-1.08-0.52-2.32c0-0.21-0.02-1.24,0.35-2.01C276.01,0,278.51,0,278.8,0
			c0.43,0,2.77,0,3.54,1.92c0.14,0.37,0.23,0.52,0.23,1.22v1.45h-2.69V3.1c0-0.43-0.17-1.06-1.2-1.06c-0.62,0-1.2,0.23-1.2,1.45
			c0,0.06-0.04,0.93,0.29,1.41c0.08,0.12,0.27,0.27,0.56,0.48l2.61,1.8c0.19,0.12,0.77,0.56,1.2,1.14c0.64,0.85,0.58,1.49,0.58,2.52
			C282.71,11.96,282.71,12.43,282.57,12.99z"/>
	</g>
	<g>
		<path class="st1" d="M8.5,35.56L8.72,24.2L6.61,35.56H4.36L2.19,24.2l0.19,11.36H0v-13.1h3.93l1.54,9.17l1.56-9.17h3.88v13.1H8.5z
			"/>
		<path class="st1" d="M13.04,35.56v-13.1h2.39v13.1H13.04z"/>
		<path class="st1" d="M24.44,34.06c-0.63,1.82-3.06,1.78-3.34,1.78c-0.56,0-1.08-0.09-1.24-0.13c-0.96-0.19-1.82-0.61-2.21-1.56
			c-0.19-0.48-0.19-0.89-0.19-1.37v-7.12c0-0.22,0.02-0.46,0.04-0.69c0.04-0.83,0.26-1.48,0.93-2.02c0.54-0.43,1.26-0.76,2.71-0.76
			c0.83,0,1.73,0.11,2.45,0.59c0.35,0.24,0.65,0.58,0.82,0.96c0.2,0.43,0.22,0.69,0.22,1.48v2h-2.38v-1.65c0-1-0.17-1.54-1.24-1.54
			c-0.93,0-1.11,0.58-1.11,1.43v7.01c0,0.85,0.19,1.48,1.19,1.48c1.08,0,1.17-0.61,1.17-1.61v-1.71h2.38v1.86
			C24.62,33.02,24.6,33.57,24.44,34.06z"/>
		<path class="st1" d="M30.95,35.56v-5.99h-2.21v5.99h-2.41v-13.1h2.41v5.14h2.21v-5.14h2.41v13.1H30.95z"/>
		<path class="st1" d="M35.5,35.56v-13.1h6.35v1.99h-3.93v3.08h3.71v1.99h-3.71v4.03h4.12v2.02H35.5z"/>
		<path class="st1" d="M43.51,35.56v-13.1h2.41v11.11h3.54v1.99H43.51z"/>
		<path class="st1" d="M50.75,35.56v-13.1h2.41v11.11h3.54v1.99H50.75z"/>
		<path class="st1" d="M57.97,35.56v-13.1h6.35v1.99h-3.93v3.08h3.71v1.99h-3.71v4.03h4.12v2.02H57.97z"/>
		<path class="st1" d="M77.66,33.35c-0.02,0.32-0.09,1.47-1.15,1.95c-0.58,0.26-1.24,0.26-1.86,0.26h-4.14v-13.1h4.06
			c0.78,0,1.52-0.02,2.17,0.5c0.74,0.58,0.78,1.34,0.78,2.17v1.17c0,0.04,0,0.58-0.07,0.93c-0.24,1.09-1.06,1.21-1.45,1.28
			c0.76,0.15,1.06,0.33,1.3,0.63c0.41,0.54,0.37,1.15,0.37,1.76v1.86C77.68,32.96,77.66,33.17,77.66,33.35z M75.13,25.54
			c0-0.32-0.02-0.41-0.06-0.58c-0.17-0.61-0.69-0.63-1.19-0.63h-0.96v3.3h0.87c0.33,0,0.5-0.02,0.65-0.04
			c0.46-0.09,0.69-0.37,0.69-1.17V25.54z M75.3,30.81c0-0.39,0-0.54-0.07-0.72c-0.19-0.54-0.78-0.56-1.26-0.56h-1.04v4.14h1.02
			c0.2,0,0.43,0,0.61-0.04c0.52-0.07,0.74-0.39,0.74-1.28V30.81z"/>
		<path class="st1" d="M79.68,35.56v-13.1h6.35v1.99h-3.93v3.08h3.71v1.99h-3.71v4.03h4.12v2.02H79.68z"/>
		<path class="st1" d="M92.87,35.56l-1.86-5.81h-0.91v5.81H87.7v-13.1h4.82c1.6,0,2.36,0.74,2.36,2.34v2.38
			c0,1.3-0.39,1.89-1.54,2.25l2.04,6.14H92.87z M92.48,25.41c0-0.82-0.28-1.08-1.11-1.08h-1.26v3.49h1.26c0.83,0,1.11-0.3,1.11-1.24
			V25.41z"/>
		<path class="st1" d="M101.24,35.56l-2.32-9.82l0.2,9.82h-2.26v-13.1h3.1l2.36,9.61l-0.24-9.61h2.21v13.1H101.24z"/>
		<path class="st1" d="M113.21,33.83c-0.3,1.06-1.17,2-3.4,2c-0.93,0-1.91-0.13-2.69-0.74c-0.43-0.33-0.59-0.69-0.69-0.89
			c-0.15-0.37-0.26-0.61-0.26-1.35v-1.91h2.39v1.52c0,0.48-0.04,1.04,0.43,1.34c0.15,0.09,0.37,0.19,0.74,0.19
			c0.43,0,0.67-0.09,0.83-0.24c0.35-0.28,0.35-0.85,0.35-1.74c0-0.17,0.04-0.76-0.26-1.21c-0.19-0.28-0.46-0.45-0.56-0.52
			l-2.28-1.54c-0.5-0.33-0.76-0.54-1.09-1.08c-0.28-0.46-0.46-0.96-0.46-2.08c0-0.19-0.02-1.11,0.32-1.8c0.74-1.6,2.99-1.6,3.25-1.6
			c0.39,0,2.49,0,3.17,1.73c0.13,0.33,0.2,0.46,0.2,1.09v1.3h-2.41v-1.34c0-0.39-0.15-0.95-1.08-0.95c-0.56,0-1.08,0.2-1.08,1.3
			c0,0.06-0.04,0.83,0.26,1.26c0.07,0.11,0.24,0.24,0.5,0.43l2.34,1.61c0.17,0.11,0.69,0.5,1.08,1.02c0.58,0.76,0.52,1.34,0.52,2.26
			C113.34,32.91,113.34,33.33,113.21,33.83z"/>
		<path class="st1" d="M119.11,24.35v11.21h-2.43V24.35h-2.41v-1.89h7.27v1.89H119.11z"/>
		<path class="st1" d="M122.77,35.56v-13.1h6.35v1.99h-3.93v3.08h3.71v1.99h-3.71v4.03h4.12v2.02H122.77z"/>
		<path class="st1" d="M130.79,35.56v-13.1h2.39v13.1H130.79z"/>
	</g>
	<g>
		<path class="st1" d="M139.79,35.56l-2.32-9.82l0.2,9.82h-2.26v-13.1h3.1l2.36,9.61l-0.24-9.61h2.21v13.1H139.79z"/>
	</g>
	<g>
		<path class="st1" d="M148.88,28v-0.04c0-1.46,1.2-2.64,2.66-2.64s2.66,1.18,2.66,2.64V28c0,1.46-1.2,2.64-2.66,2.64
			S148.88,29.47,148.88,28z"/>
	</g>
	<g>
		<path class="st1" d="M170.22,35.56l0.22-11.36l-2.12,11.36h-2.25l-2.17-11.36l0.19,11.36h-2.38v-13.1h3.93l1.54,9.17l1.56-9.17
			h3.88v13.1H170.22z"/>
		<path class="st1" d="M174.77,35.56v-13.1h2.39v13.1H174.77z"/>
		<path class="st1" d="M186.17,34.06c-0.63,1.82-3.06,1.78-3.34,1.78c-0.56,0-1.08-0.09-1.24-0.13c-0.96-0.19-1.82-0.61-2.21-1.56
			c-0.19-0.48-0.19-0.89-0.19-1.37v-7.12c0-0.22,0.02-0.46,0.04-0.69c0.04-0.83,0.26-1.48,0.93-2.02c0.54-0.43,1.26-0.76,2.71-0.76
			c0.83,0,1.73,0.11,2.45,0.59c0.35,0.24,0.65,0.58,0.82,0.96c0.2,0.43,0.22,0.69,0.22,1.48v2h-2.38v-1.65c0-1-0.17-1.54-1.24-1.54
			c-0.93,0-1.11,0.58-1.11,1.43v7.01c0,0.85,0.19,1.48,1.19,1.48c1.08,0,1.17-0.61,1.17-1.61v-1.71h2.38v1.86
			C186.35,33.02,186.33,33.57,186.17,34.06z"/>
		<path class="st1" d="M192.68,35.56v-5.99h-2.21v5.99h-2.41v-13.1h2.41v5.14h2.21v-5.14h2.41v13.1H192.68z"/>
		<path class="st1" d="M201.79,35.56l-0.32-2.13h-2.23l-0.35,2.13h-2.41l2.54-13.1h2.76l2.45,13.1H201.79z M200.42,25.78l-0.87,5.62
			h1.67L200.42,25.78z"/>
		<path class="st1" d="M205.59,35.56v-13.1h6.35v1.99h-3.93v3.08h3.71v1.99h-3.71v4.03h4.12v2.02H205.59z"/>
		<path class="st1" d="M213.61,35.56v-13.1h2.41v11.11h3.54v1.99H213.61z"/>
		<path class="st1" d="M232.17,33.83c-0.3,1.06-1.17,2-3.4,2c-0.93,0-1.91-0.13-2.69-0.74c-0.43-0.33-0.59-0.69-0.69-0.89
			c-0.15-0.37-0.26-0.61-0.26-1.35v-1.91h2.39v1.52c0,0.48-0.04,1.04,0.43,1.34c0.15,0.09,0.37,0.19,0.74,0.19
			c0.43,0,0.67-0.09,0.83-0.24c0.35-0.28,0.35-0.85,0.35-1.74c0-0.17,0.04-0.76-0.26-1.21c-0.19-0.28-0.46-0.45-0.56-0.52
			l-2.28-1.54c-0.5-0.33-0.76-0.54-1.09-1.08c-0.28-0.46-0.46-0.96-0.46-2.08c0-0.19-0.02-1.11,0.32-1.8c0.74-1.6,2.99-1.6,3.25-1.6
			c0.39,0,2.49,0,3.17,1.73c0.13,0.33,0.2,0.46,0.2,1.09v1.3h-2.41v-1.34c0-0.39-0.15-0.95-1.08-0.95c-0.56,0-1.08,0.2-1.08,1.3
			c0,0.06-0.04,0.83,0.26,1.26c0.07,0.11,0.24,0.24,0.5,0.43l2.34,1.61c0.17,0.11,0.69,0.5,1.08,1.02c0.58,0.76,0.52,1.34,0.52,2.26
			C232.3,32.91,232.3,33.33,232.17,33.83z"/>
		<path class="st1" d="M240.98,34.06c-0.63,1.82-3.06,1.78-3.34,1.78c-0.56,0-1.08-0.09-1.24-0.13c-0.96-0.19-1.82-0.61-2.21-1.56
			C234,33.67,234,33.26,234,32.78v-7.12c0-0.22,0.02-0.46,0.04-0.69c0.04-0.83,0.26-1.48,0.93-2.02c0.54-0.43,1.26-0.76,2.71-0.76
			c0.83,0,1.73,0.11,2.45,0.59c0.35,0.24,0.65,0.58,0.82,0.96c0.2,0.43,0.22,0.69,0.22,1.48v2h-2.38v-1.65c0-1-0.17-1.54-1.24-1.54
			c-0.93,0-1.11,0.58-1.11,1.43v7.01c0,0.85,0.19,1.48,1.19,1.48c1.08,0,1.17-0.61,1.17-1.61v-1.71h2.38v1.86
			C241.17,33.02,241.15,33.57,240.98,34.06z"/>
		<path class="st1" d="M247.51,35.56v-5.99h-2.21v5.99h-2.41v-13.1h2.41v5.14h2.21v-5.14h2.41v13.1H247.51z"/>
		<path class="st1" d="M261.54,35.56H259l-1.26-8.94l-1.41,8.94h-2.58l-2.39-13.1h2.5l1.32,9.87l1.41-9.87h2.28l1.37,9.87l1.37-9.87
			h2.45L261.54,35.56z"/>
		<path class="st1" d="M270.02,35.56l-0.32-2.13h-2.23l-0.35,2.13h-2.41l2.54-13.1h2.76l2.45,13.1H270.02z M268.65,25.78l-0.87,5.62
			h1.67L268.65,25.78z"/>
		<path class="st1" d="M279,35.56l-1.86-5.81h-0.91v5.81h-2.41v-13.1h4.82c1.6,0,2.36,0.74,2.36,2.34v2.38
			c0,1.3-0.39,1.89-1.54,2.25l2.04,6.14H279z M278.61,25.41c0-0.82-0.28-1.08-1.11-1.08h-1.26v3.49h1.26c0.83,0,1.11-0.3,1.11-1.24
			V25.41z"/>
		<path class="st1" d="M286.94,24.35v11.21h-2.43V24.35h-2.41v-1.89h7.27v1.89H286.94z"/>
		<path class="st1" d="M292.75,33.52h4.21v2.04h-6.85v-1.52l4.17-9.56h-3.64v-2.02h6.38v1.3L292.75,33.52z"/>
	</g>
	<g>
		<path class="st1" d="M95.88,55.54l-0.3-2.01h-2.1l-0.33,2.01h-2.27l2.4-12.35h2.61l2.31,12.35H95.88z M94.59,46.33l-0.82,5.3h1.57
			L94.59,46.33z"/>
		<path class="st1" d="M106.95,52.9c-0.07,1.31-0.66,1.98-1.15,2.26c-0.63,0.37-1.28,0.38-1.96,0.38h-3.66V43.2h4.18
			c0.33,0,1.03,0.05,1.7,0.61c0.84,0.72,0.91,1.63,0.91,2.64v5.77C106.97,52.45,106.97,52.67,106.95,52.9z M104.7,46.26
			c0-0.38,0.02-0.77-0.31-1.05c-0.3-0.24-0.68-0.21-1.03-0.21h-0.89v8.74h0.8c0.21,0,0.44,0,0.65-0.04
			c0.73-0.14,0.79-0.68,0.79-1.29V46.26z"/>
		<path class="st1" d="M114.4,55.54l-1.75-5.47h-0.86v5.47h-2.27V43.2h4.55c1.5,0,2.22,0.7,2.22,2.2v2.24
			c0,1.22-0.37,1.78-1.45,2.12l1.92,5.79H114.4z M114.04,45.98c0-0.77-0.26-1.01-1.05-1.01h-1.19v3.29h1.19
			c0.79,0,1.05-0.28,1.05-1.17V45.98z"/>
		<path class="st1" d="M118.86,55.54V43.2h2.26v12.35H118.86z"/>
		<path class="st1" d="M128.13,55.54l-0.3-2.01h-2.1l-0.33,2.01h-2.27l2.4-12.35h2.61l2.31,12.35H128.13z M126.83,46.33l-0.82,5.3
			h1.57L126.83,46.33z"/>
		<path class="st1" d="M136.56,55.54l-2.19-9.25l0.19,9.25h-2.13V43.2h2.92l2.22,9.06l-0.23-9.06h2.08v12.35H136.56z"/>
		<path class="st1" d="M146.26,55.54l-2.19-9.25l0.19,9.25h-2.13V43.2h2.92l2.22,9.06l-0.23-9.06h2.08v12.35H146.26z"/>
		<path class="st1" d="M151.82,55.54V43.2h5.98v1.87h-3.71v2.9h3.5v1.87h-3.5v3.79h3.88v1.91H151.82z"/>
		<path class="st1" d="M171.51,54.13c-0.59,1.71-2.89,1.68-3.15,1.68c-0.53,0-1.01-0.09-1.17-0.12c-0.91-0.17-1.71-0.58-2.08-1.47
			c-0.17-0.45-0.17-0.84-0.17-1.29V46.2c0-0.21,0.02-0.44,0.04-0.65c0.04-0.79,0.24-1.4,0.87-1.91c0.51-0.4,1.19-0.72,2.55-0.72
			c0.79,0,1.63,0.1,2.31,0.56c0.33,0.23,0.61,0.54,0.77,0.91c0.19,0.4,0.21,0.65,0.21,1.4v1.89h-2.24v-1.56
			c0-0.94-0.16-1.45-1.17-1.45c-0.87,0-1.05,0.54-1.05,1.35v6.61c0,0.8,0.17,1.4,1.12,1.4c1.01,0,1.1-0.58,1.1-1.52v-1.61h2.24v1.75
			C171.69,53.15,171.67,53.67,171.51,54.13z"/>
		<path class="st1" d="M178.31,55.54l-0.3-2.01h-2.1l-0.33,2.01h-2.27l2.4-12.35h2.61l2.31,12.35H178.31z M177.02,46.33l-0.82,5.3
			h1.57L177.02,46.33z"/>
		<path class="st1" d="M182.6,55.54V43.2h2.27v10.47h3.34v1.87H182.6z"/>
		<path class="st1" d="M194.09,55.54h-2.29l-2.45-12.35h2.41l1.21,8.17l1.12-8.17h2.33L194.09,55.54z"/>
		<path class="st1" d="M204.38,54.98c-0.73,0.68-1.73,0.82-2.68,0.82c-0.91,0-1.84-0.12-2.57-0.72c-0.37-0.3-0.54-0.59-0.61-0.77
			c-0.21-0.44-0.26-0.96-0.26-1.42v-6.92c0-0.26-0.05-1.5,0.77-2.24c0.45-0.4,1.31-0.8,2.69-0.8c1.78,0,2.73,0.73,3.1,1.45
			c0.19,0.4,0.28,0.79,0.28,1.64v6.87C205.1,53.69,204.98,54.41,204.38,54.98z M202.81,46.19c0-0.07,0.05-0.63-0.14-1
			c-0.1-0.23-0.37-0.54-0.94-0.54c-0.12,0-0.45,0.02-0.73,0.23c-0.51,0.35-0.44,0.89-0.44,1.4v6.24c0,0.37-0.02,0.82,0.21,1.14
			c0.26,0.37,0.82,0.37,0.93,0.37c0.1,0,0.44-0.02,0.72-0.21c0.42-0.3,0.4-0.79,0.4-1.24V46.19z"/>
	</g>
</g>
</svg>
