<?xml version="1.0" encoding="utf-8"?>
<!-- Generator: Adobe Illustrator 16.0.0, SVG Export Plug-In . SVG Version: 6.00 Build 0)  -->
<!DOCTYPE svg PUBLIC "-//W3C//DTD SVG 1.1//EN" "http://www.w3.org/Graphics/SVG/1.1/DTD/svg11.dtd">
<svg version="1.1" id="Layer_1" xmlns="http://www.w3.org/2000/svg" xmlns:xlink="http://www.w3.org/1999/xlink" x="0px" y="0px"
	 width="280px" height="22.87px" viewBox="0 0 280 22.87" style="enable-background:new 0 0 280 22.87;" xml:space="preserve">
<style type="text/css">
<![CDATA[
	.st0{fill:#FFFFFF;}
	.st1{fill:#034E5E;}
]]>
</style>
<g>
	<g>
		<path class="st1" d="M124.55,2.51c0.97-1.69,2.37-2.51,3.54-2.51c1.59,0,2.84,1.26,2.84,3.19c0,0.84-0.27,1.83-0.87,2.88
			c-1.69,2.95-4.28,4.12-6.57,4.12c-0.43,0-0.82-0.04-1.22-0.1l-0.6,1.05c-1.28,2.18-0.39,3.65,1.07,3.65
			c2.12,0,4.02-1.42,5.56-3.21l0.14-0.17c0.31,0.08,0.68,0.41,0.8,0.74c-1.77,2.06-3.83,3.96-7.02,3.96c-3.03,0-3.91-2.88-2.41-5.48
			l0.64-1.11c-1.73-0.91-2.7-2.55-2.7-4.26c0-1.44,0.68-2.9,2.2-4l0.7,1.26c-0.93,0.72-1.38,1.71-1.38,2.7
			c0,1.19,0.66,2.39,1.92,3.05L124.55,2.51z M123.5,8.78c3.34,0,5.77-3.6,5.77-5.6c0-0.78-0.37-1.32-1.17-1.32
			c-0.6,0-1.3,0.47-1.94,1.57l-3.09,5.36H123.5z"/>
	</g>
	<g>
		<path class="st1" d="M138.68,11.41c0.29,0.12,0.66,0.45,0.8,0.74c-1.77,2.06-3.81,3.96-5.58,3.96c-1.73,0-2.37-1.46-1.46-3.05
			l2.78-4.84c0.93-1.59-0.54-2.12-3.83,2.02l-3.25,5.67h-2.16l8.55-14.83h2.14l-3.42,5.95c1.07-1.11,2.06-1.63,2.99-1.63
			c1.19,0,2.08,1.17,1.15,2.8l-3.09,5.42c-0.49,0.84-0.23,1.17,0.25,1.17c0.95,0,2.45-1.42,4-3.21L138.68,11.41z"/>
	</g>
	<g>
		<path class="st1" d="M140.65,11.87l-0.21,0.37c-0.99,1.73-0.21,2.55,1.11,2.55c1.5,0,3.48-1.42,5.03-3.21l0.14-0.17
			c0.29,0.12,0.66,0.45,0.8,0.74c-1.77,2.06-4.18,3.96-6.61,3.96c-2.53,0-3.69-2.1-2.35-4.39l2.25-3.85
			c0.91-1.57,2.29-2.47,4.02-2.47c1.75,0,2.86,1.48,1.71,3.46l-0.31,0.54C144.62,12.17,142.03,12.44,140.65,11.87z M141.27,10.81
			c0.8,0.29,2.18,0.33,3.21-1.42l0.31-0.54c1.28-2.22-0.91-2.58-2.14-0.45L141.27,10.81z"/>
		<path class="st1" d="M154.49,11.41c0.29,0.12,0.66,0.45,0.8,0.74c-2.43,2.82-5.27,3.44-7.37,3.56c0.21,0.6,0.19,1.4-0.25,2.16
			l-1.61,2.82c-2.29,4.02-5.58,1.73-3.93-1.13l8.86-15.39c2.8-4.86,7.44-3.48,4.96,0.8l-3.44,5.95c-1.09,1.87-2.86,3.09-4.33,3.85
			c1.71-0.12,4.04-0.76,6.16-3.21L154.49,11.41z M146.48,15.76h-0.19l-2.43,4.16c-0.89,1.5,0,1.87,0.74,0.6l1.79-3.15
			C146.83,16.56,146.83,15.99,146.48,15.76z M147.16,14.25c1.69-0.74,3.11-2.53,4.06-4.16l3.34-5.79c1.05-1.94-0.43-2.02-1.59-0.02
			L147.16,14.25z"/>
	</g>
	<g>
		<path class="st1" d="M152.51,15.16c1.94-2.27,6.88-8.82,7.77-10.03l1.61,0.87c-1.32,2.74-1.17,5.87-1.85,7.91
			c0.84-0.58,1.79-1.4,2.57-2.33l0.14-0.17c0.31,0.08,0.68,0.41,0.8,0.74c-1.61,1.87-3.77,3.6-5.95,3.89
			c-0.02,0-0.04,0.02-0.06,0.02c-0.21,0.02-0.39,0.04-0.6,0.04c-1.96,0-2.35-1.73-2.35-1.73l1.34-0.7c0,0,0.29,0.78,1.01,0.78
			c2.04,0,1.59-4,2.43-6.22c-0.76,1.01-4.84,6.26-6.06,7.66C153,15.7,152.69,15.43,152.51,15.16z"/>
	</g>
	<g>
		<rect x="167.28" y="7.96" class="st0" width="112.72" height="3.47"/>
	</g>
	<g>
		<rect y="7.96" class="st0" width="112.72" height="3.47"/>
	</g>
</g>
</svg>
