<?xml version="1.0" encoding="utf-8"?>
<!-- Generator: Adobe Illustrator 16.0.0, SVG Export Plug-In . SVG Version: 6.00 Build 0)  -->
<!DOCTYPE svg PUBLIC "-//W3C//DTD SVG 1.1//EN" "http://www.w3.org/Graphics/SVG/1.1/DTD/svg11.dtd">
<svg version="1.1" xmlns="http://www.w3.org/2000/svg" xmlns:xlink="http://www.w3.org/1999/xlink" x="0px" y="0px"
	 width="335.08px" height="36.78px" viewBox="0 0 335.08 36.78" style="enable-background:new 0 0 335.08 36.78;"
	 xml:space="preserve">
<style type="text/css">
<![CDATA[
	.st0{clip-path:url(#SVGID_16_);fill:#CD5F29;}
	.st1{clip-path:url(#SVGID_16_);fill:#CD802B;}
	.st2{clip-path:url(#SVGID_32_);fill:#E2925D;}
	.st3{clip-path:url(#SVGID_10_);fill:#E38C69;}
	.st4{clip-path:url(#SVGID_10_);fill:#E3BD70;}
	.st5{clip-path:url(#SVGID_10_);fill:#E3BD71;}
	.st6{clip-path:url(#SVGID_20_);fill-rule:evenodd;clip-rule:evenodd;fill:#73A654;}
	.st7{clip-path:url(#SVGID_50_);fill:#F1C8A2;}
	.st8{clip-path:url(#SVGID_54_);fill:#E2925D;}
	.st9{clip-path:url(#SVGID_118_);fill:#5FAFBF;}
	.st10{clip-path:url(#SVGID_10_);fill:#E48C6A;}
	.st11{fill:#AB2218;}
	.st12{clip-path:url(#SVGID_32_);fill:#E49966;}
	.st13{clip-path:url(#SVGID_10_);fill:#E5BE72;}
	.st14{clip-path:url(#SVGID_20_);fill-rule:evenodd;clip-rule:evenodd;fill:#75A955;}
	.st15{clip-path:url(#SVGID_20_);fill-rule:evenodd;clip-rule:evenodd;fill:#75AA55;}
	.st16{clip-path:url(#SVGID_20_);fill-rule:evenodd;clip-rule:evenodd;fill:#75AB55;}
	.st17{clip-path:url(#SVGID_82_);fill:#5FAFBF;}
	.st18{fill-rule:evenodd;clip-rule:evenodd;fill:#D7D6A3;}
	.st19{fill-rule:evenodd;clip-rule:evenodd;fill:#D7DBAE;}
	.st20{clip-path:url(#SVGID_54_);fill:#E49966;}
	.st21{fill:#AC2325;}
	.st22{fill-rule:evenodd;clip-rule:evenodd;fill:#D8711C;}
	.st23{clip-path:url(#SVGID_10_);fill:#E6EDD7;}
	.st24{clip-path:url(#SVGID_20_);fill-rule:evenodd;clip-rule:evenodd;fill:#76AB55;}
	.st25{clip-path:url(#SVGID_20_);fill-rule:evenodd;clip-rule:evenodd;fill:#76AD56;}
	.st26{fill-rule:evenodd;clip-rule:evenodd;fill:#D8E8C4;}
	.st27{clip-path:url(#SVGID_134_);fill:#DA7427;}
	.st28{clip-path:url(#SVGID_32_);fill:#E69F6C;}
	.st29{clip-path:url(#SVGID_30_);fill:#EFC197;}
	.st30{clip-path:url(#SVGID_30_);fill:#EFC39B;}
	.st31{fill-rule:evenodd;clip-rule:evenodd;fill:#D9A731;}
	.st32{clip-path:url(#SVGID_54_);fill:#E69F6C;}
	.st33{clip-path:url(#SVGID_50_);fill:#F5DBC1;}
	.st34{clip-path:url(#SVGID_52_);fill:#EFC197;}
	.st35{clip-path:url(#SVGID_52_);fill:#EFC39B;}
	.st36{clip-path:url(#SVGID_44_);fill:#7F5426;}
	.st37{clip-path:url(#SVGID_44_);fill:#7F5726;}
	.st38{clip-path:url(#SVGID_36_);fill-rule:evenodd;clip-rule:evenodd;fill:#AA2524;}
	.st39{clip-path:url(#SVGID_10_);fill:#E9F1DB;}
	.st40{clip-path:url(#SVGID_44_);fill:#E0A04D;}
	.st41{clip-path:url(#SVGID_62_);fill:#8F5A21;}
	.st42{clip-path:url(#SVGID_38_);fill-rule:evenodd;clip-rule:evenodd;fill:#005C31;}
	.st43{clip-path:url(#SVGID_108_);fill:#5FAFBF;}
	.st44{clip-path:url(#SVGID_8_);fill-rule:evenodd;clip-rule:evenodd;fill:#ECF2DF;}
	.st45{clip-path:url(#SVGID_40_);fill-rule:evenodd;clip-rule:evenodd;fill:#D45128;}
	.st46{clip-path:url(#SVGID_44_);fill:#E3AB5B;}
	.st47{clip-path:url(#SVGID_72_);fill:#5FAFBF;}
	.st48{fill-rule:evenodd;clip-rule:evenodd;fill:#0A341D;}
	.st49{clip-path:url(#SVGID_24_);fill-rule:evenodd;clip-rule:evenodd;fill:#F6DCCC;}
	.st50{clip-path:url(#SVGID_94_);fill:#5FAFBF;}
	.st51{fill-rule:evenodd;clip-rule:evenodd;fill:#0B371F;}
	.st52{fill-rule:evenodd;clip-rule:evenodd;fill:#0B7D46;}
	.st53{clip-path:url(#SVGID_354_);fill:none;stroke:#FFFFFF;stroke-width:1.25;stroke-miterlimit:10;}
	.st54{fill-rule:evenodd;clip-rule:evenodd;fill:#DAA120;}
	.st55{fill-rule:evenodd;clip-rule:evenodd;fill:#DAA52B;}
	.st56{fill-rule:evenodd;clip-rule:evenodd;fill:#DAA62E;}
	.st57{fill-rule:evenodd;clip-rule:evenodd;fill:#DAAB3B;}
	.st58{fill-rule:evenodd;clip-rule:evenodd;fill:#DAAB3C;}
	.st59{fill-rule:evenodd;clip-rule:evenodd;fill:#DAAC3E;}
	.st60{fill-rule:evenodd;clip-rule:evenodd;fill:#DAAD42;}
	.st61{fill-rule:evenodd;clip-rule:evenodd;fill:#DAB251;}
	.st62{fill-rule:evenodd;clip-rule:evenodd;fill:#DAB85E;}
	.st63{fill-rule:evenodd;clip-rule:evenodd;fill:#DABC68;}
	.st64{fill-rule:evenodd;clip-rule:evenodd;fill:#0C3920;}
	.st65{fill-rule:evenodd;clip-rule:evenodd;fill:#0C3D23;}
	.st66{fill-rule:evenodd;clip-rule:evenodd;fill:#DBC276;}
	.st67{fill-rule:evenodd;clip-rule:evenodd;fill:#0D4125;}
	.st68{fill-rule:evenodd;clip-rule:evenodd;fill:#0D4226;}
	.st69{fill-rule:evenodd;clip-rule:evenodd;fill:#0D7C46;}
	.st70{clip-path:url(#SVGID_24_);fill-rule:evenodd;clip-rule:evenodd;fill:#F9FBF7;}
	.st71{clip-path:url(#SVGID_40_);fill-rule:evenodd;clip-rule:evenodd;fill:#D97327;}
	.st72{clip-path:url(#SVGID_20_);fill-rule:evenodd;clip-rule:evenodd;fill:#478847;}
	.st73{clip-path:url(#SVGID_32_);fill:#EAB483;}
	.st74{clip-path:url(#SVGID_134_);fill:#AB2524;}
	.st75{clip-path:url(#SVGID_44_);fill:#E9BB76;}
	.st76{clip-path:url(#SVGID_44_);fill:#E9BE7A;}
	.st77{fill-rule:evenodd;clip-rule:evenodd;fill:#0F7A45;}
	.st78{clip-path:url(#SVGID_54_);fill:#EAB483;}
	.st79{clip-path:url(#SVGID_44_);fill:#807442;}
	.st80{clip-path:url(#SVGID_12_);fill-rule:evenodd;clip-rule:evenodd;fill:#D87327;}
	.st81{clip-path:url(#SVGID_16_);fill:#D4AD7B;}
	.st82{clip-path:url(#SVGID_44_);fill:#818C3C;}
	.st83{clip-path:url(#SVGID_12_);fill-rule:evenodd;clip-rule:evenodd;fill:#D9A128;}
	.st84{clip-path:url(#SVGID_30_);fill:#F3CEAB;}
	.st85{clip-path:url(#SVGID_354_);fill:none;stroke:#000000;stroke-width:0.25;stroke-miterlimit:10;}
	.st86{clip-path:url(#SVGID_10_);fill:#EEF4E4;}
	.st87{clip-path:url(#SVGID_84_);fill:#5FAFBF;}
	.st88{clip-path:url(#SVGID_52_);fill:#F3CEAB;}
	.st89{clip-path:url(#SVGID_44_);fill:#B3B986;}
	.st90{clip-path:url(#SVGID_20_);fill-rule:evenodd;clip-rule:evenodd;fill:#136335;}
	.st91{clip-path:url(#SVGID_352_);fill:none;stroke:#FFFFFF;stroke-width:3.061;}
	.st92{clip-path:url(#SVGID_8_);fill-rule:evenodd;clip-rule:evenodd;fill:#213D2F;}
	.st93{clip-path:url(#SVGID_44_);fill:#868945;}
	.st94{clip-path:url(#SVGID_44_);fill:#EACC8B;}
	.st95{clip-path:url(#SVGID_38_);fill-rule:evenodd;clip-rule:evenodd;fill:#0A7D46;}
	.st96{clip-path:url(#SVGID_44_);fill:#EBCC8F;}
	.st97{clip-path:url(#SVGID_74_);fill:#5FAFBF;}
	.st98{clip-path:url(#SVGID_134_);fill:#4C8A4E;}
	.st99{fill-rule:evenodd;clip-rule:evenodd;fill:#107945;}
	.st100{clip-path:url(#SVGID_62_);fill:#C8AA77;}
	.st101{clip-path:url(#SVGID_96_);fill:#5FAFBF;}
	.st102{clip-path:url(#SVGID_60_);fill-rule:evenodd;clip-rule:evenodd;fill:#D45128;}
	.st103{clip-path:url(#SVGID_8_);fill-rule:evenodd;clip-rule:evenodd;fill:#F5F9ED;}
	.st104{clip-path:url(#SVGID_8_);fill-rule:evenodd;clip-rule:evenodd;fill:#F6F9EE;}
	.st105{clip-path:url(#SVGID_20_);fill-rule:evenodd;clip-rule:evenodd;fill:#4F8E4A;}
	.st106{clip-path:url(#SVGID_18_);fill:#D1A15A;}
	.st107{clip-path:url(#SVGID_130_);fill:#5FAFBF;}
	.st108{clip-path:url(#SVGID_58_);fill-rule:evenodd;clip-rule:evenodd;fill:#D45128;}
	.st109{clip-path:url(#SVGID_12_);fill-rule:evenodd;clip-rule:evenodd;fill:#DFEDD5;}
	.st110{fill:#54A4B4;}
	.st111{clip-path:url(#SVGID_348_);fill:#FFFFFF;}
	.st112{clip-path:url(#SVGID_60_);fill-rule:evenodd;clip-rule:evenodd;fill:#D97327;}
	.st113{clip-path:url(#SVGID_28_);fill:#A2663E;}
	.st114{clip-path:url(#SVGID_86_);fill:#5FAFBF;}
	.st115{clip-path:url(#SVGID_10_);fill:#F5F9EE;}
	.st116{clip-path:url(#SVGID_10_);fill:#5B7959;}
	.st117{clip-path:url(#SVGID_58_);fill-rule:evenodd;clip-rule:evenodd;fill:#D97327;}
	.st118{clip-path:url(#SVGID_10_);fill:#F6F9EE;}
	.st119{clip-path:url(#SVGID_10_);fill:#F6F9F0;}
	.st120{clip-path:url(#SVGID_10_);fill:#F6F9F1;}
	.st121{clip-path:url(#SVGID_26_);fill:#AE9A80;}
	.st122{clip-path:url(#SVGID_18_);fill:#D89A56;}
	.st123{clip-path:url(#SVGID_10_);fill:#5C7959;}
	.st124{clip-path:url(#SVGID_10_);fill:#5C795A;}
	.st125{clip-path:url(#SVGID_18_);fill:#D8B65D;}
	.st126{clip-path:url(#SVGID_48_);fill:#AE9A80;}
	.st127{clip-path:url(#SVGID_20_);fill-rule:evenodd;clip-rule:evenodd;fill:#1C6938;}
	.st128{clip-path:url(#SVGID_56_);fill-rule:evenodd;clip-rule:evenodd;fill:#E8C886;}
	.st129{clip-path:url(#SVGID_120_);fill:#5FAFBF;}
	.st130{clip-path:url(#SVGID_44_);fill:#8F5A21;}
	.st131{clip-path:url(#SVGID_42_);fill-rule:evenodd;clip-rule:evenodd;fill:#D45128;}
	.st132{clip-path:url(#SVGID_76_);fill:#5FAFBF;}
	.st133{clip-path:url(#SVGID_20_);fill-rule:evenodd;clip-rule:evenodd;fill:#52904B;}
	.st134{clip-path:url(#SVGID_98_);fill:#5FAFBF;}
	.st135{clip-path:url(#SVGID_18_);fill:#A5D1C4;}
	.st136{clip-path:url(#SVGID_42_);fill-rule:evenodd;clip-rule:evenodd;fill:#D97327;}
	.st137{clip-path:url(#SVGID_40_);fill-rule:evenodd;clip-rule:evenodd;fill:#E7AC76;}
	.st138{clip-path:url(#SVGID_110_);fill:#5FAFBF;}
	.st139{clip-path:url(#SVGID_56_);fill-rule:evenodd;clip-rule:evenodd;fill:#EBCA88;}
	.st140{clip-path:url(#SVGID_20_);fill-rule:evenodd;clip-rule:evenodd;fill:#57934C;}
	.st141{clip-path:url(#SVGID_18_);fill:#DCE3C1;}
	.st142{clip-path:url(#SVGID_36_);fill-rule:evenodd;clip-rule:evenodd;fill:#F4E2D9;}
	.st143{clip-path:url(#SVGID_62_);fill:#6D7F35;}
	.st144{fill:#5FAFBF;}
	.st145{clip-path:url(#SVGID_66_);fill:#5FAFBF;}
	.st146{clip-path:url(#SVGID_88_);fill:#5FAFBF;}
	.st147{clip-path:url(#SVGID_36_);fill-rule:evenodd;clip-rule:evenodd;fill:#5D9B75;}
	.st148{clip-path:url(#SVGID_28_);fill:#7E7760;}
	.st149{clip-path:url(#SVGID_62_);fill:#D28E2A;}
	.st150{clip-path:url(#SVGID_100_);fill:#5FAFBF;}
	.st151{clip-path:url(#SVGID_28_);fill:#E08D4D;}
	.st152{clip-path:url(#SVGID_122_);fill:#5FAFBF;}
	.st153{clip-path:url(#SVGID_22_);fill:#C6392A;}
	.st154{clip-path:url(#SVGID_50_);fill:#A2663E;}
	.st155{clip-path:url(#SVGID_22_);fill:#C74A2A;}
	.st156{clip-path:url(#SVGID_14_);fill:#8A9A81;}
	.st157{clip-path:url(#SVGID_24_);fill-rule:evenodd;clip-rule:evenodd;fill:#D97327;}
	.st158{clip-path:url(#SVGID_62_);fill:#D67928;}
	.st159{fill:#98D5E0;}
	.st160{clip-path:url(#SVGID_20_);fill-rule:evenodd;clip-rule:evenodd;fill:#5A8344;}
	.st161{clip-path:url(#SVGID_44_);fill:#C8AA77;}
	.st162{clip-path:url(#SVGID_78_);fill:#5FAFBF;}
	.st163{clip-path:url(#SVGID_38_);fill-rule:evenodd;clip-rule:evenodd;fill:#87B76A;}
	.st164{clip-path:url(#SVGID_46_);fill-rule:evenodd;clip-rule:evenodd;fill:#F6DCCC;}
	.st165{clip-path:url(#SVGID_36_);fill-rule:evenodd;clip-rule:evenodd;fill:#C54235;}
	.st166{clip-path:url(#SVGID_20_);fill-rule:evenodd;clip-rule:evenodd;fill:#5C8645;}
	.st167{clip-path:url(#SVGID_62_);fill:#D98827;}
	.st168{clip-path:url(#SVGID_62_);fill:#D9A128;}
	.st169{clip-path:url(#SVGID_62_);fill:#D9AC42;}
	.st170{clip-path:url(#SVGID_20_);fill-rule:evenodd;clip-rule:evenodd;fill:#5D8746;}
	.st171{clip-path:url(#SVGID_20_);fill-rule:evenodd;clip-rule:evenodd;fill:#5D8846;}
	.st172{clip-path:url(#SVGID_20_);fill-rule:evenodd;clip-rule:evenodd;fill:#5D964D;}
	.st173{fill:#FFFFFF;}
	.st174{clip-path:url(#SVGID_350_);fill:none;stroke:#FFFFFF;stroke-width:3.061;}
	.st175{clip-path:url(#SVGID_20_);fill-rule:evenodd;clip-rule:evenodd;fill:#5E8846;}
	.st176{clip-path:url(#SVGID_20_);fill-rule:evenodd;clip-rule:evenodd;fill:#5E994E;}
	.st177{clip-path:url(#SVGID_112_);fill:#5FAFBF;}
	.st178{clip-path:url(#SVGID_62_);fill:#A06523;}
	.st179{clip-path:url(#SVGID_46_);fill-rule:evenodd;clip-rule:evenodd;fill:#F9FBF7;}
	.st180{clip-path:url(#SVGID_20_);fill-rule:evenodd;clip-rule:evenodd;fill:#5F8946;}
	.st181{clip-path:url(#SVGID_20_);fill-rule:evenodd;clip-rule:evenodd;fill:#5F8A47;}
	.st182{clip-path:url(#SVGID_2_);fill:#5FAFBF;}
	.st183{clip-path:url(#SVGID_68_);fill:#5FAFBF;}
	.st184{clip-path:url(#SVGID_8_);fill-rule:evenodd;clip-rule:evenodd;fill:#024D26;}
	.st185{clip-path:url(#SVGID_58_);fill-rule:evenodd;clip-rule:evenodd;fill:#E7AC76;}
	.st186{clip-path:url(#SVGID_102_);fill:#5FAFBF;}
	.st187{clip-path:url(#SVGID_124_);fill:#5FAFBF;}
	.st188{clip-path:url(#SVGID_36_);fill-rule:evenodd;clip-rule:evenodd;fill:#CA473B;}
	.st189{clip-path:url(#SVGID_16_);fill:#8A9A81;}
	.st190{clip-path:url(#SVGID_62_);fill:#DE9945;}
	.st191{clip-path:url(#SVGID_62_);fill:#DF9D4A;}
	.st192{clip-path:url(#SVGID_62_);fill:#DFC781;}
	.st193{clip-path:url(#SVGID_20_);fill-rule:evenodd;clip-rule:evenodd;fill:#608A47;}
	.st194{clip-path:url(#SVGID_20_);fill-rule:evenodd;clip-rule:evenodd;fill:#608B48;}
	.st195{clip-path:url(#SVGID_50_);fill:#7E7760;}
	.st196{clip-path:url(#SVGID_20_);fill-rule:evenodd;clip-rule:evenodd;fill:#618C48;}
	.st197{clip-path:url(#SVGID_8_);fill-rule:evenodd;clip-rule:evenodd;fill:#D9522F;}
	.st198{clip-path:url(#SVGID_8_);fill-rule:evenodd;clip-rule:evenodd;fill:#D9A128;}
	.st199{clip-path:url(#SVGID_20_);fill-rule:evenodd;clip-rule:evenodd;fill:#628D49;}
	.st200{clip-path:url(#SVGID_20_);fill-rule:evenodd;clip-rule:evenodd;fill:#628E49;}
	.st201{clip-path:url(#SVGID_20_);fill-rule:evenodd;clip-rule:evenodd;fill:#628F49;}
	.st202{clip-path:url(#SVGID_50_);fill:#E08D4D;}
	.st203{clip-path:url(#SVGID_26_);fill:#F5D6B8;}
	.st204{clip-path:url(#SVGID_20_);fill-rule:evenodd;clip-rule:evenodd;fill:#638F49;}
	.st205{clip-path:url(#SVGID_48_);fill:#F5D6B8;}
	.st206{clip-path:url(#SVGID_8_);fill-rule:evenodd;clip-rule:evenodd;fill:#A0B6A8;}
	.st207{clip-path:url(#SVGID_20_);fill-rule:evenodd;clip-rule:evenodd;fill:#64904A;}
	.st208{clip-path:url(#SVGID_20_);fill-rule:evenodd;clip-rule:evenodd;fill:#64914B;}
	.st209{clip-path:url(#SVGID_114_);fill:#5FAFBF;}
	.st210{clip-path:url(#SVGID_348_);fill:#451500;}
	.st211{clip-path:url(#SVGID_20_);fill-rule:evenodd;clip-rule:evenodd;fill:#65924A;}
	.st212{clip-path:url(#SVGID_20_);fill-rule:evenodd;clip-rule:evenodd;fill:#65924B;}
	.st213{clip-path:url(#SVGID_20_);fill-rule:evenodd;clip-rule:evenodd;fill:#65934B;}
	.st214{clip-path:url(#SVGID_20_);fill-rule:evenodd;clip-rule:evenodd;fill:#659F51;}
	.st215{clip-path:url(#SVGID_132_);}
	.st216{clip-path:url(#SVGID_134_);}
	.st217{clip-path:url(#SVGID_136_);}
	.st218{clip-path:url(#SVGID_140_);}
	.st219{clip-path:url(#SVGID_144_);}
	.st220{clip-path:url(#SVGID_148_);}
	.st221{clip-path:url(#SVGID_152_);}
	.st222{clip-path:url(#SVGID_156_);}
	.st223{clip-path:url(#SVGID_160_);}
	.st224{clip-path:url(#SVGID_164_);}
	.st225{clip-path:url(#SVGID_168_);}
	.st226{clip-path:url(#SVGID_172_);}
	.st227{clip-path:url(#SVGID_176_);}
	.st228{clip-path:url(#SVGID_180_);}
	.st229{clip-path:url(#SVGID_184_);}
	.st230{clip-path:url(#SVGID_188_);}
	.st231{clip-path:url(#SVGID_192_);}
	.st232{clip-path:url(#SVGID_196_);}
	.st233{clip-path:url(#SVGID_20_);fill-rule:evenodd;clip-rule:evenodd;fill:#66934B;}
	.st234{clip-path:url(#SVGID_20_);fill-rule:evenodd;clip-rule:evenodd;fill:#66944B;}
	.st235{clip-path:url(#SVGID_44_);fill:#6D7F35;}
	.st236{clip-path:url(#SVGID_200_);}
	.st237{clip-path:url(#SVGID_204_);}
	.st238{clip-path:url(#SVGID_208_);}
	.st239{clip-path:url(#SVGID_212_);}
	.st240{clip-path:url(#SVGID_216_);}
	.st241{clip-path:url(#SVGID_220_);}
	.st242{clip-path:url(#SVGID_224_);}
	.st243{clip-path:url(#SVGID_228_);}
	.st244{clip-path:url(#SVGID_232_);}
	.st245{clip-path:url(#SVGID_236_);}
	.st246{clip-path:url(#SVGID_240_);}
	.st247{clip-path:url(#SVGID_244_);}
	.st248{clip-path:url(#SVGID_248_);}
	.st249{clip-path:url(#SVGID_252_);}
	.st250{clip-path:url(#SVGID_256_);}
	.st251{clip-path:url(#SVGID_260_);}
	.st252{clip-path:url(#SVGID_264_);}
	.st253{clip-path:url(#SVGID_268_);}
	.st254{clip-path:url(#SVGID_272_);}
	.st255{clip-path:url(#SVGID_276_);}
	.st256{clip-path:url(#SVGID_280_);}
	.st257{clip-path:url(#SVGID_284_);}
	.st258{clip-path:url(#SVGID_288_);}
	.st259{clip-path:url(#SVGID_292_);}
	.st260{clip-path:url(#SVGID_296_);}
	.st261{clip-path:url(#SVGID_20_);fill-rule:evenodd;clip-rule:evenodd;fill:#67954C;}
	.st262{clip-path:url(#SVGID_300_);}
	.st263{clip-path:url(#SVGID_304_);}
	.st264{clip-path:url(#SVGID_308_);}
	.st265{clip-path:url(#SVGID_312_);}
	.st266{clip-path:url(#SVGID_316_);}
	.st267{clip-path:url(#SVGID_320_);}
	.st268{clip-path:url(#SVGID_324_);}
	.st269{clip-path:url(#SVGID_328_);}
	.st270{clip-path:url(#SVGID_332_);}
	.st271{clip-path:url(#SVGID_336_);}
	.st272{clip-path:url(#SVGID_340_);}
	.st273{clip-path:url(#SVGID_344_);}
	.st274{clip-path:url(#SVGID_348_);fill:#AB2218;}
	.st275{clip-path:url(#SVGID_4_);fill:#5FAFBF;}
	.st276{clip-path:url(#SVGID_20_);fill-rule:evenodd;clip-rule:evenodd;fill:#68A151;}
	.st277{clip-path:url(#SVGID_20_);fill:#76AD56;}
	.st278{clip-path:url(#SVGID_20_);fill-rule:evenodd;clip-rule:evenodd;fill:#69974C;}
	.st279{clip-path:url(#SVGID_20_);fill-rule:evenodd;clip-rule:evenodd;fill:#69984D;}
	.st280{clip-path:url(#SVGID_62_);fill:#7F5426;}
	.st281{clip-path:url(#SVGID_62_);fill:#7F5726;}
	.st282{clip-path:url(#SVGID_8_);fill-rule:evenodd;clip-rule:evenodd;fill:#0C83C6;}
	.st283{fill:#034E5E;}
	.st284{clip-path:url(#SVGID_20_);fill-rule:evenodd;clip-rule:evenodd;fill:#30733D;}
	.st285{clip-path:url(#SVGID_62_);fill:#E0A04D;}
	.st286{clip-path:url(#SVGID_8_);fill-rule:evenodd;clip-rule:evenodd;fill:#DBE7C7;}
	.st287{clip-path:url(#SVGID_44_);fill:#D28E2A;}
	.st288{clip-path:url(#SVGID_104_);fill:#5FAFBF;}
	.st289{clip-path:url(#SVGID_36_);fill-rule:evenodd;clip-rule:evenodd;fill:#003A19;}
	.st290{clip-path:url(#SVGID_36_);fill-rule:evenodd;clip-rule:evenodd;fill:#005C31;}
	.st291{clip-path:url(#SVGID_126_);fill:#5FAFBF;}
	.st292{clip-path:url(#SVGID_62_);fill:#E3AB5B;}
	.st293{clip-path:url(#SVGID_8_);fill-rule:evenodd;clip-rule:evenodd;fill:#DEEACC;}
	.st294{clip-path:url(#SVGID_8_);fill-rule:evenodd;clip-rule:evenodd;fill:#416855;}
	.st295{clip-path:url(#SVGID_28_);fill:#F1C8A2;}
	.st296{clip-path:url(#SVGID_90_);fill:#5FAFBF;}
	.st297{clip-path:url(#SVGID_44_);fill:#D67928;}
	.st298{clip-path:url(#SVGID_20_);fill-rule:evenodd;clip-rule:evenodd;fill:#6A994E;}
	.st299{clip-path:url(#SVGID_10_);fill:#77A5D2;}
	.st300{clip-path:url(#SVGID_36_);fill-rule:evenodd;clip-rule:evenodd;fill:#054825;}
	.st301{fill:#D8E8C4;}
	.st302{clip-path:url(#SVGID_20_);fill-rule:evenodd;clip-rule:evenodd;fill:#6B9A4E;}
	.st303{clip-path:url(#SVGID_20_);fill-rule:evenodd;clip-rule:evenodd;fill:#6B9B4F;}
	.st304{clip-path:url(#SVGID_10_);fill:#78A5D3;}
	.st305{clip-path:url(#SVGID_10_);fill:#78A5D4;}
	.st306{clip-path:url(#SVGID_44_);fill:#D98827;}
	.st307{clip-path:url(#SVGID_44_);fill:#D9A128;}
	.st308{clip-path:url(#SVGID_44_);fill:#D9AC42;}
	.st309{clip-path:url(#SVGID_28_);fill:#F5DBC1;}
	.st310{clip-path:url(#SVGID_20_);fill-rule:evenodd;clip-rule:evenodd;fill:#6C9C4F;}
	.st311{clip-path:url(#SVGID_32_);fill:#A87851;}
	.st312{clip-path:url(#SVGID_44_);fill:#A06523;}
	.st313{clip-path:url(#SVGID_62_);fill:#E9BB76;}
	.st314{clip-path:url(#SVGID_62_);fill:#E9BE7A;}
	.st315{clip-path:url(#SVGID_20_);fill-rule:evenodd;clip-rule:evenodd;fill:#6D9D4F;}
	.st316{clip-path:url(#SVGID_54_);fill:#A87851;}
	.st317{clip-path:url(#SVGID_116_);fill:#5FAFBF;}
	.st318{clip-path:url(#SVGID_62_);fill:#807442;}
	.st319{clip-path:url(#SVGID_20_);fill-rule:evenodd;clip-rule:evenodd;fill:#6E9F51;}
	.st320{clip-path:url(#SVGID_20_);fill-rule:evenodd;clip-rule:evenodd;fill:#6EA051;}
	.st321{clip-path:url(#SVGID_20_);fill-rule:evenodd;clip-rule:evenodd;fill:#6EA653;}
	.st322{clip-path:url(#SVGID_20_);fill-rule:evenodd;clip-rule:evenodd;fill:#004925;}
	.st323{clip-path:url(#SVGID_20_);fill-rule:evenodd;clip-rule:evenodd;fill:#004A24;}
	.st324{clip-path:url(#SVGID_20_);fill-rule:evenodd;clip-rule:evenodd;fill:#004A26;}
	.st325{clip-path:url(#SVGID_20_);fill-rule:evenodd;clip-rule:evenodd;fill:#004B28;}
	.st326{clip-path:url(#SVGID_20_);fill-rule:evenodd;clip-rule:evenodd;fill:#004C27;}
	.st327{clip-path:url(#SVGID_20_);fill-rule:evenodd;clip-rule:evenodd;fill:#004D27;}
	.st328{clip-path:url(#SVGID_20_);fill-rule:evenodd;clip-rule:evenodd;fill:#004D28;}
	.st329{clip-path:url(#SVGID_20_);fill-rule:evenodd;clip-rule:evenodd;fill:#004E28;}
	.st330{clip-path:url(#SVGID_20_);fill-rule:evenodd;clip-rule:evenodd;fill:#004F29;}
	.st331{clip-path:url(#SVGID_20_);fill-rule:evenodd;clip-rule:evenodd;fill:#005029;}
	.st332{clip-path:url(#SVGID_20_);fill-rule:evenodd;clip-rule:evenodd;fill:#00502A;}
	.st333{clip-path:url(#SVGID_20_);fill-rule:evenodd;clip-rule:evenodd;fill:#00512A;}
	.st334{clip-path:url(#SVGID_20_);fill-rule:evenodd;clip-rule:evenodd;fill:#00522B;}
	.st335{clip-path:url(#SVGID_20_);fill-rule:evenodd;clip-rule:evenodd;fill:#00542C;}
	.st336{clip-path:url(#SVGID_20_);fill-rule:evenodd;clip-rule:evenodd;fill:#00552D;}
	.st337{clip-path:url(#SVGID_20_);fill-rule:evenodd;clip-rule:evenodd;fill:#00562D;}
	.st338{clip-path:url(#SVGID_20_);fill-rule:evenodd;clip-rule:evenodd;fill:#00572E;}
	.st339{clip-path:url(#SVGID_20_);fill-rule:evenodd;clip-rule:evenodd;fill:#00582F;}
	.st340{clip-path:url(#SVGID_20_);fill-rule:evenodd;clip-rule:evenodd;fill:#00592F;}
	.st341{clip-path:url(#SVGID_20_);fill-rule:evenodd;clip-rule:evenodd;fill:#005A30;}
	.st342{clip-path:url(#SVGID_20_);fill-rule:evenodd;clip-rule:evenodd;fill:#005B30;}
	.st343{clip-path:url(#SVGID_20_);fill-rule:evenodd;clip-rule:evenodd;fill:#005C31;}
	.st344{clip-path:url(#SVGID_62_);fill:#818C3C;}
	.st345{clip-path:url(#SVGID_80_);fill:#5FAFBF;}
	.st346{clip-path:url(#SVGID_20_);fill-rule:evenodd;clip-rule:evenodd;fill:#014827;}
	.st347{clip-path:url(#SVGID_60_);fill-rule:evenodd;clip-rule:evenodd;fill:#F6F9EE;}
	.st348{clip-path:url(#SVGID_20_);fill-rule:evenodd;clip-rule:evenodd;fill:#024525;}
	.st349{clip-path:url(#SVGID_132_);fill:#DA7427;}
	.st350{clip-path:url(#SVGID_20_);fill-rule:evenodd;clip-rule:evenodd;fill:#034224;}
	.st351{clip-path:url(#SVGID_20_);fill-rule:evenodd;clip-rule:evenodd;fill:#034324;}
	.st352{clip-path:url(#SVGID_6_);fill:#5FAFBF;}
	.st353{clip-path:url(#SVGID_62_);fill:#B3B986;}
	.st354{clip-path:url(#SVGID_34_);fill-rule:evenodd;clip-rule:evenodd;fill:#E8C886;}
	.st355{clip-path:url(#SVGID_64_);fill:#7ECFDA;}
	.st356{clip-path:url(#SVGID_20_);fill-rule:evenodd;clip-rule:evenodd;fill:#044425;}
	.st357{clip-path:url(#SVGID_20_);fill-rule:evenodd;clip-rule:evenodd;fill:#053E22;}
	.st358{clip-path:url(#SVGID_20_);fill-rule:evenodd;clip-rule:evenodd;fill:#054023;}
	.st359{clip-path:url(#SVGID_62_);fill:#868945;}
	.st360{clip-path:url(#SVGID_36_);fill-rule:evenodd;clip-rule:evenodd;fill:#741613;}
	.st361{clip-path:url(#SVGID_62_);fill:#EACC8B;}
	.st362{clip-path:url(#SVGID_106_);fill:#5FAFBF;}
	.st363{clip-path:url(#SVGID_20_);fill-rule:evenodd;clip-rule:evenodd;fill:#073C21;}
	.st364{clip-path:url(#SVGID_128_);fill:#5FAFBF;}
	.st365{clip-path:url(#SVGID_62_);fill:#EBCC8F;}
	.st366{clip-path:url(#SVGID_36_);fill-rule:evenodd;clip-rule:evenodd;fill:#0A7D46;}
	.st367{clip-path:url(#SVGID_70_);fill:#5FAFBF;}
	.st368{clip-path:url(#SVGID_44_);fill:#DE9945;}
	.st369{clip-path:url(#SVGID_20_);fill-rule:evenodd;clip-rule:evenodd;fill:#09361E;}
	.st370{clip-path:url(#SVGID_20_);fill-rule:evenodd;clip-rule:evenodd;fill:#095E32;}
	.st371{clip-path:url(#SVGID_92_);fill:#5FAFBF;}
	.st372{clip-path:url(#SVGID_44_);fill:#DF9D4A;}
	.st373{clip-path:url(#SVGID_44_);fill:#DFC781;}
	.st374{fill:#421A0D;}
	.st375{clip-path:url(#SVGID_20_);fill-rule:evenodd;clip-rule:evenodd;fill:#3E8144;}
	.st376{clip-path:url(#SVGID_46_);fill-rule:evenodd;clip-rule:evenodd;fill:#D97327;}
	.st377{clip-path:url(#SVGID_20_);fill-rule:evenodd;clip-rule:evenodd;fill:#70A151;}
	.st378{fill:#451500;}
	.st379{clip-path:url(#SVGID_42_);fill-rule:evenodd;clip-rule:evenodd;fill:#F6F9EE;}
	.st380{clip-path:url(#SVGID_34_);fill-rule:evenodd;clip-rule:evenodd;fill:#EBCA88;}
	.st381{clip-path:url(#SVGID_10_);fill:#E28C68;}
	.st382{clip-path:url(#SVGID_10_);fill:#E28C69;}
	.st383{clip-path:url(#SVGID_8_);fill-rule:evenodd;clip-rule:evenodd;fill:#E9F0D9;}
	.st384{clip-path:url(#SVGID_132_);fill:#AB2524;}
]]>
</style>
<g id="Layer_1">
</g>
<g id="Layer_2">
	<path class="st173" d="M13.56,14.25c-0.7,2.02-3.4,1.98-3.71,1.98c-0.62,0-1.2-0.1-1.38-0.14c-1.07-0.21-2.02-0.68-2.45-1.73
		c-0.21-0.54-0.21-0.99-0.21-1.52V4.92c0-0.25,0.02-0.52,0.04-0.76C5.9,3.23,6.14,2.51,6.88,1.91c0.6-0.47,1.4-0.84,3.01-0.84
		c0.93,0,1.92,0.12,2.72,0.66C13,1.99,13.33,2.36,13.52,2.8c0.23,0.47,0.25,0.76,0.25,1.65v2.23h-2.64V4.84
		c0-1.11-0.19-1.71-1.38-1.71c-1.03,0-1.24,0.64-1.24,1.59v7.79c0,0.95,0.21,1.65,1.32,1.65c1.2,0,1.3-0.68,1.3-1.79v-1.89h2.64
		v2.06C13.77,13.1,13.74,13.71,13.56,14.25"/>
	<path class="st173" d="M21.16,15.92l-0.35-2.37h-2.47l-0.39,2.37h-2.68l2.82-14.54h3.07l2.72,14.54H21.16z M19.64,5.06l-0.97,6.24
		h1.85L19.64,5.06z"/>
	<path class="st173" d="M33.15,9.14c-0.43,0.54-1.05,0.72-2.37,0.72h-2.27v6.06h-2.7V1.38h5.4c0.08,0,0.43,0,0.72,0.06
		c0.87,0.19,1.28,0.74,1.42,1.03c0.31,0.62,0.31,1.55,0.31,2.18v1.92C33.67,7.93,33.61,8.59,33.15,9.14 M31.03,5
		c0-0.41,0.06-0.85-0.21-1.17c-0.31-0.39-0.89-0.31-0.99-0.31h-1.32v4.26h1.3c0.56,0,0.87-0.06,1.03-0.29
		c0.19-0.25,0.19-0.72,0.19-1.01V5z"/>
	<rect x="35.98" y="1.38" class="st173" width="2.66" height="14.54"/>
	<polygon class="st173" points="45.81,3.48 45.81,15.92 43.11,15.92 43.11,3.48 40.43,3.48 40.43,1.38 48.51,1.38 48.51,3.48 	"/>
	<path class="st173" d="M55.37,15.92l-0.35-2.37h-2.47l-0.39,2.37h-2.68L52.3,1.38h3.07l2.72,14.54H55.37z M53.84,5.06l-0.97,6.24
		h1.85L53.84,5.06z"/>
	<polygon class="st173" points="60.03,15.92 60.03,1.38 62.7,1.38 62.7,13.71 66.64,13.71 66.64,15.92 	"/>
	<path class="st173" d="M81.54,14.25c-0.7,2.02-3.4,1.98-3.71,1.98c-0.62,0-1.2-0.1-1.38-0.14c-1.07-0.21-2.02-0.68-2.45-1.73
		c-0.21-0.54-0.21-0.99-0.21-1.52V4.92c0-0.25,0.02-0.52,0.04-0.76c0.04-0.93,0.29-1.65,1.03-2.25c0.6-0.47,1.4-0.84,3.01-0.84
		c0.93,0,1.92,0.12,2.72,0.66c0.39,0.27,0.72,0.64,0.91,1.07c0.23,0.47,0.25,0.76,0.25,1.65v2.23h-2.64V4.84
		c0-1.11-0.19-1.71-1.38-1.71c-1.03,0-1.24,0.64-1.24,1.59v7.79c0,0.95,0.21,1.65,1.32,1.65c1.2,0,1.3-0.68,1.3-1.79v-1.89h2.64
		v2.06C81.74,13.1,81.72,13.71,81.54,14.25"/>
	<rect x="84.07" y="1.38" class="st173" width="2.66" height="14.54"/>
	<polygon class="st173" points="93.9,3.48 93.9,15.92 91.2,15.92 91.2,3.48 88.52,3.48 88.52,1.38 96.6,1.38 96.6,3.48 	"/>
	<rect x="98.39" y="1.38" class="st173" width="2.66" height="14.54"/>
	<polygon class="st173" points="103.83,15.92 103.83,1.38 110.88,1.38 110.88,3.58 106.51,3.58 106.51,7 110.63,7 110.63,9.2 
		106.51,9.2 106.51,13.67 111.08,13.67 111.08,15.92 	"/>
	<path class="st173" d="M120.71,14c-0.33,1.17-1.3,2.22-3.77,2.22c-1.03,0-2.12-0.14-2.99-0.82c-0.47-0.37-0.66-0.76-0.76-0.99
		c-0.16-0.41-0.29-0.68-0.29-1.5v-2.12h2.66v1.69c0,0.54-0.04,1.15,0.47,1.48c0.16,0.1,0.41,0.21,0.82,0.21
		c0.47,0,0.74-0.1,0.93-0.27c0.39-0.31,0.39-0.95,0.39-1.94c0-0.19,0.04-0.84-0.29-1.34c-0.21-0.31-0.51-0.49-0.62-0.58l-2.53-1.71
		c-0.56-0.37-0.85-0.6-1.22-1.19C113.21,6.63,113,6.07,113,4.84c0-0.21-0.02-1.24,0.35-2c0.83-1.77,3.32-1.77,3.61-1.77
		c0.43,0,2.76,0,3.52,1.92c0.14,0.37,0.23,0.51,0.23,1.22v1.44h-2.68V4.16c0-0.43-0.17-1.05-1.19-1.05c-0.62,0-1.2,0.23-1.2,1.44
		c0,0.06-0.04,0.93,0.29,1.4c0.08,0.12,0.27,0.27,0.56,0.47l2.59,1.79c0.19,0.12,0.76,0.56,1.2,1.13c0.64,0.84,0.58,1.48,0.58,2.51
		C120.85,12.97,120.85,13.45,120.71,14"/>
	<path class="st173" d="M126.89,8.72V8.69c0-1.34,1.09-2.41,2.43-2.41s2.43,1.08,2.43,2.41v0.03c0,1.34-1.09,2.41-2.43,2.41
		S126.89,10.05,126.89,8.72"/>
	<path class="st173" d="M145.84,14c-0.33,1.17-1.3,2.22-3.77,2.22c-1.03,0-2.12-0.14-2.99-0.82c-0.47-0.37-0.66-0.76-0.76-0.99
		c-0.16-0.41-0.29-0.68-0.29-1.5v-2.12h2.66v1.69c0,0.54-0.04,1.15,0.47,1.48c0.17,0.1,0.41,0.21,0.82,0.21
		c0.47,0,0.74-0.1,0.93-0.27c0.39-0.31,0.39-0.95,0.39-1.94c0-0.19,0.04-0.84-0.29-1.34c-0.21-0.31-0.51-0.49-0.62-0.58l-2.53-1.71
		c-0.56-0.37-0.85-0.6-1.22-1.19c-0.31-0.51-0.51-1.07-0.51-2.31c0-0.21-0.02-1.24,0.35-2c0.83-1.77,3.32-1.77,3.61-1.77
		c0.43,0,2.76,0,3.52,1.92c0.14,0.37,0.23,0.51,0.23,1.22v1.44h-2.68V4.16c0-0.43-0.17-1.05-1.19-1.05c-0.62,0-1.2,0.23-1.2,1.44
		c0,0.06-0.04,0.93,0.29,1.4c0.08,0.12,0.27,0.27,0.56,0.47l2.6,1.79c0.19,0.12,0.76,0.56,1.2,1.13c0.64,0.84,0.58,1.48,0.58,2.51
		C145.98,12.97,145.98,13.45,145.84,14"/>
	<polygon class="st173" points="152.83,3.48 152.83,15.92 150.13,15.92 150.13,3.48 147.45,3.48 147.45,1.38 155.52,1.38 
		155.52,3.48 	"/>
	<rect x="156.19" y="13.26" class="st173" width="2.41" height="2.66"/>
	<polygon class="st173" points="161.07,15.92 161.07,1.38 163.75,1.38 163.75,13.71 167.68,13.71 167.68,15.92 	"/>
	<path class="st173" d="M176.71,14.97c-1.03,1.34-3.01,1.26-3.36,1.26c-1.07,0-2.18-0.23-2.97-1.05c-0.14-0.14-0.43-0.49-0.62-0.99
		c-0.21-0.51-0.27-1.09-0.27-1.61V1.38h2.68v10.82c0,0.39,0,0.78,0.14,1.13c0.27,0.6,0.95,0.62,1.11,0.62c0.12,0,0.47,0,0.78-0.23
		c0.51-0.35,0.45-1.03,0.45-1.54V1.38h2.7v11.27C177.37,13.51,177.28,14.23,176.71,14.97"/>
	<path class="st173" d="M187.73,14.25c-0.7,2.02-3.4,1.98-3.71,1.98c-0.62,0-1.2-0.1-1.38-0.14c-1.07-0.21-2.02-0.68-2.45-1.73
		c-0.21-0.54-0.21-0.99-0.21-1.52V4.92c0-0.25,0.02-0.52,0.04-0.76c0.04-0.93,0.29-1.65,1.03-2.25c0.6-0.47,1.4-0.84,3.01-0.84
		c0.93,0,1.92,0.12,2.72,0.66c0.39,0.27,0.72,0.64,0.91,1.07c0.23,0.47,0.25,0.76,0.25,1.65v2.23h-2.64V4.84
		c0-1.11-0.19-1.71-1.38-1.71c-1.03,0-1.24,0.64-1.24,1.59v7.79c0,0.95,0.21,1.65,1.32,1.65c1.19,0,1.3-0.68,1.3-1.79v-1.89h2.64
		v2.06C187.94,13.1,187.92,13.71,187.73,14.25"/>
	<rect x="190.27" y="1.38" class="st173" width="2.66" height="14.54"/>
	<path class="st173" d="M200.77,15.92l-0.35-2.37h-2.47l-0.39,2.37h-2.68l2.82-14.54h3.07l2.72,14.54H200.77z M199.25,5.06
		l-0.97,6.24h1.85L199.25,5.06z"/>
	<path class="st173" d="M209.02,8.72V8.69c0-1.34,1.09-2.41,2.43-2.41c1.34,0,2.43,1.08,2.43,2.41v0.03c0,1.34-1.09,2.41-2.43,2.41
		C210.11,11.13,209.02,10.05,209.02,8.72"/>
	<path class="st173" d="M228.03,14.25c-0.7,2.02-3.4,1.98-3.71,1.98c-0.62,0-1.19-0.1-1.38-0.14c-1.07-0.21-2.02-0.68-2.45-1.73
		c-0.21-0.54-0.21-0.99-0.21-1.52V4.92c0-0.25,0.02-0.52,0.04-0.76c0.04-0.93,0.29-1.65,1.03-2.25c0.6-0.47,1.4-0.84,3.01-0.84
		c0.93,0,1.92,0.12,2.72,0.66c0.39,0.27,0.72,0.64,0.91,1.07c0.23,0.47,0.25,0.76,0.25,1.65v2.23h-2.64V4.84
		c0-1.11-0.18-1.71-1.38-1.71c-1.03,0-1.23,0.64-1.23,1.59v7.79c0,0.95,0.21,1.65,1.32,1.65c1.19,0,1.3-0.68,1.3-1.79v-1.89h2.64
		v2.06C228.24,13.1,228.22,13.71,228.03,14.25"/>
	<polygon class="st173" points="230.57,15.92 230.57,1.38 233.25,1.38 233.25,13.71 237.18,13.71 237.18,15.92 	"/>
	<polygon class="st173" points="239.01,15.92 239.01,1.38 246.06,1.38 246.06,3.58 241.69,3.58 241.69,7 245.81,7 245.81,9.2 
		241.69,9.2 241.69,13.67 246.27,13.67 246.27,15.92 	"/>
	<path class="st173" d="M253.4,15.92l-0.35-2.37h-2.47l-0.39,2.37h-2.68l2.82-14.54h3.07l2.72,14.54H253.4z M251.87,5.06l-0.97,6.24
		h1.85L251.87,5.06z"/>
	<polygon class="st173" points="262.92,15.92 260.34,5.02 260.57,15.92 258.05,15.92 258.05,1.38 261.49,1.38 264.11,12.05 
		263.84,1.38 266.29,1.38 266.29,15.92 	"/>
	<path class="st173" d="M282.45,13.47c-0.02,0.35-0.1,1.63-1.28,2.16c-0.64,0.29-1.38,0.29-2.06,0.29h-4.59V1.38h4.51
		c0.87,0,1.69-0.02,2.41,0.56c0.82,0.64,0.87,1.48,0.87,2.41v1.3c0,0.04,0,0.64-0.08,1.03c-0.27,1.22-1.17,1.34-1.61,1.42
		c0.84,0.16,1.17,0.37,1.44,0.7c0.45,0.6,0.41,1.28,0.41,1.96v2.06C282.47,13.04,282.45,13.26,282.45,13.47 M279.65,4.8
		c0-0.35-0.02-0.45-0.06-0.64c-0.18-0.68-0.76-0.7-1.32-0.7h-1.07v3.67h0.97c0.37,0,0.56-0.02,0.72-0.04
		c0.52-0.1,0.76-0.41,0.76-1.3V4.8z M279.83,10.65c0-0.43,0-0.6-0.08-0.8c-0.21-0.6-0.87-0.62-1.4-0.62h-1.15v4.59h1.13
		c0.23,0,0.47,0,0.68-0.04c0.58-0.08,0.82-0.43,0.82-1.42V10.65z"/>
	<path class="st173" d="M290.18,15.92l-0.35-2.37h-2.47l-0.39,2.37h-2.68l2.82-14.54h3.07l2.72,14.54H290.18z M288.65,5.06
		l-0.97,6.24h1.85L288.65,5.06z"/>
	<polygon class="st173" points="299.7,15.92 297.12,5.02 297.35,15.92 294.83,15.92 294.83,1.38 298.28,1.38 300.89,12.05 
		300.62,1.38 303.08,1.38 303.08,15.92 	"/>
	<path class="st173" d="M313.83,12.81c-0.08,1.54-0.78,2.33-1.36,2.66c-0.74,0.43-1.5,0.45-2.31,0.45h-4.31V1.38h4.92
		c0.39,0,1.22,0.06,2,0.72c0.99,0.85,1.07,1.92,1.07,3.11V12C313.85,12.27,313.85,12.54,313.83,12.81 M311.17,4.98
		c0-0.45,0.02-0.91-0.37-1.24c-0.35-0.29-0.8-0.25-1.21-0.25h-1.05v10.3h0.95c0.25,0,0.52,0,0.76-0.04c0.87-0.17,0.93-0.8,0.93-1.52
		V4.98z"/>
	<rect x="316.45" y="1.38" class="st173" width="2.66" height="14.54"/>
	<polygon class="st173" points="326.28,3.48 326.28,15.92 323.58,15.92 323.58,3.48 320.9,3.48 320.9,1.38 328.98,1.38 328.98,3.48 
			"/>
	<path class="st173" d="M7.81,34.55c-0.33,1.17-1.3,2.22-3.77,2.22c-1.03,0-2.12-0.14-2.99-0.82c-0.47-0.37-0.66-0.76-0.76-0.99
		C0.12,34.55,0,34.28,0,33.46v-2.12h2.66v1.69c0,0.54-0.04,1.15,0.47,1.48c0.16,0.1,0.41,0.21,0.82,0.21c0.47,0,0.74-0.1,0.93-0.27
		c0.39-0.31,0.39-0.95,0.39-1.94c0-0.19,0.04-0.85-0.29-1.34c-0.21-0.31-0.51-0.49-0.62-0.58l-2.53-1.71
		c-0.56-0.37-0.84-0.6-1.21-1.19c-0.31-0.52-0.51-1.07-0.51-2.31c0-0.21-0.02-1.24,0.35-2c0.82-1.77,3.32-1.77,3.61-1.77
		c0.43,0,2.76,0,3.52,1.92c0.14,0.37,0.23,0.51,0.23,1.22v1.44H5.13V24.7c0-0.43-0.17-1.05-1.2-1.05c-0.62,0-1.19,0.23-1.19,1.44
		c0,0.06-0.04,0.93,0.29,1.4c0.08,0.12,0.27,0.27,0.56,0.47l2.6,1.79c0.19,0.12,0.76,0.56,1.2,1.13c0.64,0.84,0.58,1.48,0.58,2.51
		C7.95,33.52,7.95,33.99,7.81,34.55"/>
	<path class="st173" d="M15.47,36.47l-0.35-2.37h-2.47l-0.39,2.37H9.58l2.82-14.54h3.07l2.72,14.54H15.47z M13.95,25.61l-0.97,6.24
		h1.85L13.95,25.61z"/>
	<polygon class="st173" points="29.57,36.47 29.81,23.86 27.46,36.47 24.97,36.47 22.56,23.86 22.77,36.47 20.13,36.47 20.13,21.92 
		24.5,21.92 26.21,32.1 27.94,21.92 32.24,21.92 32.24,36.47 	"/>
	<polygon class="st173" points="43.17,24.17 43.17,27.81 47.33,27.81 47.33,29.98 43.17,29.98 43.17,36.47 40.47,36.47 40.47,21.92 
		47.6,21.92 47.6,24.17 	"/>
	<polygon class="st173" points="49.35,36.47 49.35,21.92 56.39,21.92 56.39,24.13 52.03,24.13 52.03,27.55 56.15,27.55 56.15,29.75 
		52.03,29.75 52.03,34.22 56.6,34.22 56.6,36.47 	"/>
	<polygon class="st173" points="58.66,36.47 58.66,21.92 61.34,21.92 61.34,34.26 65.27,34.26 65.27,36.47 	"/>
	<path class="st173" d="M75.08,33.36c-0.08,1.54-0.78,2.33-1.36,2.66c-0.74,0.43-1.5,0.45-2.31,0.45h-4.31V21.92h4.92
		c0.39,0,1.21,0.06,2,0.72c0.99,0.85,1.07,1.92,1.07,3.11v6.8C75.1,32.82,75.1,33.09,75.08,33.36 M72.42,25.53
		c0-0.45,0.02-0.91-0.37-1.24c-0.35-0.29-0.8-0.25-1.22-0.25h-1.05v10.3h0.95c0.25,0,0.51,0,0.76-0.04c0.87-0.17,0.93-0.8,0.93-1.52
		V25.53z"/>
	<polygon class="st173" points="82.09,24.02 82.09,36.47 79.39,36.47 79.39,24.02 76.71,24.02 76.71,21.92 84.79,21.92 84.79,24.02 
			"/>
	<path class="st173" d="M89.75,29.27v-0.03c0-1.34,1.09-2.41,2.43-2.41c1.34,0,2.43,1.08,2.43,2.41v0.03c0,1.34-1.09,2.41-2.43,2.41
		C90.84,31.68,89.75,30.6,89.75,29.27"/>
	<path class="st173" d="M108.57,29.69c-0.43,0.54-1.05,0.72-2.37,0.72h-2.27v6.06h-2.7V21.92h5.4c0.08,0,0.43,0,0.72,0.06
		c0.86,0.19,1.28,0.74,1.42,1.03c0.31,0.62,0.31,1.55,0.31,2.18v1.92C109.08,28.47,109.02,29.13,108.57,29.69 M106.44,25.55
		c0-0.41,0.06-0.85-0.21-1.18c-0.31-0.39-0.89-0.31-0.99-0.31h-1.32v4.26h1.3c0.56,0,0.87-0.06,1.03-0.29
		c0.19-0.25,0.19-0.72,0.19-1.01V25.55z"/>
	<polygon class="st173" points="116.52,36.47 116.52,29.81 114.07,29.81 114.07,36.47 111.39,36.47 111.39,21.92 114.07,21.92 
		114.07,27.63 116.52,27.63 116.52,21.92 119.2,21.92 119.2,36.47 	"/>
	<path class="st173" d="M127.05,36.47l-0.35-2.37h-2.47l-0.39,2.37h-2.68l2.82-14.54h3.07l2.72,14.54H127.05z M125.53,25.61
		l-0.97,6.24h1.85L125.53,25.61z"/>
	<path class="st173" d="M139.27,34.55c-0.33,1.17-1.3,2.22-3.77,2.22c-1.03,0-2.12-0.14-2.99-0.82c-0.47-0.37-0.66-0.76-0.76-0.99
		c-0.17-0.41-0.29-0.68-0.29-1.5v-2.12h2.66v1.69c0,0.54-0.04,1.15,0.47,1.48c0.17,0.1,0.41,0.21,0.82,0.21
		c0.47,0,0.74-0.1,0.93-0.27c0.39-0.31,0.39-0.95,0.39-1.94c0-0.19,0.04-0.85-0.29-1.34c-0.21-0.31-0.51-0.49-0.62-0.58l-2.53-1.71
		c-0.56-0.37-0.84-0.6-1.21-1.19c-0.31-0.52-0.51-1.07-0.51-2.31c0-0.21-0.02-1.24,0.35-2c0.82-1.77,3.32-1.77,3.61-1.77
		c0.43,0,2.76,0,3.52,1.92c0.14,0.37,0.23,0.51,0.23,1.22v1.44h-2.68V24.7c0-0.43-0.17-1.05-1.19-1.05c-0.62,0-1.2,0.23-1.2,1.44
		c0,0.06-0.04,0.93,0.29,1.4c0.08,0.12,0.27,0.27,0.56,0.47l2.6,1.79c0.19,0.12,0.76,0.56,1.2,1.13c0.64,0.84,0.58,1.48,0.58,2.51
		C139.41,33.52,139.41,33.99,139.27,34.55"/>
	<polygon class="st173" points="141.87,36.47 141.87,21.92 148.91,21.92 148.91,24.13 144.54,24.13 144.54,27.55 148.66,27.55 
		148.66,29.75 144.54,29.75 144.54,34.22 149.12,34.22 149.12,36.47 	"/>
	<path class="st173" d="M158.74,34.55c-0.33,1.17-1.3,2.22-3.77,2.22c-1.03,0-2.12-0.14-2.99-0.82c-0.47-0.37-0.66-0.76-0.76-0.99
		c-0.16-0.41-0.29-0.68-0.29-1.5v-2.12h2.66v1.69c0,0.54-0.04,1.15,0.47,1.48c0.16,0.1,0.41,0.21,0.82,0.21
		c0.47,0,0.74-0.1,0.93-0.27c0.39-0.31,0.39-0.95,0.39-1.94c0-0.19,0.04-0.85-0.29-1.34c-0.21-0.31-0.51-0.49-0.62-0.58l-2.53-1.71
		c-0.56-0.37-0.85-0.6-1.22-1.19c-0.31-0.52-0.51-1.07-0.51-2.31c0-0.21-0.02-1.24,0.35-2c0.82-1.77,3.32-1.77,3.61-1.77
		c0.43,0,2.76,0,3.52,1.92c0.14,0.37,0.23,0.51,0.23,1.22v1.44h-2.68V24.7c0-0.43-0.16-1.05-1.19-1.05c-0.62,0-1.2,0.23-1.2,1.44
		c0,0.06-0.04,0.93,0.29,1.4c0.08,0.12,0.27,0.27,0.56,0.47l2.59,1.79c0.19,0.12,0.76,0.56,1.2,1.13c0.64,0.84,0.58,1.48,0.58,2.51
		C158.88,33.52,158.88,33.99,158.74,34.55"/>
	<path class="st173" d="M164.92,29.27v-0.03c0-1.34,1.09-2.41,2.43-2.41c1.33,0,2.43,1.08,2.43,2.41v0.03
		c0,1.34-1.09,2.41-2.43,2.41C166.01,31.68,164.92,30.6,164.92,29.27"/>
	<polygon class="st173" points="176.4,36.47 176.4,21.92 179.08,21.92 179.08,34.26 183.01,34.26 183.01,36.47 	"/>
	<path class="st173" d="M192.04,35.52c-1.03,1.34-3.01,1.26-3.36,1.26c-1.07,0-2.18-0.23-2.97-1.05c-0.14-0.14-0.43-0.49-0.62-0.99
		c-0.21-0.52-0.27-1.09-0.27-1.61V21.92h2.68v10.81c0,0.39,0,0.78,0.14,1.13c0.27,0.6,0.95,0.62,1.11,0.62c0.12,0,0.47,0,0.78-0.23
		c0.51-0.35,0.45-1.03,0.45-1.54V21.92h2.7v11.27C192.7,34.06,192.62,34.78,192.04,35.52"/>
	<polygon class="st173" points="200.3,36.47 197.73,25.57 197.95,36.47 195.44,36.47 195.44,21.92 198.88,21.92 201.5,32.59 
		201.23,21.92 203.68,21.92 203.68,36.47 	"/>
	<path class="st173" d="M214.09,34.8c-0.7,2.02-3.4,1.98-3.71,1.98c-0.62,0-1.19-0.1-1.38-0.14c-1.07-0.21-2.02-0.68-2.45-1.73
		c-0.21-0.54-0.21-0.99-0.21-1.52v-7.91c0-0.25,0.02-0.52,0.04-0.76c0.04-0.93,0.29-1.65,1.03-2.25c0.6-0.47,1.4-0.84,3.01-0.84
		c0.93,0,1.92,0.12,2.72,0.66c0.39,0.27,0.72,0.64,0.91,1.07c0.23,0.47,0.25,0.76,0.25,1.65v2.23h-2.64v-1.83
		c0-1.11-0.18-1.71-1.38-1.71c-1.03,0-1.24,0.64-1.24,1.59v7.79c0,0.95,0.21,1.65,1.32,1.65c1.2,0,1.3-0.68,1.3-1.79v-1.89h2.64
		v2.06C214.29,33.64,214.27,34.26,214.09,34.8"/>
	<polygon class="st173" points="221.75,36.47 221.75,29.81 219.3,29.81 219.3,36.47 216.62,36.47 216.62,21.92 219.3,21.92 
		219.3,27.63 221.75,27.63 221.75,21.92 224.43,21.92 224.43,36.47 	"/>
	<polygon class="st173" points="236.65,36.47 236.89,23.86 234.55,36.47 232.05,36.47 229.64,23.86 229.85,36.47 227.21,36.47 
		227.21,21.92 231.58,21.92 233.29,32.1 235.02,21.92 239.33,21.92 239.33,36.47 	"/>
	<path class="st173" d="M249.2,35.81c-0.87,0.8-2.04,0.97-3.15,0.97c-1.07,0-2.16-0.15-3.03-0.84c-0.43-0.35-0.64-0.7-0.72-0.91
		c-0.25-0.52-0.31-1.13-0.31-1.67V25.2c0-0.31-0.06-1.77,0.91-2.64c0.54-0.47,1.54-0.95,3.17-0.95c2.1,0,3.21,0.86,3.65,1.71
		c0.23,0.47,0.33,0.93,0.33,1.94v8.1C250.04,34.28,249.9,35.13,249.2,35.81 M247.34,25.45c0-0.08,0.06-0.74-0.17-1.17
		c-0.12-0.27-0.43-0.64-1.11-0.64c-0.14,0-0.54,0.02-0.86,0.27c-0.6,0.41-0.52,1.05-0.52,1.65v7.35c0,0.43-0.02,0.97,0.25,1.34
		c0.31,0.43,0.97,0.43,1.09,0.43s0.51-0.02,0.84-0.25c0.49-0.35,0.47-0.93,0.47-1.46V25.45z"/>
	<polygon class="st173" points="257.56,36.47 254.99,25.57 255.21,36.47 252.7,36.47 252.7,21.92 256.14,21.92 258.76,32.59 
		258.49,21.92 260.94,21.92 260.94,36.47 	"/>
	<polygon class="st173" points="263.72,36.47 263.72,21.92 270.77,21.92 270.77,24.13 266.4,24.13 266.4,27.55 270.52,27.55 
		270.52,29.75 266.4,29.75 266.4,34.22 270.98,34.22 270.98,36.47 	"/>
	<polygon class="st173" points="277.67,32.16 277.67,36.47 274.93,36.47 274.93,31.98 272.03,21.92 274.85,21.92 276.33,29.26 
		277.76,21.92 280.58,21.92 	"/>
	<polygon class="st173" points="287.79,36.47 287.79,21.92 290.47,21.92 290.47,34.26 294.4,34.26 294.4,36.47 	"/>
	<polygon class="st173" points="296.24,36.47 296.24,21.92 303.29,21.92 303.29,24.13 298.92,24.13 298.92,27.55 303.04,27.55 
		303.04,29.75 298.92,29.75 298.92,34.22 303.49,34.22 303.49,36.47 	"/>
	<polygon class="st173" points="316.08,36.47 313.26,36.47 311.86,26.54 310.29,36.47 307.43,36.47 304.77,21.92 307.55,21.92 
		309.02,32.88 310.58,21.92 313.11,21.92 314.64,32.88 316.16,21.92 318.88,21.92 	"/>
	<rect x="320.86" y="21.92" class="st173" width="2.66" height="14.54"/>
	<path class="st173" d="M333.86,34.55c-0.33,1.17-1.3,2.22-3.77,2.22c-1.03,0-2.12-0.14-2.99-0.82c-0.47-0.37-0.66-0.76-0.76-0.99
		c-0.16-0.41-0.29-0.68-0.29-1.5v-2.12h2.66v1.69c0,0.54-0.04,1.15,0.47,1.48c0.16,0.1,0.41,0.21,0.82,0.21
		c0.47,0,0.74-0.1,0.93-0.27c0.39-0.31,0.39-0.95,0.39-1.94c0-0.19,0.04-0.85-0.29-1.34c-0.21-0.31-0.51-0.49-0.62-0.58l-2.53-1.71
		c-0.56-0.37-0.84-0.6-1.22-1.19c-0.31-0.52-0.51-1.07-0.51-2.31c0-0.21-0.02-1.24,0.35-2c0.82-1.77,3.32-1.77,3.61-1.77
		c0.43,0,2.76,0,3.52,1.92c0.14,0.37,0.23,0.51,0.23,1.22v1.44h-2.68V24.7c0-0.43-0.17-1.05-1.19-1.05c-0.62,0-1.2,0.23-1.2,1.44
		c0,0.06-0.04,0.93,0.29,1.4c0.08,0.12,0.27,0.27,0.56,0.47l2.6,1.79c0.19,0.12,0.76,0.56,1.2,1.13c0.64,0.84,0.58,1.48,0.58,2.51
		C334.01,33.52,334.01,33.99,333.86,34.55"/>
	<path class="st283" d="M14.63,13.18c-0.7,2.02-3.4,1.98-3.71,1.98c-0.62,0-1.19-0.1-1.38-0.14c-1.07-0.21-2.02-0.68-2.45-1.73
		c-0.21-0.54-0.21-0.99-0.21-1.52V3.85c0-0.25,0.02-0.52,0.04-0.76c0.04-0.93,0.29-1.65,1.03-2.25C8.55,0.37,9.35,0,10.96,0
		c0.93,0,1.92,0.12,2.72,0.66c0.39,0.27,0.72,0.64,0.91,1.07c0.23,0.47,0.25,0.76,0.25,1.65V5.6h-2.64V3.77
		c0-1.11-0.18-1.71-1.38-1.71c-1.03,0-1.24,0.64-1.24,1.59v7.79c0,0.95,0.21,1.65,1.32,1.65c1.2,0,1.3-0.68,1.3-1.79v-1.9h2.64v2.06
		C14.83,12.03,14.81,12.65,14.63,13.18"/>
	<path class="st283" d="M22.23,14.85l-0.35-2.37h-2.47l-0.39,2.37h-2.68l2.82-14.54h3.07l2.72,14.54H22.23z M20.71,4l-0.97,6.24
		h1.85L20.71,4z"/>
	<path class="st283" d="M34.22,8.08c-0.43,0.54-1.05,0.72-2.37,0.72h-2.27v6.06h-2.7V0.31h5.4c0.08,0,0.43,0,0.72,0.06
		c0.87,0.19,1.28,0.74,1.42,1.03c0.31,0.62,0.31,1.55,0.31,2.18V5.5C34.74,6.86,34.67,7.52,34.22,8.08 M32.1,3.94
		c0-0.41,0.06-0.85-0.21-1.17c-0.31-0.39-0.89-0.31-0.99-0.31h-1.32v4.26h1.3c0.56,0,0.87-0.06,1.03-0.29
		c0.19-0.25,0.19-0.72,0.19-1.01V3.94z"/>
	<rect x="37.05" y="0.31" class="st283" width="2.66" height="14.54"/>
	<polygon class="st283" points="46.87,2.41 46.87,14.85 44.17,14.85 44.17,2.41 41.5,2.41 41.5,0.31 49.57,0.31 49.57,2.41 	"/>
	<path class="st283" d="M56.43,14.85l-0.35-2.37h-2.47l-0.39,2.37h-2.68l2.82-14.54h3.07l2.72,14.54H56.43z M54.91,4l-0.97,6.24
		h1.85L54.91,4z"/>
	<polygon class="st283" points="61.09,14.85 61.09,0.31 63.77,0.31 63.77,12.65 67.7,12.65 67.7,14.85 	"/>
	<path class="st283" d="M82.6,13.18c-0.7,2.02-3.4,1.98-3.71,1.98c-0.62,0-1.2-0.1-1.38-0.14c-1.07-0.21-2.02-0.68-2.45-1.73
		c-0.21-0.54-0.21-0.99-0.21-1.52V3.85c0-0.25,0.02-0.52,0.04-0.76c0.04-0.93,0.29-1.65,1.03-2.25C76.52,0.37,77.33,0,78.93,0
		c0.93,0,1.92,0.12,2.72,0.66c0.39,0.27,0.72,0.64,0.91,1.07c0.23,0.47,0.25,0.76,0.25,1.65V5.6h-2.64V3.77
		c0-1.11-0.19-1.71-1.38-1.71c-1.03,0-1.24,0.64-1.24,1.59v7.79c0,0.95,0.21,1.65,1.32,1.65c1.2,0,1.3-0.68,1.3-1.79v-1.9h2.64v2.06
		C82.81,12.03,82.79,12.65,82.6,13.18"/>
	<rect x="85.14" y="0.31" class="st283" width="2.66" height="14.54"/>
	<polygon class="st283" points="94.96,2.41 94.96,14.85 92.27,14.85 92.27,2.41 89.59,2.41 89.59,0.31 97.66,0.31 97.66,2.41 	"/>
	<rect x="99.46" y="0.31" class="st283" width="2.66" height="14.54"/>
	<polygon class="st283" points="104.9,14.85 104.9,0.31 111.94,0.31 111.94,2.51 107.58,2.51 107.58,5.93 111.7,5.93 111.7,8.14 
		107.58,8.14 107.58,12.61 112.15,12.61 112.15,14.85 	"/>
	<path class="st283" d="M121.77,12.94c-0.33,1.17-1.3,2.22-3.77,2.22c-1.03,0-2.12-0.14-2.99-0.82c-0.47-0.37-0.66-0.76-0.76-0.99
		c-0.17-0.41-0.29-0.68-0.29-1.5V9.72h2.66v1.69c0,0.54-0.04,1.15,0.47,1.48c0.17,0.1,0.41,0.21,0.82,0.21
		c0.47,0,0.74-0.1,0.93-0.27c0.39-0.31,0.39-0.95,0.39-1.94c0-0.19,0.04-0.84-0.29-1.34c-0.21-0.31-0.51-0.49-0.62-0.58l-2.53-1.71
		c-0.56-0.37-0.85-0.6-1.22-1.19c-0.31-0.51-0.51-1.07-0.51-2.31c0-0.21-0.02-1.24,0.35-2C115.24,0,117.73,0,118.02,0
		c0.43,0,2.76,0,3.52,1.92c0.14,0.37,0.23,0.51,0.23,1.22v1.44h-2.68V3.09c0-0.43-0.17-1.05-1.19-1.05c-0.62,0-1.2,0.23-1.2,1.44
		c0,0.06-0.04,0.93,0.29,1.4c0.08,0.12,0.27,0.27,0.56,0.47l2.6,1.79c0.19,0.12,0.76,0.56,1.2,1.13c0.64,0.85,0.58,1.48,0.58,2.51
		C121.92,11.91,121.92,12.38,121.77,12.94"/>
	<path class="st283" d="M127.95,7.65V7.62c0-1.34,1.09-2.41,2.43-2.41s2.43,1.08,2.43,2.41v0.03c0,1.34-1.09,2.41-2.43,2.41
		S127.95,8.99,127.95,7.65"/>
	<path class="st283" d="M146.91,12.94c-0.33,1.17-1.3,2.22-3.77,2.22c-1.03,0-2.12-0.14-2.99-0.82c-0.47-0.37-0.66-0.76-0.76-0.99
		c-0.17-0.41-0.29-0.68-0.29-1.5V9.72h2.66v1.69c0,0.54-0.04,1.15,0.47,1.48c0.17,0.1,0.41,0.21,0.82,0.21
		c0.47,0,0.74-0.1,0.93-0.27c0.39-0.31,0.39-0.95,0.39-1.94c0-0.19,0.04-0.84-0.29-1.34c-0.21-0.31-0.51-0.49-0.62-0.58l-2.53-1.71
		c-0.56-0.37-0.84-0.6-1.22-1.19c-0.31-0.51-0.51-1.07-0.51-2.31c0-0.21-0.02-1.24,0.35-2C140.38,0,142.87,0,143.16,0
		c0.43,0,2.76,0,3.52,1.92c0.14,0.37,0.23,0.51,0.23,1.22v1.44h-2.68V3.09c0-0.43-0.17-1.05-1.19-1.05c-0.62,0-1.2,0.23-1.2,1.44
		c0,0.06-0.04,0.93,0.29,1.4c0.08,0.12,0.27,0.27,0.56,0.47l2.6,1.79c0.19,0.12,0.76,0.56,1.2,1.13c0.64,0.85,0.58,1.48,0.58,2.51
		C147.05,11.91,147.05,12.38,146.91,12.94"/>
	<polygon class="st283" points="153.89,2.41 153.89,14.85 151.19,14.85 151.19,2.41 148.52,2.41 148.52,0.31 156.59,0.31 
		156.59,2.41 	"/>
	<rect x="157.25" y="12.2" class="st283" width="2.41" height="2.66"/>
	<polygon class="st283" points="162.14,14.85 162.14,0.31 164.81,0.31 164.81,12.65 168.75,12.65 168.75,14.85 	"/>
	<path class="st283" d="M177.77,13.91c-1.03,1.34-3.01,1.26-3.36,1.26c-1.07,0-2.18-0.23-2.97-1.05c-0.14-0.14-0.43-0.49-0.62-0.99
		c-0.21-0.52-0.27-1.09-0.27-1.61V0.31h2.68v10.81c0,0.39,0,0.78,0.14,1.13c0.27,0.6,0.95,0.62,1.11,0.62c0.12,0,0.47,0,0.78-0.23
		c0.52-0.35,0.45-1.03,0.45-1.54V0.31h2.7v11.27C178.43,12.44,178.35,13.16,177.77,13.91"/>
	<path class="st283" d="M188.8,13.18c-0.7,2.02-3.4,1.98-3.71,1.98c-0.62,0-1.19-0.1-1.38-0.14c-1.07-0.21-2.02-0.68-2.45-1.73
		c-0.21-0.54-0.21-0.99-0.21-1.52V3.85c0-0.25,0.02-0.52,0.04-0.76c0.04-0.93,0.29-1.65,1.03-2.25c0.6-0.47,1.4-0.84,3.01-0.84
		c0.93,0,1.92,0.12,2.72,0.66c0.39,0.27,0.72,0.64,0.91,1.07C188.98,2.2,189,2.49,189,3.38V5.6h-2.64V3.77
		c0-1.11-0.18-1.71-1.38-1.71c-1.03,0-1.24,0.64-1.24,1.59v7.79c0,0.95,0.21,1.65,1.32,1.65c1.2,0,1.3-0.68,1.3-1.79v-1.9H189v2.06
		C189,12.03,188.98,12.65,188.8,13.18"/>
	<rect x="191.33" y="0.31" class="st283" width="2.66" height="14.54"/>
	<path class="st283" d="M201.84,14.85l-0.35-2.37h-2.47l-0.39,2.37h-2.68l2.82-14.54h3.07l2.72,14.54H201.84z M200.32,4l-0.97,6.24
		h1.85L200.32,4z"/>
	<path class="st283" d="M210.08,7.65V7.62c0-1.34,1.09-2.41,2.43-2.41c1.34,0,2.43,1.08,2.43,2.41v0.03c0,1.34-1.09,2.41-2.43,2.41
		C211.17,10.06,210.08,8.99,210.08,7.65"/>
	<path class="st283" d="M229.1,13.18c-0.7,2.02-3.4,1.98-3.71,1.98c-0.62,0-1.19-0.1-1.38-0.14c-1.07-0.21-2.02-0.68-2.45-1.73
		c-0.21-0.54-0.21-0.99-0.21-1.52V3.85c0-0.25,0.02-0.52,0.04-0.76c0.04-0.93,0.29-1.65,1.03-2.25c0.6-0.47,1.4-0.84,3.01-0.84
		c0.93,0,1.92,0.12,2.72,0.66c0.39,0.27,0.72,0.64,0.91,1.07c0.23,0.47,0.25,0.76,0.25,1.65V5.6h-2.64V3.77
		c0-1.11-0.19-1.71-1.38-1.71c-1.03,0-1.23,0.64-1.23,1.59v7.79c0,0.95,0.21,1.65,1.32,1.65c1.19,0,1.3-0.68,1.3-1.79v-1.9h2.64
		v2.06C229.3,12.03,229.28,12.65,229.1,13.18"/>
	<polygon class="st283" points="231.63,14.85 231.63,0.31 234.31,0.31 234.31,12.65 238.25,12.65 238.25,14.85 	"/>
	<polygon class="st283" points="240.08,14.85 240.08,0.31 247.13,0.31 247.13,2.51 242.76,2.51 242.76,5.93 246.88,5.93 
		246.88,8.14 242.76,8.14 242.76,12.61 247.33,12.61 247.33,14.85 	"/>
	<path class="st283" d="M254.46,14.85l-0.35-2.37h-2.47l-0.39,2.37h-2.68l2.82-14.54h3.07l2.72,14.54H254.46z M252.94,4l-0.97,6.24
		h1.85L252.94,4z"/>
	<polygon class="st283" points="263.98,14.85 261.41,3.96 261.63,14.85 259.12,14.85 259.12,0.31 262.56,0.31 265.18,10.98 
		264.91,0.31 267.36,0.31 267.36,14.85 	"/>
	<path class="st283" d="M283.52,12.4c-0.02,0.35-0.1,1.63-1.28,2.16c-0.64,0.29-1.38,0.29-2.06,0.29h-4.59V0.31h4.51
		c0.87,0,1.69-0.02,2.41,0.56c0.82,0.64,0.87,1.48,0.87,2.41v1.3c0,0.04,0,0.64-0.08,1.03c-0.27,1.22-1.17,1.34-1.61,1.42
		c0.84,0.17,1.17,0.37,1.44,0.7c0.45,0.6,0.41,1.28,0.41,1.96v2.06C283.54,11.97,283.52,12.2,283.52,12.4 M280.71,3.73
		c0-0.35-0.02-0.45-0.06-0.64c-0.18-0.68-0.76-0.7-1.32-0.7h-1.07v3.67h0.97c0.37,0,0.56-0.02,0.72-0.04
		c0.52-0.1,0.76-0.41,0.76-1.3V3.73z M280.9,9.58c0-0.43,0-0.6-0.08-0.8c-0.21-0.6-0.87-0.62-1.4-0.62h-1.15v4.59h1.13
		c0.23,0,0.47,0,0.68-0.04c0.58-0.08,0.82-0.43,0.82-1.42V9.58z"/>
	<path class="st283" d="M291.24,14.85l-0.35-2.37h-2.47l-0.39,2.37h-2.68l2.82-14.54h3.07l2.72,14.54H291.24z M289.72,4l-0.97,6.24
		h1.85L289.72,4z"/>
	<polygon class="st283" points="300.76,14.85 298.19,3.96 298.41,14.85 295.9,14.85 295.9,0.31 299.34,0.31 301.96,10.98 
		301.69,0.31 304.14,0.31 304.14,14.85 	"/>
	<path class="st283" d="M314.9,11.74c-0.08,1.54-0.78,2.33-1.36,2.66c-0.74,0.43-1.5,0.45-2.31,0.45h-4.31V0.31h4.92
		c0.39,0,1.22,0.06,2,0.72c0.99,0.85,1.07,1.92,1.07,3.11v6.8C314.92,11.21,314.92,11.47,314.9,11.74 M312.24,3.91
		c0-0.45,0.02-0.91-0.37-1.24c-0.35-0.29-0.8-0.25-1.22-0.25h-1.05v10.3h0.95c0.25,0,0.52,0,0.76-0.04c0.87-0.17,0.93-0.8,0.93-1.52
		V3.91z"/>
	<rect x="317.52" y="0.31" class="st283" width="2.66" height="14.54"/>
	<polygon class="st283" points="327.34,2.41 327.34,14.85 324.64,14.85 324.64,2.41 321.97,2.41 321.97,0.31 330.04,0.31 
		330.04,2.41 	"/>
	<path class="st283" d="M8.87,33.48c-0.33,1.17-1.3,2.22-3.77,2.22c-1.03,0-2.12-0.14-2.99-0.82c-0.47-0.37-0.66-0.76-0.76-0.99
		c-0.17-0.41-0.29-0.68-0.29-1.51v-2.12h2.66v1.69c0,0.54-0.04,1.15,0.47,1.48c0.17,0.1,0.41,0.21,0.82,0.21
		c0.47,0,0.74-0.1,0.93-0.27c0.39-0.31,0.39-0.95,0.39-1.94c0-0.19,0.04-0.84-0.29-1.34c-0.21-0.31-0.51-0.49-0.62-0.58L2.9,27.82
		c-0.56-0.37-0.84-0.6-1.21-1.2c-0.31-0.51-0.51-1.07-0.51-2.31c0-0.21-0.02-1.24,0.35-2c0.82-1.77,3.32-1.77,3.61-1.77
		c0.43,0,2.76,0,3.52,1.92c0.14,0.37,0.23,0.51,0.23,1.22v1.44H6.19v-1.48c0-0.43-0.17-1.05-1.19-1.05c-0.62,0-1.2,0.23-1.2,1.44
		c0,0.06-0.04,0.93,0.29,1.4c0.08,0.12,0.27,0.27,0.56,0.47l2.59,1.79c0.19,0.12,0.76,0.56,1.2,1.13c0.64,0.84,0.58,1.48,0.58,2.51
		C9.02,32.45,9.02,32.93,8.87,33.48"/>
	<path class="st283" d="M16.54,35.4l-0.35-2.37h-2.47l-0.39,2.37h-2.68l2.82-14.54h3.07l2.72,14.54H16.54z M15.01,24.54l-0.97,6.24
		h1.85L15.01,24.54z"/>
	<polygon class="st283" points="30.63,35.4 30.88,22.79 28.53,35.4 26.04,35.4 23.63,22.79 23.83,35.4 21.2,35.4 21.2,20.86 
		25.56,20.86 27.27,31.03 29,20.86 33.31,20.86 33.31,35.4 	"/>
	<polygon class="st283" points="44.23,23.1 44.23,26.75 48.39,26.75 48.39,28.91 44.23,28.91 44.23,35.4 41.53,35.4 41.53,20.86 
		48.66,20.86 48.66,23.1 	"/>
	<polygon class="st283" points="50.42,35.4 50.42,20.86 57.46,20.86 57.46,23.06 53.09,23.06 53.09,26.48 57.21,26.48 57.21,28.68 
		53.09,28.68 53.09,33.15 57.67,33.15 57.67,35.4 	"/>
	<polygon class="st283" points="59.73,35.4 59.73,20.86 62.41,20.86 62.41,33.2 66.34,33.2 66.34,35.4 	"/>
	<path class="st283" d="M76.15,32.29c-0.08,1.54-0.78,2.33-1.36,2.66c-0.74,0.43-1.5,0.45-2.31,0.45h-4.31V20.86h4.92
		c0.39,0,1.22,0.06,2,0.72c0.99,0.84,1.07,1.92,1.07,3.11v6.8C76.17,31.75,76.17,32.02,76.15,32.29 M73.49,24.46
		c0-0.45,0.02-0.91-0.37-1.24c-0.35-0.29-0.8-0.25-1.22-0.25h-1.05v10.3h0.95c0.25,0,0.51,0,0.76-0.04c0.87-0.17,0.93-0.8,0.93-1.53
		V24.46z"/>
	<polygon class="st283" points="83.16,22.96 83.16,35.4 80.46,35.4 80.46,22.96 77.78,22.96 77.78,20.86 85.85,20.86 85.85,22.96 	
		"/>
	<path class="st283" d="M90.82,28.2v-0.03c0-1.34,1.09-2.41,2.43-2.41s2.43,1.08,2.43,2.41v0.03c0,1.34-1.09,2.41-2.43,2.41
		S90.82,29.54,90.82,28.2"/>
	<path class="st283" d="M109.63,28.62c-0.43,0.54-1.05,0.72-2.37,0.72H105v6.06h-2.7V20.86h5.4c0.08,0,0.43,0,0.72,0.06
		c0.87,0.19,1.28,0.74,1.42,1.03c0.31,0.62,0.31,1.55,0.31,2.18v1.92C110.15,27.41,110.09,28.07,109.63,28.62 M107.51,24.48
		c0-0.41,0.06-0.84-0.21-1.17C107,22.92,106.42,23,106.32,23H105v4.26h1.3c0.56,0,0.87-0.06,1.03-0.29
		c0.18-0.25,0.18-0.72,0.18-1.01V24.48z"/>
	<polygon class="st283" points="117.59,35.4 117.59,28.75 115.13,28.75 115.13,35.4 112.46,35.4 112.46,20.86 115.13,20.86 
		115.13,26.56 117.59,26.56 117.59,20.86 120.26,20.86 120.26,35.4 	"/>
	<path class="st283" d="M128.12,35.4l-0.35-2.37h-2.47l-0.39,2.37h-2.68l2.82-14.54h3.07l2.72,14.54H128.12z M126.59,24.54
		l-0.97,6.24h1.85L126.59,24.54z"/>
	<path class="st283" d="M140.33,33.48c-0.33,1.17-1.3,2.22-3.77,2.22c-1.03,0-2.12-0.14-2.99-0.82c-0.47-0.37-0.66-0.76-0.76-0.99
		c-0.17-0.41-0.29-0.68-0.29-1.51v-2.12h2.66v1.69c0,0.54-0.04,1.15,0.47,1.48c0.16,0.1,0.41,0.21,0.82,0.21
		c0.47,0,0.74-0.1,0.93-0.27c0.39-0.31,0.39-0.95,0.39-1.94c0-0.19,0.04-0.84-0.29-1.34c-0.21-0.31-0.51-0.49-0.62-0.58l-2.53-1.71
		c-0.56-0.37-0.85-0.6-1.22-1.2c-0.31-0.51-0.51-1.07-0.51-2.31c0-0.21-0.02-1.24,0.35-2c0.83-1.77,3.32-1.77,3.61-1.77
		c0.43,0,2.76,0,3.52,1.92c0.14,0.37,0.23,0.51,0.23,1.22v1.44h-2.68v-1.48c0-0.43-0.17-1.05-1.19-1.05c-0.62,0-1.2,0.23-1.2,1.44
		c0,0.06-0.04,0.93,0.29,1.4c0.08,0.12,0.27,0.27,0.56,0.47l2.6,1.79c0.19,0.12,0.76,0.56,1.2,1.13c0.64,0.84,0.58,1.48,0.58,2.51
		C140.48,32.45,140.48,32.93,140.33,33.48"/>
	<polygon class="st283" points="142.93,35.4 142.93,20.86 149.98,20.86 149.98,23.06 145.61,23.06 145.61,26.48 149.73,26.48 
		149.73,28.68 145.61,28.68 145.61,33.15 150.18,33.15 150.18,35.4 	"/>
	<path class="st283" d="M159.81,33.48c-0.33,1.17-1.3,2.22-3.77,2.22c-1.03,0-2.12-0.14-2.99-0.82c-0.47-0.37-0.66-0.76-0.76-0.99
		c-0.16-0.41-0.29-0.68-0.29-1.51v-2.12h2.66v1.69c0,0.54-0.04,1.15,0.47,1.48c0.17,0.1,0.41,0.21,0.82,0.21
		c0.47,0,0.74-0.1,0.93-0.27c0.39-0.31,0.39-0.95,0.39-1.94c0-0.19,0.04-0.84-0.29-1.34c-0.21-0.31-0.52-0.49-0.62-0.58l-2.53-1.71
		c-0.56-0.37-0.85-0.6-1.22-1.2c-0.31-0.51-0.51-1.07-0.51-2.31c0-0.21-0.02-1.24,0.35-2c0.82-1.77,3.32-1.77,3.61-1.77
		c0.43,0,2.76,0,3.52,1.92c0.14,0.37,0.23,0.51,0.23,1.22v1.44h-2.68v-1.48c0-0.43-0.17-1.05-1.19-1.05c-0.62,0-1.2,0.23-1.2,1.44
		c0,0.06-0.04,0.93,0.29,1.4c0.08,0.12,0.27,0.27,0.56,0.47l2.6,1.79c0.19,0.12,0.76,0.56,1.2,1.13c0.64,0.84,0.58,1.48,0.58,2.51
		C159.95,32.45,159.95,32.93,159.81,33.48"/>
	<path class="st283" d="M165.99,28.2v-0.03c0-1.34,1.09-2.41,2.43-2.41c1.34,0,2.43,1.08,2.43,2.41v0.03c0,1.34-1.09,2.41-2.43,2.41
		C167.08,30.61,165.99,29.54,165.99,28.2"/>
	<polygon class="st283" points="177.47,35.4 177.47,20.86 180.14,20.86 180.14,33.2 184.08,33.2 184.08,35.4 	"/>
	<path class="st283" d="M193.1,34.45c-1.03,1.34-3.01,1.26-3.36,1.26c-1.07,0-2.18-0.23-2.97-1.05c-0.14-0.14-0.43-0.49-0.62-0.99
		c-0.21-0.51-0.27-1.09-0.27-1.61V20.86h2.68v10.81c0,0.39,0,0.78,0.14,1.13c0.27,0.6,0.95,0.62,1.11,0.62c0.12,0,0.47,0,0.78-0.23
		c0.51-0.35,0.45-1.03,0.45-1.54V20.86h2.7v11.27C193.76,32.99,193.68,33.71,193.1,34.45"/>
	<polygon class="st283" points="201.37,35.4 198.79,24.5 199.02,35.4 196.51,35.4 196.51,20.86 199.95,20.86 202.56,31.53 
		202.29,20.86 204.75,20.86 204.75,35.4 	"/>
	<path class="st283" d="M215.15,33.73c-0.7,2.02-3.4,1.98-3.71,1.98c-0.62,0-1.19-0.1-1.38-0.14c-1.07-0.21-2.02-0.68-2.45-1.73
		c-0.21-0.54-0.21-0.99-0.21-1.52V24.4c0-0.25,0.02-0.52,0.04-0.76c0.04-0.93,0.29-1.65,1.03-2.25c0.6-0.47,1.4-0.84,3.01-0.84
		c0.93,0,1.92,0.12,2.72,0.66c0.39,0.27,0.72,0.64,0.91,1.07c0.23,0.47,0.25,0.76,0.25,1.65v2.23h-2.64v-1.83
		c0-1.11-0.19-1.71-1.38-1.71c-1.03,0-1.23,0.64-1.23,1.59v7.79c0,0.95,0.21,1.65,1.32,1.65c1.19,0,1.3-0.68,1.3-1.79v-1.89h2.64V32
		C215.36,32.58,215.34,33.2,215.15,33.73"/>
	<polygon class="st283" points="222.82,35.4 222.82,28.75 220.37,28.75 220.37,35.4 217.69,35.4 217.69,20.86 220.37,20.86 
		220.37,26.56 222.82,26.56 222.82,20.86 225.5,20.86 225.5,35.4 	"/>
	<polygon class="st283" points="237.71,35.4 237.96,22.79 235.61,35.4 233.12,35.4 230.71,22.79 230.92,35.4 228.28,35.4 
		228.28,20.86 232.65,20.86 234.36,31.03 236.09,20.86 240.39,20.86 240.39,35.4 	"/>
	<path class="st283" d="M250.26,34.74c-0.87,0.8-2.04,0.97-3.15,0.97c-1.07,0-2.16-0.15-3.03-0.85c-0.43-0.35-0.64-0.7-0.72-0.91
		c-0.25-0.52-0.31-1.13-0.31-1.67v-8.16c0-0.31-0.06-1.77,0.91-2.64c0.54-0.47,1.54-0.95,3.17-0.95c2.1,0,3.21,0.87,3.65,1.71
		c0.23,0.47,0.33,0.93,0.33,1.94v8.1C251.11,33.22,250.96,34.06,250.26,34.74 M248.41,24.38c0-0.08,0.06-0.74-0.16-1.18
		c-0.12-0.27-0.43-0.64-1.11-0.64c-0.14,0-0.54,0.02-0.87,0.27c-0.6,0.41-0.51,1.05-0.51,1.65v7.35c0,0.43-0.02,0.97,0.25,1.34
		c0.31,0.43,0.97,0.43,1.09,0.43c0.12,0,0.52-0.02,0.85-0.25c0.49-0.35,0.47-0.93,0.47-1.46V24.38z"/>
	<polygon class="st283" points="258.63,35.4 256.05,24.5 256.28,35.4 253.77,35.4 253.77,20.86 257.21,20.86 259.82,31.53 
		259.56,20.86 262.01,20.86 262.01,35.4 	"/>
	<polygon class="st283" points="264.79,35.4 264.79,20.86 271.84,20.86 271.84,23.06 267.47,23.06 267.47,26.48 271.59,26.48 
		271.59,28.68 267.47,28.68 267.47,33.15 272.04,33.15 272.04,35.4 	"/>
	<polygon class="st283" points="278.74,31.09 278.74,35.4 276,35.4 276,30.91 273.1,20.86 275.92,20.86 277.4,28.19 278.82,20.86 
		281.64,20.86 	"/>
	<polygon class="st283" points="288.86,35.4 288.86,20.86 291.54,20.86 291.54,33.2 295.47,33.2 295.47,35.4 	"/>
	<polygon class="st283" points="297.31,35.4 297.31,20.86 304.35,20.86 304.35,23.06 299.98,23.06 299.98,26.48 304.1,26.48 
		304.1,28.68 299.98,28.68 299.98,33.15 304.56,33.15 304.56,35.4 	"/>
	<polygon class="st283" points="317.15,35.4 314.32,35.4 312.92,25.47 311.36,35.4 308.49,35.4 305.84,20.86 308.62,20.86 
		310.08,31.82 311.65,20.86 314.18,20.86 315.71,31.82 317.23,20.86 319.95,20.86 	"/>
	<rect x="321.93" y="20.86" class="st283" width="2.66" height="14.54"/>
	<path class="st283" d="M334.93,33.48c-0.33,1.17-1.3,2.22-3.77,2.22c-1.03,0-2.12-0.14-2.99-0.82c-0.47-0.37-0.66-0.76-0.76-0.99
		c-0.17-0.41-0.29-0.68-0.29-1.51v-2.12h2.66v1.69c0,0.54-0.04,1.15,0.47,1.48c0.17,0.1,0.41,0.21,0.82,0.21
		c0.47,0,0.74-0.1,0.93-0.27c0.39-0.31,0.39-0.95,0.39-1.94c0-0.19,0.04-0.84-0.29-1.34c-0.21-0.31-0.51-0.49-0.62-0.58l-2.53-1.71
		c-0.56-0.37-0.84-0.6-1.21-1.2c-0.31-0.51-0.52-1.07-0.52-2.31c0-0.21-0.02-1.24,0.35-2c0.82-1.77,3.32-1.77,3.6-1.77
		c0.43,0,2.76,0,3.52,1.92c0.14,0.37,0.23,0.51,0.23,1.22v1.44h-2.68v-1.48c0-0.43-0.17-1.05-1.19-1.05c-0.62,0-1.2,0.23-1.2,1.44
		c0,0.06-0.04,0.93,0.29,1.4c0.08,0.12,0.27,0.27,0.56,0.47l2.6,1.79c0.18,0.12,0.76,0.56,1.19,1.13c0.64,0.84,0.58,1.48,0.58,2.51
		C335.07,32.45,335.07,32.93,334.93,33.48"/>
</g>
</svg>
